<svg width="100" height="100" viewBox="0 0 100 100" fill="none" xmlns="http://www.w3.org/2000/svg">
<circle cx="50" cy="50" r="44" fill="#2463EB"/>
<path d="M57.5 61.5H53V35.625H63.5L71 50V61.5H66.5" stroke="white" stroke-width="3.75" stroke-miterlimit="10" stroke-linecap="round" stroke-linejoin="round"/>
<path d="M33.5 61.5H29V52.875H53V61.5H42.5" stroke="white" stroke-width="3.75" stroke-miterlimit="10" stroke-linecap="round" stroke-linejoin="round"/>
<path d="M62 65.8125C64.4853 65.8125 66.5 63.8817 66.5 61.5C66.5 59.1183 64.4853 57.1875 62 57.1875C59.5147 57.1875 57.5 59.1183 57.5 61.5C57.5 63.8817 59.5147 65.8125 62 65.8125Z" stroke="white" stroke-width="3.75" stroke-miterlimit="10" stroke-linecap="round" stroke-linejoin="round"/>
<path d="M38 65.8125C40.4853 65.8125 42.5 63.8817 42.5 61.5C42.5 59.1183 40.4853 57.1875 38 57.1875C35.5147 57.1875 33.5 59.1183 33.5 61.5C33.5 63.8817 35.5147 65.8125 38 65.8125Z" stroke="white" stroke-width="3.75" stroke-miterlimit="10" stroke-linecap="round" stroke-linejoin="round"/>
<path d="M33.5 47.125C31.85 47.125 30.5 45.8313 30.5 44.25V38.5C30.5 36.9187 31.85 35.625 33.5 35.625C35.15 35.625 36.5 36.9187 36.5 38.5V44.25C36.5 45.8313 35.15 47.125 33.5 47.125Z" stroke="white" stroke-width="3.75" stroke-miterlimit="10" stroke-linecap="round" stroke-linejoin="round"/>
<path d="M41.75 38.5C42.9926 38.5 44 37.5346 44 36.3438C44 35.1529 42.9926 34.1875 41.75 34.1875C40.5074 34.1875 39.5 35.1529 39.5 36.3438C39.5 37.5346 40.5074 38.5 41.75 38.5Z" fill="white"/>
<path d="M47.75 48.5625C48.9926 48.5625 50 47.5971 50 46.4062C50 45.2154 48.9926 44.25 47.75 44.25C46.5074 44.25 45.5 45.2154 45.5 46.4062C45.5 47.5971 46.5074 48.5625 47.75 48.5625Z" fill="white"/>
<path d="M48.5 35.625L41 47.125" stroke="white" stroke-width="3.75" stroke-miterlimit="10" stroke-linecap="round" stroke-linejoin="round"/>
<path d="M57.5 35.625V47.125H69.5" stroke="white" stroke-width="3.75" stroke-miterlimit="10" stroke-linecap="round" stroke-linejoin="round"/>
</svg>
