<svg width="100" height="100" viewBox="0 0 100 100" fill="none" xmlns="http://www.w3.org/2000/svg">
<circle cx="50" cy="50" r="44" fill="#2463EB"/>
<path d="M55.1627 38.0857C55.0725 37.5568 54.6142 37.1699 54.0773 37.1699L29.3216 37.1699C28.6081 37.1699 28.0304 37.7483 28.0304 38.4604C28.0304 39.1738 28.6081 39.7515 29.3216 39.7515L35.3462 39.7515C36.0597 39.7515 36.6373 40.33 36.6373 41.0427C36.6373 41.7555 36.0597 42.3339 35.3462 42.3339L27.2911 42.3339C26.5783 42.3339 26 42.9122 26 43.625C26 44.3378 26.5783 44.9154 27.2911 44.9154L38.2706 44.9154C38.9006 44.9154 39.4117 45.4272 39.4117 46.0572C39.4117 46.6872 38.9006 47.1984 38.2706 47.1984L32.4373 47.1984C31.7239 47.1984 31.1462 47.7768 31.1462 48.4896C31.1462 49.2023 31.7239 49.7807 32.4373 49.7807L36.7364 49.7807C37.367 49.7807 37.8782 50.2918 37.8782 50.9218C37.8782 51.5517 37.367 52.063 36.7364 52.063L30.8014 52.063C30.088 52.063 29.5103 52.6413 29.5103 53.3541C29.5103 54.0669 30.088 54.6452 30.8014 54.6452L38.959 54.6452L39.4735 57.5554L42.4285 57.5554C42.2547 57.9776 42.1556 58.4386 42.1556 58.924C42.1556 60.9157 43.7698 62.53 45.7616 62.53C47.7525 62.53 49.3668 60.9157 49.3668 58.924C49.3668 58.4386 49.2677 57.9776 49.0939 57.5554L58.4727 57.5554L55.1627 38.0857ZM47.3133 58.9239C47.3133 59.7813 46.6189 60.4757 45.7615 60.4757C44.9035 60.4757 44.209 59.7813 44.209 58.9239C44.209 58.3272 44.549 57.8154 45.0426 57.5553L46.4797 57.5553C46.9732 57.8154 47.3133 58.3272 47.3133 58.9239Z" fill="white"/>
<path d="M73.9622 55.2941L72.4811 47.9872L67.0727 39.666L57.2256 39.666L60.2757 57.5553L63.8775 57.5553C63.7045 57.9776 63.6053 58.4385 63.6053 58.9239C63.6053 60.9156 65.2196 62.5299 67.2105 62.5299C69.2023 62.5299 70.8165 60.9156 70.8165 58.9239C70.8165 58.4385 70.7174 57.9776 70.5437 57.5553L72.1132 57.5553C72.6793 57.5553 73.2156 57.3014 73.574 56.8629C73.9318 56.4251 74.0749 55.8488 73.9622 55.2941ZM62.7995 42.9951L65.2664 42.9951L68.4691 47.9214L63.6399 47.9214L62.7995 42.9951ZM68.763 58.9239C68.763 59.7813 68.0686 60.4757 67.2105 60.4757C66.3538 60.4757 65.6588 59.7813 65.6588 58.9239C65.6588 58.3272 65.9996 57.8154 66.4924 57.5553L67.9295 57.5553C68.423 57.8154 68.763 58.3272 68.763 58.9239Z" fill="white"/>
</svg>
