<svg width="100" height="100" viewBox="0 0 100 100" fill="none" xmlns="http://www.w3.org/2000/svg">
<circle cx="50" cy="50" r="44" fill="#2463EB"/>
<path d="M41.875 37.75C41.875 34.6484 44.3984 32.125 47.5 32.125C50.6016 32.125 53.125 34.6484 53.125 37.75C53.125 39.5804 52.2329 41.1936 50.875 42.2207V37.75C50.875 35.8893 49.3608 34.375 47.5 34.375C45.6393 34.375 44.125 35.8893 44.125 37.75V42.2207C42.7671 41.1936 41.875 39.5804 41.875 37.75ZM61 45.625C59.758 45.625 58.75 46.633 58.75 47.875V46.75C58.75 45.508 57.742 44.5 56.5 44.5C55.258 44.5 54.25 45.508 54.25 46.75V45.625C54.25 44.383 53.242 43.375 52 43.375C50.758 43.375 49.75 44.383 49.75 45.625V37.75C49.75 36.508 48.742 35.5 47.5 35.5C46.258 35.5 45.25 36.508 45.25 37.75V49.3116C44.9181 49.1193 44.5368 49 44.125 49C42.883 49 41.875 50.008 41.875 51.25V54.625C41.875 55.1357 42.0494 55.6319 42.3678 56.0301L46.375 62.5H59.875L62.4546 58.7954C62.8923 58.3577 63.25 57.4937 63.25 56.875V47.875C63.25 46.633 62.242 45.625 61 45.625ZM46.375 63.625V64.75C46.375 65.371 46.8779 65.875 47.5 65.875H58.75C59.3721 65.875 59.875 65.371 59.875 64.75V63.625H46.375Z" fill="white"/>
</svg>
