<svg width="100" height="100" viewBox="0 0 100 100" fill="none" xmlns="http://www.w3.org/2000/svg">
<circle cx="50" cy="50" r="44" fill="#2463EB"/>
<g clip-path="url(#clip0_220_1167)">
<path d="M32.5312 48.1875V50.4043C41.3984 63.7051 59.1328 63.7051 68 50.4043V48.1875C59.1328 34.8867 41.3984 34.8867 32.5312 48.1875ZM50.2656 58.1631C45.3679 58.1631 41.3984 54.1936 41.3984 49.2959C41.3984 44.3982 45.3679 40.4287 50.2656 40.4287C55.1634 40.4287 59.1328 44.3982 59.1328 49.2959C59.1328 54.1936 55.1634 58.1631 50.2656 58.1631ZM50.2656 44.3081C50.2656 43.7331 50.3834 43.1928 50.5635 42.6732C50.4596 42.6663 50.3695 42.6455 50.2656 42.6455C46.5941 42.6455 43.6152 45.6243 43.6152 49.2959C43.6152 52.9675 46.5941 55.9463 50.2656 55.9463C53.9372 55.9463 56.916 52.9675 56.916 49.2959C56.916 49.192 56.8883 49.1019 56.8883 48.998C56.3757 49.1781 55.8284 49.2959 55.2534 49.2959C52.4963 49.2959 50.2656 47.0652 50.2656 44.3081Z" fill="white"/>
</g>
<defs>
<clipPath id="clip0_220_1167">
<rect width="35.4688" height="35.4688" fill="white" transform="translate(32.5312 32.5312)"/>
</clipPath>
</defs>
</svg>
