<svg width="100" height="100" viewBox="0 0 100 100" fill="none" xmlns="http://www.w3.org/2000/svg">
<circle cx="50" cy="50" r="44" fill="#2463EB"/>
<path d="M50.0514 43.9802C53.136 43.9802 55.6235 41.4925 55.6235 38.4081C55.6235 35.3236 53.1557 32.8359 50.0514 32.8359C46.9667 32.8359 44.4793 35.3236 44.4793 38.4081C44.499 41.5126 46.9866 43.9802 50.0514 43.9802ZM37.116 60.1197H27.106C23.8623 60.1197 23.6831 55.1645 27.1657 55.1645H35.8422L40.8173 47.841C42.29 45.8311 43.9617 44.8758 46.3297 44.8758H53.7527C56.121 44.8758 57.7925 45.7514 59.2651 47.841L64.2602 55.1645H72.9966C76.4991 55.1645 76.2801 60.1197 73.116 60.1197H63.106C62.31 60.1197 61.3547 59.841 60.7975 58.9854L56.9765 53.5327L56.9566 67.1846H43.2652L43.2453 53.5327L39.4243 58.9854C38.8671 59.8211 37.912 60.1197 37.116 60.1197Z" fill="white"/>
<path d="M27.2019 48.6346V49.5631C27.2019 50.0822 26.7826 50.4915 26.2734 50.4915C25.7641 50.4915 25.3447 50.0822 25.3447 49.5631V48.6346H24.4062V45.5993C24.4062 44.9304 24.8556 44.3811 25.4645 44.2115L26.5529 41.6255C26.7125 41.2461 27.082 40.9766 27.5214 40.9766H33.0825C33.5219 40.9766 33.8912 41.2461 34.051 41.6255L35.1292 44.2115C35.7382 44.3813 36.1875 44.9304 36.1875 45.5993V48.6344H35.2391V49.5629C35.2391 50.082 34.8199 50.4913 34.3106 50.4913C33.7914 50.4913 33.3821 50.082 33.3821 49.5629V48.6344L27.2019 48.6346ZM26.3331 46.9671C26.8523 46.9671 27.2715 46.5479 27.2715 46.0287C27.2715 45.5095 26.8523 45.0903 26.3331 45.0903C25.8139 45.0903 25.3947 45.5095 25.3947 46.0287C25.3947 46.5479 25.8141 46.9671 26.3331 46.9671ZM35.1392 46.0287C35.1392 45.5095 34.7199 45.0903 34.2007 45.0903C33.6815 45.0903 33.2623 45.5095 33.2623 46.0287C33.2623 46.5479 33.6815 46.9671 34.2007 46.9671C34.7199 46.9671 35.1392 46.5479 35.1392 46.0287ZM34.2007 44.1616L33.2723 41.9252C33.2322 41.8153 33.1225 41.7354 32.9928 41.7354H27.6012C27.4814 41.7354 27.3715 41.8153 27.3317 41.9252L26.4032 44.1616H34.2007Z" fill="white"/>
<path d="M70.3297 39.2559V39.2549L70.3283 39.2553L70.3269 39.2549V39.2559L65.4688 40.8748V47.3545C65.4688 47.3545 65.5264 50.3518 70.3285 52.2143C75.1302 50.3518 75.1879 47.3545 75.1879 47.3545V40.8748L70.3297 39.2559ZM69.6984 47.6683L67.3298 45.3003L68.1894 44.4407L69.6994 45.9513L72.4684 43.1904L73.3264 44.0511L69.6984 47.6683Z" fill="white"/>
</svg>
