<svg width="34" height="34" viewBox="0 0 34 34" fill="none" xmlns="http://www.w3.org/2000/svg">
<circle cx="17" cy="17" r="14" fill="#2463EB"/>
<path d="M17.1544 11.7202C18.7915 11.7202 20.2532 12.4809 21.2085 13.6653L20.5814 14.1085L22.5551 14.7823L22.3499 12.8595L21.7973 13.2497C20.7102 11.8806 19.0341 11 17.1544 11C16.2287 11 15.352 11.2137 14.5706 11.5934L14.8006 12.2841C15.5083 11.9244 16.3076 11.7202 17.1544 11.7202Z" fill="white"/>
<path d="M22.3236 18.2676C22.1424 19.0408 21.7835 19.7835 21.2378 20.4302C20.182 21.682 18.6586 22.3087 17.1367 22.2756L17.2028 21.5101L15.415 22.5844L17.0168 23.6676L17.0752 22.9933C18.822 23.0448 20.5765 22.3312 21.7884 20.8949C22.3853 20.1871 22.7868 19.3795 23.0005 18.5371L22.3236 18.2676Z" fill="white"/>
<path d="M12.1094 19.0495C11.4876 17.5353 11.636 15.8944 12.3692 14.5603L13.0172 14.9728L12.8909 12.8906L11.1902 13.8104L11.7613 14.1737C10.9078 15.6989 10.7295 17.5845 11.4436 19.3231C11.7948 20.1801 12.3254 20.9093 12.9736 21.4883L13.5252 21.0128C12.9234 20.495 12.4307 19.8327 12.1094 19.0495Z" fill="white"/>
<path d="M17.1547 20.8883L17.2478 20.8803C17.2524 20.8803 17.2562 20.8808 17.2606 20.8808C18.5306 20.8808 19.6579 20.2621 20.3583 19.3106C20.4808 19.1443 20.5892 18.9672 20.684 18.7823C20.8963 18.3675 21.036 17.9091 21.0844 17.4239C21.0972 17.2981 21.1036 17.1705 21.1036 17.0414C21.1036 17.0219 21.1023 17.0024 21.1021 16.9827C21.0967 16.6302 21.0434 16.2889 20.9484 15.965C20.9133 15.8454 20.8728 15.7286 20.8267 15.6141C20.7331 15.3819 20.6179 15.1606 20.4823 14.9533C20.4211 14.8593 20.3558 14.7681 20.2866 14.6802C20.0972 14.4386 19.8797 14.2203 19.6392 14.0299C19.5567 13.9649 19.4719 13.9026 19.3842 13.8442C18.7752 13.4389 18.0445 13.2021 17.2598 13.2021C16.565 13.2021 15.9134 13.3884 15.3503 13.7117C15.2578 13.765 15.1676 13.8216 15.08 13.8819C14.8328 14.0527 14.606 14.2516 14.4052 14.4745C14.3275 14.5603 14.2538 14.6497 14.1843 14.7422C13.9917 14.9986 13.831 15.28 13.707 15.58C13.6594 15.6948 13.6176 15.8121 13.5815 15.9323C13.4836 16.2543 13.4283 16.594 13.4196 16.9453C13.4188 16.9776 13.417 17.0093 13.417 17.0416C13.417 17.159 13.4231 17.2748 13.4334 17.389C13.4721 17.8174 13.5815 18.2248 13.7493 18.6006C13.8367 18.7961 13.9391 18.9826 14.0565 19.1594C14.7267 20.1681 15.8612 20.8414 17.1527 20.8772C17.1545 20.8829 17.1547 20.8872 17.1547 20.8883ZM17.3502 18.688C17.765 18.6834 18.1657 18.6416 18.5495 18.5704C18.4588 18.9542 18.3415 19.3001 18.2239 19.5926C17.9526 19.6249 17.6741 19.6436 17.3899 19.6449C17.3756 19.3582 17.3612 19.0344 17.3502 18.688ZM17.7707 20.5245C17.6638 20.5403 17.5555 20.5508 17.4458 20.5565C17.435 20.4045 17.4215 20.2016 17.4076 19.96C17.6367 19.9585 17.8614 19.9465 18.0819 19.9249C17.9462 20.2206 17.8273 20.4294 17.7707 20.5245ZM18.3325 20.3969C18.2828 20.4127 18.2321 20.4261 18.1816 20.4399C18.2587 20.2959 18.3528 20.1066 18.4501 19.8801C18.5923 19.8591 18.733 19.8358 18.8705 19.8073C18.63 20.1066 18.4209 20.3133 18.3325 20.3969ZM18.5856 19.5401C18.6997 19.2345 18.8101 18.884 18.8916 18.4969C19.2036 18.4213 19.4995 18.3247 19.7788 18.2091C19.6233 18.6659 19.3929 19.0764 19.1601 19.4171C18.9743 19.4661 18.7819 19.5063 18.5856 19.5401ZM19.0824 20.053C19.1731 19.9426 19.2689 19.8194 19.365 19.6844C19.4806 19.6513 19.5948 19.6162 19.7065 19.5783C19.5177 19.7592 19.3074 19.917 19.0824 20.053ZM20.1441 19.0682C19.9807 19.1427 19.809 19.2099 19.6333 19.2708C19.8485 18.9088 20.0429 18.4907 20.1628 18.0318C20.3609 17.9306 20.5515 17.8228 20.7249 17.7024C20.6299 18.2035 20.428 18.6665 20.1441 19.0682ZM20.7887 17.0411C20.7887 17.1205 20.7852 17.1987 20.78 17.2768C20.6171 17.4075 20.438 17.5284 20.2451 17.6393C20.2753 17.4428 20.2917 17.2417 20.2881 17.035C20.2856 16.8841 20.272 16.7362 20.2502 16.591C20.4116 16.4805 20.561 16.3622 20.6947 16.2356C20.7554 16.4946 20.7887 16.7639 20.7887 17.0411ZM20.5966 15.8964C20.4751 16.025 20.3365 16.1457 20.1849 16.2579C20.1213 15.9996 20.0319 15.7524 19.9264 15.5185C20.0532 15.4222 20.1703 15.3192 20.2733 15.2092C20.4047 15.4242 20.5133 15.6545 20.5966 15.8964ZM19.4493 14.28C19.6917 14.4724 19.9092 14.6953 20.0939 14.9438C20.0042 15.0463 19.901 15.1429 19.787 15.2338C19.6325 14.942 19.4575 14.6758 19.2815 14.4414C19.3414 14.3899 19.3978 14.3364 19.4493 14.28ZM19.5236 15.4183C19.3207 15.5444 19.0927 15.6527 18.8452 15.7396C18.7676 15.4255 18.6725 15.1285 18.5705 14.8572C18.7348 14.7939 18.8854 14.7168 19.0232 14.6297C19.1972 14.8629 19.3719 15.1288 19.5236 15.4183ZM19.1967 14.0971C19.1639 14.1319 19.1262 14.1639 19.0891 14.1965C18.9933 14.0799 18.9003 13.9738 18.8126 13.8793C18.9451 13.9444 19.0742 14.0164 19.1967 14.0971ZM18.0945 13.6182C18.1785 13.691 18.4868 13.9679 18.8301 14.385C18.7161 14.4545 18.5905 14.516 18.4558 14.5675C18.2846 14.1565 18.1091 13.8206 17.9802 13.5926C18.0187 13.6008 18.0566 13.609 18.0945 13.6182ZM17.4596 13.5245C17.4993 13.5268 17.5393 13.5293 17.5783 13.5327C17.6843 13.7058 17.92 14.1142 18.1498 14.6617C17.9164 14.7204 17.6641 14.7537 17.3992 14.7537C17.3987 14.7537 17.3984 14.7537 17.3984 14.7537C17.4225 14.1811 17.4466 13.745 17.4596 13.5245ZM17.3853 15.0686C17.3902 15.0686 17.3948 15.0691 17.3994 15.0691C17.7053 15.0691 17.9974 15.0276 18.2669 14.9551C18.3686 15.2249 18.4645 15.5205 18.5411 15.8323C18.1872 15.9251 17.8027 15.9773 17.3994 15.9773C17.3846 15.9773 17.37 15.9763 17.3548 15.9761C17.3641 15.6533 17.3746 15.3484 17.3853 15.0686ZM17.3044 16.273C18.5216 16.2761 19.4339 15.8367 19.6584 15.7001C19.7624 15.9366 19.8879 16.3857 19.902 16.4452C19.9161 16.5046 19.9571 16.6548 19.9548 16.7734C19.9525 16.892 19.9443 17.5735 19.8866 17.8256C19.6276 17.9468 18.516 18.3716 17.341 18.3736C16.1658 18.3757 14.998 17.9737 14.7147 17.8443C14.6545 17.5866 14.6206 16.788 14.6906 16.4672C14.7206 16.3632 14.8571 15.8723 14.985 15.5997C15.194 15.7434 15.9754 16.18 17.3044 16.273ZM17.0743 19.6377C16.8281 19.6288 16.5867 19.6078 16.3513 19.5747C16.2373 19.288 16.1235 18.9511 16.0351 18.5786C16.3567 18.6373 16.6913 18.6739 17.0348 18.6857C17.0459 19.0298 17.0597 19.3521 17.0743 19.6377ZM15.9877 19.515C15.79 19.4771 15.5973 19.431 15.4103 19.3772C15.1904 19.0503 14.976 18.6619 14.8271 18.2309C15.0997 18.3413 15.389 18.4331 15.6926 18.5056C15.7718 18.8791 15.8773 19.2176 15.9877 19.515ZM15.1279 15.3204C15.2865 15.0322 15.4661 14.7701 15.6431 14.5418C15.7636 14.6302 15.8976 14.7089 16.0428 14.7778C15.938 15.0494 15.8384 15.3473 15.7566 15.6643C15.5245 15.5679 15.3137 15.4521 15.1279 15.3204ZM16.0561 15.7744C16.1363 15.4614 16.2345 15.1662 16.3385 14.8972C16.5652 14.9746 16.8112 15.0284 17.0705 15.053C17.0594 15.3335 17.0489 15.6386 17.0397 15.962C16.6913 15.9353 16.36 15.8713 16.0561 15.7744ZM17.144 13.5209C17.1307 13.7468 17.1071 14.1775 17.0835 14.7381C16.8609 14.7161 16.6513 14.6694 16.4574 14.6056C16.6821 14.0802 16.9083 13.6905 17.0087 13.5262C17.0533 13.5232 17.0986 13.5224 17.144 13.5209ZM16.5237 13.5957C16.5524 13.5895 16.5816 13.5839 16.6106 13.5785C16.4889 13.7919 16.3246 14.104 16.1609 14.487C16.0449 14.4314 15.935 14.3707 15.8381 14.301C16.2071 13.867 16.5186 13.6052 16.5263 13.599L16.5237 13.5957ZM15.844 13.8163C15.7669 13.8975 15.6847 13.9887 15.5993 14.0886C15.5676 14.0548 15.534 14.0212 15.5068 13.9856C15.6155 13.9228 15.7285 13.8675 15.844 13.8163ZM15.2435 14.1527C15.2904 14.2152 15.3429 14.2754 15.3998 14.3328C15.2207 14.5623 15.0385 14.826 14.875 15.1168C14.7569 15.0076 14.6532 14.8916 14.5684 14.7681C14.7656 14.5349 14.9926 14.3282 15.2435 14.1527ZM14.3693 15.0261C14.471 15.1593 14.5914 15.2843 14.727 15.4011C14.5935 15.6766 14.4815 15.972 14.4075 16.2827C14.2304 16.1554 14.0713 16.0168 13.9348 15.8679C14.0419 15.5664 14.1887 15.2838 14.3693 15.0261ZM13.7396 17.2438C13.7355 17.1766 13.7331 17.1093 13.7331 17.0411C13.7331 16.7536 13.7688 16.4741 13.8341 16.2064C13.986 16.3532 14.1574 16.4895 14.3447 16.6145C14.3252 16.7524 14.3127 16.8925 14.3101 17.035C14.3065 17.2502 14.3245 17.4595 14.3573 17.6627C14.1321 17.5366 13.9243 17.3965 13.7396 17.2438ZM14.2845 18.9293C14.0442 18.5522 13.8735 18.1277 13.7908 17.6721C13.9904 17.8138 14.2089 17.9429 14.4421 18.0585C14.5568 18.4864 14.7359 18.8786 14.9355 19.2219C14.707 19.1353 14.4887 19.0377 14.2845 18.9293ZM14.7052 19.4666C14.8658 19.5317 15.0331 19.5893 15.204 19.6423C15.337 19.8324 15.47 20.001 15.5911 20.1437C15.2611 19.9649 14.9619 19.7364 14.7052 19.4666ZM16.3047 20.4327C16.2632 20.3953 16.0047 20.1576 15.7021 19.7763C15.8399 19.8079 15.9808 19.835 16.1235 19.8586C16.2293 20.1071 16.3316 20.3108 16.4128 20.4614C16.3767 20.4525 16.3405 20.443 16.3047 20.4327ZM16.8196 20.537C16.7651 20.4466 16.6382 20.2267 16.4943 19.9108C16.6903 19.9334 16.8891 19.9483 17.0915 19.9554C17.1056 20.1998 17.1191 20.4066 17.1302 20.5624C17.0256 20.5585 16.9219 20.5493 16.8196 20.537Z" fill="white"/>
<path d="M16.6027 17.5705H15.9612V17.5685C16.028 17.528 16.098 17.4883 16.171 17.4504C16.2443 17.4127 16.3117 17.3699 16.3729 17.3228C16.4339 17.2761 16.4841 17.2213 16.5233 17.1588C16.5627 17.0965 16.5825 17.0194 16.5825 16.9287C16.5825 16.8542 16.5684 16.7883 16.5405 16.732C16.5133 16.6756 16.4733 16.6292 16.4226 16.5926C16.3716 16.556 16.3104 16.5283 16.2389 16.5101C16.1679 16.4919 16.0893 16.4824 16.004 16.4824C15.9087 16.4824 15.8228 16.4965 15.746 16.5232C15.6696 16.5503 15.6043 16.5903 15.5515 16.6425C15.4987 16.6951 15.4593 16.7589 15.4331 16.835C15.4073 16.9113 15.3973 16.9984 15.4032 17.096H15.7859C15.7831 17.0089 15.7977 16.9387 15.8297 16.8852C15.8613 16.8314 15.9181 16.8047 15.9999 16.8047C16.0475 16.8047 16.0877 16.817 16.1208 16.8426C16.1544 16.8675 16.1707 16.9126 16.1707 16.9777C16.1707 17.0035 16.1643 17.0266 16.1515 17.0471C16.1387 17.0676 16.1223 17.0858 16.1026 17.1019C16.0831 17.1183 16.0621 17.1334 16.0396 17.147C16.017 17.1606 15.997 17.1731 15.9794 17.1842C15.935 17.2108 15.8887 17.2382 15.8413 17.2667C15.7934 17.2938 15.7478 17.3233 15.7037 17.3543C15.6594 17.3843 15.6181 17.4173 15.5792 17.4529C15.541 17.4883 15.5064 17.5259 15.4767 17.5669C15.4413 17.6146 15.4147 17.6676 15.3965 17.726C15.3783 17.7842 15.3709 17.8482 15.3752 17.9172H16.603L16.6027 17.5705Z" fill="white"/>
<path d="M17.3546 17.9171H17.7784V17.6361H17.9697V17.2894H17.7784V16.499H17.3728L16.7251 17.2528V17.6358H17.3546V17.9171ZM17.0082 17.2897L17.3546 16.8923V17.2897H17.0082Z" fill="white"/>
<path d="M18.538 17.3586C18.538 17.3166 18.5434 17.2822 18.5539 17.2564C18.5641 17.2297 18.5767 17.2084 18.5921 17.1944C18.6079 17.1787 18.6251 17.1687 18.6441 17.1634C18.6628 17.158 18.6815 17.1554 18.6992 17.1554C18.7291 17.1554 18.7522 17.1608 18.7694 17.171C18.786 17.181 18.7993 17.1956 18.8088 17.2141C18.8185 17.232 18.8247 17.254 18.8267 17.2802C18.8298 17.3061 18.8314 17.3337 18.8314 17.3637V17.9174H19.2346V17.1923C19.2346 17.1311 19.2246 17.0783 19.2052 17.0332C19.1854 16.9884 19.1583 16.9515 19.125 16.9223C19.0909 16.8931 19.0522 16.871 19.0087 16.8559C18.9651 16.8408 18.9192 16.8334 18.8726 16.8334C18.787 16.8334 18.7184 16.8469 18.6689 16.8731C18.6187 16.8997 18.5764 16.933 18.5426 16.974H18.538V16.4629H18.1353V17.9174H18.538V17.3586Z" fill="white"/>
</svg>
