<svg width="34" height="34" viewBox="0 0 34 34" fill="none" xmlns="http://www.w3.org/2000/svg">
<circle cx="17" cy="17" r="14" fill="#2463EB"/>
<path d="M12.6267 19.6865C12.632 19.8944 12.4677 20.0672 12.2597 20.0725L10.3424 20.1209C10.1345 20.1261 9.96166 19.9618 9.95641 19.7539C9.95116 19.5459 10.1155 19.3731 10.3234 19.3679L12.2408 19.3195C12.4487 19.3142 12.6215 19.4785 12.6267 19.6865ZM12.6806 17.9097C12.6589 17.9142 12.6369 17.9166 12.6148 17.9172C12.5928 17.9177 12.5706 17.9164 12.5487 17.913C11.6306 17.7735 10.7813 17.3115 10.1572 16.612C9.52528 15.9038 9.16412 14.9938 9.14029 14.0496L9.08185 11.7336C9.07403 11.4239 9.26045 10.9851 10.193 10.654C10.791 10.4416 11.5828 10.313 12.4223 10.2918C13.2618 10.2706 14.059 10.3591 14.667 10.5411C15.6151 10.8247 15.8234 11.2535 15.8312 11.5633C15.8313 11.5656 15.8314 11.5678 15.8314 11.5701L15.8897 13.8792C15.9135 14.8234 15.5987 15.7505 15.0033 16.4897C14.4153 17.2198 13.5904 17.7241 12.6806 17.9097ZM15.1366 13.8983L15.0784 11.5899C14.9993 11.4139 14.1168 11.0026 12.4413 11.0448C10.7654 11.0871 9.90474 11.5427 9.83506 11.7223L9.89331 14.0306C9.93263 15.5886 11.0647 16.8932 12.5956 17.1576C14.1111 16.8163 15.176 15.4563 15.1366 13.8983ZM12.2748 20.6717L11.4175 20.6934C11.2095 20.6986 11.0452 20.8714 11.0504 21.0794C11.0557 21.2873 11.2285 21.4516 11.4365 21.4464L12.2939 21.4247C12.5018 21.4195 12.6661 21.2467 12.6609 21.0387C12.6556 20.8308 12.4828 20.6665 12.2748 20.6717ZM20.5105 21.7127C20.5157 21.9206 20.3514 22.0934 20.1435 22.0987L17.9696 22.1535C17.8167 22.9571 17.1192 23.5755 16.2689 23.597C15.397 23.619 14.6538 23.0058 14.4839 22.1798C14.1797 22.0919 13.9258 21.8968 13.7853 21.6316C13.7149 21.4985 13.6775 21.3565 13.6738 21.2092L13.6104 18.6986C13.6052 18.4907 13.7695 18.3179 13.9774 18.3126C14.1854 18.3074 14.3582 18.4717 14.3635 18.6796L14.4268 21.1902C14.4276 21.2203 14.4357 21.2503 14.4511 21.2794C14.4645 21.3047 14.4842 21.3302 14.5096 21.3542C14.7107 20.6169 15.377 20.0651 16.1793 20.0449C17.0295 20.0234 17.7572 20.6059 17.9506 21.4006L20.1244 21.3457C20.3324 21.3404 20.5052 21.5047 20.5105 21.7127ZM17.2473 21.7951C17.2331 21.231 16.7625 20.7836 16.1983 20.7978C15.637 20.812 15.1912 21.2779 15.2008 21.8383C15.201 21.843 15.2011 21.8477 15.2012 21.8524C15.2184 22.4138 15.6877 22.8582 16.25 22.844C16.8141 22.8297 17.2615 22.3592 17.2473 21.7951ZM25.6061 20.1054L25.6111 20.3486C25.6144 20.5064 25.6181 20.6863 25.6236 20.9077C25.635 21.3579 25.321 21.7559 24.8682 21.9157C24.741 22.7501 24.0293 23.4011 23.1566 23.4232C22.1772 23.4479 21.3603 22.6712 21.3356 21.6919C21.3109 20.7125 22.0876 19.8957 23.0669 19.871C23.868 19.8508 24.5604 20.3667 24.7994 21.0911C24.8454 21.0421 24.8721 20.985 24.8706 20.9266C24.865 20.7038 24.8613 20.5228 24.858 20.364L24.853 20.121C24.8468 19.8206 24.8382 19.4093 24.829 19.2174C24.8225 19.08 24.8159 18.9672 24.8038 18.8699L19.0116 19.0161C18.8765 19.0195 18.5601 19.0275 17.5675 18.0949C17.2652 17.8108 16.663 17.2052 16.5485 16.9465C16.4643 16.7564 16.5502 16.5339 16.7404 16.4497C16.9277 16.3667 17.1462 16.4488 17.2333 16.6329C17.2868 16.7233 17.6025 17.0912 18.0574 17.5215C18.6304 18.0634 18.9319 18.236 19.0136 18.2625L24.3617 18.1275C24.2377 18.0145 24.0789 17.8808 23.8749 17.709C23.7689 17.6199 23.6526 17.5219 23.5247 17.4128C23.4315 17.3333 23.3384 17.2488 23.2484 17.1671C23.1174 17.048 22.9818 16.925 22.8412 16.813C22.717 16.7142 22.5995 16.6202 22.4876 16.5308C21.0606 15.3895 20.677 15.0827 19.4987 15.1125L16.8994 15.1781C16.6915 15.1833 16.5187 15.019 16.5134 14.8111C16.5082 14.6031 16.6725 14.4303 16.8804 14.425L19.4797 14.3595C20.9328 14.3228 21.5257 14.797 22.9581 15.9425C23.0694 16.0315 23.1865 16.1251 23.3102 16.2235C23.4701 16.3508 23.6149 16.4823 23.7549 16.6095C23.8445 16.6909 23.9292 16.7678 24.0135 16.8396C24.1401 16.9476 24.2552 17.0445 24.3601 17.1328C25.2827 17.9096 25.5306 18.1183 25.5815 19.1814C25.5911 19.3835 25.5994 19.7838 25.6061 20.1054ZM24.1348 21.6173C24.1184 21.0551 23.6488 20.6098 23.0859 20.624C22.5218 20.6382 22.0744 21.1088 22.0886 21.6729C22.1028 22.237 22.5734 22.6844 23.1376 22.6702C23.7014 22.6559 24.1487 22.1858 24.1349 21.622C24.1348 21.6204 24.1348 21.6189 24.1348 21.6173ZM23.1027 21.2705L23.1018 21.2706C22.8938 21.2758 22.73 21.4486 22.7353 21.6566C22.7405 21.8645 22.9138 22.0288 23.1218 22.0235C23.3297 22.0183 23.494 21.8455 23.4888 21.6375C23.4835 21.4296 23.3107 21.2653 23.1027 21.2705ZM15.5062 18.7277C15.5115 18.9357 15.6843 19.1 15.8923 19.0947L16.3158 19.084C16.5238 19.0788 16.6881 18.906 16.6828 18.698C16.6776 18.4901 16.5048 18.3258 16.2968 18.331L15.8733 18.3417C15.6653 18.347 15.501 18.5198 15.5062 18.7277ZM16.2151 21.4444L16.214 21.4444C16.006 21.4496 15.8423 21.6224 15.8475 21.8304C15.8528 22.0383 16.0262 22.2026 16.2341 22.1974C16.4421 22.1921 16.6064 22.0193 16.6011 21.8114C16.5959 21.6034 16.4231 21.4391 16.2151 21.4444Z" fill="white"/>
</svg>
