<svg width="34" height="34" viewBox="0 0 34 34" fill="none" xmlns="http://www.w3.org/2000/svg">
<circle cx="17" cy="17" r="14" fill="#2463EB"/>
<path d="M12 12.3889L12.6944 11.6944M12.6944 11.6944L12 11M12.6944 11.6944L13.9992 12.9992M22 12.3889L20.8889 11.2778M22 21L20.2786 19.2786M20.2786 19.2786C19.466 20.1658 18.2979 20.7222 17 20.7222C14.5454 20.7222 12.5556 18.7324 12.5556 16.2778C12.5556 14.9798 13.112 13.8118 13.9992 12.9992M20.2786 19.2786L13.9992 12.9992M16.069 11.931C16.3692 11.867 16.6807 11.8333 17 11.8333C19.4546 11.8333 21.4444 13.8232 21.4444 16.2778C21.4444 16.5971 21.4108 16.9086 21.3468 17.2088" stroke="white" stroke-linecap="round" stroke-linejoin="round"/>
</svg>
