<svg width="90" height="18" viewBox="0 0 90 18" fill="none" xmlns="http://www.w3.org/2000/svg">
<g clip-path="url(#clip0_645_2629)">
<g clip-path="url(#clip1_645_2629)">
<g clip-path="url(#clip2_645_2629)">
<path d="M7.04998 2.72809C5.9906 2.72809 5.68432 3.19795 5.68432 4.23427V5.95344H8.51006L8.22683 8.73088H5.68541V17.1598H2.2943V8.73088H0.00976562V5.95344H2.2943V4.28148C2.2943 1.47988 3.42394 4.34996e-05 6.57573 4.34996e-05C7.23617 -0.00149343 7.89617 0.0376973 8.55178 0.117508V2.73138L7.04998 2.72809Z" fill="#1877F2"/>
<path d="M8.74512 11.2029C8.74512 8.07195 10.2283 5.71387 13.3361 5.71387C15.0311 5.71387 16.0664 6.58552 16.5615 7.66796V5.95319H19.8099V17.1596H16.5615V15.4646C16.0905 16.5481 15.0311 17.3956 13.3361 17.3956C10.2283 17.3956 8.74512 15.0408 8.74512 11.9066V11.2029ZM12.1351 11.9571C12.1351 13.6279 12.7466 14.7345 14.3242 14.7345C15.714 14.7345 16.4199 13.7223 16.4199 12.1217V10.9965C16.4199 9.3959 15.714 8.38373 14.3242 8.38373C12.7466 8.38373 12.1351 9.49031 12.1351 11.1612V11.9571Z" fill="#1877F2"/>
<path d="M26.8731 5.71777C28.1904 5.71777 29.4386 6.00101 30.1215 6.47087L29.3684 8.87286C28.6621 8.53649 27.8903 8.35953 27.108 8.3547C25.2714 8.3547 24.4733 9.41408 24.4733 11.2277V11.8863C24.4733 13.6999 25.2736 14.7593 27.108 14.7593C27.8903 14.7543 28.6621 14.5775 29.3684 14.2411L30.1215 16.642C29.4386 17.113 28.1915 17.3962 26.8731 17.3962C22.8935 17.3962 21.0811 15.2533 21.0811 11.8161V11.2979C21.0811 7.86069 22.8935 5.71777 26.8731 5.71777Z" fill="#1877F2"/>
<path d="M30.5684 11.985V10.997C30.5684 7.81886 32.3808 5.72754 36.0782 5.72754C39.5627 5.72754 41.093 7.8463 41.093 10.9542V12.7436H33.9573C34.0286 14.2739 34.7115 14.9568 36.592 14.9568C37.8644 14.9568 39.2059 14.6977 40.195 14.2739L40.8153 16.5958C39.9206 17.0679 38.0839 17.4203 36.4603 17.4203C32.169 17.4192 30.5684 15.2784 30.5684 11.985ZM33.9584 10.5249H38.0554V10.2428C38.0554 9.01876 37.5614 8.0472 36.0793 8.0472C34.5479 8.0483 33.9584 9.01437 33.9584 10.5206V10.5249Z" fill="#1877F2"/>
<path d="M53.6597 11.91C53.6597 15.0409 52.1535 17.399 49.0489 17.399C47.3539 17.399 46.177 16.5515 45.7061 15.468V17.163H42.5049V0.32594L45.8949 0.0185547V7.50558C46.3889 6.51756 47.4724 5.71616 49.05 5.71616C52.1579 5.71616 53.6608 8.07095 53.6608 11.2052L53.6597 11.91ZM50.2696 11.1327C50.2696 9.55518 49.6582 8.37833 48.0334 8.37833C46.6436 8.37833 45.8905 9.36636 45.8905 10.9681V12.1449C45.8905 13.7455 46.6436 14.7346 48.0334 14.7346C49.6582 14.7346 50.2696 13.5578 50.2696 11.9802V11.1327Z" fill="#1877F2"/>
<path d="M54.7939 11.8391V11.2749C54.7939 8.04841 56.6306 5.71777 60.3741 5.71777C64.1176 5.71777 65.9553 8.04841 65.9553 11.2749V11.8391C65.9553 15.0645 64.1187 17.3962 60.3752 17.3962C56.6317 17.3962 54.7939 15.0645 54.7939 11.8391ZM62.5642 11.0388C62.5642 9.5557 61.9516 8.37885 60.3686 8.37885C58.7856 8.37885 58.1785 9.5557 58.1785 11.0388V12.0752C58.1785 13.5583 58.7911 14.7351 60.3686 14.7351C61.9461 14.7351 62.5642 13.5583 62.5642 12.0752V11.0388Z" fill="#1877F2"/>
<path d="M67.082 11.8391V11.2749C67.082 8.04841 68.9187 5.71777 72.6622 5.71777C76.4057 5.71777 78.2423 8.04841 78.2423 11.2749V11.8391C78.2423 15.0645 76.4057 17.3962 72.6622 17.3962C68.9187 17.3962 67.082 15.0645 67.082 11.8391ZM74.8523 11.0388C74.8523 9.5557 74.2397 8.37885 72.6622 8.37885C71.0846 8.37885 70.4731 9.5557 70.4731 11.0388V12.0752C70.4731 13.5583 71.0846 14.7351 72.6622 14.7351C74.2397 14.7351 74.8523 13.5583 74.8523 12.0752V11.0388Z" fill="#1877F2"/>
<path d="M82.9038 11.2974L86.2466 5.95328H89.8485L86.341 11.4862L89.9901 17.1597H86.3882L82.9038 11.6706V17.1597H79.5127V0.32594L82.9038 0.0185547V11.2974Z" fill="#1877F2"/>
</g>
</g>
</g>
<defs>
<clipPath id="clip0_645_2629">
<rect width="90" height="17.42" fill="white"/>
</clipPath>
<clipPath id="clip1_645_2629">
<rect width="90" height="17.42" fill="white"/>
</clipPath>
<clipPath id="clip2_645_2629">
<rect width="89.9804" height="17.42" fill="white" transform="translate(0.00976562)"/>
</clipPath>
</defs>
</svg>
