<svg width="90" height="31" viewBox="0 0 90 31" fill="none" xmlns="http://www.w3.org/2000/svg">
<g clip-path="url(#clip0_645_2641)">
<g clip-path="url(#clip1_645_2641)">
<path d="M38.2999 15.6102C38.2999 19.8354 34.9945 22.9489 30.938 22.9489C26.8816 22.9489 23.5762 19.8354 23.5762 15.6102C23.5762 11.3552 26.8816 8.27148 30.938 8.27148C34.9945 8.27148 38.2999 11.3552 38.2999 15.6102ZM35.0772 15.6102C35.0772 12.9698 33.1615 11.1633 30.938 11.1633C28.7146 11.1633 26.7988 12.9698 26.7988 15.6102C26.7988 18.224 28.7146 20.0571 30.938 20.0571C33.1615 20.0571 35.0772 18.2207 35.0772 15.6102Z" fill="#EA4335"/>
<path d="M54.1817 15.6102C54.1817 19.8354 50.8763 22.9489 46.8199 22.9489C42.7634 22.9489 39.458 19.8354 39.458 15.6102C39.458 11.3585 42.7634 8.27148 46.8199 8.27148C50.8763 8.27148 54.1817 11.3552 54.1817 15.6102ZM50.959 15.6102C50.959 12.9698 49.0433 11.1633 46.8199 11.1633C44.5964 11.1633 42.6807 12.9698 42.6807 15.6102C42.6807 18.224 44.5964 20.0571 46.8199 20.0571C49.0433 20.0571 50.959 18.2207 50.959 15.6102Z" fill="#FBBC05"/>
<path d="M69.4016 8.71485V21.8901C69.4016 27.3097 66.2054 29.5232 62.4269 29.5232C58.87 29.5232 56.7293 27.1443 55.922 25.1988L58.7277 24.0308C59.2273 25.2252 60.4516 26.6347 62.4235 26.6347C64.8422 26.6347 66.341 25.1425 66.341 22.3334V21.278H66.2285C65.5072 22.168 64.1176 22.9455 62.364 22.9455C58.6946 22.9455 55.333 19.7493 55.333 15.6366C55.333 11.4942 58.6946 8.27148 62.364 8.27148C64.1143 8.27148 65.5039 9.04903 66.2285 9.9126H66.341V8.71816H69.4016V8.71485ZM66.5693 15.6366C66.5693 13.0525 64.8455 11.1633 62.6518 11.1633C60.4284 11.1633 58.5656 13.0525 58.5656 15.6366C58.5656 18.1943 60.4284 20.0571 62.6518 20.0571C64.8455 20.0571 66.5693 18.1943 66.5693 15.6366Z" fill="#4285F4"/>
<path d="M74.4479 0.992188V22.4987H71.3047V0.992188H74.4479Z" fill="#34A853"/>
<path d="M86.6963 18.0259L89.1977 19.6935C88.3904 20.8879 86.4449 22.9459 83.0832 22.9459C78.9143 22.9459 75.8008 19.7233 75.8008 15.6072C75.8008 11.2431 78.9407 8.26855 82.7226 8.26855C86.5309 8.26855 88.3937 11.2993 89.0025 12.9371L89.3367 13.7709L79.5264 17.834C80.2774 19.3064 81.4454 20.0574 83.0832 20.0574C84.7243 20.0574 85.8625 19.2501 86.6963 18.0259ZM78.997 15.3856L85.5548 12.6625C85.1942 11.746 84.1089 11.1074 82.8318 11.1074C81.194 11.1074 78.9143 12.5533 78.997 15.3856Z" fill="#EA4335"/>
<path d="M11.6784 13.7011V10.5876H22.1702C22.2728 11.1302 22.3257 11.7721 22.3257 12.4669C22.3257 14.8029 21.6872 17.6914 19.6292 19.7494C17.6274 21.8338 15.0698 22.9456 11.6817 22.9456C5.40177 22.9456 0.121094 17.8303 0.121094 11.5504C0.121094 5.27052 5.40177 0.155273 11.6817 0.155273C15.1558 0.155273 17.6307 1.51846 19.4902 3.29523L17.2932 5.4922C15.9598 4.24151 14.1533 3.26876 11.6784 3.26876C7.09252 3.26876 3.50589 6.96457 3.50589 11.5504C3.50589 16.1363 7.09252 19.8321 11.6784 19.8321C14.6529 19.8321 16.3469 18.6376 17.4322 17.5524C18.3123 16.6723 18.8913 15.415 19.1196 13.6978L11.6784 13.7011Z" fill="#4285F4"/>
</g>
</g>
<defs>
<clipPath id="clip0_645_2641">
<rect width="90" height="30.44" fill="white"/>
</clipPath>
<clipPath id="clip1_645_2641">
<rect width="89.9965" height="30.44" fill="white" transform="translate(0.00195312)"/>
</clipPath>
</defs>
</svg>
