<svg width="34" height="34" viewBox="0 0 34 34" fill="none" xmlns="http://www.w3.org/2000/svg">
<circle cx="17" cy="17" r="14" fill="#2463EB"/>
<path fill-rule="evenodd" clip-rule="evenodd" d="M15.9003 10.1822C15.6574 9.93927 15.2636 9.93927 15.0206 10.1822L10.1822 15.0206C9.93927 15.2636 9.93927 15.6574 10.1822 15.9004L10.6221 16.3402L18.0997 23.8178C18.3426 24.0607 18.7365 24.0607 18.9794 23.8178L19.4143 23.3829L19.4192 23.378L19.4243 23.3729L23.3733 19.4239L23.378 19.4193L23.3826 19.4146L23.8178 18.9793C24.0607 18.7364 24.0607 18.3426 23.8178 18.0996L23.3825 17.6643L23.378 17.6598L23.3734 17.6553L16.344 10.6258C16.3427 10.6246 16.3415 10.6233 16.3403 10.6221C16.3389 10.6208 16.3377 10.6196 16.3365 10.6183L15.9003 10.1822ZM14.5808 12.3815L12.3815 14.5808C12.8674 15.0666 12.8674 15.8544 12.3815 16.3402L15.0207 18.9793L17.6598 21.6185C18.1456 21.1327 18.9334 21.1327 19.4192 21.6185L21.6186 19.4193C21.1327 18.9334 21.1327 18.1457 21.6186 17.6598L18.984 15.0253C20.0115 16.0586 19.7851 17.7339 18.7594 18.7595C17.7323 19.7866 16.0535 20.0123 15.0207 18.9793C13.9878 17.9465 14.2135 16.2677 15.2406 15.2406C16.2662 14.215 17.9415 13.9884 18.9748 15.016L16.3402 12.3815C15.8544 12.8673 15.0666 12.8673 14.5808 12.3815C14.5808 12.3815 14.5808 12.3815 14.5808 12.3815ZM16.1203 16.1203C16.7937 15.4469 17.675 15.4757 18.0997 15.9004C18.5243 16.325 18.5531 17.2064 17.8797 17.8797C17.2063 18.5531 16.3251 18.5243 15.9003 18.0996C15.4757 17.675 15.4469 16.7937 16.1203 16.1203Z" fill="white"/>
</svg>
