<svg width="34" height="34" viewBox="0 0 34 34" fill="none" xmlns="http://www.w3.org/2000/svg">
<circle cx="17" cy="17" r="14" fill="#2463EB"/>
<path d="M23.8891 18.0302C23.4241 17.4442 22.571 17.359 21.9998 17.8383L19.9648 19.5458H19.0104C19.4867 19.3509 19.8308 18.8919 19.8454 18.358C19.8659 17.6102 19.2671 16.9966 18.5214 16.9966H14.5273V16.5926C14.5273 16.3554 14.3349 16.1631 14.0977 16.1631H11.4295C11.1923 16.1631 11 16.3554 11 16.5926V22.0907C11 22.3279 11.1923 22.5202 11.4295 22.5202H14.0978C14.335 22.5202 14.5273 22.3279 14.5273 22.0907V21.3878L15.3682 22.0933C15.5999 22.2877 15.894 22.3947 16.1964 22.3947H20.2218C20.5242 22.3947 20.8184 22.2877 21.0501 22.0933L23.6883 19.8797C24.2405 19.4163 24.3306 18.5866 23.8891 18.0302ZM13.6682 21.6611H11.859V17.0221H13.6682C13.6682 17.2983 13.6682 21.4635 13.6682 21.6611ZM23.1361 19.2216L20.4978 21.4352C20.4206 21.5 20.3225 21.5357 20.2217 21.5357H16.1964C16.0956 21.5357 15.9976 21.5 15.9203 21.4352L14.5272 20.2664V17.8556H18.5214C18.7821 17.8556 18.994 18.0698 18.9867 18.3346C18.9799 18.5838 18.7628 18.7867 18.5028 18.7867C18.316 18.7867 16.9823 18.7867 16.8132 18.7867C16.576 18.7867 16.3837 18.979 16.3837 19.2162C16.3837 19.4534 16.576 19.6457 16.8132 19.6457H17.5743L18.2396 20.2039C18.3941 20.3335 18.5902 20.4049 18.7918 20.4049H19.9649C20.1665 20.4049 20.3626 20.3335 20.5171 20.2039L22.552 18.4964C22.7516 18.329 23.0516 18.3567 23.2162 18.5642C23.3712 18.7595 23.3353 19.0544 23.1361 19.2216Z" fill="white"/>
<path d="M20.4675 12.0528L18.7425 11.8021L17.9711 10.239C17.8138 9.92042 17.3581 9.92024 17.2007 10.239L16.4293 11.8021L14.7043 12.0528C14.3527 12.1039 14.2117 12.5373 14.4663 12.7854L15.7145 14.0022L15.4198 15.7202C15.3597 16.0703 15.7283 16.3384 16.043 16.173L17.5859 15.3618L19.1288 16.173C19.4414 16.3374 19.8124 16.0727 19.752 15.7202L19.4573 14.0021L20.7055 12.7854C20.9599 12.5374 20.8193 12.1039 20.4675 12.0528ZM18.7582 15.0076C17.3602 14.2727 17.8173 14.2697 16.4136 15.0076C16.6807 13.4502 16.8238 13.8838 15.689 12.7777C17.2464 12.5515 16.8761 12.8379 17.5859 11.3996C18.2852 12.8166 17.9146 12.5499 19.4827 12.7777C18.3515 13.8804 18.4903 13.4455 18.7582 15.0076Z" fill="white"/>
</svg>
