<svg width="34" height="34" viewBox="0 0 34 34" fill="none" xmlns="http://www.w3.org/2000/svg">
<circle cx="17" cy="17" r="14" fill="#2463EB"/>
<path d="M18.6782 14.962C17.7423 14.962 16.8786 15.2188 16.2371 15.7331C15.5957 16.2475 15.1924 17.0287 15.1924 17.9882V17.989V17.9898C15.1925 18.0041 15.1939 18.8501 15.1939 18.8501L15.1924 20.0007H22.0726L22.0784 18.8501C22.0784 18.8501 22.0795 18.4344 22.0799 18.2748C22.0803 18.1152 22.0819 17.9826 22.0815 17.9943V17.9912V17.9881C22.0815 16.9325 21.5955 16.1452 20.9294 15.6582C20.2633 15.1711 19.4309 14.9619 18.6788 14.9619L18.6782 14.962ZM18.6782 15.5426C19.3198 15.5426 20.0442 15.7311 20.5855 16.127C21.1269 16.5229 21.5003 17.104 21.5003 17.9882C21.4995 18.0301 21.4991 18.1161 21.4987 18.2725C21.4983 18.4322 21.498 18.6406 21.4972 18.8485C21.4964 19.0553 21.4953 19.2612 21.4941 19.42H15.7766C15.7758 19.2612 15.7747 19.0551 15.7743 18.8485C15.7731 18.4338 15.7731 18.0336 15.7727 17.9882C15.7727 17.1859 16.0846 16.5991 16.5998 16.186C17.115 15.7728 17.8491 15.5426 18.6782 15.5426Z" fill="white"/>
<path d="M18.679 10C17.4565 10 16.4595 10.9954 16.4595 12.2165C16.4595 13.4377 17.4565 14.4338 18.679 14.4338C19.9015 14.4338 20.8993 13.4377 20.8993 12.2165C20.8993 10.9954 19.9015 10 18.679 10ZM18.679 10.5806C19.5883 10.5806 20.3188 11.3097 20.3188 12.2165C20.3188 13.1234 19.5883 13.8532 18.679 13.8532C17.7698 13.8532 17.0401 13.1234 17.0401 12.2165C17.0401 11.3097 17.7698 10.5806 18.679 10.5806Z" fill="white"/>
<path d="M15.0375 15.1924C14.1652 15.1924 13.4031 15.4346 12.8565 15.9234C12.31 16.4122 11.9999 17.1413 12 18.025V18.0258V18.0266C12.0001 18.042 12.0016 18.868 12.0016 18.868L12.0074 20.0005H14.3837H14.7058V19.4199H14.3837H12.5838C12.583 19.2651 12.5826 19.0672 12.5822 18.8673C12.5814 18.4596 12.5811 18.062 12.5807 18.0236C12.5809 17.272 12.8263 16.7299 13.2437 16.3566C13.661 15.9834 14.2717 15.7733 15.0361 15.773C15.1225 15.7738 15.3785 15.7989 15.3785 15.7989C15.3785 15.7989 15.674 15.4461 15.8079 15.2756L15.5214 15.231C15.362 15.2062 15.2006 15.1933 15.0391 15.1924H15.0383L15.0375 15.1924Z" fill="white"/>
<path d="M15.0086 10.7491C13.9059 10.7413 12.9984 11.6337 12.991 12.735C12.9835 13.8364 13.8788 14.7409 14.9816 14.7481C15.4586 14.7508 15.9188 14.5831 16.2813 14.2791C16.3253 14.2422 16.3675 14.2035 16.4083 14.1628L16.5557 14.0147L16.2038 13.5468L16.0482 13.7082C16.0196 13.7377 15.9396 13.8083 15.9085 13.8343C15.6512 14.0502 15.3237 14.1696 14.9847 14.1675C14.1951 14.1624 13.5662 13.5258 13.5716 12.739C13.5769 11.9521 14.2143 11.3241 15.0039 11.3296C15.2447 11.3312 15.4816 11.3936 15.6914 11.5112L15.9445 11.6535C15.9445 11.6535 16.126 11.1792 16.1515 11.1059L15.9753 11.0051C15.68 10.8395 15.3473 10.7515 15.0086 10.7491Z" fill="white"/>
</svg>
