<svg width="34" height="34" viewBox="0 0 34 34" fill="none" xmlns="http://www.w3.org/2000/svg">
<circle cx="17" cy="17" r="14" fill="#2463EB"/>
<path fill-rule="evenodd" clip-rule="evenodd" d="M15.8614 19.1765C15.6995 19.656 15.2627 20 14.75 20C14.2373 20 13.8005 19.656 13.6386 19.1765H12.3929C12.2887 19.1765 12.1888 19.133 12.1151 19.0558C12.0414 18.9786 12 18.8738 12 18.7647C12 17.6416 12 14.5349 12 13.4118C12 13.1843 12.1758 13 12.3929 13C13.8594 13 19.028 13 20.9471 13C21.3911 13 21.7967 13.2629 21.9953 13.679C22.3272 14.3749 22.8146 15.3965 22.9586 15.6983C22.9859 15.7553 23 15.8185 23 15.8824C23 16.3028 23 17.9782 23 18.7647C23 18.8738 22.9586 18.9786 22.8849 19.0558C22.8112 19.133 22.7112 19.1765 22.6071 19.1765H21.3614C21.1995 19.656 20.7627 20 20.25 20C19.7373 20 19.3005 19.656 19.1386 19.1765H15.8614ZM14.75 18.3529C14.9669 18.3529 15.1429 18.5374 15.1429 18.7647C15.1429 18.992 14.9669 19.1765 14.75 19.1765C14.5331 19.1765 14.3571 18.992 14.3571 18.7647C14.3571 18.5374 14.5331 18.3529 14.75 18.3529ZM20.25 18.3529C20.4669 18.3529 20.6429 18.5374 20.6429 18.7647C20.6429 18.992 20.4669 19.1765 20.25 19.1765C20.0331 19.1765 19.8571 18.992 19.8571 18.7647C19.8571 18.5374 20.0331 18.3529 20.25 18.3529ZM15.8614 18.3529H19.1386C19.3005 17.8734 19.7373 17.5294 20.25 17.5294C20.7627 17.5294 21.1995 17.8734 21.3614 18.3529H22.2143V16.2941H20.6429C20.426 16.2941 20.25 16.1096 20.25 15.8824C20.25 15.6551 20.426 15.4706 20.6429 15.4706H21.9715C21.9715 15.4706 21.5099 14.5031 21.2944 14.0512C21.2278 13.9116 21.0917 13.8235 20.943 13.8235C19.5647 13.8235 12.7857 13.8235 12.7857 13.8235V18.3529H13.6386C13.8005 17.8734 14.2373 17.5294 14.75 17.5294C15.2627 17.5294 15.6995 17.8734 15.8614 18.3529Z" fill="#F5F5F5"/>
</svg>
