<svg width="64" height="64" viewBox="0 0 64 64" fill="none" xmlns="http://www.w3.org/2000/svg">
<circle cx="32" cy="32" r="24" fill="#2463EB"/>
<path d="M32.6462 27.289C35.8791 27.289 38.4939 29.7756 38.4939 32.8501C38.4939 33.5174 38.3602 34.1609 38.1346 34.7567L39.4044 35.9643C39.8889 35.0189 40.1646 33.9702 40.1646 32.8501C40.1646 28.9017 36.798 25.7001 32.6462 25.7001C31.4683 25.7001 30.3656 25.9623 29.3715 26.423L30.6413 27.6306C31.2678 27.4161 31.9445 27.289 32.6462 27.289ZM41 27.0665L37.1572 24L36.0796 25.2155L39.9224 28.282L41 27.0665ZM25.0609 24.3416L24 25.3585L25.1111 26.4151L24.1838 27.1539L25.37 28.282L26.2973 27.5353L26.9656 28.1708C25.8211 29.426 25.1278 31.0626 25.1278 32.8501C25.1278 36.7984 28.486 40 32.6462 40C34.5258 40 36.2467 39.3406 37.5666 38.2522L39.4044 40L40.4654 38.9911L25.8713 25.1202L25.0609 24.3416ZM36.3803 37.1321C35.3695 37.9265 34.0663 38.4111 32.6462 38.4111C29.4133 38.4111 26.7985 35.9245 26.7985 32.8501C26.7985 31.4995 27.3081 30.2602 28.1435 29.2989L36.3803 37.1321ZM29.3214 25.1281L28.1351 24L27.4167 24.5641L28.6029 25.6922L29.3214 25.1281Z" fill="white"/>
</svg>
