<svg width="64" height="64" viewBox="0 0 64 64" fill="none" xmlns="http://www.w3.org/2000/svg">
<circle cx="32" cy="32" r="24" fill="#2463EB"/>
<path d="M37.4317 24.5379H40.8644V24H37.7323C36.1626 24 34.7952 24.5953 34.5295 26.6771L33.771 29.9886C33.7008 30.0209 33.6335 30.0566 33.569 30.0936L33.3911 28.5063C33.3911 28.5063 32.2694 27.0384 31.669 28.1541C31.0685 29.2698 31.669 29.6709 31.669 29.6709L33.4077 30.193C32.8202 30.5852 32.4425 31.1821 32.4425 31.8531V32.7323V33.7548V33.8684L31.0374 30.9154L31.0738 30.7763C31.1265 30.5761 31.0277 30.3614 30.8323 30.275C30.795 30.2585 30.7566 30.2496 30.7181 30.2442L30.1789 29.1109C30.0521 28.8439 29.9833 28.654 29.9632 28.5132C29.9362 28.3232 30.0073 28.2896 30.0413 28.2733C30.1392 28.2269 30.3022 28.2445 30.4569 28.3184C30.647 28.4091 30.804 28.5689 30.8989 28.7683L31.0953 28.675C30.9792 28.4307 30.7856 28.2342 30.5506 28.122C30.3327 28.0181 30.1075 28.0012 29.948 28.0769C29.8342 28.1311 29.7071 28.256 29.7482 28.5438C29.7712 28.707 29.8459 28.9169 29.9827 29.2043L30.4913 30.2735C30.3947 30.3145 30.312 30.3901 30.2661 30.4939L29.7533 31.6516L27.6635 31.8436C27.6474 31.8452 27.6298 31.8473 27.6138 31.8501C27.3653 31.8923 27.1741 32.07 27.102 32.2945C26.9796 32.4354 26.8831 32.603 26.8231 32.7925L25.9238 35.6328C25.8364 35.9089 25.8385 36.192 25.9135 36.4512L25.8776 37.4971L23.4009 37.8378C23.1695 37.8706 22.9928 38.0733 23.0002 38.3122C23.0082 38.5686 23.2224 38.7697 23.4785 38.762L26.5363 38.6672C26.8214 38.6586 27.0652 38.4432 27.1003 38.1514L27.1075 38.0923L27.1823 37.47C27.184 37.4703 27.1856 37.4703 27.1871 37.4703L28.2454 38.7022L25.6372 39.1909C25.4007 39.2359 25.2341 39.4566 25.2618 39.6997C25.2907 39.9542 25.5207 40.137 25.7754 40.1081L29.4598 39.6878C29.5559 39.6765 29.6531 39.641 29.737 39.5799C29.9976 39.3902 30.055 39.0252 29.8654 38.7648L29.8384 38.728L28.4561 36.8293C28.5236 36.7252 28.5792 36.6108 28.6187 36.4867L29.3414 34.2043L29.6983 34.5716L29.7361 34.6105C29.7801 34.6558 29.8349 34.6919 29.8977 34.7154L32.5682 35.712C32.5971 35.7228 32.6265 35.7293 32.6559 35.7337C32.8622 36.1251 33.2062 36.4565 33.6389 36.686V38.7249C33.6389 39.4151 34.4901 39.9739 35.5417 39.9739C36.5925 39.9739 37.4449 39.4149 37.4449 38.7249V37.0283H40.8641V34.3515H38.6087V33.6376H40.8641V33.4295H38.6686V32.7153H40.8641V29.5291H34.5763C34.524 29.5291 34.473 29.5335 34.4216 29.5355L35.2381 26.2656C35.3903 25.3383 36.4198 24.5379 37.4317 24.5379ZM29.7193 32.8163L30.2024 32.7342L30.2663 32.7234C30.4502 32.6918 30.6078 32.5563 30.6582 32.3639L30.952 31.2423L32.4423 34.375V34.7029L30.4714 33.7556L29.7193 32.8163ZM37.7751 32.6652V34.2976H34.3401V32.6652H37.7751Z" fill="white"/>
<path d="M28.1706 31.7045C29.022 31.7045 29.7123 31.0142 29.7123 30.1628C29.7123 29.3113 29.022 28.6211 28.1706 28.6211C27.3191 28.6211 26.6289 29.3113 26.6289 30.1628C26.6289 31.0142 27.3191 31.7045 28.1706 31.7045Z" fill="white"/>
</svg>
