<svg width="64" height="64" viewBox="0 0 64 64" fill="none" xmlns="http://www.w3.org/2000/svg">
<circle cx="32" cy="32" r="24" fill="#2463EB"/>
<path d="M32.1803 39.0068C32.4785 39.0068 32.7203 38.7649 32.7203 38.4668V25.5217C32.7203 25.2236 32.4785 24.9817 32.1803 24.9817H25.5198C25.2216 24.9817 24.9798 25.2236 24.9798 25.5217V38.4668C24.9798 38.7649 25.2216 39.0068 25.5198 39.0068H32.1803ZM32.1803 39.7268H25.5198C24.824 39.7268 24.2598 39.1626 24.2598 38.4668V25.5217C24.2598 24.8259 24.824 24.2617 25.5198 24.2617H32.1803C32.8761 24.2617 33.4403 24.8259 33.4403 25.5217V38.4668C33.4403 39.1626 32.8761 39.7268 32.1803 39.7268ZM39.0115 27.8079V36.6017C39.0115 37.4702 38.3074 38.1743 37.4389 38.1743C36.5697 38.1743 35.8657 37.4703 35.8657 36.6017C35.8657 36.4028 35.7045 36.2417 35.5057 36.2417C35.3068 36.2417 35.1457 36.4028 35.1457 36.6017C35.1457 37.8679 36.1721 38.8943 37.4383 38.8943C38.7051 38.8943 39.7315 37.8679 39.7315 36.6017V27.8079C39.7315 27.6091 39.5703 27.4479 39.3715 27.4479C39.1727 27.4479 39.0115 27.6091 39.0115 27.8079Z" fill="white"/>
<path d="M35.8665 36.702V29.4811C35.8665 29.2823 35.7053 29.1211 35.5065 29.1211C35.3077 29.1211 35.1465 29.2823 35.1465 29.4811V36.702C35.1465 36.9008 35.3077 37.062 35.5065 37.062C35.7053 37.062 35.8665 36.9008 35.8665 36.702Z" fill="white"/>
<path d="M35.8661 29.4242V28.8178C35.8661 27.9492 35.162 27.2451 34.2934 27.2451C33.4248 27.2451 32.7206 27.9492 32.7206 28.8178V29.4242C32.7206 29.6231 32.8817 29.7842 33.0806 29.7842C33.2794 29.7842 33.4406 29.6231 33.4406 29.4242V28.8178C33.4406 28.3469 33.8224 27.9651 34.2934 27.9651C34.7643 27.9651 35.1461 28.3469 35.1461 28.8178V29.4242C35.1461 29.6231 35.3072 29.7842 35.5061 29.7842C35.7049 29.7842 35.8661 29.6231 35.8661 29.4242ZM39.5672 27.4813L36.4961 24.4101C36.3555 24.2695 36.1276 24.2695 35.987 24.4101C35.8464 24.5507 35.8464 24.7787 35.987 24.9192L39.0581 27.9904C39.1987 28.131 39.4267 28.131 39.5672 27.9904C39.7078 27.8498 39.7078 27.6219 39.5672 27.4813ZM30.7138 27.9478C30.8133 27.9478 30.8938 27.8672 30.8938 27.7678V26.9578C30.8938 26.8584 30.8133 26.7778 30.7138 26.7778H26.9645C26.9408 26.7778 26.9174 26.7824 26.8956 26.7915C26.8737 26.8005 26.8539 26.8138 26.8372 26.8305C26.8204 26.8472 26.8072 26.8671 26.7981 26.8889C26.7891 26.9107 26.7844 26.9342 26.7845 26.9578V27.7678C26.7845 27.8672 26.865 27.9478 26.9645 27.9478H30.7138ZM30.7138 28.6678H26.9645C26.4674 28.6678 26.0645 28.2649 26.0645 27.7678V26.9578C26.0645 26.4607 26.4674 26.0578 26.9645 26.0578H30.7138C31.2109 26.0578 31.6139 26.4607 31.6139 26.9578V27.7678C31.6139 28.2649 31.2109 28.6678 30.7138 28.6678Z" fill="white"/>
<path d="M39.3296 29.3086H38.4687C38.2699 29.3086 38.1087 29.1474 38.1087 28.9486V26.36C38.1087 26.1612 37.9475 26 37.7487 26C37.5498 26 37.3887 26.1612 37.3887 26.36V28.9486C37.3887 29.545 37.8722 30.0286 38.4687 30.0286H39.3296C39.5284 30.0286 39.6896 29.8674 39.6896 29.6686C39.6896 29.4697 39.5284 29.3086 39.3296 29.3086Z" fill="white"/>
</svg>
