<svg width="100" height="100" viewBox="0 0 100 100" fill="none" xmlns="http://www.w3.org/2000/svg">
<circle cx="50" cy="50" r="43" fill="#2463EB"/>
<path d="M69.2616 60.3592L53.1102 44.2041C53.5757 42.0952 53.4477 39.8985 52.7406 37.858C52.0334 35.8174 50.7747 34.0128 49.1041 32.6445C47.4335 31.2762 45.4165 30.3977 43.277 30.1066C41.1375 29.8155 38.9592 30.1232 36.984 30.9955L35.2971 31.7385L42.0699 38.5127L38.5198 42.0762L31.7471 35.3019L31.0043 36.9766C30.1272 38.9521 29.8158 41.1325 30.1048 43.2747C30.3938 45.4169 31.2718 47.4367 32.641 49.1091C34.0102 50.7815 35.8168 52.0408 37.8595 52.7465C39.9022 53.4523 42.1007 53.5769 44.2099 53.1064L60.3613 69.2614C60.5952 69.4956 60.8728 69.6813 61.1785 69.808C61.4841 69.9348 61.8118 70 62.1426 70C62.4735 70 62.8011 69.9348 63.1068 69.808C63.4124 69.6813 63.6901 69.4956 63.9239 69.2614L69.2616 63.9226C69.4957 63.6887 69.6814 63.4109 69.8081 63.1052C69.9348 62.7995 70 62.4718 70 62.1409C70 61.8099 69.9348 61.4822 69.8081 61.1765C69.6814 60.8708 69.4957 60.593 69.2616 60.3592ZM62.1363 67.486L44.9653 50.2985L44.2477 50.4999C42.8813 50.8995 41.4405 50.9747 40.0398 50.7196C38.6392 50.4645 37.3174 49.886 36.1795 49.0303C35.0417 48.1745 34.119 47.0651 33.4851 45.7901C32.8511 44.5151 32.5232 43.1098 32.5276 41.6858C32.526 41.0598 32.5893 40.4353 32.7164 39.8223L38.5198 45.627L45.6451 38.5001L39.8416 32.708C41.39 32.3829 42.9961 32.4648 44.5033 32.9457C46.0105 33.4267 47.3674 34.2902 48.4415 35.452C49.5155 36.6138 50.2702 38.0343 50.6317 39.5749C50.9933 41.1154 50.9494 42.7234 50.5043 44.2419L50.3029 44.9596L67.4866 62.1472L62.1363 67.486Z" fill="white"/>
<path d="M69.2616 60.3592L53.1102 44.2041C53.5757 42.0952 53.4477 39.8985 52.7406 37.858C52.0334 35.8174 50.7747 34.0128 49.1041 32.6445C47.4335 31.2762 45.4165 30.3977 43.277 30.1066C41.1375 29.8155 38.9592 30.1232 36.984 30.9955L35.2971 31.7385L42.0699 38.5127L38.5198 42.0762L31.7471 35.3019L31.0043 36.9766C30.1272 38.9521 29.8158 41.1325 30.1048 43.2747C30.3938 45.4169 31.2718 47.4367 32.641 49.1091C34.0102 50.7815 35.8168 52.0408 37.8595 52.7465C39.9022 53.4523 42.1007 53.5769 44.2099 53.1064L60.3613 69.2614C60.5952 69.4956 60.8728 69.6813 61.1785 69.808C61.4841 69.9348 61.8118 70 62.1426 70C62.4735 70 62.8011 69.9348 63.1068 69.808C63.4124 69.6813 63.6901 69.4956 63.9239 69.2614L69.2616 63.9226C69.4957 63.6887 69.6814 63.4109 69.8081 63.1052C69.9348 62.7995 70 62.4718 70 62.1409C70 61.8099 69.9348 61.4822 69.8081 61.1765C69.6814 60.8708 69.4957 60.593 69.2616 60.3592ZM62.1363 67.486L44.9653 50.2985L44.2477 50.4999C42.8813 50.8995 41.4405 50.9747 40.0398 50.7196C38.6392 50.4645 37.3174 49.886 36.1795 49.0303C35.0417 48.1745 34.119 47.0651 33.4851 45.7901C32.8511 44.5151 32.5232 43.1098 32.5276 41.6858C32.526 41.0598 32.5893 40.4353 32.7164 39.8223L38.5198 45.627L45.6451 38.5001L39.8416 32.708C41.39 32.3829 42.9961 32.4648 44.5033 32.9457C46.0105 33.4267 47.3674 34.2902 48.4415 35.452C49.5155 36.6138 50.2702 38.0343 50.6317 39.5749C50.9933 41.1154 50.9494 42.7234 50.5043 44.2419L50.3029 44.9596L67.4866 62.1472L62.1363 67.486Z" stroke="#2463EB"/>
</svg>
