<svg width="100" height="100" viewBox="0 0 100 100" fill="none" xmlns="http://www.w3.org/2000/svg">
<circle cx="50" cy="50" r="43" fill="#2463EB"/>
<path d="M57.3657 40.5419C57.3657 39.7254 58.84 37.1416 58.84 37.1416C58.84 37.1416 60.313 39.7254 60.313 40.5419C60.313 41.3583 59.6512 42.0162 58.84 42.0162C58.0263 42.0188 57.3657 41.3583 57.3657 40.5419ZM54.3994 39.5816C55.2145 39.5816 55.8751 38.9198 55.8751 38.1072C55.8751 37.2893 54.3994 34.7042 54.3994 34.7042C54.3994 34.7042 52.9264 37.2893 52.9264 38.1072C52.925 38.9184 53.584 39.5816 54.3994 39.5816ZM49.9999 42.0188C50.815 42.0188 51.4729 41.357 51.4729 40.543C51.4729 39.7293 49.9999 37.1428 49.9999 37.1428C49.9999 37.1428 48.5256 39.7251 48.5256 40.543C48.5256 41.3597 49.1848 42.0188 49.9999 42.0188ZM45.5592 39.5816C46.3743 39.5816 47.035 38.9198 47.035 38.1072C47.035 37.2893 45.5592 34.7042 45.5592 34.7042C45.5592 34.7042 44.0849 37.2893 44.0849 38.1072C44.0849 38.9184 44.7439 39.5816 45.5592 39.5816ZM41.1598 42.0188C41.9749 42.0188 42.6342 41.357 42.6342 40.543C42.6342 39.7293 41.1598 37.1428 41.1598 37.1428C41.1598 37.1428 39.6854 39.7251 39.6854 40.5432C39.6854 41.3597 40.3447 42.0188 41.1598 42.0188ZM36.7189 39.5816C37.534 39.5816 38.1946 38.9198 38.1946 38.1072C38.1946 37.2893 36.7189 34.7042 36.7189 34.7042C36.7189 34.7042 35.2445 37.2893 35.2445 38.1072C35.2448 38.9184 35.9038 39.5816 36.7189 39.5816ZM63.2795 39.5816C64.0946 39.5816 64.7553 38.9198 64.7553 38.1072C64.7553 37.2893 63.2795 34.7042 63.2795 34.7042C63.2795 34.7042 61.8038 37.2893 61.8038 38.1072C61.8038 38.9184 62.4642 39.5816 63.2795 39.5816ZM68.5147 32H31.4824V33.3817H68.5147V32ZM70.7254 61.9222H69.2054V63.8801H63.7297C63.4036 65.6902 61.8244 67.0664 59.9244 67.0664C58.0219 67.0664 56.4424 65.6902 56.115 63.8801H44.335C44.0075 65.6902 42.4297 67.0664 40.5297 67.0664C38.6286 67.0664 37.0505 65.6902 36.7231 63.8801H30.4378V61.9222H29.2744V59.1587H30.4364V53.7272H39.3455L43.7324 46.1542H61.678L66.065 53.7272H69.2057V59.1587H70.7256V61.9222H70.7254ZM43.0222 63.1893C43.0222 61.8145 41.9031 60.6954 40.5283 60.6954C39.1522 60.6954 38.033 61.8145 38.033 63.1893C38.033 64.5655 39.1522 65.6846 40.5283 65.6846C41.9045 65.6846 43.0222 64.5655 43.0222 63.1893ZM62.42 63.1893C62.42 61.8145 61.3008 60.6954 59.9247 60.6954C58.5485 60.6954 57.4266 61.8145 57.4266 63.1893C57.4266 64.5655 58.5485 65.6846 59.9247 65.6846C61.3008 65.6846 62.42 64.5655 62.42 63.1893ZM67.8239 55.109H65.2677L60.8808 47.536H44.5297L40.1428 55.109H31.8195V62.4983H36.7231C37.0505 60.6896 38.6284 59.3134 40.5297 59.3134C42.4295 59.3134 44.0089 60.6896 44.335 62.4983H56.1168C56.4443 60.6896 58.0235 59.3134 59.9263 59.3134C61.826 59.3134 63.4069 60.6896 63.7315 62.4983H67.8242V55.109H67.8239ZM51.9633 55.0152H59.2353V49.1152H51.9633V55.0152ZM60.6168 55.0152H63.3911L60.6168 50.2262V55.0152ZM42.0233 55.0152H50.5816V49.1152H45.4402L42.0233 55.0152Z" fill="white"/>
</svg>
