<svg width="64" height="64" viewBox="0 0 64 64" fill="none" xmlns="http://www.w3.org/2000/svg">
<circle cx="32" cy="32" r="24" fill="#2463EB"/>
<path d="M38.6744 42.3242L38.3213 41.9707L29.0841 32.7247L28.9739 32.7556C28.1485 32.9966 27.2783 33.0418 26.4323 32.8877C25.5854 32.7334 24.7862 32.3837 24.0982 31.8663C23.4102 31.3489 22.8524 30.678 22.4691 29.9072C22.086 29.1367 21.8878 28.2875 21.8902 27.4271L38.6744 42.3242ZM38.6744 42.3242L39.0282 41.9712L41.9708 39.0349L42.3251 38.6814L41.9712 38.3274L32.7271 29.0812L38.6744 42.3242ZM42.2403 38.051L42.2405 38.0512C42.3227 38.1334 42.388 38.2311 42.4325 38.3385C42.4771 38.446 42.5 38.5611 42.5 38.6775C42.5 38.7938 42.4771 38.909 42.4325 39.0164C42.388 39.1239 42.3227 39.2215 42.2405 39.3037L42.2403 39.3039L39.3046 42.2403L39.3044 42.2405C39.2222 42.3227 39.1246 42.388 39.0172 42.4326C38.9098 42.4771 38.7947 42.5 38.6784 42.5C38.5622 42.5 38.4471 42.4771 38.3397 42.4326C38.2323 42.388 38.1347 42.3227 38.0525 42.2405L38.0523 42.2403L29.1691 33.355L28.9748 33.1607L28.7066 33.2205C27.6369 33.4591 26.5219 33.396 25.486 33.038C24.4501 32.6801 23.5338 32.0414 22.8394 31.1933C22.145 30.3451 21.6997 29.3207 21.5532 28.2342C21.4066 27.1478 21.5645 26.0419 22.0094 25.04L22.0094 25.0398L22.1225 24.7849L25.3323 27.9954L25.6865 28.3497L26.0401 27.9948L27.9926 26.0349L28.3448 25.6814L27.992 25.3285L24.7835 22.1193L25.0427 22.0051L25.0432 22.0049C26.045 21.5625 27.1498 21.4064 28.235 21.5541C29.3201 21.7017 30.3431 22.1473 31.1904 22.8413C32.0377 23.5353 32.6762 24.4506 33.0349 25.4856C33.3936 26.5206 33.4585 27.6348 33.2224 28.7045L33.1633 28.972L33.357 29.1658L42.2403 38.051Z" fill="white" stroke="white"/>
</svg>
