<svg width="100" height="100" viewBox="0 0 100 100" fill="none" xmlns="http://www.w3.org/2000/svg">
<circle cx="50" cy="50" r="43" fill="#2463EB"/>
<path d="M50.401 65.5666C51.0636 65.5666 51.601 65.0292 51.601 64.3666V35.5998C51.601 34.9372 51.0636 34.3998 50.401 34.3998H35.5998C34.9372 34.3998 34.3998 34.9372 34.3998 35.5998V64.3666C34.3998 65.0292 34.9372 65.5666 35.5998 65.5666H50.401ZM50.401 67.1666H35.5998C34.0536 67.1666 32.7998 65.9128 32.7998 64.3666V35.5998C32.7998 34.0536 34.0536 32.7998 35.5998 32.7998H50.401C51.9472 32.7998 53.201 34.0536 53.201 35.5998V64.3666C53.201 65.9128 51.9472 67.1666 50.401 67.1666ZM65.5815 40.6803V60.2219C65.5815 62.1521 64.0169 63.7167 62.0867 63.7167C60.1553 63.7167 58.5907 62.1521 58.5907 60.2219C58.5907 59.7801 58.2325 59.4219 57.7907 59.4219C57.3488 59.4219 56.9907 59.7801 56.9907 60.2219C56.9907 63.0357 59.2716 65.3167 62.0855 65.3167C64.9005 65.3167 67.1815 63.0357 67.1815 60.2219V40.6803C67.1815 40.2385 66.8233 39.8803 66.3815 39.8803C65.9396 39.8803 65.5815 40.2385 65.5815 40.6803Z" fill="white"/>
<path d="M58.5902 60.4465V44.4001C58.5902 43.9583 58.2321 43.6001 57.7902 43.6001C57.3484 43.6001 56.9902 43.9583 56.9902 44.4001V60.4465C56.9902 60.8883 57.3484 61.2465 57.7902 61.2465C58.2321 61.2465 58.5902 60.8883 58.5902 60.4465Z" fill="white"/>
<path d="M58.5919 44.2779V42.9303C58.5919 41 57.0273 39.4355 55.0971 39.4355C53.1668 39.4355 51.6019 41.0001 51.6019 42.9303V44.2779C51.6019 44.7197 51.96 45.0779 52.4019 45.0779C52.8437 45.0779 53.2019 44.7197 53.2019 44.2779V42.9303C53.2019 41.8838 54.0504 41.0355 55.0971 41.0355C56.1436 41.0355 56.9919 41.8837 56.9919 42.9303V44.2779C56.9919 44.7197 57.35 45.0779 57.7919 45.0779C58.2337 45.0779 58.5919 44.7197 58.5919 44.2779ZM66.8168 39.9602L59.992 33.1354C59.6795 32.823 59.173 32.823 58.8606 33.1354C58.5482 33.4479 58.5482 33.9544 58.8606 34.2668L65.6854 41.0916C65.9978 41.404 66.5043 41.404 66.8168 41.0916C67.1292 40.7792 67.1292 40.2727 66.8168 39.9602ZM47.1425 40.9969C47.3635 40.9969 47.5425 40.8179 47.5425 40.5969V38.7969C47.5425 38.5759 47.3635 38.3969 47.1425 38.3969H38.8105C38.758 38.3969 38.706 38.4073 38.6575 38.4274C38.6089 38.4474 38.5648 38.4769 38.5277 38.5141C38.4905 38.5512 38.4611 38.5953 38.441 38.6438C38.4209 38.6924 38.4105 38.7444 38.4105 38.7969V40.5969C38.4105 40.8179 38.5896 40.9969 38.8105 40.9969H47.1425ZM47.1425 42.5969H38.8105C37.7059 42.5969 36.8105 41.7015 36.8105 40.5969V38.7969C36.8105 37.6923 37.7059 36.7969 38.8105 36.7969H47.1425C48.2471 36.7969 49.1425 37.6923 49.1425 38.7969V40.5969C49.1425 41.7015 48.2471 42.5969 47.1425 42.5969Z" fill="white"/>
<path d="M66.2878 44.0169H64.3746C63.9329 44.0169 63.5746 43.6587 63.5746 43.2169V37.4646C63.5746 37.0227 63.2164 36.6646 62.7746 36.6646C62.3328 36.6646 61.9746 37.0227 61.9746 37.4646V43.2169C61.9746 44.5424 63.0492 45.6169 64.3746 45.6169H66.2878C66.7296 45.6169 67.0878 45.2588 67.0878 44.8169C67.0878 44.3751 66.7296 44.0169 66.2878 44.0169Z" fill="white"/>
</svg>
