<svg width="100" height="100" viewBox="0 0 100 100" fill="none" xmlns="http://www.w3.org/2000/svg">
<circle cx="50" cy="47" r="43" fill="#2463EB"/>
<path d="M41.6254 43.39L41.6253 43.39L41.6202 43.3929L33.0735 48.2962L33.0735 48.2961L33.0655 48.3008C32.3653 48.7112 31.8312 49.409 31.487 50.1331C31.1397 50.8635 30.9345 51.7261 30.9868 52.5642L31.2517 58.2737L29.9914 59.7415L29.9914 59.7415L29.9877 59.7458C29.4865 60.3363 29.1808 61.0812 29.0555 61.8003C28.9319 62.509 28.9657 63.2989 29.269 63.9725L30.7025 67.2366L30.7024 67.2366L30.7071 67.2471C31.0084 67.9121 31.5451 68.4411 32.2298 68.685C32.9244 68.9325 33.6976 68.8591 34.3904 68.4492L35.5002 67.8196L36.2819 67.3761L35.924 66.5517C35.1494 64.7672 35.8332 62.6669 37.2418 61.8556C38.5424 61.1065 40.2455 61.6483 41.0002 63.387L41.4458 64.4135L42.4159 63.8557L51.3465 58.7218L52.1213 58.2764L51.7655 57.4566C50.9909 55.6722 51.6747 53.5719 53.0833 52.7606C54.3838 52.0115 56.0869 52.5532 56.8416 54.2919L57.2783 55.298L58.2399 54.7705L58.941 54.386L58.954 54.3788L58.9667 54.3713C60.2178 53.6361 60.7518 52.0349 60.1414 50.6795L58.7246 47.4539L58.7003 47.3986L58.6696 47.3467C57.9787 46.1794 56.4941 45.4066 55.0804 45.8664C55.0798 45.8666 55.0792 45.8668 55.0786 45.867L49.7421 47.5861L46.1057 44.0839C44.9453 42.9334 42.9963 42.6143 41.6254 43.39ZM36.515 51.1085L37.8598 54.2552L35.0017 55.885L34.8554 52.4237C34.8559 52.4183 34.8568 52.4107 34.8583 52.401C34.8615 52.3803 34.8672 52.3534 34.8763 52.3208C34.8948 52.254 34.9234 52.1785 34.959 52.1033C34.988 52.0421 35.0173 51.9902 35.0421 51.9514L36.515 51.1085ZM43.517 47.2691L45.9266 49.6229L41.304 52.2457L39.9405 49.1287L43.2981 47.2326C43.3252 47.2335 43.3571 47.236 43.3916 47.2408C43.446 47.2484 43.4891 47.2595 43.517 47.2691Z" stroke="white" stroke-width="2"/>
<path d="M68.5517 52.9619L70.2862 50.7526C70.2865 50.7522 70.2868 50.7518 70.2871 50.7514C71.0527 49.7803 71.1464 48.2349 70.5717 47.07L69.9148 45.6184L71.21 41.2493C71.4179 40.5672 71.4121 39.808 71.2734 39.1365C71.1362 38.4717 70.8428 37.7706 70.3525 37.2652C70.3525 37.2652 70.3525 37.2652 70.3524 37.2652L64.5526 31.2754C63.577 30.2225 61.9089 30.0555 60.7263 30.6165L60.7106 30.6239L60.6953 30.6318L58.1463 31.9506L57.9473 27.3808L57.9468 27.3693L57.946 27.3577C57.9038 26.7254 57.3803 25.9221 56.4426 26.0052C55.5988 26.08 55.1266 26.8411 55.1649 27.5328L55.3115 30.9936L53.5407 29.7262L53.5407 29.7262L53.537 29.7235C52.4343 28.9419 50.9868 29.2157 50.1895 30.1657L50.1772 30.1804L50.1655 30.1955L48.4854 32.3607C47.7116 33.3235 47.7297 34.7832 48.6059 35.7455L48.9467 36.2404L49.7269 37.3736L50.5639 36.2818C51.3393 35.2705 52.6204 35.2104 53.4495 36.09L53.4567 36.0977L53.4641 36.1052C54.3899 37.047 54.4864 38.7847 53.6299 39.8559L53.0837 40.5391L53.688 41.1714L59.6974 47.459L60.5038 48.3028L61.2139 47.3765C61.9893 46.3652 63.2704 46.3052 64.0995 47.1848L64.1067 47.1925L64.1141 47.1999C65.0399 48.1418 65.1364 49.8795 64.2799 50.9507L63.7284 51.6404L64.3446 52.2729L65.1124 53.0613L65.1232 53.0724L65.1343 53.0831C66.1238 54.0381 67.6353 54.0547 68.5312 52.9872L68.5416 52.9747L68.5517 52.9619ZM67.7931 40.1897L67.1327 42.4721L65.5002 40.7925L66.8828 39.0172L67.7652 39.9186C67.769 39.934 67.773 39.9523 67.7768 39.9733C67.7875 40.0317 67.7934 40.0911 67.7942 40.1409C67.7946 40.1626 67.794 40.1789 67.7931 40.1897ZM59.1137 35.6395L62.1685 34.0834L64.3217 36.3329L59.7942 42.0757L57.6143 39.812C57.8276 39.0181 57.9 38.171 57.7894 37.2969L59.1137 35.6395Z" stroke="white" stroke-width="2"/>
</svg>
