<svg width="64" height="64" viewBox="0 0 64 64" fill="none" xmlns="http://www.w3.org/2000/svg">
<circle cx="32" cy="32" r="24" fill="#2463EB"/>
<path d="M35.9093 29.6282C35.9093 29.1858 36.6918 27.7859 36.6918 27.7859C36.6918 27.7859 37.4735 29.1858 37.4735 29.6282C37.4735 30.0706 37.1223 30.4271 36.6918 30.4271C36.2599 30.4285 35.9093 30.0706 35.9093 29.6282ZM34.3349 29.1079C34.7675 29.1079 35.1182 28.7493 35.1182 28.3091C35.1182 27.8659 34.3349 26.4652 34.3349 26.4652C34.3349 26.4652 33.5532 27.8659 33.5532 28.3091C33.5524 28.7486 33.9022 29.1079 34.3349 29.1079ZM31.9999 30.4285C32.4325 30.4285 32.7817 30.0699 32.7817 29.6289C32.7817 29.188 31.9999 27.7865 31.9999 27.7865C31.9999 27.7865 31.2174 29.1857 31.2174 29.6289C31.2174 30.0714 31.5673 30.4285 31.9999 30.4285ZM29.6431 29.1079C30.0757 29.1079 30.4263 28.7493 30.4263 28.3091C30.4263 27.8659 29.6431 26.4652 29.6431 26.4652C29.6431 26.4652 28.8606 27.8659 28.8606 28.3091C28.8606 28.7486 29.2103 29.1079 29.6431 29.1079ZM27.3081 30.4285C27.7407 30.4285 28.0906 30.0699 28.0906 29.6289C28.0906 29.188 27.3081 27.7865 27.3081 27.7865C27.3081 27.7865 26.5256 29.1857 26.5256 29.629C26.5256 30.0714 26.8755 30.4285 27.3081 30.4285ZM24.9511 29.1079C25.3837 29.1079 25.7344 28.7493 25.7344 28.3091C25.7344 27.8659 24.9511 26.4652 24.9511 26.4652C24.9511 26.4652 24.1686 27.8659 24.1686 28.3091C24.1687 28.7486 24.5185 29.1079 24.9511 29.1079ZM39.048 29.1079C39.4806 29.1079 39.8313 28.7493 39.8313 28.3091C39.8313 27.8659 39.048 26.4652 39.048 26.4652C39.048 26.4652 38.2648 27.8659 38.2648 28.3091C38.2648 28.7486 38.6153 29.1079 39.048 29.1079ZM41.8265 25H22.1719V25.7487H41.8265V25ZM42.9999 41.2127H42.1932V42.2736H39.2869C39.1139 43.2543 38.2757 44 37.2673 44C36.2576 44 35.4193 43.2543 35.2455 42.2736H28.9933C28.8195 43.2543 27.9821 44 26.9737 44C25.9647 44 25.1271 43.2543 24.9533 42.2736H21.6175V41.2127H21V39.7154H21.6167V36.7725H26.3452L28.6735 32.6692H38.198L40.5264 36.7725H42.1933V39.7154H43L42.9999 41.2127ZM28.2966 41.8993C28.2966 41.1544 27.7026 40.548 26.973 40.548C26.2426 40.548 25.6486 41.1544 25.6486 41.8993C25.6486 42.645 26.2426 43.2513 26.973 43.2513C27.7033 43.2513 28.2966 42.645 28.2966 41.8993ZM38.5918 41.8993C38.5918 41.1544 37.9978 40.548 37.2674 40.548C36.537 40.548 35.9416 41.1544 35.9416 41.8993C35.9416 42.645 36.537 43.2513 37.2674 43.2513C37.9978 43.2513 38.5918 42.645 38.5918 41.8993ZM41.4599 37.5211H40.1032L37.7749 33.4178H29.0967L26.7683 37.5211H22.3508V41.5249H24.9533C25.1271 40.5449 25.9646 39.7992 26.9737 39.7992C27.982 39.7992 28.8203 40.5449 28.9933 41.5249H35.2465C35.4203 40.5449 36.2584 39.7992 37.2683 39.7992C38.2766 39.7992 39.1156 40.5449 39.2879 41.5249H41.4601L41.4599 37.5211ZM33.042 37.4703H36.9016V34.2735H33.042V37.4703ZM37.6348 37.4703H39.1073L37.6348 34.8755V37.4703ZM27.7664 37.4703H32.3087V34.2735H29.5799L27.7664 37.4703Z" fill="white"/>
</svg>
