<svg width="28" height="28" viewBox="0 0 28 28" fill="none" xmlns="http://www.w3.org/2000/svg">
<path d="M2.33203 5.83333C2.33203 5.21449 2.57786 4.621 3.01545 4.18342C3.45303 3.74583 4.04653 3.5 4.66536 3.5H23.332C23.9509 3.5 24.5444 3.74583 24.9819 4.18342C25.4195 4.621 25.6654 5.21449 25.6654 5.83333V18.6667C25.6654 19.2855 25.4195 19.879 24.9819 20.3166C24.5444 20.7542 23.9509 21 23.332 21H15.1654V23.3333H18.6654C18.9748 23.3333 19.2715 23.4562 19.4903 23.675C19.7091 23.8938 19.832 24.1906 19.832 24.5C19.832 24.8094 19.7091 25.1062 19.4903 25.325C19.2715 25.5438 18.9748 25.6667 18.6654 25.6667H9.33203C9.02261 25.6667 8.72587 25.5438 8.50707 25.325C8.28828 25.1062 8.16536 24.8094 8.16536 24.5C8.16536 24.1906 8.28828 23.8938 8.50707 23.675C8.72587 23.4562 9.02261 23.3333 9.33203 23.3333H12.832V21H4.66536C4.04653 21 3.45303 20.7542 3.01545 20.3166C2.57786 19.879 2.33203 19.2855 2.33203 18.6667V5.83333ZM23.332 18.6667V5.83333H4.66536V18.6667H23.332Z" fill="#4D8EFF"/>
<g clip-path="url(#clip0_336_1461)">
<path d="M7.00223 11.637C7.01317 11.6038 7.04391 11.5802 7.08022 11.5802H8.16281L8.49739 10.5507C8.51095 10.5206 8.5407 10.5 8.57537 10.5C8.61005 10.5 8.6398 10.5207 8.65314 10.5502L8.65336 10.5507L8.98794 11.5802H10.0704C10.1157 11.5802 10.1523 11.6169 10.1523 11.6622C10.1523 11.6893 10.1391 11.7135 10.1188 11.7284L10.1185 11.7285L9.24278 12.3648L9.57736 13.3943C9.57988 13.4019 9.58141 13.4107 9.58141 13.4198C9.58141 13.465 9.54466 13.5018 9.49937 13.5018C9.48133 13.5018 9.46459 13.4959 9.45103 13.486L9.45125 13.4862L8.57537 12.8498L7.69972 13.4862C7.68638 13.496 7.66964 13.5019 7.65148 13.5019C7.6062 13.5019 7.56945 13.4652 7.56945 13.4199C7.56945 13.4108 7.57098 13.4019 7.57372 13.3937L7.5735 13.3943L7.90808 12.3648L7.03198 11.7285C7.01142 11.7134 6.9983 11.6895 6.9983 11.6623C6.9983 11.6532 6.99983 11.6445 7.00245 11.6363L7.00223 11.637Z" fill="#4D8EFF"/>
</g>
<path d="M10.5022 11.637C10.5132 11.6038 10.5439 11.5802 10.5802 11.5802H11.6628L11.9974 10.5507C12.011 10.5206 12.0407 10.5 12.0754 10.5C12.11 10.5 12.1398 10.5207 12.1531 10.5502L12.4879 11.5802H13.5704C13.6157 11.5802 13.6523 11.6169 13.6523 11.6622C13.6523 11.6893 13.6391 11.7135 13.6188 11.7284L12.7428 12.3648L13.0774 13.3943C13.0799 13.4019 13.0814 13.4107 13.0814 13.4198C13.0814 13.465 13.0447 13.5018 12.9994 13.5018C12.9813 13.5018 12.9646 13.4959 12.951 13.486L12.0754 12.8498L11.1997 13.4862C11.1864 13.496 11.1696 13.5019 11.1515 13.5019C11.1062 13.5019 11.0695 13.4652 11.0695 13.4199C11.0695 13.4108 11.071 13.4019 11.0737 13.3937L11.4081 12.3648L10.532 11.7285C10.5114 11.7134 10.4983 11.6895 10.4983 11.6623C10.4983 11.6532 10.4996 11.6452 10.5022 11.637Z" fill="black"/>
<path d="M14.0022 11.637C14.0132 11.6038 14.0439 11.5802 14.0802 11.5802H15.1628L15.4974 10.5507C15.511 10.5206 15.5407 10.5 15.5754 10.5C15.61 10.5 15.6398 10.5207 15.6531 10.5502L15.6534 10.5507L15.9879 11.5802H17.0704C17.1157 11.5802 17.1523 11.6169 17.1523 11.6622C17.1523 11.6893 17.1391 11.7135 17.1188 11.7284L17.1185 11.7285L16.2428 12.3648L16.5774 13.3943C16.5799 13.4019 16.5814 13.4107 16.5814 13.4198C16.5814 13.465 16.5447 13.5018 16.4994 13.5018C16.4813 13.5018 16.4646 13.4959 16.451 13.486L16.4513 13.4862L15.5754 12.8498L14.6997 13.4862C14.6864 13.496 14.6696 13.5019 14.6515 13.5019C14.6062 13.5019 14.5695 13.4652 14.5695 13.4199C14.5695 13.4108 14.571 13.4019 14.5737 13.3937L14.5735 13.3943L14.9081 12.3648L14.032 11.7285C14.0114 11.7134 13.9983 11.6895 13.9983 11.6623C13.9983 11.6532 13.9998 11.6445 14.0025 11.6363L14.0022 11.637Z" fill="#FF911A"/>
<defs>
<clipPath id="clip0_336_1461">
<rect width="3.5" height="3.5" fill="white" transform="matrix(-1 0 0 1 10.5 10.5)"/>
</clipPath>
</defs>
</svg>
