<svg width="30" height="30" viewBox="0 0 30 30" fill="none" xmlns="http://www.w3.org/2000/svg">
<g clip-path="url(#clip0_336_1440)">
<path d="M30 6.84571V15.927C30 15.927 28.0564 16.3099 27.656 16.3603C27.2568 16.4105 26.0025 16.8155 25.0935 15.9418C23.6916 14.5982 18.7108 9.64486 18.7108 9.64486C18.7108 9.64486 17.852 8.80216 16.4731 9.53046C15.2073 10.1976 13.3309 11.1754 12.5471 11.5561C11.0655 12.3447 9.83758 11.0935 9.83758 10.1405C9.83758 9.40123 10.2989 8.8995 10.9583 8.53051C12.7454 7.44714 16.512 5.33289 18.0809 4.49933C19.0344 3.99215 19.7215 3.94869 21.0307 5.0516C22.6431 6.40766 24.078 7.64374 24.078 7.64374C24.078 7.64374 24.5461 8.03434 25.2925 7.87702C27.1253 7.48951 30 6.84571 30 6.84571ZM10.175 22.2331C10.4162 21.6134 10.3356 20.9203 9.87311 20.4447C9.45757 20.0194 8.85088 19.9073 8.27239 20.0399C8.43419 19.4661 8.34485 18.8554 7.92707 18.4244C7.51026 18.0002 6.90472 17.8858 6.32629 18.0196C6.48688 17.4467 6.39778 16.8361 5.97976 16.4064C5.32519 15.735 4.19297 15.7638 3.44918 16.4728C2.70932 17.1827 2.23537 18.469 2.89569 19.2261C3.55493 19.9794 4.3124 19.5211 4.88986 19.3895C4.72921 19.9624 4.24787 20.4953 4.84064 21.2452C5.43287 21.9955 6.25729 21.5403 6.83535 21.4099C6.67416 21.9806 6.21383 22.567 6.78384 23.2624C7.35899 23.9598 8.30102 23.5882 8.92321 23.3949C8.68309 24.0123 8.16913 24.6777 8.82945 25.4235C9.48874 26.1746 11.0123 25.8271 11.7566 25.117C12.4988 24.407 12.57 23.2818 11.9172 22.6083C11.4665 22.1462 10.7946 22.0387 10.175 22.2331ZM23.7545 17.5085C18.3746 12.1285 20.9051 14.6601 18.0099 11.7586C18.0099 11.7586 17.1397 10.8924 15.9929 11.3956C15.1879 11.7483 14.1514 12.2291 13.3716 12.5962C12.5146 13.0456 11.8978 13.1847 11.6083 13.1827C9.95156 13.1719 8.60743 11.8403 8.60743 10.1852C8.60743 9.11153 9.17744 8.17677 10.0276 7.64616C11.223 6.8189 13.9747 5.35528 13.9747 5.35528C13.9747 5.35528 13.1365 4.29304 11.3001 4.29304C9.46429 4.29304 5.62875 6.80576 5.62875 6.80576C5.62875 6.80576 4.54066 7.50271 2.98958 6.87495L0 5.83389V16.2255C0 16.2255 0.853655 16.4726 1.62069 16.7859C1.79393 16.2918 2.07346 15.8356 2.46121 15.4588C3.73373 14.2468 5.84296 14.2342 7.00072 15.4263C7.34949 15.7887 7.59288 16.221 7.71709 16.6989C8.1836 16.8429 8.60615 17.098 8.94573 17.4478C9.29553 17.8078 9.53801 18.2425 9.66325 18.718C10.1292 18.8621 10.5512 19.1182 10.8919 19.4683C11.2756 19.864 11.5312 20.3419 11.6506 20.8597C12.1377 21.0016 12.5778 21.2656 12.9324 21.628C13.6281 22.3427 13.8751 23.3124 13.7255 24.2477C13.7267 24.2477 13.729 24.2477 13.7301 24.2498C13.7415 24.2647 14.1612 24.7326 14.4229 24.9965C14.9358 25.5099 15.7734 25.5099 16.2879 24.9965C16.799 24.4832 16.8013 23.6473 16.2879 23.1315C16.2695 23.1131 14.4374 21.1968 14.5848 21.0482C14.7312 20.9006 17.0654 23.3294 17.1089 23.3739C17.6211 23.8862 18.4581 23.8862 18.9727 23.3739C19.4861 22.8606 19.485 22.0247 18.9727 21.5101C18.9475 21.4861 18.8424 21.3854 18.8035 21.3454C18.8035 21.3454 16.4892 19.2837 16.6653 19.1076C16.8436 18.9303 19.7183 21.613 19.723 21.613C20.2397 22.0784 21.0357 22.0749 21.5328 21.5776C22.0165 21.0939 22.0269 20.3289 21.5981 19.8134C21.589 19.7859 19.4072 17.5059 19.5775 17.3344C19.7503 17.1606 21.9091 19.3835 21.9136 19.3881C22.4247 19.9003 23.2629 19.9003 23.7775 19.3881C24.2897 18.8757 24.2897 18.0388 23.7775 17.5219C23.7705 17.5176 23.7614 17.513 23.7545 17.5085Z" fill="#4D8EFF"/>
</g>
<defs>
<clipPath id="clip0_336_1440">
<rect width="30" height="30" fill="white"/>
</clipPath>
</defs>
</svg>
