<svg width="29" height="29" viewBox="0 0 29 29" fill="none" xmlns="http://www.w3.org/2000/svg">
<g clip-path="url(#clip0_336_1455)">
<path d="M18.165 2.85712C18.3792 2.82856 18.5363 2.88568 18.7505 2.95709C19.5503 3.22843 19.9358 4.08531 19.6931 4.88506C19.4503 5.67053 18.2649 9.22656 18.2649 9.99775C18.2649 10.7547 19.336 11.4259 20.1929 11.4259H24.4773C25.3342 11.4259 25.9054 11.9971 25.9054 12.854C25.9054 13.7109 23.0492 22.8509 23.0492 22.8509C22.8064 23.4078 22.2637 24.279 21.621 24.279H8.56797V11.4259H11.6242C12.2097 10.8403 16.337 4.6994 16.7368 3.89965C17.0368 3.31412 17.5937 2.92853 18.165 2.85712ZM2.85547 11.4259H5.71172V24.279H2.85547V11.4259Z" fill="#4D8EFF"/>
</g>
<defs>
<clipPath id="clip0_336_1455">
<rect width="28.5625" height="28.5625" fill="white"/>
</clipPath>
</defs>
</svg>
