<svg width="24" height="24" viewBox="0 0 24 24" fill="none" xmlns="http://www.w3.org/2000/svg">
<g clip-path="url(#clip0_336_1445)">
<path d="M17.2959 4.39238L14.1727 3.93861L12.776 1.10851C12.4912 0.531374 11.6659 0.5317 11.3813 1.10851L9.98453 3.93861L6.86133 4.39238C6.22444 4.48492 5.96975 5.26985 6.43037 5.71883L8.69036 7.92177L8.15681 11.0324C8.04797 11.6665 8.71579 12.1516 9.28515 11.8522L12.0786 10.3836L14.872 11.8522C15.4368 12.1491 16.11 11.6715 16.0004 11.0324L15.4669 7.92177L17.7269 5.71883C18.1878 5.26957 17.9324 4.48492 17.2959 4.39238Z" fill="#4D8EFF"/>
<path d="M5.76489 11.9707H0.933919C0.504453 11.9707 0.15625 12.3189 0.15625 12.7483V22.7028C0.15625 23.1323 0.504453 23.4805 0.933919 23.4805H5.76489C6.19435 23.4805 6.54256 23.1323 6.54256 22.7028V12.7483C6.54256 12.3189 6.19435 11.9707 5.76489 11.9707Z" fill="#4D8EFF"/>
<path d="M23.4925 15.3519C22.6507 14.2909 21.1059 14.1366 20.0717 15.0045L16.3874 18.096C15.2325 18.096 14.3154 18.096 13.259 18.096L14.9326 16.6916C16.2058 15.6233 15.5089 13.4805 13.774 13.4805H8.09766V22.7346C8.51194 23.0696 9.03092 23.254 9.56442 23.254H16.8525C17.4 23.254 17.9326 23.0603 18.3521 22.7083L23.1288 18.7004C24.1286 17.8614 24.2918 16.3593 23.4925 15.3519Z" fill="#4D8EFF"/>
</g>
<defs>
<clipPath id="clip0_336_1445">
<rect width="23.8438" height="23.8438" fill="white" transform="translate(0.15625 0.15625)"/>
</clipPath>
</defs>
</svg>
