<svg width="51" height="60" viewBox="0 0 51 60" fill="none" xmlns="http://www.w3.org/2000/svg">
<path d="M47.648 52.2079L47.6484 52.209L48.9258 55.9647C49.085 56.4338 49.0083 56.9518 48.7184 57.3561L48.7165 57.3588C48.4301 57.7597 47.9642 57.9999 47.4666 57.9999H3.54039C3.0426 57.9999 2.57682 57.7596 2.29058 57.3589L2.28836 57.3558C1.99841 56.9515 1.92246 56.435 2.08182 55.968L2.08281 55.9651L3.35845 52.2084C3.35848 52.2083 3.35851 52.2082 3.35854 52.2082C5.418 46.1463 10.8673 41.9455 17.1628 41.4075C19.0775 42.7577 21.2474 43.6814 23.6159 44.0091C26.5717 46.3719 30.968 45.4404 32.7362 42.114C33.1095 41.8955 33.4783 41.6606 33.841 41.4072C40.1383 41.9451 45.5901 46.1467 47.648 52.2079Z" stroke="#2463EB" stroke-width="4"/>
<path d="M30.3633 33.9512C33.4427 31.053 35.6963 25.7067 35.6963 20.3656C35.6963 16.2482 34.3387 13.3427 32.4708 11.4721C30.5843 9.58287 28.0567 8.62593 25.5042 8.62695C22.9517 8.62797 20.4234 9.58701 18.5362 11.4774C16.6677 13.3491 15.3105 16.2537 15.3105 20.3656C15.3105 23.9302 16.3261 27.5866 17.9915 30.5002C19.3221 32.8278 20.9683 34.5206 22.682 35.4172C23.7874 34.0501 25.4735 33.1628 27.3867 33.1628L30.3633 33.9512ZM30.3633 33.9512C29.4897 33.4537 28.4765 33.1627 27.3869 33.1628L30.3633 33.9512Z" stroke="#2463EB" stroke-width="4"/>
<path d="M9.86032 27.3722L9.52296 26.047L7.9994 26.0175C6.35284 25.9857 5.03516 24.6473 5.03516 23.0068C5.03516 21.366 6.35294 20.0277 7.99931 19.9959L9.52553 19.9665L9.87018 18.6033C9.87252 18.6188 9.87491 18.6356 9.8773 18.6538C9.89795 18.8104 9.91476 19.0317 9.92428 19.3537C9.9444 20.0344 9.93019 20.9039 9.9101 22.1333C9.88908 23.4199 9.86161 25.1009 9.86032 27.3722ZM35.8473 6.07679C30.4057 1.77419 22.5432 1.34138 16.7028 4.87422C18.3841 3.69319 20.3261 2.84289 22.3871 2.38315C27.0469 1.34368 32.1274 2.35443 35.8473 6.07679ZM41.1332 18.656C41.1357 18.6372 41.1381 18.6198 41.1405 18.6038L41.4847 19.9648L43.0092 19.9959C44.0959 20.018 44.7752 20.4199 45.2035 20.9122C45.6626 21.4398 45.9329 22.1919 45.9328 23.0065C45.9327 23.8211 45.6623 24.5734 45.203 25.1012C44.7745 25.5937 44.0952 25.9954 43.0091 26.0175L41.4876 26.0486L41.1507 27.3708C41.1494 25.097 41.1218 23.4153 41.1007 22.1286C41.0806 20.9027 41.0664 20.0353 41.0864 19.3558C41.0958 19.0339 41.1126 18.8127 41.1332 18.656ZM27.447 39.2067L27.4343 39.2526C27.4256 39.2841 27.417 39.3063 27.4103 39.3211C27.4012 39.3213 27.39 39.3209 27.3771 39.319C27.3527 39.3154 27.3313 39.308 27.3158 39.3002C27.3128 39.2987 27.3102 39.2973 27.3081 39.296C27.3063 39.2856 27.3043 39.2685 27.3043 39.2435C27.3043 39.2121 27.3088 39.1983 27.3094 39.1965C27.31 39.1945 27.3102 39.1942 27.3104 39.194L27.3105 39.194C27.312 39.1919 27.3237 39.1781 27.3507 39.1675C27.3774 39.157 27.3941 39.1595 27.395 39.1597C27.395 39.1597 27.395 39.1597 27.395 39.1597C27.3953 39.1598 27.396 39.1602 27.3971 39.1608C27.3992 39.162 27.4132 39.17 27.4364 39.1952L27.447 39.2067Z" stroke="#2463EB" stroke-width="4"/>
</svg>
