<svg width="60" height="60" viewBox="0 0 60 60" fill="none" xmlns="http://www.w3.org/2000/svg">
<path fill-rule="evenodd" clip-rule="evenodd" d="M21.7858 42.0649C21.7937 44.2729 20.5029 46.2681 18.5161 47.1189C16.5293 47.9694 14.2385 47.5076 12.7133 45.9491C11.1881 44.3906 10.7295 42.0429 11.5516 40.0019C12.3737 37.9611 14.3142 36.6299 16.4672 36.6299C17.8752 36.6271 19.2266 37.1984 20.224 38.2176C21.2214 39.2369 21.7832 40.6206 21.7858 42.0649Z" stroke="#2463EB" stroke-width="3.75" stroke-linecap="round" stroke-linejoin="round"/>
<path fill-rule="evenodd" clip-rule="evenodd" d="M47.9089 42.0649C47.9166 44.2729 46.6259 46.2681 44.6391 47.1189C42.6524 47.9694 40.3614 47.5076 38.8364 45.9491C37.3111 44.3906 36.8526 42.0429 37.6746 40.0019C38.4966 37.9611 40.4371 36.6299 42.5901 36.6299C43.9981 36.6271 45.3496 37.1984 46.3469 38.2176C47.3444 39.2369 47.9061 40.6206 47.9089 42.0649Z" stroke="#2463EB" stroke-width="3.75" stroke-linecap="round" stroke-linejoin="round"/>
<path d="M6.52751 24.9761C6.17049 25.948 6.66906 27.0255 7.64109 27.3825C8.61314 27.7395 9.69056 27.241 10.0476 26.269L6.52751 24.9761ZM10.1571 20.5325L8.41226 19.8461C8.40706 19.8593 8.40198 19.8727 8.39708 19.8861L10.1571 20.5325ZM24.4921 14.375C25.5276 14.375 26.3671 13.5355 26.3671 12.5C26.3671 11.4645 25.5276 10.625 24.4921 10.625V14.375ZM8.28756 27.4975C9.32308 27.4975 10.1626 26.658 10.1626 25.6225C10.1626 24.587 9.32308 23.7475 8.28756 23.7475V27.4975ZM5.09686 25.6225L5.08261 27.4975H5.09686V25.6225ZM2.43755 28.31L0.56255 28.2965V28.31H2.43755ZM0.56255 32.5C0.56255 33.5355 1.40202 34.375 2.43755 34.375C3.47308 34.375 4.31256 33.5355 4.31256 32.5H0.56255ZM8.28756 23.7475C7.25201 23.7475 6.41256 24.587 6.41256 25.6225C6.41256 26.658 7.25201 27.4975 8.28756 27.4975V23.7475ZM24.4921 27.4975C25.5276 27.4975 26.3671 26.658 26.3671 25.6225C26.3671 24.587 25.5276 23.7475 24.4921 23.7475V27.4975ZM43.8091 26.269C44.1661 27.241 45.2436 27.7395 46.2156 27.3825C47.1876 27.0255 47.6861 25.948 47.3291 24.9761L43.8091 26.269ZM43.6996 20.5325L45.4596 19.8861C45.4546 19.8727 45.4496 19.8593 45.4444 19.8461L43.6996 20.5325ZM24.4921 10.625C23.4565 10.625 22.6171 11.4645 22.6171 12.5C22.6171 13.5355 23.4565 14.375 24.4921 14.375V10.625ZM45.5691 27.4975C46.6046 27.4975 47.4441 26.658 47.4441 25.6225C47.4441 24.587 46.6046 23.7475 45.5691 23.7475V27.4975ZM24.4921 23.7475C23.4565 23.7475 22.6171 24.587 22.6171 25.6225C22.6171 26.658 23.4565 27.4975 24.4921 27.4975V23.7475ZM45.5691 23.7475C44.5336 23.7475 43.6941 24.587 43.6941 25.6225C43.6941 26.658 44.5336 27.4975 45.5691 27.4975V23.7475ZM53.4056 25.6225V27.4975H53.4181L53.4056 25.6225ZM56.0626 28.31H57.9376V28.2965L56.0626 28.31ZM54.1876 32.5C54.1876 33.5355 55.0271 34.375 56.0626 34.375C57.0981 34.375 57.9376 33.5355 57.9376 32.5H54.1876ZM37.2719 43.94C38.3074 43.94 39.1469 43.1005 39.1469 42.065C39.1469 41.0295 38.3074 40.19 37.2719 40.19V43.94ZM21.7864 40.19C20.7509 40.19 19.9114 41.0295 19.9114 42.065C19.9114 43.1005 20.7509 43.94 21.7864 43.94V40.19ZM47.9091 40.19C46.8736 40.19 46.0341 41.0295 46.0341 42.065C46.0341 43.1005 46.8736 43.94 47.9091 43.94V40.19ZM53.4034 42.065L53.4176 40.19H53.4034V42.065ZM56.0626 39.3775L57.9376 39.391V39.3775H56.0626ZM57.9376 32.5C57.9376 31.4645 57.0981 30.625 56.0626 30.625C55.0271 30.625 54.1876 31.4645 54.1876 32.5H57.9376ZM11.1492 43.94C12.1847 43.94 13.0242 43.1005 13.0242 42.065C13.0242 41.0295 12.1847 40.19 11.1492 40.19V43.94ZM5.09686 42.065V40.19H5.08261L5.09686 42.065ZM2.43755 39.3775H0.5625L0.562597 39.391L2.43755 39.3775ZM4.31256 32.5C4.31256 31.4645 3.47308 30.625 2.43755 30.625C1.40202 30.625 0.56255 31.4645 0.56255 32.5H4.31256ZM26.3671 12.5C26.3671 11.4645 25.5276 10.625 24.4921 10.625C23.4565 10.625 22.6171 11.4645 22.6171 12.5H26.3671ZM22.6171 25.6225C22.6171 26.658 23.4565 27.4975 24.4921 27.4975C25.5276 27.4975 26.3671 26.658 26.3671 25.6225H22.6171ZM2.43755 30.625C1.40202 30.625 0.56255 31.4645 0.56255 32.5C0.56255 33.5355 1.40202 34.375 2.43755 34.375V30.625ZM7.29548 34.375C8.33101 34.375 9.17048 33.5355 9.17048 32.5C9.17048 31.4645 8.33101 30.625 7.29548 30.625V34.375ZM56.0626 34.375C57.0981 34.375 57.9376 33.5355 57.9376 32.5C57.9376 31.4645 57.0981 30.625 56.0626 30.625V34.375ZM50.9999 30.625C49.9644 30.625 49.1249 31.4645 49.1249 32.5C49.1249 33.5355 49.9644 34.375 50.9999 34.375V30.625ZM10.0476 26.269L11.9171 21.1789L8.39708 19.8861L6.52751 24.9761L10.0476 26.269ZM11.902 21.2189C12.8141 18.9003 13.7283 17.1966 14.8707 16.0678C15.9333 15.0179 17.2845 14.375 19.3562 14.375V10.625C16.3482 10.625 14.0346 11.6221 12.235 13.4003C10.5152 15.0997 9.36971 17.4122 8.41226 19.8461L11.902 21.2189ZM19.3562 14.375H24.4921V10.625H19.3562V14.375ZM8.28756 23.7475H5.09686V27.4975H8.28756V23.7475ZM5.11111 23.7475C3.89816 23.7383 2.74098 24.2242 1.8917 25.0825L4.55728 27.7203C4.70546 27.5705 4.89531 27.496 5.08261 27.4975L5.11111 23.7475ZM1.8917 25.0825C1.04401 25.9392 0.571162 27.0962 0.56255 28.2965L4.31251 28.3235C4.31418 28.0875 4.40753 27.8715 4.55728 27.7203L1.8917 25.0825ZM0.56255 28.31V32.5H4.31256V28.31H0.56255ZM8.28756 27.4975H24.4921V23.7475H8.28756V27.4975ZM47.3291 24.9761L45.4596 19.8861L41.9396 21.1789L43.8091 26.269L47.3291 24.9761ZM45.4444 19.8461C44.4869 17.4122 43.3416 15.0997 41.6216 13.4003C39.8221 11.6221 37.5084 10.625 34.5004 10.625V14.375C36.5721 14.375 37.9234 15.0179 38.9859 16.0678C40.1284 17.1966 41.0426 18.9003 41.9546 21.2189L45.4444 19.8461ZM34.5004 10.625H24.4921V14.375H34.5004V10.625ZM45.5691 23.7475H24.4921V27.4975H45.5691V23.7475ZM45.5691 27.4975H53.4056V23.7475H45.5691V27.4975ZM53.4181 27.4975C53.7956 27.495 54.1839 27.8193 54.1876 28.3235L57.9376 28.2965C57.9196 25.812 55.9299 23.7306 53.3931 23.7475L53.4181 27.4975ZM54.1876 28.31V32.5H57.9376V28.31H54.1876ZM37.2719 40.19H21.7864V43.94H37.2719V40.19ZM47.9091 43.94H53.4034V40.19H47.9091V43.94ZM53.3889 43.94C54.6019 43.9492 55.7591 43.4632 56.6084 42.605L53.9429 39.9673C53.7946 40.117 53.6049 40.1915 53.4176 40.19L53.3889 43.94ZM56.6084 42.605C57.4561 41.7482 57.9289 40.5912 57.9376 39.391L54.1876 39.364C54.1859 39.6 54.0926 39.816 53.9429 39.9673L56.6084 42.605ZM57.9376 39.3775V32.5H54.1876V39.3775H57.9376ZM11.1492 40.19H5.09686V43.94H11.1492V40.19ZM5.08261 40.19C4.89531 40.1915 4.70546 40.117 4.55728 39.9673L1.89171 42.605C2.74098 43.4632 3.89816 43.9492 5.11111 43.94L5.08261 40.19ZM4.55728 39.9673C4.40753 39.816 4.31418 39.6 4.31251 39.364L0.562597 39.391C0.57121 40.5912 1.04401 41.7482 1.89171 42.605L4.55728 39.9673ZM4.31256 39.3775V32.5H0.56255L0.5625 39.3775H4.31256ZM22.6171 12.5V25.6225H26.3671V12.5H22.6171ZM2.43755 34.375H7.29548V30.625H2.43755V34.375ZM56.0626 30.625H50.9999V34.375H56.0626V30.625Z" fill="#2463EB"/>
</svg>
