<svg width="486" height="411" viewBox="0 0 486 411" fill="none" xmlns="http://www.w3.org/2000/svg">
<path d="M200.669 45.9307H21.1836V316.615H200.669V45.9307Z" fill="#303876"/>
<path d="M183.181 63.1016H38.6738V298.955H183.181V63.1016Z" fill="#EEF6FF"/>
<path d="M183.195 162.66C183.195 162.66 162.898 143.224 143.718 143.224C110.001 143.224 91.9018 207.038 69.7484 193.457C47.595 179.876 38.6875 166.75 38.6875 166.75V299.459H183.195V162.66Z" fill="#A5F7FA"/>
<path d="M75.9355 156.309C77.1195 156.264 78.3499 156.241 79.6269 156.241C79.6269 156.241 86.7028 150.101 94.8873 148.011C86.4719 150.089 75.9355 156.309 75.9355 156.309Z" fill="#300B39"/>
<path d="M73.2587 169.043C73.9174 164.985 71.1618 161.161 67.1039 160.503C63.046 159.844 59.2224 162.6 58.5638 166.657C57.9051 170.715 60.6607 174.539 64.7186 175.198C68.7765 175.856 72.6001 173.101 73.2587 169.043Z" fill="#300B39"/>
<path d="M70.4707 167.828C70.4712 168.74 70.2011 169.632 69.6946 170.391C69.1881 171.15 68.468 171.741 67.6252 172.091C66.7825 172.44 65.855 172.532 64.9601 172.354C64.0652 172.176 63.2432 171.737 62.5979 171.092C61.9526 170.447 61.5131 169.626 61.3349 168.731C61.1567 167.836 61.2479 166.909 61.5969 166.066C61.9459 165.223 62.5371 164.502 63.2957 163.995C64.0542 163.488 64.946 163.218 65.8583 163.218C67.0812 163.218 68.2541 163.703 69.119 164.568C69.9839 165.432 70.4701 166.605 70.4707 167.828Z" fill="#19BDDE"/>
<path d="M132.778 167.827C132.778 169.299 132.342 170.739 131.525 171.963C130.707 173.187 129.545 174.142 128.185 174.706C126.824 175.27 125.328 175.417 123.884 175.13C122.44 174.843 121.113 174.135 120.072 173.094C119.03 172.053 118.321 170.727 118.034 169.283C117.746 167.839 117.894 166.342 118.457 164.981C119.02 163.621 119.974 162.458 121.199 161.64C122.423 160.822 123.862 160.386 125.334 160.386C127.308 160.386 129.2 161.171 130.596 162.566C131.992 163.961 132.777 165.853 132.778 167.827Z" fill="#300B39"/>
<path d="M129.947 167.828C129.948 168.74 129.678 169.632 129.171 170.391C128.665 171.15 127.945 171.741 127.102 172.091C126.259 172.44 125.332 172.532 124.437 172.354C123.542 172.176 122.72 171.737 122.075 171.092C121.429 170.447 120.99 169.626 120.811 168.731C120.633 167.836 120.725 166.909 121.074 166.066C121.423 165.223 122.014 164.502 122.772 163.995C123.531 163.488 124.423 163.218 125.335 163.218C126.558 163.218 127.731 163.703 128.595 164.568C129.46 165.432 129.947 166.605 129.947 167.828Z" fill="#19BDDE"/>
<path d="M140.013 160.919V154.14C140.013 154.14 132.06 153.229 127.25 151.489C116.117 147.399 110.132 147.323 100.022 147.323C92.3451 147.323 84.569 152.463 81.2709 154.934C80.1572 155.768 78.8105 156.232 77.4198 156.261C65.275 156.515 57.7679 158.95 54.041 160.587C53.1869 160.964 52.4607 161.582 51.9509 162.364C51.4411 163.146 51.1694 164.06 51.169 164.994V167.277C51.0485 167.277 50.9331 167.325 50.8479 167.41C50.7627 167.495 50.7148 167.611 50.7148 167.731V171.519C50.7148 171.639 50.7627 171.755 50.8479 171.84C50.9331 171.925 51.0485 171.973 51.169 171.973H58.4148C57.6918 170.676 57.3203 169.212 57.3372 167.728C57.354 166.243 57.7585 164.788 58.5107 163.507C59.2628 162.227 60.3365 161.165 61.6253 160.428C62.9142 159.69 64.3734 159.302 65.8584 159.302C67.3434 159.302 68.8027 159.69 70.0916 160.428C71.3804 161.165 72.4541 162.227 73.2063 163.507C73.9585 164.788 74.363 166.243 74.3798 167.728C74.3966 169.212 74.0252 170.676 73.3022 171.973H117.891C117.168 170.676 116.796 169.212 116.813 167.728C116.83 166.243 117.234 164.788 117.986 163.507C118.739 162.227 119.812 161.165 121.101 160.428C122.39 159.69 123.849 159.302 125.334 159.302C126.819 159.302 128.278 159.69 129.567 160.428C130.856 161.165 131.93 162.227 132.682 163.507C133.434 164.788 133.839 166.243 133.856 167.728C133.872 169.212 133.501 170.676 132.778 171.973H134.554C140.716 171.973 141.589 165.674 141.657 162.586C141.661 162.368 141.621 162.152 141.54 161.949C141.459 161.747 141.339 161.562 141.186 161.407C141.033 161.252 140.85 161.129 140.649 161.045C140.448 160.961 140.231 160.919 140.013 160.919Z" fill="#F5492D"/>
<path d="M96.1188 148.546C89.0836 150.322 81.541 156.411 81.541 156.411L101.508 155.984C101.892 155.977 102.266 155.861 102.587 155.651C102.908 155.44 103.164 155.143 103.324 154.795L106.384 148.198H98.9807C98.0161 148.196 97.0548 148.313 96.1188 148.546Z" fill="#300B39"/>
<path d="M107.558 148.346L104.754 154.767C104.704 154.881 104.684 155.005 104.694 155.129C104.704 155.252 104.745 155.371 104.813 155.475C104.881 155.579 104.974 155.664 105.084 155.723C105.193 155.782 105.315 155.813 105.439 155.812C108.268 155.812 115.694 155.711 119.969 154.638C120.203 154.579 120.417 154.459 120.589 154.29C120.761 154.121 120.885 153.909 120.947 153.676C121.009 153.442 121.008 153.197 120.943 152.964C120.878 152.732 120.752 152.521 120.578 152.354C118.84 150.69 115.062 148.346 107.558 148.346Z" fill="#300B39"/>
<path d="M51.6875 162.819H54.6051C54.6051 162.819 59.3773 158.366 67.0366 157.105C67.0315 157.105 52.8901 158.663 51.6875 162.819Z" fill="#3A608D"/>
<path d="M140.014 160.919H139.24C139.028 160.92 138.82 160.86 138.64 160.747C138.461 160.634 138.317 160.472 138.226 160.28C137.779 159.334 136.8 157.54 135.295 156.266C135.167 156.158 135.075 156.013 135.031 155.85C134.988 155.688 134.996 155.516 135.054 155.358C135.112 155.2 135.217 155.063 135.355 154.967C135.493 154.871 135.657 154.82 135.826 154.82H140.012L140.014 160.919Z" fill="#3A608D"/>
<path d="M101.717 157.87H97.8354C97.7326 157.869 97.6344 157.828 97.5617 157.756C97.4891 157.683 97.4479 157.585 97.4473 157.482C97.4473 157.379 97.4882 157.28 97.561 157.207C97.6338 157.135 97.7324 157.094 97.8354 157.094H101.717C101.82 157.094 101.919 157.135 101.992 157.207C102.064 157.28 102.105 157.379 102.105 157.482C102.105 157.585 102.064 157.683 101.991 157.756C101.918 157.828 101.82 157.869 101.717 157.87Z" fill="#300B39"/>
<path d="M118.873 157.87H114.992C114.889 157.869 114.791 157.828 114.718 157.756C114.645 157.683 114.604 157.585 114.604 157.482C114.604 157.379 114.644 157.28 114.717 157.207C114.79 157.135 114.889 157.094 114.992 157.094H118.873C118.976 157.094 119.075 157.135 119.148 157.207C119.221 157.28 119.261 157.379 119.261 157.482C119.261 157.585 119.22 157.683 119.147 157.756C119.074 157.828 118.976 157.869 118.873 157.87Z" fill="#300B39"/>
<path d="M115.588 160.39H80.5995C80.2704 160.39 79.9474 160.478 79.6635 160.644C79.3795 160.81 79.1449 161.049 78.9837 161.336C78.8226 161.623 78.7406 161.948 78.7464 162.277C78.7521 162.606 78.8454 162.927 79.0164 163.208L81.2693 166.912C81.3854 167.103 81.5395 167.267 81.7219 167.396C81.9043 167.524 82.1111 167.613 82.3296 167.658C82.548 167.703 82.7733 167.703 82.9916 167.657C83.2098 167.611 83.4164 167.521 83.5983 167.392C86.5895 165.258 95.2052 160.834 115.588 160.39Z" fill="#D0301A"/>
<path d="M75.9355 100.649C77.1203 100.606 78.3508 100.58 79.6269 100.58C79.6269 100.58 86.7028 94.4405 94.8873 92.3525C86.4719 94.4304 75.9355 100.649 75.9355 100.649Z" fill="#300B39"/>
<path d="M73.3014 112.172C73.3014 113.644 72.8648 115.084 72.0469 116.308C71.229 117.532 70.0664 118.486 68.7062 119.049C67.3461 119.613 65.8495 119.76 64.4055 119.473C62.9616 119.186 61.6353 118.477 60.5943 117.436C59.5533 116.395 58.8443 115.068 58.5571 113.624C58.2699 112.18 58.4173 110.684 58.9806 109.324C59.544 107.963 60.4981 106.801 61.7222 105.983C62.9463 105.165 64.3854 104.729 65.8577 104.729C67.8318 104.729 69.7252 105.513 71.1211 106.909C72.5171 108.305 73.3014 110.198 73.3014 112.172Z" fill="#300B39"/>
<path d="M65.8583 116.784C68.4057 116.784 70.4707 114.719 70.4707 112.172C70.4707 109.625 68.4057 107.56 65.8583 107.56C63.311 107.56 61.2461 109.625 61.2461 112.172C61.2461 114.719 63.311 116.784 65.8583 116.784Z" fill="#19BDDE"/>
<path d="M132.778 112.172C132.778 113.644 132.341 115.084 131.524 116.308C130.706 117.532 129.543 118.486 128.183 119.049C126.823 119.613 125.326 119.76 123.882 119.473C122.438 119.186 121.112 118.477 120.071 117.436C119.03 116.395 118.321 115.068 118.034 113.624C117.746 112.18 117.894 110.684 118.457 109.324C119.021 107.963 119.975 106.801 121.199 105.983C122.423 105.165 123.862 104.729 125.334 104.729C126.312 104.729 127.28 104.921 128.183 105.295C129.086 105.669 129.907 106.218 130.598 106.909C131.289 107.6 131.837 108.421 132.211 109.324C132.585 110.227 132.778 111.195 132.778 112.172Z" fill="#300B39"/>
<path d="M129.947 112.172C129.947 113.084 129.677 113.976 129.17 114.734C128.663 115.493 127.943 116.084 127.1 116.433C126.257 116.782 125.33 116.874 124.435 116.696C123.54 116.518 122.719 116.078 122.074 115.433C121.429 114.788 120.989 113.966 120.811 113.072C120.633 112.177 120.725 111.25 121.074 110.407C121.423 109.564 122.014 108.844 122.773 108.337C123.531 107.83 124.423 107.56 125.335 107.56C126.558 107.56 127.731 108.046 128.596 108.91C129.461 109.775 129.947 110.949 129.947 112.172Z" fill="#19BDDE"/>
<path d="M140.013 105.259V98.4801C140.013 98.4801 132.06 97.5719 127.25 95.8289C116.117 91.7392 110.132 91.6631 100.022 91.6631C92.3451 91.6631 84.569 96.8031 81.2709 99.2742C80.1572 100.108 78.8105 100.572 77.4198 100.601C65.275 100.867 57.7679 103.29 54.041 104.927C53.1869 105.304 52.4607 105.922 51.9509 106.704C51.4411 107.486 51.1694 108.4 51.169 109.334V111.617C51.0485 111.617 50.9331 111.665 50.8479 111.75C50.7627 111.835 50.7148 111.951 50.7148 112.071V115.856C50.7148 115.977 50.7627 116.093 50.8478 116.178C50.9329 116.264 51.0483 116.312 51.169 116.313H58.4148C57.6918 115.016 57.3203 113.552 57.3372 112.067C57.354 110.582 57.7585 109.128 58.5107 107.847C59.2628 106.567 60.3365 105.505 61.6253 104.768C62.9142 104.03 64.3734 103.642 65.8584 103.642C67.3434 103.642 68.8027 104.03 70.0916 104.768C71.3804 105.505 72.4541 106.567 73.2063 107.847C73.9585 109.128 74.363 110.582 74.3798 112.067C74.3966 113.552 74.0252 115.016 73.3022 116.313H117.891C117.168 115.016 116.796 113.552 116.813 112.067C116.83 110.582 117.234 109.128 117.986 107.847C118.739 106.567 119.812 105.505 121.101 104.768C122.39 104.03 123.849 103.642 125.334 103.642C126.819 103.642 128.278 104.03 129.567 104.768C130.856 105.505 131.93 106.567 132.682 107.847C133.434 109.128 133.839 110.582 133.856 112.067C133.872 113.552 133.501 115.016 132.778 116.313H134.554C140.716 116.313 141.589 110.011 141.657 106.926C141.661 106.708 141.621 106.491 141.54 106.289C141.459 106.087 141.339 105.902 141.186 105.747C141.033 105.592 140.85 105.469 140.649 105.385C140.448 105.301 140.231 105.258 140.013 105.259Z" fill="#FBBA01"/>
<path d="M96.1188 92.8887C89.0836 94.6646 81.541 100.753 81.541 100.753L101.508 100.325C101.891 100.318 102.265 100.202 102.587 99.9923C102.908 99.7823 103.163 99.486 103.324 99.1374L106.384 92.5411H98.9807C98.016 92.5374 97.0546 92.6542 96.1188 92.8887Z" fill="#300B39"/>
<path d="M107.557 92.6855L104.753 99.1068C104.707 99.2208 104.689 99.3443 104.701 99.4669C104.713 99.5894 104.754 99.7072 104.821 99.8102C104.889 99.9132 104.98 99.9984 105.088 100.058C105.195 100.118 105.315 100.151 105.438 100.155C108.267 100.155 115.693 100.051 119.968 98.9799C120.202 98.921 120.415 98.8006 120.587 98.6314C120.758 98.4621 120.882 98.2501 120.944 98.0172C121.006 97.7844 121.005 97.5392 120.94 97.307C120.876 97.0748 120.75 96.8641 120.577 96.6966C118.839 95.0298 115.061 92.6855 107.557 92.6855Z" fill="#300B39"/>
<path d="M51.6875 107.162H54.6051C54.6051 107.162 59.3773 102.71 67.0366 101.446C67.0315 101.446 52.8901 103.004 51.6875 107.162Z" fill="#3A608D"/>
<path d="M140.013 105.259H139.239C139.027 105.259 138.819 105.199 138.639 105.086C138.46 104.973 138.316 104.811 138.225 104.619C137.778 103.676 136.799 101.882 135.294 100.606C135.167 100.497 135.075 100.352 135.033 100.19C134.99 100.028 134.998 99.8564 135.056 99.699C135.114 99.5417 135.219 99.4059 135.356 99.3099C135.493 99.2138 135.657 99.1623 135.825 99.1621H140.011L140.013 105.259Z" fill="#3A608D"/>
<path d="M101.717 102.21H97.8354C97.7324 102.21 97.6338 102.169 97.561 102.096C97.4882 102.023 97.4473 101.925 97.4473 101.822C97.4479 101.719 97.4891 101.621 97.5617 101.548C97.6344 101.475 97.7326 101.434 97.8354 101.434H101.717C101.82 101.434 101.918 101.475 101.991 101.548C102.064 101.621 102.105 101.719 102.105 101.822C102.105 101.925 102.064 102.023 101.992 102.096C101.919 102.169 101.82 102.21 101.717 102.21Z" fill="#300B39"/>
<path d="M118.873 102.21H114.992C114.889 102.21 114.79 102.169 114.717 102.096C114.644 102.023 114.604 101.925 114.604 101.822C114.604 101.719 114.645 101.621 114.718 101.548C114.791 101.475 114.889 101.434 114.992 101.434H118.873C118.976 101.434 119.074 101.475 119.147 101.548C119.22 101.621 119.261 101.719 119.261 101.822C119.261 101.925 119.221 102.023 119.148 102.096C119.075 102.169 118.976 102.21 118.873 102.21Z" fill="#300B39"/>
<path d="M115.588 104.729H80.5995C80.2704 104.729 79.9474 104.816 79.6635 104.983C79.3795 105.149 79.1449 105.388 78.9837 105.675C78.8226 105.962 78.7406 106.286 78.7464 106.615C78.7521 106.944 78.8454 107.266 79.0164 107.547L81.2693 111.251C81.3849 111.442 81.5387 111.607 81.7211 111.736C81.9034 111.865 82.1104 111.954 82.3291 111.999C82.5477 112.044 82.7733 112.044 82.9917 111.998C83.2101 111.951 83.4167 111.86 83.5983 111.731C86.5895 109.597 95.2052 105.162 115.588 104.729Z" fill="#FA7205"/>
<path d="M44.5273 92.31H47.0973V86.5991H59.8002V84.0596H44.5273V92.31Z" fill="#3A608D"/>
<path d="M135.234 84.0596V86.5991H145.268V92.31H147.838V84.0596H135.234Z" fill="#3A608D"/>
<path d="M145.268 124.68H135.234V127.22H147.838V118.462H145.268V124.68Z" fill="#3A608D"/>
<path d="M47.0973 118.462H44.5273V127.22H59.8002V124.68H47.0973V118.462Z" fill="#3A608D"/>
<path d="M44.5273 147.968H47.0973V142.257H59.8002V139.72H44.5273V147.968Z" fill="#3A608D"/>
<path d="M135.234 139.72V142.257H145.268V147.968H147.838V139.72H135.234Z" fill="#3A608D"/>
<path d="M145.268 180.34H135.234V182.88H147.838V174.122H145.268V180.34Z" fill="#3A608D"/>
<path d="M47.0973 174.122H44.5273V182.88H59.8002V180.34H47.0973V174.122Z" fill="#3A608D"/>
<mask id="mask0_895_732" style="mask-type:luminance" maskUnits="userSpaceOnUse" x="38" y="63" width="146" height="237">
<path d="M183.181 63.3447H38.6738V299.198H183.181V63.3447Z" fill="white"/>
</mask>
<g mask="url(#mask0_895_732)">
<path d="M112.137 225.715C115.191 225.6 118.365 225.542 121.658 225.54C121.658 225.54 139.902 209.709 161.005 204.32C139.303 209.689 112.137 225.715 112.137 225.715Z" fill="#300B39"/>
<path d="M99.728 268.989C107.222 261.495 107.222 249.345 99.728 241.85C92.2338 234.356 80.0833 234.356 72.589 241.85C65.0948 249.345 65.0948 261.495 72.589 268.989C80.0832 276.484 92.2338 276.484 99.728 268.989Z" fill="#300B39"/>
<path d="M98.0478 255.421C98.0483 257.773 97.3514 260.072 96.0449 262.028C94.7385 263.984 92.8814 265.508 90.7085 266.409C88.5356 267.309 86.1444 267.545 83.8376 267.086C81.5307 266.627 79.4116 265.495 77.7484 263.832C76.0853 262.168 74.9527 260.049 74.494 257.743C74.0353 255.436 74.2709 253.045 75.1712 250.872C76.0716 248.699 77.5961 246.842 79.552 245.535C81.5078 244.229 83.8072 243.532 86.1593 243.532C89.3121 243.533 92.3356 244.786 94.565 247.015C96.7944 249.244 98.0471 252.268 98.0478 255.421Z" fill="#19BDDE"/>
<path d="M277.359 237.596V220.116C277.359 220.116 256.853 217.774 244.452 213.281C215.742 202.734 200.307 202.539 174.244 202.539C154.455 202.539 134.4 215.795 125.893 222.178C123.023 224.328 119.551 225.524 115.966 225.598C84.6536 226.283 65.296 232.534 55.6832 236.761C53.4788 237.732 51.6047 239.323 50.2896 241.341C48.9746 243.359 48.2754 245.716 48.2776 248.125V254.008C47.9667 254.008 47.6687 254.131 47.4489 254.351C47.229 254.571 47.1055 254.869 47.1055 255.18V264.945C47.1055 265.256 47.229 265.554 47.4489 265.774C47.6687 265.994 47.9667 266.117 48.2776 266.117H66.9629C65.0465 262.677 64.0946 258.784 64.2077 254.848C64.4994 243.195 74.0184 233.704 85.671 233.445C89.5406 233.357 93.3649 234.292 96.7568 236.157C100.149 238.021 102.988 240.749 104.987 244.063C106.985 247.378 108.073 251.162 108.139 255.032C108.205 258.902 107.248 262.721 105.364 266.102H220.332C218.414 262.668 217.457 258.78 217.561 254.848C217.856 243.195 227.372 233.704 239.027 233.445C242.897 233.357 246.721 234.292 250.113 236.157C253.505 238.021 256.344 240.749 258.343 244.063C260.342 247.378 261.429 251.162 261.495 255.032C261.562 258.902 260.604 262.721 258.72 266.102H263.312C279.199 266.102 281.449 249.865 281.599 241.889C281.608 241.327 281.505 240.769 281.296 240.247C281.086 239.726 280.775 239.251 280.381 238.852C279.986 238.452 279.515 238.135 278.997 237.919C278.478 237.704 277.921 237.594 277.359 237.596Z" fill="#19BDDE"/>
<path d="M164.166 205.697C146.029 210.289 126.58 225.978 126.58 225.978L178.062 224.877C179.051 224.856 180.015 224.558 180.844 224.016C181.672 223.474 182.332 222.711 182.748 221.813L190.638 204.789H171.549C169.06 204.786 166.58 205.091 164.166 205.697Z" fill="#300B39"/>
<path d="M49.6172 242.505H57.1395C57.1395 242.505 69.439 231.023 89.1771 227.768C89.1771 227.768 52.7124 231.786 49.6172 242.505Z" fill="#3A608D"/>
<path d="M178.613 229.731H168.607C168.475 229.731 168.343 229.705 168.221 229.654C168.099 229.603 167.988 229.528 167.895 229.433C167.802 229.339 167.728 229.227 167.679 229.104C167.63 228.981 167.606 228.849 167.608 228.716C167.607 228.585 167.633 228.455 167.683 228.334C167.733 228.212 167.807 228.102 167.9 228.009C167.992 227.916 168.103 227.842 168.224 227.792C168.346 227.742 168.476 227.717 168.607 227.717H178.613C178.746 227.715 178.877 227.739 179 227.789C179.123 227.838 179.235 227.911 179.33 228.004C179.424 228.097 179.499 228.208 179.55 228.33C179.602 228.453 179.628 228.584 179.628 228.716C179.628 228.986 179.521 229.244 179.331 229.434C179.14 229.624 178.882 229.731 178.613 229.731Z" fill="#300B39"/>
<path d="M214.377 236.23H124.163C123.314 236.231 122.48 236.457 121.748 236.885C121.015 237.314 120.41 237.93 119.994 238.67C119.578 239.41 119.367 240.247 119.382 241.096C119.396 241.945 119.637 242.774 120.078 243.499L125.888 253.048C126.186 253.54 126.583 253.965 127.053 254.297C127.524 254.628 128.057 254.86 128.621 254.976C129.184 255.092 129.766 255.091 130.329 254.972C130.892 254.854 131.424 254.62 131.893 254.287C139.606 248.786 161.825 237.377 214.377 236.23Z" fill="#1C90A4"/>
</g>
<path d="M183.194 275.74H54.9747C54.8978 275.74 54.8216 275.725 54.7505 275.696C54.6794 275.666 54.6148 275.623 54.5604 275.569C54.5059 275.514 54.4628 275.45 54.4334 275.379C54.4039 275.308 54.3887 275.231 54.3887 275.154C54.3893 274.999 54.4513 274.851 54.5611 274.741C54.6709 274.631 54.8195 274.569 54.9747 274.568H183.194V275.74Z" fill="#0F2B4E"/>
<path d="M166.295 137.619C168.803 137.619 170.836 135.586 170.836 133.077C170.836 130.569 168.803 128.536 166.295 128.536C163.787 128.536 161.754 130.569 161.754 133.077C161.754 135.586 163.787 137.619 166.295 137.619Z" fill="#19BDDE"/>
<path d="M158.164 123.992C158.37 124.198 158.649 124.314 158.941 124.314C159.232 124.314 159.511 124.198 159.717 123.992L166.123 117.594L172.699 124.172C172.905 124.378 173.184 124.494 173.475 124.494C173.766 124.494 174.046 124.378 174.252 124.172L174.424 124C174.527 123.898 174.608 123.777 174.664 123.643C174.719 123.51 174.748 123.367 174.748 123.222C174.748 123.078 174.719 122.935 174.664 122.801C174.608 122.668 174.527 122.547 174.424 122.445L166.306 114.326L158.174 122.445C157.969 122.649 157.853 122.927 157.852 123.216C157.85 123.506 157.962 123.785 158.164 123.992Z" fill="#19BDDE"/>
<path d="M158.164 141.042C158.37 140.836 158.649 140.72 158.94 140.72C159.232 140.72 159.511 140.836 159.717 141.042L166.123 147.445L172.699 140.869C172.905 140.663 173.184 140.548 173.475 140.548C173.766 140.548 174.045 140.663 174.251 140.869L174.424 141.042C174.527 141.144 174.608 141.265 174.663 141.398C174.719 141.532 174.748 141.675 174.748 141.819C174.748 141.964 174.719 142.107 174.663 142.24C174.608 142.374 174.527 142.495 174.424 142.597L166.306 150.715L158.174 142.597C157.967 142.392 157.85 142.113 157.848 141.821C157.846 141.53 157.96 141.249 158.164 141.042Z" fill="#19BDDE"/>
<path d="M349.19 398.444V386.566H367.89C368.133 386.565 368.367 386.468 368.539 386.296C368.711 386.124 368.808 385.891 368.808 385.648V383.73C368.808 383.486 368.711 383.253 368.539 383.081C368.367 382.909 368.133 382.812 367.89 382.811H349.19V315.204C349.188 314.29 348.824 313.414 348.178 312.768C347.531 312.121 346.656 311.757 345.742 311.754H342.04C341.126 311.757 340.25 312.121 339.604 312.768C338.958 313.414 338.594 314.29 338.592 315.204V382.816H319.892C319.648 382.817 319.415 382.914 319.243 383.086C319.071 383.258 318.974 383.491 318.973 383.735V385.637C318.974 385.881 319.071 386.114 319.243 386.286C319.415 386.458 319.648 386.555 319.892 386.556H338.592V398.444C325.062 399.459 314.222 404.338 311.18 410.622H376.602C373.56 404.328 362.72 399.459 349.19 398.444Z" fill="#0D458B"/>
<path d="M300.129 306.761H387.657C388.075 306.761 388.489 306.843 388.876 307.003C389.262 307.163 389.613 307.398 389.909 307.693C390.204 307.989 390.439 308.34 390.599 308.726C390.759 309.113 390.841 309.527 390.841 309.945V327.45C390.841 327.868 390.759 328.282 390.599 328.669C390.439 329.055 390.204 329.406 389.909 329.702C389.613 329.997 389.262 330.232 388.876 330.392C388.489 330.552 388.075 330.634 387.657 330.634H300.129C299.285 330.634 298.475 330.299 297.878 329.702C297.281 329.105 296.945 328.295 296.945 327.45V309.945C296.945 309.527 297.027 309.112 297.187 308.726C297.347 308.339 297.581 307.988 297.877 307.693C298.173 307.397 298.524 307.162 298.911 307.002C299.297 306.843 299.711 306.76 300.129 306.761Z" fill="#D0301A"/>
<path d="M387.88 14.2451H208.395V284.929H387.88V14.2451Z" fill="#1C90A4"/>
<path d="M370.39 31.6602H225.883V267.513H370.39V31.6602Z" fill="#EEF6FF"/>
<mask id="mask1_895_732" style="mask-type:luminance" maskUnits="userSpaceOnUse" x="225" y="31" width="146" height="237">
<path d="M370.388 31.6592H225.881V267.512H370.388V31.6592Z" fill="white"/>
</mask>
<g mask="url(#mask1_895_732)">
<path d="M317.368 55.5104L295.732 77.1455L317.368 98.7806L339.003 77.1455L317.368 55.5104Z" fill="#19BDDE"/>
<path d="M251.028 -10.8304L229.393 10.8047L289.661 71.0726L311.296 49.4375L251.028 -10.8304Z" fill="#19BDDE"/>
<path d="M284.303 -44.1079L256.439 -16.2441L344.415 71.7315L372.279 43.8677L284.303 -44.1079Z" fill="#19BDDE"/>
<path d="M278.969 180.868L261.531 198.306L322.791 259.566L340.229 242.128L278.969 180.868Z" fill="#19BDDE"/>
<path d="M197.911 65.9396L184.184 79.667L373.179 268.662L386.906 254.935L197.911 65.9396Z" fill="#CBF8FF"/>
<path d="M160.325 103.525L146.598 117.252L335.593 306.247L349.32 292.52L160.325 103.525Z" fill="#CBF8FF"/>
<path d="M224.337 15.8859L210.609 29.6133L312.077 131.081L325.805 117.354L224.337 15.8859Z" fill="#CBF8FF"/>
<path d="M373.01 72.5775L353.701 74.5898L364.292 176.211L383.601 174.199L373.01 72.5775Z" fill="#CBF8FF"/>
<path d="M484.481 156.075L463.213 177.81L307.231 194.067L305.217 174.758L484.481 156.075Z" fill="#CBF8FF"/>
<path d="M390.739 62.3504L377.012 48.623L199.536 226.099L213.263 239.826L390.739 62.3504Z" fill="#CBF8FF"/>
<path d="M236.153 41.4246L222.426 27.6973L111.789 138.334L125.516 152.061L236.153 41.4246Z" fill="#1C90A4"/>
<path d="M371.921 244.599L358.193 230.872L310.514 278.552L324.241 292.279L371.921 244.599Z" fill="#CBF8FF"/>
<path d="M298.996 160.756L308.312 170.59L358.746 165.333L352.614 105.807L298.996 160.756Z" fill="#1C90A4"/>
<path d="M241.949 216.857L216.129 242.678L240.478 267.027L266.299 241.207L241.949 216.857Z" fill="#1C90A4"/>
<path d="M269.57 244.474L243.75 270.294L307.24 333.784L333.06 307.963L269.57 244.474Z" fill="#19BDDE"/>
<path d="M278.413 104.385L260.219 122.579L276.888 139.249L295.082 121.054L278.413 104.385Z" fill="#19BDDE"/>
<path d="M256.997 82.9668L238.803 101.161L255.472 117.831L273.666 99.6363L256.997 82.9668Z" fill="#19BDDE"/>
<path d="M230.892 56.8652L212.697 75.0596L234.546 96.9082L252.74 78.7138L230.892 56.8652Z" fill="#19BDDE"/>
<path d="M193.308 94.4521L175.113 112.646L239.409 176.942L257.603 158.747L193.308 94.4521Z" fill="#19BDDE"/>
<path d="M391.943 249.081L341.385 198.525L452.748 188.275L391.943 249.081Z" fill="#19BDDE"/>
</g>
<path d="M231.622 0C224.063 0 216.814 3.00278 211.469 8.34777C206.124 13.6928 203.121 20.9421 203.121 28.5011C203.121 44.2434 231.622 72.5314 231.622 72.5314C231.622 72.5314 260.126 44.2434 260.126 28.5011C260.125 20.9419 257.122 13.6925 251.776 8.34762C246.431 3.0027 239.181 -2.99433e-08 231.622 0ZM231.622 45.3724C227.798 45.3719 224.059 44.2373 220.88 42.1122C217.7 39.9871 215.222 36.9669 213.759 33.4334C212.295 29.8999 211.913 26.0119 212.659 22.261C213.406 18.5101 215.248 15.0648 217.952 12.3606C220.657 9.65653 224.102 7.81508 227.853 7.06915C231.604 6.32323 235.492 6.70631 239.025 8.16998C242.559 9.63365 245.579 12.1122 247.703 15.2921C249.828 18.4721 250.962 22.2106 250.962 26.0351C250.962 28.5747 250.462 31.0894 249.49 33.4357C248.518 35.782 247.093 37.9138 245.297 39.7095C243.501 41.5052 241.369 42.9295 239.023 43.9011C236.677 44.8728 234.162 45.3727 231.622 45.3724Z" fill="#F9B803"/>
<path d="M363.435 140.364C355.876 140.364 348.626 143.367 343.281 148.712C337.936 154.057 334.932 161.306 334.932 168.865C334.932 184.595 363.435 212.893 363.435 212.893C363.435 212.893 391.936 184.608 391.936 168.865C391.936 165.123 391.199 161.416 389.767 157.958C388.335 154.501 386.235 151.359 383.589 148.712C380.942 146.065 377.8 143.966 374.342 142.534C370.884 141.101 367.178 140.364 363.435 140.364ZM363.435 185.737C359.611 185.737 355.872 184.603 352.692 182.478C349.512 180.353 347.034 177.333 345.57 173.799C344.106 170.266 343.723 166.378 344.47 162.627C345.216 158.876 347.057 155.43 349.762 152.726C352.466 150.021 355.912 148.18 359.663 147.434C363.414 146.687 367.302 147.07 370.835 148.534C374.369 149.998 377.389 152.476 379.514 155.656C381.638 158.836 382.773 162.575 382.773 166.399C382.773 171.528 380.735 176.446 377.109 180.073C373.482 183.699 368.564 185.737 363.435 185.737Z" fill="#F5492D"/>
<path d="M256.076 63.9103C255.884 63.911 255.694 63.8735 255.516 63.7999C255.338 63.7262 255.177 63.618 255.041 63.4815L253.798 62.2384C253.524 61.9637 253.371 61.5916 253.371 61.2038C253.371 60.816 253.526 60.4442 253.8 60.17C254.074 59.8958 254.446 59.7415 254.834 59.7412C255.222 59.7409 255.594 59.8944 255.868 60.1682L257.111 61.4088C257.316 61.6139 257.455 61.8748 257.511 62.1588C257.568 62.4428 257.538 62.7371 257.428 63.0046C257.317 63.2721 257.13 63.5009 256.889 63.662C256.649 63.8232 256.366 63.9096 256.076 63.9103Z" fill="#A5F7FA"/>
<path d="M257.616 65.4529C257.228 65.4521 256.856 65.298 256.581 65.0241L255.041 63.4816C254.766 63.2071 254.612 62.8346 254.611 62.4461C254.611 62.0577 254.765 61.685 255.04 61.4101C255.314 61.1353 255.687 60.9807 256.075 60.9805C256.464 60.9802 256.836 61.1343 257.111 61.4089L258.654 62.9514C258.858 63.1566 258.997 63.4178 259.053 63.702C259.11 63.9862 259.081 64.2807 258.97 64.5483C258.859 64.816 258.671 65.0447 258.43 65.2057C258.189 65.3667 257.906 65.4527 257.616 65.4529Z" fill="#2EABBE"/>
<path d="M309.643 117.477C309.254 117.477 308.881 117.323 308.606 117.049L304.752 113.195C304.491 112.917 304.349 112.549 304.355 112.168C304.361 111.787 304.515 111.424 304.785 111.155C305.054 110.885 305.417 110.731 305.798 110.725C306.179 110.719 306.547 110.861 306.825 111.122L310.679 114.976C310.883 115.181 311.022 115.442 311.078 115.726C311.134 116.01 311.105 116.304 310.995 116.572C310.884 116.839 310.697 117.068 310.456 117.229C310.216 117.39 309.933 117.477 309.643 117.477ZM300.972 108.806C300.779 108.806 300.589 108.768 300.411 108.695C300.234 108.621 300.072 108.513 299.937 108.377L296.093 104.523C295.819 104.248 295.666 103.876 295.666 103.489C295.666 103.101 295.821 102.729 296.095 102.455C296.369 102.181 296.741 102.026 297.129 102.026C297.516 102.026 297.889 102.179 298.163 102.453L302.017 106.307C302.222 106.511 302.361 106.772 302.418 107.056C302.474 107.34 302.445 107.635 302.334 107.902C302.224 108.169 302.036 108.398 301.795 108.559C301.554 108.72 301.271 108.806 300.982 108.806H300.972ZM292.3 100.134C292.108 100.134 291.917 100.097 291.74 100.023C291.562 99.9495 291.401 99.8415 291.265 99.7053L287.411 95.8516C287.137 95.5767 286.983 95.204 286.983 94.8156C286.983 94.4271 287.138 94.0546 287.413 93.7801C287.687 93.5056 288.06 93.3515 288.449 93.3517C288.837 93.3519 289.21 93.5065 289.484 93.7813L293.338 97.6351C293.543 97.84 293.682 98.1011 293.739 98.3853C293.795 98.6695 293.766 98.964 293.655 99.2316C293.544 99.4992 293.356 99.7278 293.114 99.8884C292.873 100.049 292.59 100.135 292.3 100.134ZM283.631 91.4625C283.242 91.4623 282.869 91.3082 282.593 91.0337L278.74 87.18C278.596 87.0455 278.482 86.8836 278.402 86.7039C278.323 86.5243 278.28 86.3304 278.277 86.1339C278.274 85.9374 278.31 85.7423 278.384 85.5602C278.458 85.378 278.567 85.2126 278.706 85.0736C278.845 84.9347 279.011 84.8251 279.193 84.7513C279.375 84.6776 279.57 84.6412 279.766 84.6443C279.963 84.6475 280.157 84.69 280.336 84.7696C280.516 84.8491 280.678 84.9639 280.812 85.1072L284.676 88.9635C284.881 89.1686 285.02 89.4295 285.076 89.7135C285.132 89.9975 285.103 90.2918 284.993 90.5593C284.882 90.8268 284.695 91.0556 284.454 91.2168C284.214 91.3779 283.931 91.4643 283.641 91.465L283.631 91.4625ZM274.96 82.7909C274.767 82.7916 274.577 82.7541 274.399 82.6804C274.221 82.6068 274.06 82.4986 273.924 82.3621L270.071 78.5236C269.796 78.2491 269.641 77.8766 269.641 77.4881C269.641 77.0996 269.795 76.727 270.069 76.4521C270.344 76.1772 270.716 76.0227 271.105 76.0225C271.493 76.0222 271.866 76.1763 272.141 76.4508L275.995 80.2995C276.199 80.5046 276.338 80.7656 276.394 81.0495C276.451 81.3335 276.422 81.6278 276.311 81.8953C276.2 82.1628 276.013 82.3916 275.772 82.5528C275.532 82.714 275.249 82.8003 274.96 82.801V82.7909ZM266.288 74.1193C266.096 74.1197 265.905 74.082 265.728 74.0085C265.55 73.9349 265.389 73.8268 265.253 73.6906L261.399 69.8368C261.125 69.5619 260.97 69.1893 260.971 68.8008C260.971 68.4123 261.125 68.0398 261.4 67.7653C261.675 67.4908 262.048 67.3367 262.436 67.3369C262.825 67.3372 263.197 67.4917 263.472 67.7666L267.323 71.6203C267.528 71.8251 267.667 72.0859 267.724 72.3699C267.78 72.6538 267.751 72.9482 267.64 73.2156C267.53 73.4831 267.342 73.7118 267.101 73.8726C266.86 74.0335 266.577 74.1193 266.288 74.1193Z" fill="#2EABBE"/>
<path d="M314.458 124.779C314.169 124.779 313.886 124.693 313.645 124.532C313.404 124.372 313.216 124.143 313.106 123.876C312.995 123.608 312.966 123.314 313.022 123.03C313.079 122.746 313.218 122.485 313.423 122.28L313.631 122.072L313.423 121.864C313.148 121.589 312.994 121.217 312.995 120.828C312.995 120.44 313.149 120.067 313.424 119.793C313.699 119.518 314.072 119.364 314.46 119.364C314.849 119.364 315.221 119.519 315.496 119.794L316.739 121.037C317.013 121.312 317.167 121.684 317.167 122.072C317.167 122.46 317.013 122.832 316.739 123.107L315.496 124.35C315.359 124.487 315.198 124.595 315.02 124.668C314.842 124.742 314.651 124.78 314.458 124.779Z" fill="#2EABBE"/>
<path d="M312.838 126.398C312.548 126.397 312.266 126.311 312.025 126.15C311.785 125.988 311.597 125.76 311.486 125.492C311.376 125.225 311.347 124.93 311.403 124.646C311.459 124.362 311.598 124.101 311.803 123.896L313.419 122.28C313.555 122.144 313.716 122.036 313.894 121.962C314.071 121.889 314.262 121.851 314.454 121.851C314.647 121.85 314.837 121.888 315.015 121.962C315.193 122.035 315.354 122.143 315.49 122.279C315.626 122.415 315.734 122.576 315.808 122.754C315.882 122.932 315.92 123.122 315.92 123.314C315.92 123.507 315.882 123.697 315.809 123.875C315.735 124.053 315.628 124.214 315.492 124.35L313.878 125.967C313.742 126.103 313.58 126.212 313.401 126.286C313.222 126.36 313.031 126.398 312.838 126.398Z" fill="#2EABBE"/>
<path d="M285.551 153.689C285.261 153.688 284.978 153.601 284.738 153.44C284.497 153.279 284.31 153.05 284.199 152.783C284.089 152.515 284.06 152.221 284.116 151.937C284.172 151.653 284.311 151.392 284.516 151.187L288.557 147.145C288.693 147.009 288.854 146.901 289.032 146.828C289.21 146.754 289.4 146.716 289.593 146.716C289.785 146.716 289.975 146.753 290.153 146.827C290.331 146.901 290.492 147.008 290.629 147.144C290.765 147.28 290.873 147.442 290.946 147.619C291.02 147.797 291.058 147.987 291.058 148.18C291.058 148.372 291.021 148.563 290.947 148.74C290.874 148.918 290.766 149.08 290.63 149.216L286.586 153.26C286.311 153.534 285.939 153.688 285.551 153.689ZM294.649 144.591C294.359 144.591 294.075 144.506 293.834 144.345C293.593 144.184 293.405 143.956 293.294 143.688C293.183 143.421 293.154 143.126 293.21 142.842C293.267 142.558 293.406 142.297 293.611 142.092L297.655 138.048C297.93 137.774 298.302 137.62 298.689 137.621C299.077 137.621 299.449 137.775 299.723 138.049C299.998 138.324 300.152 138.696 300.152 139.083C300.152 139.471 299.999 139.843 299.725 140.118L297.3 142.546L295.684 144.162C295.548 144.298 295.386 144.406 295.209 144.48C295.031 144.553 294.841 144.591 294.649 144.591ZM303.744 135.493C303.454 135.493 303.171 135.407 302.931 135.246C302.69 135.085 302.502 134.857 302.391 134.589C302.281 134.322 302.252 134.027 302.308 133.743C302.365 133.459 302.504 133.199 302.709 132.994L306.748 128.95C306.884 128.814 307.045 128.706 307.223 128.633C307.401 128.559 307.591 128.521 307.784 128.521C307.976 128.522 308.166 128.56 308.344 128.633C308.522 128.707 308.683 128.815 308.819 128.951C308.955 129.087 309.063 129.249 309.136 129.427C309.21 129.604 309.248 129.795 309.248 129.987C309.247 130.179 309.209 130.37 309.136 130.548C309.062 130.725 308.954 130.887 308.818 131.023L304.776 135.064C304.503 135.338 304.131 135.492 303.744 135.493Z" fill="#2EABBE"/>
<path d="M280.498 161.231C280.306 161.231 280.115 161.193 279.937 161.119C279.76 161.045 279.598 160.936 279.463 160.799L278.22 159.556C277.945 159.282 277.791 158.909 277.791 158.521C277.791 158.133 277.945 157.761 278.22 157.486L279.463 156.243C279.738 155.968 280.111 155.814 280.499 155.814C280.887 155.815 281.26 155.969 281.535 156.244C281.809 156.519 281.963 156.892 281.963 157.28C281.963 157.669 281.808 158.041 281.533 158.316L281.328 158.521L281.533 158.729C281.738 158.934 281.877 159.195 281.933 159.479C281.989 159.763 281.96 160.057 281.85 160.325C281.739 160.592 281.551 160.821 281.311 160.982C281.07 161.144 280.788 161.23 280.498 161.231Z" fill="#2EABBE"/>
<path d="M282.179 162.909C281.987 162.909 281.796 162.872 281.619 162.798C281.441 162.725 281.28 162.617 281.144 162.48L279.462 160.798C279.188 160.523 279.035 160.151 279.035 159.763C279.035 159.376 279.19 159.004 279.464 158.73C279.738 158.455 280.11 158.301 280.498 158.301C280.886 158.3 281.258 158.454 281.532 158.728L283.214 160.41C283.419 160.615 283.559 160.875 283.615 161.159C283.672 161.443 283.643 161.738 283.532 162.005C283.421 162.273 283.233 162.501 282.993 162.662C282.752 162.823 282.469 162.909 282.179 162.909Z" fill="#2EABBE"/>
<path d="M348.401 229.13C348.208 229.131 348.018 229.093 347.84 229.02C347.662 228.946 347.501 228.838 347.366 228.701L343.159 224.497C343.023 224.361 342.916 224.2 342.842 224.022C342.769 223.844 342.731 223.654 342.731 223.461C342.731 223.269 342.769 223.079 342.843 222.901C342.916 222.723 343.024 222.562 343.16 222.426C343.297 222.29 343.458 222.182 343.636 222.109C343.814 222.035 344.004 221.997 344.196 221.998C344.389 221.998 344.579 222.036 344.757 222.109C344.935 222.183 345.096 222.291 345.232 222.427L349.436 226.631C349.641 226.836 349.78 227.097 349.837 227.381C349.893 227.665 349.864 227.959 349.753 228.226C349.642 228.494 349.455 228.723 349.214 228.883C348.973 229.044 348.69 229.13 348.401 229.13ZM338.94 219.672C338.748 219.672 338.557 219.634 338.379 219.56C338.202 219.486 338.04 219.378 337.905 219.241L333.699 215.037C333.424 214.762 333.27 214.389 333.27 214.001C333.271 213.612 333.425 213.24 333.7 212.965C333.975 212.691 334.347 212.537 334.736 212.537C335.124 212.537 335.497 212.692 335.771 212.967L339.975 217.17C340.18 217.376 340.319 217.637 340.375 217.921C340.431 218.205 340.402 218.499 340.292 218.766C340.181 219.034 339.993 219.263 339.753 219.424C339.512 219.585 339.23 219.671 338.94 219.672ZM329.48 210.211C329.091 210.211 328.719 210.057 328.444 209.783L324.253 205.576C323.98 205.302 323.826 204.929 323.826 204.542C323.827 204.154 323.981 203.782 324.255 203.508C324.529 203.234 324.901 203.079 325.289 203.079C325.677 203.079 326.049 203.232 326.324 203.506L330.527 207.71C330.732 207.915 330.871 208.176 330.927 208.46C330.983 208.744 330.954 209.038 330.844 209.306C330.733 209.573 330.546 209.802 330.305 209.963C330.065 210.124 329.782 210.211 329.492 210.211H329.48ZM320.019 200.751C319.631 200.75 319.259 200.596 318.984 200.322L314.78 196.116C314.506 195.841 314.353 195.469 314.353 195.081C314.353 194.693 314.508 194.321 314.782 194.047C315.056 193.773 315.428 193.619 315.816 193.618C316.203 193.618 316.575 193.772 316.85 194.045L321.054 198.249C321.258 198.454 321.398 198.715 321.454 198.999C321.51 199.283 321.481 199.578 321.37 199.845C321.26 200.113 321.072 200.341 320.832 200.503C320.591 200.664 320.308 200.75 320.019 200.751ZM310.553 191.29C310.361 191.29 310.171 191.253 309.993 191.179C309.815 191.106 309.654 190.998 309.518 190.861L305.314 186.658C305.039 186.383 304.885 186.011 304.885 185.622C304.884 185.234 305.039 184.861 305.313 184.586C305.588 184.311 305.96 184.157 306.348 184.156C306.737 184.156 307.11 184.31 307.384 184.585L311.591 188.789C311.795 188.994 311.935 189.255 311.991 189.539C312.047 189.824 312.018 190.118 311.907 190.386C311.796 190.653 311.608 190.882 311.367 191.043C311.126 191.204 310.843 191.29 310.553 191.29ZM301.093 181.83C300.9 181.83 300.71 181.792 300.532 181.719C300.355 181.645 300.193 181.537 300.058 181.401L295.854 177.197C295.593 176.919 295.451 176.551 295.457 176.17C295.463 175.789 295.617 175.426 295.886 175.157C296.155 174.887 296.519 174.733 296.9 174.727C297.28 174.721 297.649 174.864 297.926 175.124L302.13 179.331C302.335 179.535 302.475 179.797 302.531 180.081C302.587 180.365 302.558 180.659 302.447 180.927C302.336 181.195 302.148 181.423 301.907 181.584C301.666 181.745 301.382 181.83 301.093 181.83ZM291.635 172.369C291.442 172.369 291.251 172.332 291.073 172.258C290.895 172.185 290.733 172.077 290.597 171.94L286.393 167.736C286.133 167.459 285.99 167.09 285.996 166.71C286.002 166.329 286.156 165.965 286.426 165.696C286.695 165.427 287.058 165.273 287.439 165.267C287.82 165.261 288.188 165.403 288.466 165.664L292.67 169.87C292.874 170.075 293.014 170.336 293.07 170.62C293.127 170.903 293.098 171.198 292.987 171.465C292.876 171.733 292.689 171.961 292.448 172.122C292.207 172.283 291.924 172.369 291.635 172.369Z" fill="#2EABBE"/>
<path d="M450.667 379.513L446.453 397.254L440.145 397.219L439.912 379.513H450.667Z" fill="#FDB07B"/>
<path d="M397.595 380.269L385.61 397.254L380.939 391.257L388.152 377.935L397.595 380.269Z" fill="#FDB07B"/>
<path d="M428.755 146.387C430.931 145.148 433.542 145.014 435.369 145.118C434.897 144.631 433.973 144.456 433.973 144.456C435.105 144.286 437.632 145.41 437.632 145.41C453.379 139.341 455.855 162.53 455.525 167.916C455.196 173.302 460.815 175.063 469.01 179.307C484.643 187.405 486.008 198.249 486.008 198.249C485.886 198.32 485.754 198.403 485.622 198.502C484.848 197.191 483.25 194.722 481.905 194.349C481.956 194.468 483.496 197.746 484.07 199.624C479.46 203.132 470.831 210.906 464.819 216.419C464.846 215.341 464.803 213.811 464.408 213.004L463.667 217.477C460.45 220.435 458.23 222.515 458.23 222.515C458.628 218.162 438.54 195.189 428.062 188.309C425.51 184.554 424.604 177.907 424.535 177.399C424.977 182.661 425.875 185.612 426.682 187.273C417.815 179.099 422.98 149.667 428.755 146.387Z" fill="#300B39"/>
<path d="M428.688 188.649C428.637 188.674 433.749 191.328 437.593 190.275C441.211 189.291 443.575 184.6 443.524 184.589C442.002 184.285 441.551 182.179 441.584 173.135L440.891 173.272L429.249 175.575C429.249 175.575 429.502 179.241 429.52 182.692C429.54 185.587 429.353 188.339 428.688 188.649Z" fill="#FDB07B"/>
<path d="M441.855 150.185C441.855 150.185 436.111 144.071 428.9 149.873C428.9 149.873 433.092 149.145 441.855 150.185Z" fill="#19BDDE"/>
<path d="M429.248 175.576C429.248 175.576 429.502 179.242 429.519 182.692C436.035 182.51 439.48 176.566 440.891 173.272L429.248 175.576Z" fill="#E98B5A"/>
<path d="M442.094 172.003C442.094 172.003 445.508 166.609 446.328 161.994C446.914 158.696 445.234 146.493 432.968 148.251C430.497 148.594 428.134 149.487 426.054 150.865C423.39 152.663 419.547 156.547 423.845 167.2L424.961 170.798L442.094 172.003Z" fill="#300B39"/>
<path d="M382.84 386.599L389.012 386.789L395.693 386.995C395.693 386.995 411.125 369.814 419.782 342.272C419.982 341.632 420.195 340.983 420.421 340.328C425.158 326.514 434.979 309.176 440.154 293.485C440.976 290.983 441.717 288.631 442.382 286.404C442.592 285.691 442.8 284.99 442.998 284.3C446.804 271.049 447.915 262.347 448.932 253.052L411.562 253.351C411.562 253.351 405.531 316.828 382.84 386.599Z" fill="#2EABBE"/>
<path d="M416.795 231.877C416.889 249.659 414.185 257.291 414.185 257.291C414.185 257.291 430.186 265.409 449.196 259.435C449.419 259.364 464.94 255.822 464.94 255.822C464.623 255.101 461.792 243.119 461.482 242.457C457.466 233.831 454.419 230.056 453.942 227.405C453.06 222.455 453.039 217.335 453.481 212.507C454.234 204.573 455.778 196.735 458.09 189.108C452.91 187.931 447.925 185.914 442.531 183.892C441.29 185.437 437.632 186.997 434.341 186.924C430.553 186.84 429.371 185.239 429.521 183.433C425.484 185.68 422.275 187.817 422.275 187.817C418.845 193.776 411.873 199.563 411.381 208.704C411.254 210.957 416.793 231.38 416.795 231.877Z" fill="#F5492D"/>
<path d="M448.93 233.862C450.564 236.173 453.697 250.226 461.489 251.991C457.473 241.975 454.426 237.586 453.949 234.506C453.066 228.757 453.045 222.81 453.487 217.198C450.879 212.632 448.92 209.493 448.92 209.493C448.717 208.755 444.777 196.57 443.514 207.464C442.25 218.358 447.106 231.274 448.93 233.862Z" fill="#FA7205"/>
<path d="M427.072 178.846C427.072 178.846 442.487 179.099 442.497 169.497C442.507 159.894 444.507 153.46 434.663 152.892C424.819 152.323 422.906 155.984 422.122 159.189C421.338 162.393 423.061 178.531 427.072 178.846Z" fill="#FDB07B"/>
<path d="M422.582 153.851C424.959 150.967 426.758 151.594 427.768 152.461C431.099 147.484 441.63 154.681 441.63 154.681C442.66 161.572 447.628 165.519 447.628 165.519C447.628 165.519 444.819 167.255 438.342 165.588C433.243 164.279 429.544 157.023 428.194 153.991C427.278 154.805 425.342 156.688 424.764 158.532C424.003 160.978 423.65 166.011 422.181 165.839C422.184 165.839 419.007 158.187 422.582 153.851Z" fill="#300B39"/>
<path d="M446.666 396.262C446.406 398.716 446.681 401.197 447.47 403.535C447.47 403.535 448.503 408.239 443.868 408.328C439.233 408.417 438.099 407.978 438.621 405.093C439.144 402.209 440.143 397.228 440.143 397.228L446.666 396.262Z" fill="#FDB07B"/>
<path d="M438.185 410.638H438.2H447.788H447.803C448.328 408.177 447.471 403.534 447.471 403.534C442.224 408.55 438.939 403.407 438.939 403.407C438.086 405.548 438.185 410.638 438.185 410.638Z" fill="#300B39"/>
<path d="M369.771 405.784C369.771 405.784 378.316 396.082 380.934 391.257L387.277 394.509L373.069 407.847L369.748 407.41L369.771 405.784Z" fill="#FDB07B"/>
<path d="M364.531 410.622H376.384C377.427 409.683 378.414 407.788 379.644 405.294C380.342 403.871 381.907 403.087 383.513 402.656V410.622H385.964L388.248 402.159C389.77 399.325 388.623 396.722 387.56 394.481C386.322 394.481 382.74 395.374 376.42 402.625C374.345 405.008 372.056 405.858 369.78 405.786C369.751 405.806 369.719 405.823 369.687 405.837C366.084 407.481 364.912 409.508 364.531 410.622Z" fill="#300B39"/>
<path d="M365.099 194.781C365.099 194.781 375.22 200.441 378.835 202.072C380.119 202.651 382.448 203.734 384.827 204.845L388.978 206.791C390.012 207.276 391.177 207.409 392.293 207.168C393.409 206.928 394.416 206.327 395.158 205.459C400.636 199.061 414.818 185.193 429.462 183.455L429.512 183.433V183.45H429.533L429.451 183.608C428.627 185.655 420.6 205.713 420.351 209.942C420.097 214.402 419.301 282.862 419.301 282.862C419.301 282.862 419.826 286.01 413.793 284.698C407.76 283.387 406.182 282.075 406.182 282.075C406.182 282.075 411.951 239.846 410.378 225.157C410.068 222.275 410.348 219.035 410.992 215.691C402.074 221.092 391.558 223.495 391.558 223.495C391.558 223.495 387.636 221.785 381.542 218.007C378.982 216.419 376.016 213.89 373.096 211.213C369.567 207.978 363.496 200.164 363.496 200.164L365.099 194.781Z" fill="#FBBA01"/>
<path d="M389.012 386.789L395.692 386.994C395.692 386.994 411.124 369.813 419.781 342.271C419.981 341.632 420.194 340.982 420.42 340.328C425.157 326.514 434.978 309.176 440.153 293.484C440.975 290.983 441.716 288.631 442.381 286.403C442.591 285.69 442.799 284.99 442.997 284.3L437.492 280.124C437.492 280.124 420.971 306.88 415.856 332.057C411.414 353.926 393.619 380.243 389.012 386.789Z" fill="#1C90A4"/>
<path d="M436.919 334.402C436.825 346.646 437.444 374.797 439.037 386.452H444.956C448.226 386.452 449.858 386.404 449.858 386.404C453.859 366.14 456.708 349.363 458.775 334.927C460.475 323.072 461.987 312.906 463.149 304.155C464.319 295.352 465.133 287.977 465.433 281.748C465.478 280.767 465.511 279.813 465.531 278.887C465.552 277.96 465.557 277.055 465.547 276.172L433.258 273.023C433.654 294.477 436.972 327.286 436.919 334.402Z" fill="#2EABBE"/>
<path d="M444.955 386.452C448.225 386.452 449.857 386.403 449.857 386.403C453.858 366.14 456.707 349.363 458.774 334.927C460.474 323.071 461.986 312.905 463.148 304.155C464.318 295.352 465.132 287.976 465.432 281.748L453.584 288.717C453.584 288.717 461.146 291.384 458.262 311.581C455.377 331.778 448.971 383.592 444.955 386.452Z" fill="#1C90A4"/>
<path d="M443.432 281.55C443.432 281.55 445.716 289.767 453.58 288.717C461.445 287.667 472.639 282.945 472.639 282.945C472.639 282.945 469.277 272.32 465.096 258.361C460.022 241.462 453.766 219.674 450.812 205.933C449.983 202.082 449.417 198.865 449.206 196.564L442.544 183.892C442.544 183.892 432.944 205.743 432.422 211.251C431.899 216.759 443.432 281.55 443.432 281.55Z" fill="#FBBA01"/>
<path d="M415.334 217.401C419.119 217.908 420.573 219.91 421.04 222.627C421.294 224.091 422.055 225.54 422.689 226.562C426.462 226.765 435.445 227.255 442.985 227.732L443.607 237.626C437.406 236.865 429.785 235.282 421.027 232.281C420.352 232.164 419.505 231.748 418.457 230.883C413.023 226.433 409.938 218.979 409.928 217.911C409.918 216.843 411.541 216.904 415.334 217.401Z" fill="#FDB07B"/>
<path d="M443.778 222.792C444.131 231.712 446.229 249.023 464.94 258.29C464.988 258.313 465.039 258.341 465.089 258.361C460.015 241.462 453.759 219.674 450.806 205.934C447.371 211.069 443.588 217.883 443.778 222.792Z" fill="#FA7205"/>
<path d="M442.538 183.892C442.538 183.892 458.541 185.026 462.388 193.593C466.234 202.161 467.462 230.667 462.563 239.059C462.563 239.059 455.822 240.98 443.9 238.75L443.459 238.666C443.459 238.666 439.653 229.355 443.065 227.518C443.065 227.518 453.12 228.044 452.072 224.728C451.024 221.412 442.538 183.892 442.538 183.892Z" fill="#FBBA01"/>
<path d="M354.256 188.058C362.867 186.952 365.039 194.784 365.039 194.784L363.433 200.162C360.779 200.528 358.455 199.838 356.317 196.775C354.178 193.713 353.587 194.888 352.227 192.61C350.385 189.52 353.267 188.378 354.256 188.058Z" fill="#FDB07B"/>
<path d="M378.84 202.078C380.124 202.656 382.453 203.739 384.832 204.851C383.564 207.111 381.968 211.221 381.534 218.01C378.974 216.422 375.664 213.781 372.835 211.005C368.299 206.553 363.488 200.167 363.488 200.167L365.094 194.786C365.094 194.786 375.225 200.441 378.84 202.078Z" fill="#FDB07B"/>
<path d="M23.1392 174.094C23.1392 174.094 2.14272 195.768 1.13551 203.942C0.128308 212.116 11.1239 224.9 11.1239 224.9L23.1392 174.094Z" fill="#1C90A4"/>
<path d="M32.1172 398.952C32.1172 398.952 32.8301 410.472 35.0602 410.637C35.357 410.66 46.3678 410.66 46.3678 410.66H60.4204C60.4204 410.66 60.3291 407.192 56.2216 406.477C52.1142 405.761 45.2363 402.874 42.7475 397.442C40.1292 391.719 32.1172 398.952 32.1172 398.952Z" fill="#300B39"/>
<path d="M0.8125 398.952C0.8125 398.952 1.52543 410.472 3.75549 410.637C4.05232 410.66 15.063 410.66 15.063 410.66L29.1588 410.609C29.1588 410.609 29.0243 407.192 24.9168 406.477C20.8094 405.761 13.9315 402.874 11.4427 397.442C8.82444 391.719 0.8125 398.952 0.8125 398.952Z" fill="#300B39"/>
<path d="M47.6812 275.378C47.6812 275.378 44.0051 298.886 30.2924 340.62C16.5797 382.355 14.7125 400.426 14.7125 400.426C12.1843 400.766 9.63709 400.946 7.08617 400.964C4.60748 400.964 0.000178202 400.012 0.000178202 400.012C0.000178202 400.012 -0.124157 354.404 6.1956 333.418C12.5154 312.431 7.56062 257.761 7.56062 257.761L47.6812 275.378Z" fill="#303876"/>
<path d="M54.8412 259.047C54.8412 259.047 55.3614 294.477 49.2319 337.974C43.1024 381.472 45.1726 399.936 45.1726 399.936C45.1726 399.936 40.1264 400.842 38.353 400.9C36.4553 400.964 30.4882 400.426 30.4882 400.426C30.4882 400.426 21.7151 356.911 24.2293 335.138C26.7435 313.365 12.2266 260.43 12.2266 260.43L54.8412 259.047Z" fill="#3A608D"/>
<path d="M26.4219 176.141L33.3455 181.273L43.3515 179.168C43.2145 178.254 42.5523 174.472 41.9511 171.049L41.8445 170.448C41.3371 167.533 40.8855 165.029 40.8855 165.029L31.5391 160.371L28.0532 158.633C28.0532 158.694 28.3222 161.868 28.3602 162.332C29.0148 170.554 26.4219 176.141 26.4219 176.141Z" fill="#FDB07B"/>
<path d="M42.6416 173.556C42.4234 173.463 29.0304 169.497 27.5741 169.992C26.1178 170.487 25.2578 173.29 25.2578 173.29L47.1727 178.23C47.1727 178.23 45.4476 174.734 42.6416 173.556Z" fill="#1C90A4"/>
<path d="M6.58603 263.42C8.85414 273.776 46.6383 275.007 56.378 265.605C57.4841 264.534 57.5399 259.549 57.1213 252.826C56.3043 239.694 53.681 219.938 53.5694 209.843C53.5212 204.969 52.8515 199.984 51.9585 195.458C50.8058 189.601 49.2061 183.841 47.1735 178.229C47.1735 178.229 28.7191 172.264 25.2662 173.279C8.63085 178.173 4.31538 253.072 6.58603 263.42Z" fill="#2EABBE"/>
<path d="M57.1205 252.818C56.3035 239.687 53.6803 219.931 53.5686 209.836C53.5204 204.962 52.8507 199.977 51.9577 195.451L40.8657 193.5C40.8657 193.5 30.0097 237.832 57.1205 252.818Z" fill="#1C90A4"/>
<path d="M51.1111 234.522C51.1111 234.522 50.3501 236.331 51.9434 237.543C53.5366 238.756 54.564 240.727 54.1987 242.163C53.8334 243.599 50.35 245.949 49.1399 245.568C47.9297 245.187 45.4739 243.285 45.7378 242.539C46.0016 241.793 44.0836 235.882 47.0291 233.613C49.9746 231.345 51.1111 234.522 51.1111 234.522Z" fill="#FDB07B"/>
<path d="M38.6984 175.58C38.6984 175.58 49.5239 177.61 58.1523 190.32C66.7808 203.031 72.4537 212.484 70.8655 217.066C69.2773 221.648 54.7907 237.54 52.2918 237.54C49.7928 237.54 45.7666 235.723 45.5383 231.638C45.5383 231.638 55.7371 216.353 53.7278 214.064C52.8702 213.085 40.487 203.033 38.7212 207.575C35.7935 215.087 38.6984 175.58 38.6984 175.58Z" fill="#2EABBE"/>
<path d="M29.0594 162.472C31.1118 166.4 38.761 169.797 41.9501 171.045L41.8435 170.444C41.3361 167.529 40.8845 165.025 40.8845 165.025L31.5381 160.367C29.4704 160.334 28.2146 160.856 29.0594 162.472Z" fill="#FDA368"/>
<path d="M43.8951 165.238C43.8951 165.238 30.0581 169.55 27.5034 160.894C24.9486 152.238 21.4424 146.963 30.1672 143.843C38.8921 140.722 41.5839 143.515 43.1468 146.197C44.7096 148.879 47.4267 163.89 43.8951 165.238Z" fill="#FDB07B"/>
<path d="M42.6037 145.362C42.6037 145.362 41.7234 155.437 39.6379 155.003C37.5525 154.569 35.6649 154.242 35.9719 157.286C36.2789 160.331 39.1635 163.829 32.7448 164.367C26.3261 164.905 17.0913 148.343 18.857 145.21C23.9463 136.153 49.9611 134.339 42.6037 145.362Z" fill="#300B39"/>
</svg>
