<svg width="48" height="60" viewBox="0 0 48 60" fill="none" xmlns="http://www.w3.org/2000/svg">
<path d="M23.638 31.0422C27.4356 31.0422 36.3642 26.4721 36.3642 15.521C36.3642 13.9935 36.3271 12.5179 36.2011 11.1237C35.9945 8.3797 35.4325 5.94799 34.0331 4.08423C32.2384 1.54831 29.0981 0 23.638 0C18.179 0 15.0389 1.54784 13.2442 4.08281C11.8441 5.94673 11.2816 8.37938 11.0749 11.1242C10.9492 12.5182 10.9119 13.9937 10.9119 15.521C10.9119 26.4721 19.8405 31.0422 23.638 31.0422ZM18.9209 5.13275C19.1982 4.62478 19.7295 4.30885 20.3072 4.30822C20.9734 4.30822 21.5435 4.72143 21.7771 5.3037H25.4972C25.5756 5.10725 25.6931 4.92686 25.8469 4.77275C26.1448 4.47366 26.542 4.30854 26.9642 4.30807C27.5438 4.30791 28.075 4.6221 28.3532 5.12819C28.3695 5.15778 28.3689 5.19336 28.3516 5.22248C28.3346 5.2516 28.3033 5.26939 28.2697 5.26939L26.8589 5.27175C26.834 5.33125 26.7866 5.49637 26.7872 5.88991C26.7879 6.28344 26.8359 6.44841 26.8611 6.50775L28.272 6.50555C28.3058 6.5057 28.3365 6.52349 28.3538 6.55245C28.3713 6.58142 28.3716 6.61731 28.3557 6.6469C28.078 7.15456 27.5468 7.4708 26.969 7.47143L26.9668 7.47112C26.3024 7.47112 25.7327 7.05822 25.4991 6.47564H21.779C21.7006 6.67209 21.5835 6.85264 21.4297 7.00659C21.1317 7.30567 20.7346 7.47096 20.3121 7.47174C20.3121 7.47159 20.3096 7.47174 20.3096 7.47174C19.7328 7.47174 19.2012 7.15755 18.9229 6.65147C18.9065 6.62187 18.9075 6.58598 18.9245 6.55702C18.9413 6.52806 18.9728 6.50995 19.0065 6.50995L20.4171 6.50775C20.4419 6.44841 20.4896 6.28328 20.4887 5.88975C20.4881 5.49606 20.44 5.33109 20.4149 5.27175L19.004 5.27411C18.9704 5.27379 18.9394 5.25616 18.9221 5.2272C18.9053 5.19824 18.9046 5.16266 18.9209 5.13275ZM12.8052 13.1466C12.9518 13.4674 13.5747 14.7003 14.5388 14.8158C15.6471 14.9487 17.4868 10.8906 23.638 10.8808C29.7891 10.8907 31.6289 14.9487 32.7373 14.8158C33.7014 14.7001 34.3243 13.4673 34.4709 13.1466C34.5008 13.9324 34.5116 14.7278 34.5116 15.521C34.5116 20.874 32.1481 24.1907 30.1652 26.0304C27.6667 28.3484 24.8929 29.1898 23.638 29.1898C22.3831 29.1898 19.6092 28.3484 17.1109 26.0304C15.128 24.1907 12.7645 20.874 12.7645 15.521C12.7645 14.7278 12.7753 13.9324 12.8052 13.1466Z" fill="black"/>
<path d="M47.2646 46.9604C46.6149 42.9206 45.2774 37.7167 42.5944 35.8671C40.7631 34.6045 34.3729 31.1903 31.6442 29.7325L31.5941 29.7059C31.2821 29.5392 30.9012 29.5726 30.6229 29.7911C29.193 30.9136 27.6267 31.6701 25.9676 32.0394C25.6745 32.1047 25.434 32.313 25.3274 32.5937L23.6379 37.047L21.9484 32.5937C21.8418 32.313 21.6013 32.1046 21.3082 32.0394C19.649 31.6701 18.0828 30.9136 16.6528 29.7911C16.3745 29.5726 15.9936 29.5391 15.6816 29.7059C12.9845 31.1472 6.51422 34.632 4.68934 35.8617C1.6009 37.9425 0.250618 45.4722 0.0113508 46.9606C-0.0124185 47.1082 0.00127677 47.2592 0.0511766 47.4002C0.141531 47.6551 2.05236 52.5903 13.9945 54.3909C15.0383 56.2155 16.5974 57.7328 18.4618 58.7193C20.0457 59.5573 21.8399 60.0003 23.6508 60.0003C24.3599 60.0003 25.0699 59.9321 25.7612 59.7977C28.1511 59.3327 30.3581 58.0627 31.9759 56.2214C32.473 55.6557 32.9082 55.0412 33.2781 54.3914C45.2229 52.5909 47.1342 47.6551 47.2246 47.4002C47.2746 47.259 47.2883 47.1079 47.2646 46.9604ZM33.1363 49.4332C33.0198 51.5465 32.1819 53.5853 30.7849 55.1748C29.4037 56.7469 27.5134 57.8414 25.4585 58.2412C24.8619 58.3574 24.2562 58.4147 23.6509 58.4147C22.1096 58.4147 20.5721 58.0421 19.2036 57.3178C17.3681 56.3466 15.874 54.7736 15.001 52.889C14.0936 50.93 13.8847 48.6763 14.4118 46.5824C14.9208 44.558 16.1109 42.7328 17.7472 41.4385C19.4167 40.118 21.5092 39.3901 23.6377 39.3901C24.5893 39.3901 25.5399 39.5323 26.4486 39.814C28.4382 40.4303 30.1951 41.7116 31.4 43.4092C32.639 45.1547 33.254 47.2962 33.1363 49.4332Z" fill="black"/>
<path d="M25.1301 48.9032C26.0195 49.0793 26.9037 49.3438 27.7329 49.7116C28.5342 50.0671 29.2521 50.5686 29.9972 51.0232C30.0483 51.0548 30.1001 51.0852 30.1519 51.1159C30.3879 50.4213 30.5177 49.6776 30.5177 48.9032C30.5177 48.1287 30.3879 47.3851 30.1519 46.6904C29.3886 47.146 28.6629 47.665 27.8538 48.0399C26.9917 48.4399 26.0617 48.7188 25.1301 48.9032Z" fill="black"/>
<path d="M29.9972 51.0232C29.8319 50.9223 30.0861 51.0778 29.9972 51.0232V51.0232Z" fill="black"/>
<path d="M19.5431 49.7113C20.3725 49.3434 21.2564 49.079 22.1459 48.9028C21.2006 48.7158 20.2552 48.4317 19.3819 48.021C18.5889 47.6478 17.8748 47.1381 17.1241 46.6899C16.8882 47.3846 16.7583 48.1284 16.7583 48.9028C16.7583 49.6773 16.8882 50.4211 17.1241 51.1158C17.1758 51.0849 17.2277 51.0545 17.2787 51.0229C18.0239 50.5683 18.7423 50.0668 19.5431 49.7113Z" fill="black"/>
<path d="M17.2786 51.0232C17.19 51.0778 17.4439 50.9223 17.2786 51.0232V51.0232Z" fill="black"/>
<path d="M24.9025 42.1416C24.9252 43.0417 25.0239 43.9402 24.9494 44.8403C24.8687 45.8145 24.647 46.7917 24.3325 47.7162C24.9811 46.9907 25.7222 46.3209 26.5289 45.7739C27.2791 45.2655 28.1137 44.9097 28.9118 44.487C27.9074 43.2887 26.5023 42.439 24.9025 42.1416Z" fill="black"/>
<path d="M22.9435 47.7157C22.6289 46.7914 22.4074 45.8142 22.3265 44.8398C22.2523 43.9397 22.351 43.0412 22.3736 42.1411C20.7738 42.4385 19.3689 43.2882 18.3643 44.4864C19.1757 44.9163 20.0242 45.2769 20.7842 45.7984C21.5755 46.3418 22.3041 47.0008 22.9435 47.7157Z" fill="black"/>
<path d="M22.3265 52.9661C22.4076 51.9923 22.6279 51.0142 22.9435 50.0903C22.2944 50.8155 21.5536 51.4855 20.7469 52.0325C19.9969 52.5411 19.1627 52.8968 18.3643 53.3195C19.3687 54.5176 20.7738 55.3671 22.3734 55.6645C22.3509 54.7645 22.2523 53.8659 22.3265 52.9661Z" fill="black"/>
<path d="M24.3328 50.0903C24.6484 51.0142 24.8689 51.9922 24.9497 52.9661C25.0241 53.8659 24.9256 54.7645 24.9028 55.6646C26.5024 55.3673 27.9074 54.5176 28.9119 53.3195C28.1007 52.8896 27.2525 52.5288 26.4926 52.0075C25.7007 51.4641 24.9725 50.8051 24.3328 50.0903Z" fill="black"/>
</svg>
