<svg width="126" height="126" viewBox="0 0 126 126" fill="none" xmlns="http://www.w3.org/2000/svg">
<rect x="0.5" y="0.5" width="125" height="125" rx="62.5" fill="white"/>
<rect x="0.5" y="0.5" width="125" height="125" rx="62.5" stroke="#2463EB"/>
<path d="M77.6089 41.9102C77.1867 40.6646 76.0044 39.778 74.6111 39.778H51.3889C49.9956 39.778 48.8344 40.6646 48.3911 41.9102L44.2322 53.8802C44.0844 54.3235 44 54.788 44 55.2735V70.3891C44 72.1413 45.4144 73.5557 47.1667 73.5557C48.9189 73.5557 50.3333 72.1413 50.3333 70.3891V69.3335H75.6667V70.3891C75.6667 72.1202 77.0811 73.5557 78.8333 73.5557C80.5644 73.5557 82 72.1413 82 70.3891V55.2735C82 54.8091 81.9156 54.3235 81.7678 53.8802L77.6089 41.9102ZM51.3889 63.0002C49.6367 63.0002 48.2222 61.5857 48.2222 59.8335C48.2222 58.0813 49.6367 56.6668 51.3889 56.6668C53.1411 56.6668 54.5556 58.0813 54.5556 59.8335C54.5556 61.5857 53.1411 63.0002 51.3889 63.0002ZM74.6111 63.0002C72.8589 63.0002 71.4444 61.5857 71.4444 59.8335C71.4444 58.0813 72.8589 56.6668 74.6111 56.6668C76.3633 56.6668 77.7778 58.0813 77.7778 59.8335C77.7778 61.5857 76.3633 63.0002 74.6111 63.0002ZM48.2222 52.4446L50.9033 44.3802C51.1989 43.5357 52.0011 42.9446 52.9089 42.9446H73.0911C73.9989 42.9446 74.8011 43.5357 75.0967 44.3802L77.7778 52.4446H48.2222Z" fill="#2463EB"/>
<path d="M52.4443 79.8887H60.8888V75.6665L73.5554 81.9998H65.111V86.2221L52.4443 79.8887Z" fill="#2463EB"/>
</svg>
