<svg width="126" height="126" viewBox="0 0 126 126" fill="none" xmlns="http://www.w3.org/2000/svg">
<rect width="126" height="126" rx="63" fill="white"/>
<path d="M50.579 69.3158V66.7895H75.8422V69.3158C75.8422 70.7053 76.979 71.8421 78.3685 71.8421C79.7579 71.8421 80.8948 70.7053 80.8948 69.3158V53.3747C80.8948 53.3747 77.5095 43.1937 76.9537 41.5263C76.8274 41.1221 76.6506 40.7937 76.4737 40.5158C76.4232 40.4653 76.3979 40.4147 76.3474 40.3389C75.3874 39.0253 74.0232 39 74.0232 39H52.3979C52.3979 39 51.0337 39.0253 50.0737 40.3642C50.0232 40.4147 49.9979 40.4653 49.9474 40.5158C49.7706 40.7937 49.5937 41.1221 49.4674 41.5263C48.9116 43.1937 45.5264 53.3747 45.5264 53.3747V69.3158C45.5264 70.7053 46.6632 71.8421 48.0527 71.8421C49.4422 71.8421 50.579 70.7053 50.579 69.3158ZM55.6316 60.4737C54.2422 60.4737 53.1053 59.3368 53.1053 57.9474C53.1053 56.5579 54.2422 55.4211 55.6316 55.4211C57.0211 55.4211 58.1579 56.5579 58.1579 57.9474C58.1579 59.3368 57.0211 60.4737 55.6316 60.4737ZM70.7895 60.4737C69.4001 60.4737 68.2632 59.3368 68.2632 57.9474C68.2632 56.5579 69.4001 55.4211 70.7895 55.4211C72.179 55.4211 73.3158 56.5579 73.3158 57.9474C73.3158 59.3368 72.179 60.4737 70.7895 60.4737ZM53.939 44.0526H72.4822L73.0632 45.7958L74.1495 49.1053H52.2716L53.939 44.0526Z" fill="#2463EB"/>
<path d="M43 76.9199C43 78.2841 44.1368 79.421 45.5011 79.421H60.6842V84.4989C60.6842 85.8883 61.8211 86.9999 63.1853 86.9999H63.2105C64.6 86.9999 65.7116 85.8631 65.7116 84.4989V79.421H80.8947C82.2842 79.421 83.3958 78.2841 83.3958 76.9199C83.3958 75.5304 82.2589 74.4189 80.8947 74.4189H45.5011C44.1368 74.3936 43 75.5304 43 76.9199Z" fill="#2463EB"/>
</svg>
