<svg width="126" height="126" viewBox="0 0 126 126" fill="none" xmlns="http://www.w3.org/2000/svg">
<rect width="126" height="126" rx="63" fill="white"/>
<path d="M69.6477 68.0113C69.9886 68.3498 70.3962 68.5101 70.8705 68.492C71.3432 68.4725 71.75 68.2934 72.0909 67.9549C72.4318 67.6163 72.6023 67.2116 72.6023 66.7406C72.6023 66.2712 72.4318 65.8672 72.0909 65.5286L68.5682 62.0868C68.9848 61.4473 69.2977 60.7703 69.5068 60.0556C69.7144 59.3409 69.8182 58.5885 69.8182 57.7986C69.8182 55.5793 69.0326 53.7075 67.4614 52.1833C65.8886 50.6606 64.0227 49.8993 61.8636 49.8993C59.7045 49.8993 57.8394 50.6606 56.2682 52.1833C54.6955 53.7075 53.9091 55.5793 53.9091 57.7986C53.9091 60.0179 54.6955 61.8897 56.2682 63.4139C57.8394 64.9366 59.7045 65.6979 61.8636 65.6979C62.6591 65.6979 63.4076 65.6129 64.1091 65.4429C64.8091 65.2744 65.5 64.9832 66.1818 64.5694L69.6477 68.0113ZM61.8636 62.3125C60.6136 62.3125 59.5439 61.8701 58.6545 60.9854C57.7636 60.1022 57.3182 59.0399 57.3182 57.7986C57.3182 56.5573 57.7636 55.4943 58.6545 54.6095C59.5439 53.7263 60.6136 53.2847 61.8636 53.2847C63.0758 53.2847 64.1364 53.7263 65.0455 54.6095C65.9545 55.4943 66.4091 56.5573 66.4091 57.7986C66.4091 59.0399 65.9644 60.1022 65.075 60.9854C64.1841 61.8701 63.1136 62.3125 61.8636 62.3125ZM44.8182 75.8542C43.5682 75.8542 42.4985 75.4126 41.6091 74.5293C40.7182 73.6446 40.2727 72.5816 40.2727 71.3403V46.5139C40.2727 45.2726 40.7182 44.2095 41.6091 43.3248C42.4985 42.4416 43.5682 42 44.8182 42H81.1818C82.4318 42 83.5023 42.4416 84.3932 43.3248C85.2826 44.2095 85.7273 45.2726 85.7273 46.5139V71.3403C85.7273 72.5816 85.2826 73.6446 84.3932 74.5293C83.5023 75.4126 82.4318 75.8542 81.1818 75.8542H44.8182ZM44.8182 71.3403H81.1818V46.5139H44.8182V71.3403ZM40.2727 82.625C39.6288 82.625 39.0894 82.4083 38.6545 81.975C38.2182 81.5432 38 81.0075 38 80.3681C38 79.7286 38.2182 79.1929 38.6545 78.7611C39.0894 78.3278 39.6288 78.1111 40.2727 78.1111H85.7273C86.3712 78.1111 86.9106 78.3278 87.3455 78.7611C87.7818 79.1929 88 79.7286 88 80.3681C88 81.0075 87.7818 81.5432 87.3455 81.975C86.9106 82.4083 86.3712 82.625 85.7273 82.625H40.2727Z" fill="#2463EB"/>
</svg>
