<svg width="126" height="126" viewBox="0 0 126 126" fill="none" xmlns="http://www.w3.org/2000/svg">
<rect width="126" height="126" rx="63" fill="white"/>
<path d="M58 49.7812C58 48.4062 58.4896 47.2292 59.4688 46.25C60.4479 45.2708 61.625 44.7812 63 44.7812C64.375 44.7812 65.5521 45.2708 66.5312 46.25C67.5104 47.2292 68 48.4062 68 49.7812C68 51.1563 67.5104 52.3333 66.5312 53.3125C65.5521 54.2917 64.375 54.7812 63 54.7812C61.625 54.7812 60.4479 54.2917 59.4688 53.3125C58.4896 52.3333 58 51.1563 58 49.7812ZM48 49.7812C48 45.6146 49.4583 42.0729 52.375 39.1562C55.2917 36.2396 58.8333 34.7812 63 34.7812C67.1667 34.7812 70.7083 36.2396 73.625 39.1562C76.5417 42.0729 78 45.6146 78 49.7812C78 52.5729 77.3125 55.1042 75.9375 57.375C74.5625 59.6458 72.75 61.4479 70.5 62.7812V83.7188C70.5 84.0521 70.4375 84.375 70.3125 84.6875C70.1875 85 70 85.2813 69.75 85.5313L64.75 90.5313C64.5 90.7813 64.2292 90.9583 63.9375 91.0625C63.6458 91.1667 63.3333 91.2188 63 91.2188C62.6667 91.2188 62.3542 91.1667 62.0625 91.0625C61.7708 90.9583 61.5 90.7813 61.25 90.5313L53.3125 82.5938C53.1042 82.3854 52.9375 82.1354 52.8125 81.8438C52.6875 81.5521 52.6042 81.2604 52.5625 80.9688C52.5208 80.6771 52.5417 80.3854 52.625 80.0938C52.7083 79.8021 52.8542 79.5313 53.0625 79.2813L55.5 76.0312L52.8125 72.4687C52.6458 72.2604 52.5208 72.0313 52.4375 71.7813C52.3542 71.5313 52.3125 71.2813 52.3125 71.0312C52.3125 70.7812 52.3542 70.5208 52.4375 70.25C52.5208 69.9792 52.6458 69.7396 52.8125 69.5313L55.5 65.7188V62.7812C53.25 61.4479 51.4375 59.6458 50.0625 57.375C48.6875 55.1042 48 52.5729 48 49.7812ZM53 49.7812C53 52.1146 53.7083 54.1667 55.125 55.9375C56.5417 57.7083 58.3333 58.8854 60.5 59.4688V67.2812L57.9375 70.9062L61.75 76.0312L58.3125 80.4687L63 85.1562L65.5 82.6562V59.4688C67.6667 58.8854 69.4583 57.7083 70.875 55.9375C72.2917 54.1667 73 52.1146 73 49.7812C73 47.0312 72.0208 44.6771 70.0625 42.7187C68.1042 40.7604 65.75 39.7812 63 39.7812C60.25 39.7812 57.8958 40.7604 55.9375 42.7187C53.9792 44.6771 53 47.0312 53 49.7812Z" fill="#2463EB"/>
</svg>
