<svg width="508" height="429" viewBox="0 0 508 429" fill="none" xmlns="http://www.w3.org/2000/svg">
<path d="M74.2997 390.094C173.373 441.97 333.997 441.97 433.058 390.094C532.12 338.218 532.132 254.114 433.058 202.249C333.985 150.385 173.373 150.373 74.2997 202.249C-24.7735 254.125 -24.7622 338.207 74.2997 390.094Z" fill="#F5F5F5"/>
<path d="M315.281 368.436L81.4729 233.115C79.8385 232.183 79.8385 230.647 81.4729 229.703L218.466 150.399C219.38 149.933 220.391 149.69 221.417 149.69C222.443 149.69 223.454 149.933 224.368 150.399L458.176 285.776C459.81 286.72 459.81 288.256 458.176 289.189L321.205 368.436C320.286 368.9 319.272 369.142 318.243 369.142C317.214 369.142 316.199 368.9 315.281 368.436Z" fill="#E6E6E6"/>
<path d="M78.4881 331.667C112.563 331.667 140.186 318.47 140.186 302.191C140.186 285.912 112.563 272.715 78.4881 272.715C44.4132 272.715 16.79 285.912 16.79 302.191C16.79 318.47 44.4132 331.667 78.4881 331.667Z" fill="#EBEBEB"/>
<path d="M266.659 173.365C269.542 173.422 274.309 169.679 275.035 165.038C275.761 160.396 277.135 156.733 283.729 154.219C290.323 151.705 294.035 150.59 296.146 144.833C298.257 139.077 294.954 132.593 294.091 127.689C293.229 122.786 297.701 117.075 304.306 111.672C310.912 106.268 314.725 100.603 308.846 97.1783C302.967 93.7541 295.635 95.2102 289.222 99.3057C282.81 103.401 277.782 108.85 269.927 108.122C262.073 107.394 257.636 110.784 256.092 116.973C254.548 123.162 256.784 131.045 250.928 132.991V159.327L266.659 173.365Z" fill="#2463EB"/>
<path d="M254.763 161.49H254.638C254.565 161.473 254.496 161.443 254.434 161.4C254.373 161.357 254.321 161.302 254.28 161.238C254.24 161.175 254.213 161.104 254.201 161.03C254.188 160.956 254.19 160.88 254.207 160.807C260.211 134.767 287.314 105.928 301.956 99.9326C302.097 99.8762 302.255 99.878 302.396 99.9377C302.536 99.9973 302.647 100.11 302.705 100.251C302.732 100.321 302.746 100.395 302.745 100.47C302.744 100.544 302.728 100.618 302.699 100.687C302.669 100.756 302.627 100.818 302.573 100.87C302.52 100.922 302.456 100.963 302.387 100.991C287.961 106.895 261.244 135.347 255.319 161.069C255.284 161.19 255.212 161.296 255.111 161.372C255.011 161.448 254.889 161.489 254.763 161.49Z" fill="white"/>
<path d="M269.859 130.355C269.725 130.354 269.596 130.306 269.494 130.218C269.392 130.131 269.325 130.01 269.303 129.877C268.514 125.465 266.95 121.228 264.684 117.363C264.607 117.234 264.583 117.081 264.617 116.934C264.65 116.788 264.74 116.66 264.865 116.578C264.928 116.537 264.999 116.509 265.073 116.496C265.147 116.483 265.223 116.485 265.296 116.502C265.369 116.519 265.438 116.55 265.499 116.595C265.559 116.639 265.61 116.696 265.649 116.76C268.009 120.758 269.625 125.152 270.416 129.729C270.43 129.804 270.43 129.88 270.414 129.954C270.398 130.028 270.368 130.098 270.324 130.159C270.281 130.221 270.225 130.273 270.161 130.313C270.096 130.352 270.025 130.378 269.95 130.389L269.859 130.355Z" fill="white"/>
<path d="M265.169 138.267C265.043 138.267 264.921 138.226 264.821 138.15C264.72 138.074 264.647 137.968 264.613 137.847C264.594 137.774 264.59 137.699 264.6 137.625C264.611 137.55 264.636 137.479 264.673 137.415C264.711 137.35 264.762 137.294 264.821 137.249C264.881 137.204 264.949 137.171 265.022 137.153C273.943 134.786 285.213 137.039 285.69 137.153C285.763 137.168 285.832 137.197 285.894 137.239C285.956 137.28 286.009 137.334 286.05 137.396C286.091 137.459 286.119 137.528 286.133 137.602C286.148 137.675 286.147 137.751 286.132 137.824C286.1 137.97 286.012 138.098 285.887 138.181C285.762 138.264 285.61 138.295 285.463 138.267C285.349 138.267 273.965 135.992 265.305 138.267H265.169Z" fill="white"/>
<path d="M365.469 20.3194L369.827 21.9462V12.3788C369.827 4.76807 375.888 2.93649 382.471 6.74753C389.054 10.5586 394.388 19.8189 394.388 27.4409V28.8402C395.315 28.5487 396.297 28.4741 397.257 28.622C398.217 28.7699 399.13 29.1364 399.927 29.6934C402.421 31.3246 404.497 33.5218 405.986 36.1071C407.475 38.6924 408.335 41.5929 408.496 44.5736V45.2107L414.569 48.7259C416.218 49.7974 417.591 51.244 418.577 52.948C419.564 54.652 420.134 56.5653 420.243 58.5322C420.243 62.1385 417.724 63.6061 414.569 61.7972L365.469 33.3907C363.82 32.3192 362.446 30.8726 361.46 29.1686C360.474 27.4646 359.903 25.5513 359.794 23.5844C359.794 19.9781 362.359 18.5333 365.469 20.3194Z" fill="#EBEBEB"/>
<path d="M414.749 23.5073L422.637 28.0578C422.637 27.7051 422.569 27.3524 422.569 27.0111V24.7359C422.569 20.6518 425.429 19.0478 428.948 21.0386C430.461 21.9744 431.757 23.2233 432.75 24.7018C433.329 19.5824 437.29 17.6712 442.216 20.4925C447.482 23.5414 451.761 30.9587 451.761 37.0564V40.4692C451.794 41.8366 451.518 43.1936 450.955 44.4396L457.504 48.2392C458.535 48.9119 459.393 49.8188 460.008 50.8862C460.623 51.9536 460.979 53.1515 461.045 54.3824C461.045 56.6577 459.456 57.5564 457.504 56.4301L414.749 31.6982C413.719 31.0248 412.862 30.1177 412.247 29.0505C411.631 27.9832 411.276 26.7857 411.208 25.555C411.208 23.2911 412.797 22.3696 414.749 23.5073Z" fill="#EBEBEB"/>
<path d="M253.776 26.9613L295.169 3.00293L304.397 8.33839L295.169 24.3448L253.776 48.3032V26.9613Z" fill="#455A64"/>
<path d="M295.167 3.00447L290.559 0.331055L249.063 24.3463L253.774 26.9629L295.167 3.00447Z" fill="#37474F"/>
<path d="M259.78 37.6928C259.42 37.8408 259.034 37.9106 258.645 37.8976C258.543 37.8976 258.509 37.8975 258.509 37.8065C258.5 37.7577 258.5 37.7075 258.509 37.6587L258.861 36.8964C258.888 36.8367 258.927 36.7826 258.974 36.7372C259.023 36.7241 259.073 36.7241 259.122 36.7372C259.43 36.7312 259.736 36.6814 260.03 36.5893C260.397 36.4724 260.751 36.316 261.085 36.1229C261.512 35.9003 261.897 35.6038 262.22 35.2469C262.452 34.9733 262.58 34.6271 262.583 34.2685C262.594 34.1909 262.587 34.1119 262.563 34.0372C262.54 33.9625 262.5 33.8939 262.447 33.8362C262.328 33.7539 262.183 33.7175 262.039 33.7338C261.857 33.7338 261.573 33.7907 261.176 33.859H260.938C260.564 33.9341 260.184 33.9798 259.803 33.9955C259.533 34.0078 259.267 33.9231 259.054 33.7566C258.946 33.6467 258.863 33.5143 258.812 33.3688C258.761 33.2232 258.743 33.0682 258.759 32.9148C258.783 32.2091 259.042 31.5321 259.496 30.9922C260.028 30.3194 260.688 29.7588 261.437 29.3426C261.838 29.0993 262.264 28.9009 262.708 28.751C263.006 28.6452 263.324 28.6063 263.639 28.6373C263.718 28.6373 263.764 28.6373 263.764 28.7397C263.772 28.7886 263.772 28.8386 263.764 28.8876L263.423 29.6384C263.398 29.6964 263.363 29.7501 263.321 29.7977C263.277 29.8097 263.23 29.8097 263.185 29.7977C262.58 29.8083 261.991 29.9983 261.494 30.3437C261.109 30.5506 260.766 30.8285 260.484 31.1628C260.264 31.4413 260.144 31.786 260.143 32.1412C260.133 32.2215 260.14 32.3032 260.166 32.38C260.192 32.4569 260.234 32.5269 260.291 32.5848C260.413 32.6692 260.564 32.7019 260.711 32.6759C261.008 32.6473 261.304 32.6017 261.596 32.5393L261.868 32.4825C262.264 32.401 262.667 32.3591 263.072 32.3573C263.197 32.3499 263.323 32.3695 263.44 32.4146C263.558 32.4597 263.664 32.5294 263.753 32.619C263.938 32.8622 264.023 33.1677 263.991 33.4722C263.969 34.1462 263.726 34.7941 263.299 35.3151C262.77 35.9916 262.11 36.5529 261.358 36.9647C260.857 37.2598 260.329 37.5037 259.78 37.6928Z" fill="white"/>
<path d="M265.673 33.4575C265.037 33.1617 264.731 32.4108 264.731 31.1822C264.72 30.0037 265.047 28.847 265.673 27.849C266.346 26.8047 267.271 25.9478 268.363 25.3576C269.498 24.6864 270.417 24.493 271.041 24.7887C271.665 25.0845 271.995 25.8354 271.995 27.064C272 28.247 271.669 29.407 271.041 30.4086C270.376 31.4674 269.455 32.3402 268.363 32.9455C267.194 33.5712 266.297 33.7532 265.673 33.4575ZM270.054 30.2038C270.458 29.4657 270.662 28.634 270.644 27.7921C270.644 26.882 270.451 26.3018 270.054 26.0629C269.657 25.824 269.1 25.915 268.363 26.3473C267.648 26.7401 267.055 27.3226 266.649 28.031C266.252 28.7715 266.052 29.6023 266.07 30.4427C266.07 31.3528 266.263 31.9217 266.649 32.1719C267.035 32.4222 267.614 32.3198 268.363 31.8875C269.069 31.4909 269.653 30.9088 270.054 30.2038Z" fill="white"/>
<path d="M274.509 29.0013C274.311 29.0466 274.105 29.0444 273.908 28.995C273.711 28.9456 273.528 28.8503 273.374 28.7169C273.228 28.5547 273.117 28.3637 273.049 28.156C272.98 27.9484 272.956 27.7287 272.977 27.511V23.2222C272.971 23.0996 272.998 22.9776 273.057 22.8695C273.137 22.7563 273.241 22.6629 273.363 22.5965L273.931 22.2666C273.974 22.2335 274.023 22.2095 274.076 22.1958C274.128 22.1821 274.183 22.1791 274.237 22.1869C274.237 22.1869 274.328 22.3007 274.328 22.4258V26.7488C274.328 27.3063 274.487 27.6248 274.816 27.7272C275.06 27.7589 275.308 27.742 275.545 27.6776C275.783 27.6132 276.006 27.5025 276.201 27.3518C276.743 27.0542 277.213 26.6382 277.574 26.1345C277.892 25.6858 278.062 25.149 278.062 24.5987V20.2757C278.061 20.1522 278.092 20.0306 278.153 19.9231C278.233 19.8098 278.338 19.7164 278.459 19.65L279.015 19.3315C279.288 19.1722 279.424 19.2177 279.424 19.4794V23.7682C279.422 24.3539 279.282 24.9309 279.015 25.4519C278.722 26.0421 278.339 26.5832 277.88 27.056C277.384 27.5648 276.818 28.0013 276.201 28.3529C275.682 28.6726 275.108 28.8925 274.509 29.0013Z" fill="white"/>
<path d="M282.535 24.4353C282.466 24.4353 282.432 24.3557 282.432 24.1964V18.3832L280.571 19.5208C280.435 19.6004 280.344 19.6232 280.287 19.6004C280.23 19.5777 280.208 19.498 280.208 19.3615V19.0771C280.202 18.9581 280.229 18.8399 280.287 18.7358C280.359 18.6269 280.457 18.5371 280.571 18.4742L285.656 15.5391C285.792 15.4595 285.894 15.4253 285.951 15.4595C286.008 15.4936 286.03 15.5619 286.03 15.6984V15.9828C286.036 16.1017 286.009 16.22 285.951 16.3241C285.871 16.4305 285.771 16.5195 285.656 16.5857L283.794 17.6551V23.4684C283.794 23.5881 283.763 23.7056 283.704 23.8096C283.628 23.9309 283.517 24.0261 283.386 24.0827L282.841 24.4012C282.693 24.4353 282.614 24.4581 282.535 24.4353Z" fill="white"/>
<path d="M286.954 21.8758C286.954 21.8758 286.875 21.762 286.875 21.6369V15.1752C286.87 15.0527 286.897 14.9311 286.954 14.8225C287.04 14.715 287.144 14.6228 287.26 14.5495L287.828 14.2309C287.964 14.1513 288.066 14.1172 288.134 14.1399C288.202 14.1627 288.225 14.2537 288.225 14.3902V17.075L291.698 15.05V12.3766C291.695 12.2529 291.727 12.1309 291.789 12.0239C291.871 11.9078 291.98 11.814 292.107 11.7509L292.652 11.421C292.799 11.3414 292.901 11.3186 292.958 11.3414C293.015 11.3641 293.06 11.4551 293.06 11.5803V18.042C293.063 18.162 293.031 18.2804 292.969 18.3833C292.888 18.5026 292.779 18.6002 292.652 18.6677L292.107 18.9862C292.015 19.0525 291.901 19.081 291.789 19.0658C291.789 19.0658 291.698 18.9635 291.698 18.8383V16.0853L288.214 18.0989V20.8064C288.219 20.9268 288.187 21.0459 288.123 21.1477C288.042 21.2604 287.938 21.3537 287.817 21.4207L287.249 21.7506C287.211 21.7904 287.165 21.8219 287.114 21.8434C287.064 21.8649 287.009 21.8759 286.954 21.8758Z" fill="white"/>
<path d="M248.986 50.9447L207.582 26.9863L198.354 32.3218L207.582 48.3282L248.986 72.2866V50.9447Z" fill="#455A64"/>
<path d="M207.581 26.9879L212.189 24.3145L253.684 48.3297L248.985 50.9463L207.581 26.9879Z" fill="#37474F"/>
<path d="M211.498 44.0259C211.432 43.942 211.386 43.845 211.362 43.7415L209.432 35.9032C209.425 35.8695 209.425 35.8346 209.432 35.8008C209.432 35.6985 209.5 35.6871 209.659 35.8008L210.646 36.3697C210.743 36.4247 210.831 36.4937 210.908 36.5744C210.957 36.6421 210.992 36.7197 211.01 36.8019L212.247 42.1715L213.722 38.8952C213.727 38.8679 213.741 38.8431 213.762 38.8246C213.782 38.806 213.808 38.7949 213.836 38.7928C213.836 38.7928 213.949 38.7928 214.063 38.8724L214.63 39.2023C214.716 39.2449 214.793 39.3027 214.857 39.373C214.908 39.4498 214.947 39.5343 214.971 39.6233L216.458 44.6061L217.661 40.6244C217.661 40.5561 217.717 40.522 217.774 40.522C217.865 40.526 217.952 40.5577 218.024 40.613L219.023 41.1932C219.182 41.2842 219.261 41.3752 219.261 41.489C219.267 41.519 219.267 41.55 219.261 41.58L217.309 47.1657C217.309 47.2453 217.229 47.2909 217.173 47.2909C217.076 47.2803 216.984 47.2492 216.9 47.1998L216.242 46.8131C216.141 46.7593 216.053 46.6857 215.981 46.5969C215.914 46.5126 215.864 46.416 215.833 46.3125L214.358 41.1932L212.882 44.6061C212.873 44.6372 212.855 44.6653 212.831 44.6873C212.807 44.7093 212.778 44.7245 212.746 44.7312C212.648 44.7209 212.554 44.6856 212.474 44.6288L211.804 44.242C211.689 44.1913 211.584 44.1178 211.498 44.0259Z" fill="white"/>
<path d="M220.556 49.2492C220.49 49.1435 220.455 49.0213 220.454 48.8966V42.4235C220.454 42.287 220.488 42.2073 220.556 42.1846C220.624 42.1846 220.738 42.1846 220.908 42.2983L226.004 45.2448C226.14 45.3095 226.257 45.4073 226.345 45.5292C226.406 45.6321 226.438 45.7504 226.435 45.8705V46.1549C226.435 46.2914 226.435 46.371 226.345 46.3938C226.254 46.4165 226.174 46.3938 226.004 46.2914L222.02 44.0161V46.0866L224.915 47.7589C225.05 47.8233 225.168 47.9211 225.255 48.0433C225.326 48.1428 225.361 48.2627 225.357 48.3846V48.6463C225.357 48.7828 225.323 48.8624 225.255 48.8852C225.133 48.893 225.012 48.8567 224.915 48.7828L222.02 47.0991V49.181L225.993 51.4562C226.129 51.5244 226.249 51.6215 226.345 51.7406C226.405 51.8482 226.437 51.9698 226.435 52.0933V52.3777C226.435 52.5028 226.435 52.5825 226.345 52.6052C226.219 52.6018 226.097 52.5623 225.993 52.4915L220.908 49.545C220.771 49.4732 220.651 49.3722 220.556 49.2492Z" fill="white"/>
<path d="M228.785 54.0839C228.296 53.7195 227.847 53.3038 227.445 52.8439C227.368 52.7745 227.312 52.6834 227.287 52.5822C227.279 52.5663 227.274 52.5488 227.274 52.531C227.274 52.5133 227.279 52.4957 227.287 52.4798L227.695 52.1613C227.695 52.1613 227.786 52.1613 227.82 52.1613C227.883 52.198 227.941 52.244 227.99 52.2978C228.653 53.0202 229.418 53.6411 230.26 54.1408C230.64 54.3931 231.07 54.56 231.52 54.63C231.804 54.63 231.94 54.4479 231.94 54.0953C231.944 53.8834 231.889 53.6745 231.781 53.4923C231.65 53.2735 231.494 53.0711 231.316 52.8894C231.111 52.6846 230.782 52.3661 230.328 51.9452L230.045 51.6835C229.511 51.1943 229.068 50.762 228.728 50.398C228.395 50.0555 228.106 49.6734 227.865 49.2604C227.641 48.8935 227.52 48.4731 227.514 48.0431C227.514 47.406 227.797 47.0647 228.365 47.042C229.177 47.0913 229.961 47.3585 230.635 47.8156C231.146 48.1057 231.635 48.4327 232.099 48.7939C232.487 49.1077 232.844 49.4582 233.166 49.8405C233.241 49.9149 233.292 50.0099 233.313 50.1136C233.321 50.1274 233.326 50.1431 233.326 50.1591C233.326 50.1751 233.321 50.1908 233.313 50.2046L232.916 50.5231C232.916 50.5231 232.825 50.5231 232.803 50.5231C232.739 50.483 232.681 50.4331 232.632 50.3752C232.072 49.7528 231.417 49.2229 230.692 48.8053C230.356 48.569 229.965 48.424 229.557 48.3844C229.295 48.3844 229.171 48.5778 229.171 48.9305C229.168 49.1494 229.223 49.3651 229.33 49.5561C229.466 49.7807 229.63 49.9871 229.818 50.1705C230.022 50.3866 230.374 50.7051 230.85 51.1374L231.146 51.4218C231.747 51.9679 232.212 52.4343 232.553 52.7984C232.861 53.1402 233.121 53.523 233.325 53.936C233.506 54.2881 233.603 54.6775 233.608 55.0736C233.608 55.6879 233.336 56.0179 232.814 56.0634C232 56.0257 231.212 55.7575 230.544 55.2898C229.932 54.9269 229.344 54.5241 228.785 54.0839Z" fill="white"/>
<path d="M236.625 58.5327C236.549 58.4312 236.509 58.307 236.512 58.1801V52.3668L234.367 51.1268C234.233 51.0594 234.117 50.9621 234.026 50.8424C233.966 50.743 233.935 50.6288 233.936 50.5125V50.2167C233.936 50.0802 233.936 50.0005 234.026 49.9778C234.117 49.955 234.208 49.9778 234.367 50.0802L240.235 53.4931C240.369 53.5604 240.485 53.6577 240.575 53.7775C240.641 53.8828 240.673 54.006 240.666 54.1301V54.4145C240.666 54.551 240.666 54.6307 240.575 54.6421C240.484 54.6534 240.394 54.6421 240.235 54.5283L238.078 53.2883V59.1015C238.078 59.2267 238.078 59.3063 237.976 59.3291C237.845 59.3383 237.715 59.2977 237.613 59.2153L236.977 58.8513C236.84 58.7693 236.721 58.661 236.625 58.5327Z" fill="white"/>
<path d="M253.766 4.81231C253.717 4.409 253.565 4.02523 253.325 3.69831C253.084 3.37138 252.763 3.11243 252.393 2.9466C251.365 2.41944 250.227 2.14453 249.073 2.14453C247.919 2.14453 246.781 2.41944 245.753 2.9466C245.383 3.11243 245.062 3.37138 244.822 3.69831C244.581 4.02523 244.429 4.409 244.38 4.81231V255.283H253.789V4.81231H253.766Z" fill="#455A64"/>
<path d="M336.675 194.048L281.345 178.042L224.016 129.556C223.235 128.952 222.297 128.584 221.314 128.496C220.331 128.407 219.343 128.601 218.466 129.056L81.4277 208.348C81.0687 208.517 80.7602 208.777 80.5327 209.103C80.3052 209.428 80.1668 209.808 80.1312 210.204C80.0956 210.6 80.1641 210.998 80.3299 211.359C80.4956 211.72 80.7528 212.031 81.0758 212.262L138.472 260.747L193.746 276.776L253.674 327.469L314.963 347.741C317.033 348.304 319.237 348.077 321.149 347.104L327.425 343.475L458.21 267.789C459.833 266.845 459.708 265.605 457.926 265.013L396.637 244.741L336.675 194.048Z" fill="#455A64"/>
<path d="M281.343 178.043L138.414 260.748L193.745 276.755L336.674 194.049L281.343 178.043Z" fill="#455A64"/>
<path d="M253.673 327.445L314.962 347.717C317.032 348.28 319.236 348.053 321.148 347.08L458.187 267.788C459.81 266.843 459.685 265.603 457.903 265.012L396.613 244.739L253.673 327.445Z" fill="#455A64"/>
<path d="M272.117 183.377L219.681 139.021L95.1953 211.056L147.643 255.412L272.117 183.377Z" fill="#E0E0E0"/>
<path d="M327.45 199.38L202.975 271.415L147.645 255.408L272.119 183.374L327.45 199.38Z" fill="#E0E0E0"/>
<g style="mix-blend-mode:multiply" opacity="0.5">
<path d="M327.45 199.38L202.975 271.415L147.645 255.408L272.119 183.374L327.45 199.38Z" fill="#E0E0E0"/>
</g>
<path d="M387.375 250.079L262.901 322.114L202.974 271.421L327.448 199.387L387.375 250.079Z" fill="#E0E0E0"/>
<path d="M440.2 267.539L315.714 339.573L262.903 322.111L387.378 250.076L440.2 267.539Z" fill="#E0E0E0"/>
<g style="mix-blend-mode:multiply" opacity="0.5">
<path d="M440.196 267.539L315.71 339.573L262.899 322.111L387.374 250.076L440.196 267.539Z" fill="#E0E0E0"/>
</g>
<path d="M125.556 236.735L143.035 226.064L115.375 199.387L95.1953 211.059L125.556 236.735Z" fill="#F0F0F0"/>
<path d="M147.643 223.4L119.983 196.722L161.479 172.616L189.138 199.385L147.643 223.4Z" fill="#F0F0F0"/>
<path d="M166.089 170.032L193.749 196.721L207.584 188.712L202.965 148.69L166.089 170.032Z" fill="#F0F0F0"/>
<path d="M212.192 186.051L207.584 146.029L219.683 139.021L264.629 177.041L212.192 186.051Z" fill="#F0F0F0"/>
<path d="M163.782 246.071L149.946 232.738L132.66 242.738L147.642 255.411L163.782 246.071Z" fill="#F0F0F0"/>
<path d="M154.555 230.067L168.39 243.412L209.84 219.419L196.039 206.063L154.555 230.067Z" fill="#F0F0F0"/>
<path d="M214.496 216.73L200.66 203.386L213.327 196.059L239.851 191.384V202.055L214.496 216.73Z" fill="#F0F0F0"/>
<path d="M244.459 199.385V190.568L266.376 186.7L244.459 199.385Z" fill="#F0F0F0"/>
<path d="M267.519 207.38C262.423 205.901 255.193 206.504 251.379 208.711C247.566 210.918 248.587 213.91 253.649 215.378C258.711 216.845 265.964 216.254 269.789 214.047C273.614 211.84 272.604 208.859 267.519 207.38Z" fill="#E6E6E6"/>
<path d="M252.539 204.504C251.545 204.827 250.587 205.25 249.679 205.767C245.661 208.042 245.559 211.114 245.706 212.309C245.793 213.011 246.012 213.691 246.353 214.311L235.241 220.727L214.517 216.734L239.872 202.059L252.539 204.504Z" fill="#E6E6E6"/>
<path d="M244.459 199.38L258.68 201.849L265.967 202.862L290.562 188.709L272.119 183.374L244.459 199.38Z" fill="#E6E6E6"/>
<path d="M327.447 199.419L292.83 219.418L272.207 216.585C275.555 214.31 275.612 211.603 275.498 210.476C275.409 209.78 275.194 209.105 274.863 208.486L302.863 192.274L327.447 199.419Z" fill="#E6E6E6"/>
<path d="M288.668 221.827L272.131 231.394L244.392 226.059L255.946 219.415L256.037 219.358C257.331 219.533 258.635 219.621 259.941 219.62C262.609 219.642 265.265 219.278 267.829 218.539L288.668 221.827Z" fill="#E6E6E6"/>
<path d="M209.838 219.417L168.389 243.41L189.136 247.414L230.597 223.41L209.838 219.417Z" fill="#E6E6E6"/>
<path d="M272.129 231.398L244.412 226.074L202.951 250.078L230.634 255.414L272.129 231.398Z" fill="#E6E6E6"/>
<path d="M163.784 246.072L147.645 255.412L166.088 260.748L184.52 250.077L163.784 246.072Z" fill="#E6E6E6"/>
<path d="M226.013 258.084L198.342 252.748L178.378 264.306L202.973 271.416L226.013 258.084Z" fill="#E6E6E6"/>
<path d="M299.788 231.395L315.19 259.835L355.107 236.741L318.232 220.724L299.788 231.395Z" fill="#F0F0F0"/>
<path d="M226.014 258.086L230.633 266.083L229.192 293.603L202.974 271.419L226.014 258.086Z" fill="#F0F0F0"/>
<path d="M230.632 255.415L235.24 263.424L293.056 229.966L288.664 221.832L230.632 255.415Z" fill="#F0F0F0"/>
<path d="M292.829 219.42L297.483 227.406L334.937 205.723L327.446 199.387L292.829 219.42Z" fill="#F0F0F0"/>
<path d="M295.18 234.07L237.545 267.425L236.059 299.404L240.428 303.101L310.627 262.488L295.18 234.07Z" fill="#F0F0F0"/>
<path d="M322.839 218.065L338.683 208.896L364.902 231.068L359.726 234.071L322.839 218.065Z" fill="#F0F0F0"/>
<path d="M247.919 309.438L267.509 298.107L276.736 314.114L262.901 322.111L247.919 309.438Z" fill="#F0F0F0"/>
<path d="M290.56 284.765L272.12 295.436L281.342 311.445L299.782 300.774L290.56 284.765Z" fill="#F0F0F0"/>
<path d="M295.181 282.09L315.032 270.6L323.862 286.834L304.397 298.107L295.181 282.09Z" fill="#F0F0F0"/>
<path d="M328.401 284.216L319.594 267.959L359.727 244.74L379.884 243.739L387.375 250.076L328.401 284.216Z" fill="#F0F0F0"/>
<path d="M368.648 234.237L359.727 239.402L374.107 238.845L368.648 234.237Z" fill="#F0F0F0"/>
<path d="M350.783 292.934C345.698 291.455 338.468 292.058 334.655 294.265C330.841 296.472 331.863 299.464 336.925 300.943C341.987 302.422 349.239 301.819 353.064 299.6C356.889 297.382 355.879 294.413 350.783 292.934Z" fill="#E6E6E6"/>
<path d="M276.739 314.113L295.182 319.449L280.507 327.935L262.903 322.111L276.739 314.113Z" fill="#E6E6E6"/>
<path d="M281.344 311.438L299.787 316.773L318.231 306.102L299.787 300.767L281.344 311.438Z" fill="#E6E6E6"/>
<path d="M304.398 298.104L322.842 303.439L328.982 299.879C328.982 299.879 326.065 293.349 334.657 290.618L323.818 286.83L304.398 298.104Z" fill="#E6E6E6"/>
<path d="M328.4 284.213L339.75 288.308C342.811 287.937 345.906 287.937 348.966 288.308L382.778 268.809L364.334 263.417L328.4 284.213Z" fill="#E6E6E6"/>
<path d="M368.944 260.747L387.388 266.083L404.992 255.901L387.377 250.076L368.944 260.747Z" fill="#E6E6E6"/>
<path d="M416.724 259.784L387.385 276.758L410.436 284.766L440.196 267.543L416.724 259.784Z" fill="#E6E6E6"/>
<path d="M382.777 279.43L358.534 293.457C358.534 293.457 361.507 298.087 357.705 301.75L373.595 306.107L405.874 287.427L383.379 279.748" fill="#E6E6E6"/>
<path d="M368.944 308.778L352.566 304.637C352.566 304.637 344.678 307.731 338.038 305.319L313.613 319.449L309.005 337.355L315.713 339.573L368.944 308.778Z" fill="#E6E6E6"/>
<path d="M309.004 322.11L305.145 336.08L292.24 331.814L309.004 322.11Z" fill="#E6E6E6"/>
<path d="M288.666 279.459C288.469 279.459 288.275 279.407 288.104 279.31C287.933 279.212 287.79 279.071 287.69 278.901C287.536 278.642 287.492 278.332 287.566 278.04C287.641 277.747 287.828 277.497 288.087 277.343L312.364 262.997L289.835 221.758L268.633 218.414C268.402 218.378 268.187 218.271 268.018 218.108C267.849 217.945 267.735 217.734 267.691 217.504C267.658 217.284 267.689 217.059 267.782 216.856C267.875 216.654 268.025 216.484 268.213 216.366C271.357 214.443 272.935 212.623 272.753 211.087C272.572 209.552 270.801 208.073 267.873 206.946C263.514 205.263 254.503 205.809 250.61 208.846C249.659 209.474 248.994 210.452 248.758 211.568C248.522 212.683 248.735 213.848 249.35 214.807C249.434 214.936 249.492 215.08 249.52 215.231C249.547 215.382 249.544 215.537 249.51 215.687C249.476 215.837 249.412 215.979 249.322 216.103C249.232 216.228 249.118 216.333 248.987 216.411L237.296 223.488C237.064 223.636 236.783 223.689 236.513 223.635L211.94 219.221C211.712 219.179 211.502 219.068 211.339 218.903L186.551 193.875C186.339 193.662 186.221 193.374 186.221 193.073C186.221 192.773 186.339 192.484 186.551 192.271C186.656 192.164 186.782 192.08 186.92 192.022C187.058 191.964 187.207 191.935 187.357 191.935C187.506 191.935 187.655 191.964 187.793 192.022C187.931 192.08 188.057 192.164 188.162 192.271L212.701 217.037L236.536 221.315L246.955 215.001C246.354 213.615 246.252 212.064 246.666 210.611C247.08 209.159 247.985 207.896 249.225 207.037C253.765 203.534 263.707 202.885 268.701 204.819C270.971 205.672 274.739 207.606 275.023 210.871C275.205 212.805 274.104 214.739 271.743 216.639L290.697 219.631C290.871 219.657 291.036 219.723 291.18 219.824C291.323 219.924 291.442 220.057 291.526 220.211L314.85 262.906C314.991 263.165 315.026 263.469 314.947 263.754C314.869 264.038 314.684 264.281 314.43 264.431L289.211 279.334C289.042 279.42 288.855 279.463 288.666 279.459Z" fill="#2463EB"/>
<path d="M194.858 158.351L190.977 156.076C189.115 154.824 186.55 154.881 183.701 156.531C178.026 159.796 173.486 168.101 173.486 175.063V176.667C173.486 183.629 182.827 191.206 182.827 191.206L186.652 193.367C186.652 193.367 184.382 190.751 184.621 190.205C187.118 185.063 193.939 170.512 193.939 164.824V163.243C193.951 162.09 193.802 160.941 193.496 159.83L193.939 160.08L194.858 158.351ZM183.701 174.278C180.875 175.905 178.582 174.585 178.582 171.309C180.103 171.07 183.928 164.483 183.701 162.435C186.527 160.797 188.809 162.128 188.809 165.393C188.728 167.191 188.223 168.944 187.335 170.508C186.448 172.073 185.202 173.404 183.701 174.392V174.278Z" fill="#2463EB"/>
<path d="M194.858 158.351L190.977 156.076C189.115 154.824 186.55 154.881 183.701 156.531C178.026 159.796 173.486 168.101 173.486 175.063V176.667C173.486 183.629 182.827 191.206 182.827 191.206L186.652 193.367C186.652 193.367 184.382 190.751 184.621 190.205C187.118 185.063 193.939 170.512 193.939 164.824V163.243C193.951 162.09 193.802 160.941 193.496 159.83L193.939 160.08L194.858 158.351ZM183.701 174.278C180.875 175.905 178.582 174.585 178.582 171.309C180.103 171.07 183.928 164.483 183.701 162.435C186.527 160.797 188.809 162.128 188.809 165.393C188.728 167.191 188.223 168.944 187.335 170.508C186.448 172.073 185.202 173.404 183.701 174.392V174.278Z" fill="#2463EB"/>
<g opacity="0.2">
<path d="M194.855 158.342L190.974 156.067C189.112 154.816 186.547 154.873 183.698 156.522C178.023 159.787 173.483 168.092 173.483 175.054V176.658C173.483 183.62 182.824 191.197 182.824 191.197L186.649 193.358C186.649 193.358 184.379 190.742 184.618 190.196C187.115 185.054 193.936 170.504 193.936 164.815V163.234C193.948 162.081 193.799 160.933 193.493 159.821L193.936 160.072L194.855 158.342ZM183.698 174.269C180.872 175.896 178.579 174.576 178.579 171.3C180.1 171.061 183.925 164.474 183.698 162.426C186.524 160.788 188.806 162.119 188.806 165.384C188.725 167.182 188.22 168.935 187.332 170.5C186.445 172.064 185.199 173.395 183.698 174.383V174.269Z" fill="black"/>
</g>
<path d="M198.014 165.644C198.014 158.67 193.474 155.678 187.799 158.943C182.124 162.208 177.584 170.513 177.584 177.475V179.068C177.584 184.426 183.645 190.66 186.437 193.243C186.595 193.389 186.786 193.496 186.993 193.555C187.199 193.614 187.417 193.625 187.629 193.585C187.84 193.545 188.04 193.456 188.211 193.326C188.382 193.196 188.521 193.027 188.616 192.833C191.022 187.885 198.036 173.005 198.036 167.225L198.014 165.644ZM187.799 176.702C184.973 178.329 182.691 177.009 182.691 173.744C182.789 171.966 183.303 170.235 184.19 168.692C185.077 167.149 186.313 165.836 187.799 164.859C190.625 163.232 192.918 164.552 192.918 167.817C192.812 169.591 192.293 171.316 191.402 172.853C190.511 174.39 189.273 175.697 187.788 176.668L187.799 176.702Z" fill="#2463EB"/>
<path d="M295.873 244.807L291.991 242.532C290.13 241.281 287.565 241.337 284.716 242.987C279.041 246.252 274.501 254.557 274.501 261.519V263.123C274.501 270.085 283.842 277.662 283.842 277.662L287.667 279.823C287.667 279.823 285.397 277.207 285.635 276.661C288.132 271.519 294.953 256.968 294.953 251.28V249.699C294.966 248.546 294.817 247.397 294.511 246.286L294.953 246.536L295.873 244.807ZM284.716 260.734C281.89 262.361 279.597 261.041 279.597 257.765C281.118 257.526 284.943 250.939 284.716 248.891C287.542 247.253 289.823 248.584 289.823 251.849C289.743 253.647 289.238 255.4 288.35 256.964C287.462 258.529 286.217 259.86 284.716 260.848V260.734Z" fill="#2463EB"/>
<path d="M295.873 244.807L291.991 242.532C290.13 241.281 287.565 241.337 284.716 242.987C279.041 246.252 274.501 254.557 274.501 261.519V263.123C274.501 270.085 283.842 277.662 283.842 277.662L287.667 279.823C287.667 279.823 285.397 277.207 285.635 276.661C288.132 271.519 294.953 256.968 294.953 251.28V249.699C294.966 248.546 294.817 247.397 294.511 246.286L294.953 246.536L295.873 244.807ZM284.716 260.734C281.89 262.361 279.597 261.041 279.597 257.765C281.118 257.526 284.943 250.939 284.716 248.891C287.542 247.253 289.823 248.584 289.823 251.849C289.743 253.647 289.238 255.4 288.35 256.964C287.462 258.529 286.217 259.86 284.716 260.848V260.734Z" fill="#2463EB"/>
<g opacity="0.2">
<path d="M295.872 244.813L291.99 242.538C290.129 241.286 287.564 241.343 284.715 242.993C279.04 246.258 274.5 254.562 274.5 261.525V263.129C274.5 270.091 283.841 277.668 283.841 277.668L287.666 279.829C287.666 279.829 285.396 277.213 285.634 276.667C288.131 271.524 294.952 256.974 294.952 251.286V249.705C294.965 248.552 294.816 247.403 294.51 246.292L294.952 246.542L295.872 244.813ZM284.715 260.74C281.889 262.367 279.596 261.047 279.596 257.771C281.117 257.532 284.942 250.945 284.715 248.897C287.541 247.259 289.822 248.59 289.822 251.855C289.742 253.653 289.237 255.406 288.349 256.97C287.461 258.535 286.216 259.865 284.715 260.854V260.74Z" fill="#FF1400"/>
</g>
<path d="M299.028 252.101C299.028 245.127 294.488 242.136 288.814 245.4C283.139 248.665 278.599 256.97 278.599 263.932V265.525C278.599 270.883 284.659 277.117 287.452 279.689C287.608 279.837 287.798 279.947 288.004 280.008C288.211 280.07 288.43 280.082 288.642 280.043C288.854 280.004 289.054 279.916 289.226 279.785C289.398 279.654 289.536 279.485 289.631 279.29C292.037 274.342 299.051 259.462 299.051 253.682L299.028 252.101ZM288.814 263.159C285.987 264.786 283.706 263.466 283.706 260.201C283.804 258.423 284.317 256.692 285.204 255.149C286.092 253.606 287.328 252.293 288.814 251.316C291.64 249.689 293.932 251.009 293.932 254.274C293.827 256.048 293.307 257.773 292.417 259.31C291.526 260.847 290.288 262.154 288.802 263.125L288.814 263.159Z" fill="#FF0709"/>
<path d="M374.279 111.626L374.029 111.478L366.243 106.996C364.44 105.803 362.32 105.18 360.16 105.21C356.983 105.322 353.891 106.267 351.193 107.952C339.503 114.709 330.037 131.842 330.037 146.29V149.566C330.037 163.98 349.332 179.645 349.332 179.645L357.197 184.104C356.936 183.797 352.465 178.655 352.998 177.574C358.174 166.926 372.293 136.836 372.293 125.073V121.797C372.317 119.419 372.016 117.05 371.396 114.755L372.304 115.278L374.279 111.626ZM359.649 149.566C354.462 152.569 350.16 150.704 349.252 145.584C344.338 147.382 340.615 144.549 340.615 138.554C343.759 138.053 351.659 124.527 351.193 120.193C356.369 117.189 360.67 119.055 361.578 124.174C366.504 122.377 370.227 125.209 370.227 131.205C370.227 137.985 365.471 146.187 359.649 149.566Z" fill="#263238"/>
<path d="M374.278 111.625L374.029 111.477C370.249 109.349 365.198 109.634 359.648 112.842C351.283 117.688 344.042 127.87 340.615 138.552C339.26 142.626 338.544 146.886 338.492 151.18V154.467C338.492 165.571 350.977 178.449 356.811 183.784C356.94 183.904 357.081 184.01 357.231 184.103C357.566 184.312 357.941 184.45 358.332 184.506C358.723 184.562 359.122 184.536 359.502 184.429C359.882 184.322 360.236 184.136 360.541 183.884C360.846 183.632 361.094 183.319 361.271 182.965C366.254 172.726 380.771 141.942 380.771 130.009V126.721C380.805 119.292 378.308 114.093 374.278 111.625ZM349.252 145.583C349.125 144.877 349.064 144.161 349.07 143.444C349.07 136.686 353.803 128.461 359.648 125.083C360.265 124.726 360.91 124.421 361.578 124.173C366.504 122.375 370.226 125.208 370.226 131.203C370.226 137.961 365.494 146.186 359.648 149.564C354.461 152.568 350.16 150.759 349.252 145.583Z" fill="#455A64"/>
<path d="M363.11 121.432C362.303 121.744 361.525 122.125 360.783 122.57C353.712 126.654 347.992 136.597 347.992 144.765C347.983 145.635 348.059 146.503 348.219 147.359C349.354 153.615 354.518 155.8 360.783 152.171C367.843 148.087 373.574 138.144 373.574 129.976C373.574 122.683 369.069 119.259 363.11 121.432Z" fill="#E84041"/>
<path d="M423.675 140.146L423.425 139.998L415.639 135.516C413.836 134.322 411.716 133.7 409.555 133.73C406.379 133.841 403.287 134.787 400.589 136.471C388.898 143.229 379.433 160.361 379.433 174.809V178.086C379.433 192.499 398.727 208.164 398.727 208.164L406.593 212.624C406.332 212.317 401.86 207.175 402.393 206.094C407.569 195.446 421.688 165.356 421.688 153.592V150.316C421.713 147.939 421.411 145.569 420.792 143.274L421.7 143.798L423.675 140.146ZM409.045 178.086C403.858 181.089 399.556 179.28 398.648 174.104C393.734 175.901 390.011 173.069 390.011 167.073C393.155 166.573 401.054 153.046 400.589 148.712C405.764 145.709 410.066 147.518 410.974 152.694C415.9 150.896 419.623 153.729 419.623 159.724C419.623 166.482 414.89 174.707 409.045 178.086Z" fill="#263238"/>
<path d="M423.674 140.145L423.424 139.997C419.645 137.87 414.594 138.154 409.044 141.362C400.679 146.209 393.438 156.39 390.01 167.073C388.656 171.147 387.94 175.406 387.888 179.7V182.988C387.888 194.091 400.429 206.969 406.206 212.305C406.336 212.424 406.476 212.531 406.626 212.623C406.961 212.833 407.336 212.97 407.728 213.027C408.119 213.083 408.517 213.057 408.898 212.949C409.278 212.842 409.632 212.657 409.936 212.405C410.241 212.153 410.49 211.84 410.667 211.486C415.65 201.247 430.166 170.463 430.166 158.529V155.241C430.166 147.813 427.703 142.534 423.674 140.145ZM398.704 174.103C398.577 173.397 398.517 172.681 398.523 171.964C398.523 165.207 403.255 156.982 409.101 153.603C409.717 153.246 410.363 152.942 411.03 152.693C415.956 150.896 419.679 153.728 419.679 159.724C419.679 166.481 414.946 174.706 409.101 178.085C403.857 181.088 399.521 179.279 398.647 174.103H398.704Z" fill="#455A64"/>
<path d="M412.505 149.952C411.699 150.264 410.921 150.645 410.179 151.089C403.108 155.173 397.387 165.116 397.387 173.273C397.379 174.143 397.455 175.012 397.614 175.867C398.749 182.124 403.914 184.308 410.179 180.679C417.238 176.595 422.97 166.652 422.97 158.484C422.97 151.203 418.464 147.779 412.505 149.952Z" fill="#FFE20B"/>
<path d="M473.07 168.461L472.82 168.313L465.034 163.831C463.231 162.638 461.111 162.015 458.951 162.045C455.774 162.157 452.682 163.102 449.984 164.787C438.294 171.544 428.828 188.677 428.828 203.125V206.401C428.828 220.815 448.123 236.48 448.123 236.48L455.988 240.939C455.727 240.632 451.255 235.49 451.789 234.409C456.964 223.761 471.084 193.671 471.084 181.908V178.632C471.108 176.254 470.807 173.885 470.187 171.59L471.095 172.113L473.07 168.461ZM458.44 206.401C453.253 209.404 448.951 207.595 448.043 202.419C443.129 204.217 439.406 201.384 439.406 195.389C442.55 194.888 450.45 181.362 449.984 177.028C455.16 174.024 459.461 175.89 460.369 181.009C465.295 179.212 469.018 182.044 469.018 188.04C469.018 194.797 464.285 203.022 458.44 206.401Z" fill="#263238"/>
<path d="M473.069 168.466L472.82 168.318C469.04 166.191 463.99 166.475 458.439 169.684C450.075 174.53 442.833 184.712 439.406 195.394C438.051 199.468 437.335 203.728 437.283 208.022V211.309C437.283 222.413 449.825 235.29 455.602 240.626C455.731 240.745 455.872 240.852 456.022 240.944C456.357 241.154 456.732 241.292 457.123 241.348C457.514 241.404 457.913 241.378 458.293 241.271C458.673 241.164 459.027 240.978 459.332 240.726C459.637 240.474 459.885 240.161 460.062 239.807C465.045 229.568 479.562 198.784 479.562 186.85V183.494C479.596 176.134 477.099 170.889 473.069 168.466ZM448.043 202.424C447.916 201.719 447.855 201.003 447.861 200.286C447.861 193.528 452.594 185.303 458.439 181.924C459.056 181.568 459.701 181.263 460.369 181.014C465.295 179.217 469.018 182.05 469.018 188.045C469.018 194.802 464.285 203.027 458.439 206.406C453.253 209.409 448.951 207.601 448.043 202.424Z" fill="#455A64"/>
<path d="M461.944 178.253C461.159 178.573 460.4 178.954 459.674 179.391C452.603 183.475 446.883 193.418 446.883 201.586C446.874 202.452 446.95 203.317 447.11 204.169C448.245 210.425 453.397 212.621 459.674 208.981C466.733 204.897 472.454 194.954 472.454 186.786C472.352 179.505 467.857 176.081 461.944 178.253Z" fill="#17E161"/>
</svg>
