<svg width="60" height="60" viewBox="0 0 60 60" fill="none" xmlns="http://www.w3.org/2000/svg">
<path d="M32.1 39.9L39.9 32.1C40.45 31.55 40.725 30.85 40.725 30C40.725 29.15 40.45 28.45 39.9 27.9L32.025 20.025C31.475 19.475 30.788 19.212 29.964 19.236C29.138 19.262 28.45 19.55 27.9 20.1C27.35 20.65 27.075 21.35 27.075 22.2C27.075 23.05 27.35 23.75 27.9 24.3L30.6 27H20.925C20.075 27 19.375 27.287 18.825 27.861C18.275 28.437 18 29.15 18 30C18 30.85 18.288 31.562 18.864 32.136C19.438 32.712 20.15 33 21 33H30.6L27.825 35.775C27.275 36.325 27.012 37.013 27.036 37.839C27.062 38.663 27.35 39.35 27.9 39.9C28.45 40.45 29.15 40.725 30 40.725C30.85 40.725 31.55 40.45 32.1 39.9ZM30 60C25.85 60 21.95 59.212 18.3 57.636C14.65 56.062 11.475 53.925 8.775 51.225C6.075 48.525 3.938 45.35 2.364 41.7C0.788 38.05 0 34.15 0 30C0 25.85 0.788 21.95 2.364 18.3C3.938 14.65 6.075 11.475 8.775 8.775C11.475 6.075 14.65 3.937 18.3 2.361C21.95 0.787 25.85 0 30 0C34.15 0 38.05 0.787 41.7 2.361C45.35 3.937 48.525 6.075 51.225 8.775C53.925 11.475 56.062 14.65 57.636 18.3C59.212 21.95 60 25.85 60 30C60 34.15 59.212 38.05 57.636 41.7C56.062 45.35 53.925 48.525 51.225 51.225C48.525 53.925 45.35 56.062 41.7 57.636C38.05 59.212 34.15 60 30 60Z" fill="#2463EB"/>
</svg>
