<svg width="24" height="26" viewBox="0 0 24 26" fill="none" xmlns="http://www.w3.org/2000/svg">
<g clip-path="url(#clip0_1_5687)">
<path d="M23.7429 21.9026L13.323 2.35217C13.052 1.83914 12.5435 1.52051 11.9973 1.52051C11.4522 1.52051 10.9442 1.83861 10.671 2.35032L0.204522 21.9914C-0.0681739 22.5026 -0.0681739 23.1373 0.204522 23.6485C0.477217 24.1612 0.985234 24.4797 1.52989 24.4797H22.4702C23.3138 24.4797 23.9999 23.7353 23.9999 22.8206C24 22.4794 23.9067 22.1509 23.7429 21.9026ZM22.4702 23.5182H1.53038C1.30127 23.5182 1.08689 23.3852 0.972208 23.1694C0.857165 22.9536 0.856799 22.686 0.972208 22.4704L11.4387 2.82985C11.5533 2.61514 11.7672 2.48102 11.9973 2.48102C12.2264 2.48102 12.4421 2.61501 12.5563 2.82985L22.9971 22.4195C23.0733 22.5375 23.1147 22.6758 23.1147 22.8212C23.1147 23.2054 22.825 23.5182 22.4702 23.5182Z" fill="#2463EB"/>
<path d="M12.4788 17.7964L12.7201 8.87012H10.9211L11.1612 17.7964H12.4788Z" fill="#2463EB"/>
<path d="M11.8204 19.0752C11.194 19.0752 10.7395 19.5902 10.7395 20.2991C10.7395 21.0099 11.194 21.5248 11.8204 21.5248C12.457 21.5248 12.9022 21.0217 12.9022 20.2991C12.9022 19.5783 12.4574 19.0752 11.8204 19.0752Z" fill="#2463EB"/>
</g>
<defs>
<clipPath id="clip0_1_5687">
<rect width="24" height="26" fill="white"/>
</clipPath>
</defs>
</svg>
