<svg width="57" height="64" viewBox="0 0 57 64" fill="none" xmlns="http://www.w3.org/2000/svg">
<path d="M17.8382 42.8423C16.432 41.1332 14.9769 39.3566 13.8246 36.7435C12.6966 34.1668 12.0716 31.5071 12.0912 28.7434C12.1156 25.9797 12.7747 23.1329 14.2103 20.1926C14.2201 20.1718 14.2298 20.1562 14.2396 20.1354C16.1195 16.7484 18.7513 14.4834 21.681 13.2158C24.1371 12.1457 26.8079 11.782 29.4251 12.0366C32.0326 12.2911 34.5863 13.1639 36.8177 14.5665C39.6546 16.3535 41.9886 19.0029 43.2728 22.3484C43.9662 24.1615 44.4349 26.1823 44.4935 28.3953C44.5521 30.6031 44.1956 32.9824 43.2386 35.4967C41.7738 39.3565 38.3509 43.4917 36.1097 47.2892C35.9876 47.2632 35.8607 47.258 35.7337 47.2788L32.7113 47.7567L37.3158 30.7174C37.4476 30.2343 37.179 29.7304 36.7249 29.5901C36.2708 29.4551 35.7972 29.7356 35.6654 30.2187L30.846 48.058L26.2757 48.7801L21.4466 32.4473C21.7933 32.5201 22.1595 32.359 22.3499 32.0162L25.7728 25.8186L27.516 30.0733C27.7064 30.5356 28.2093 30.7434 28.639 30.546C28.8538 30.4473 29.0101 30.2603 29.0931 30.0473L30.6361 25.9018L32.4427 30.972C32.6087 31.4447 33.1019 31.6785 33.5462 31.5019C33.9906 31.3252 34.2103 30.8006 34.0443 30.3278L31.471 23.1069C31.3978 22.8524 31.2171 22.6342 30.9681 22.5303C30.5287 22.3433 30.0306 22.577 29.8548 23.0446L28.2581 27.3407L26.6663 23.455C26.598 23.2835 26.4759 23.1329 26.3148 23.0342C25.9095 22.7796 25.3822 22.9251 25.1478 23.3563L20.9876 30.8889L20.6898 29.8862C20.5482 29.4083 20.0697 29.1382 19.6205 29.2888C19.1712 29.4395 18.9173 29.9486 19.0589 30.4265L24.5619 49.0502L21.2513 49.5749C20.4505 47.0554 19.2298 44.5411 17.8382 42.8423ZM7.04233 9.61056C6.65658 9.22614 6.4515 8.71184 6.43197 8.19236C6.41244 7.67286 6.58334 7.14299 6.93979 6.73259C7.30111 6.32219 7.78451 6.10401 8.27279 6.08323C8.76108 6.06245 9.25912 6.24427 9.64486 6.6235L12.7113 9.66251C13.097 10.0469 13.3021 10.5612 13.3216 11.0807C13.3412 11.6054 13.1703 12.1301 12.8138 12.5405C12.4525 12.9509 11.9691 13.1691 11.4808 13.1898C10.9876 13.2106 10.4945 13.0288 10.1087 12.6496L7.04233 9.61056ZM2.02768 32.0369C1.5101 32.0473 1.03647 31.8343 0.684903 31.4863C0.328458 31.1278 0.0989657 30.6291 0.0794345 30.0629C0.0599032 29.5018 0.260098 28.9823 0.597013 28.6031C0.933927 28.2239 1.40268 27.9797 1.9349 27.9641L6.11947 27.8135C6.64682 27.7927 7.1351 28.0057 7.49154 28.3641C7.84799 28.7226 8.07748 29.2213 8.09213 29.7875V29.8187H8.09701L8.09213 29.8914C8.08236 30.4161 7.88705 30.8889 7.57455 31.2473C7.23764 31.6265 6.76889 31.8655 6.23666 31.8863H6.20736V31.8915H6.16342L2.02768 32.0369ZM54.1371 25.7251L54.2005 25.7199C54.6986 25.6888 55.1624 25.8602 55.5238 26.1719C55.9046 26.4992 56.1634 26.9875 56.222 27.5433V27.5641C56.2269 27.5641 56.2269 27.6213 56.2269 27.6317C56.2562 28.1615 56.0951 28.6551 55.8021 29.0395C55.4945 29.4447 55.0355 29.72 54.513 29.7824L50.348 30.2499C49.8206 30.307 49.3226 30.1304 48.9466 29.8031C48.5658 29.4759 48.3021 28.9875 48.2484 28.4317C48.1947 27.8758 48.3607 27.3407 48.6683 26.9407C48.9759 26.5355 49.4349 26.255 49.9574 26.1979C51.349 26.0368 52.7455 25.8654 54.1371 25.7251ZM45.8851 7.98975C46.1829 7.52221 46.6224 7.2313 47.1009 7.1274C47.5794 7.0287 48.0921 7.12221 48.5365 7.4339L48.5414 7.43909C48.9808 7.75079 49.2591 8.22352 49.3519 8.73262C49.4447 9.24172 49.3568 9.78719 49.0638 10.2599L46.7347 13.9639C46.4417 14.4314 45.9974 14.7275 45.514 14.8314C45.0355 14.9301 44.5228 14.8366 44.0785 14.5249C43.639 14.2132 43.3607 13.7353 43.263 13.2262C43.1703 12.7171 43.2581 12.1716 43.5511 11.6989L45.8851 7.98975ZM27.7992 1.99484C27.8138 1.4286 28.0384 0.924692 28.3949 0.566244C28.7415 0.212991 29.2201 0 29.7376 0.0051949V0C29.7816 0 29.8255 0.0051949 29.8695 0.0103898C30.3529 0.051949 30.7874 0.285719 31.0999 0.633778C31.432 1.00262 31.6322 1.50652 31.6273 2.06237H31.6322C31.6322 2.09874 31.6322 2.1351 31.6273 2.16627L31.5247 6.5144H31.5296C31.5296 6.56116 31.5247 6.60791 31.5199 6.65466C31.4808 7.17415 31.2611 7.63131 30.9339 7.96378C30.5824 8.31703 30.1087 8.53002 29.5912 8.52483V8.53002C29.5472 8.53002 29.5033 8.52483 29.4593 8.51963C28.971 8.47807 28.5413 8.2443 28.2288 7.89625C27.8968 7.52221 27.6966 7.01831 27.7015 6.46765H27.6966C27.6966 6.43128 27.6966 6.39492 27.7015 6.36375L27.7992 1.99484ZM34.9525 49.7931L34.6449 51.3256L34.5667 52.4165L22.1986 54.375C22.1546 53.5906 22.0374 52.7438 21.8519 51.8659L34.9525 49.7931ZM34.5423 54.8062L34.5521 55.4659L34.5667 55.6945C34.6009 56.1257 34.6058 56.562 34.5814 56.9932L34.3958 57.9439L22.9066 59.7621L22.7064 59.2738L22.2572 57.3205L22.2474 56.7543L34.5423 54.8062ZM33.639 60.4478C33.0433 61.5336 32.223 62.3803 31.2855 62.957C30.4505 63.4765 29.5179 63.7726 28.5853 63.8349C27.638 63.8973 26.681 63.705 25.807 63.2583C25.2113 62.9466 24.6546 62.5154 24.1615 61.9544L33.639 60.4478Z" fill="#2463EB"/>
</svg>
