<svg width="97" height="58" viewBox="0 0 97 58" fill="none" xmlns="http://www.w3.org/2000/svg">
<path fill-rule="evenodd" clip-rule="evenodd" d="M87.3301 33.8333H86.3296C82.6997 29 78.9733 28.5988 74.2125 29C72.516 29.145 69.3307 29.7687 67.9967 31.1075V24.1667H87.3301V33.8333ZM75.5947 48.3333C72.9267 48.3333 70.7614 46.1632 70.7614 43.5C70.7614 40.8368 72.9267 38.6667 75.5947 38.6667C78.2579 38.6667 80.428 40.8368 80.428 43.5C80.428 46.1632 78.2579 48.3333 75.5947 48.3333ZM58.3301 33.8333H37.9962C35.3427 30.8898 31.5389 29 27.2614 29C22.9839 29 19.1753 30.8898 16.5218 33.8333H9.99675V24.1667H58.3301V33.8333ZM27.2614 48.3333C24.5934 48.3333 22.428 46.1632 22.428 43.5C22.428 40.8368 24.5934 38.6667 27.2614 38.6667C29.9245 38.6667 32.0947 40.8368 32.0947 43.5C32.0947 46.1632 29.9245 48.3333 27.2614 48.3333ZM67.9967 14.5V0H58.3301V14.5H9.99675V0H0.330078V43.5H12.7614C12.7614 51.5088 19.2525 58 27.2614 58C35.2654 58 41.7614 51.5088 41.7614 43.5H61.0947C61.0947 51.5088 67.5859 58 75.5947 58C83.5987 58 90.0947 51.5088 90.0947 43.5H96.9967V14.5H67.9967Z" fill="white"/>
</svg>
