<svg width="66" height="60" viewBox="0 0 66 60" fill="none" xmlns="http://www.w3.org/2000/svg">
<circle cx="33" cy="30" r="27" fill="#2463EB"/>
<path d="M40.584 35.1465H25.4173C24.9154 35.1437 24.4348 34.943 24.0799 34.588C23.725 34.2331 23.5243 33.7526 23.5215 33.2507V22.4173C23.5243 21.9154 23.725 21.4348 24.0799 21.0799C24.4348 20.725 24.9154 20.5243 25.4173 20.5215H40.584C41.0859 20.5243 41.5665 20.725 41.9214 21.0799C42.2764 21.4348 42.477 21.9154 42.4798 22.4173V33.2507C42.477 33.7526 42.2764 34.2331 41.9214 34.588C41.5665 34.943 41.0859 35.1437 40.584 35.1465ZM25.4173 22.1465C25.3455 22.1465 25.2766 22.175 25.2258 22.2258C25.175 22.2766 25.1465 22.3455 25.1465 22.4173V33.2507C25.1465 33.3225 25.175 33.3914 25.2258 33.4422C25.2766 33.493 25.3455 33.5215 25.4173 33.5215H40.584C40.6558 33.5215 40.7247 33.493 40.7755 33.4422C40.8263 33.3914 40.8548 33.3225 40.8548 33.2507V22.4173C40.8548 22.3455 40.8263 22.2766 40.7755 22.2258C40.7247 22.175 40.6558 22.1465 40.584 22.1465H25.4173Z" fill="white"/>
<path d="M36.25 39.4798H33C32.7854 39.477 32.5803 39.3906 32.4285 39.2388C32.2768 39.087 32.1903 38.8819 32.1875 38.6673V34.334C32.1875 34.1185 32.2731 33.9118 32.4255 33.7595C32.5778 33.6071 32.7845 33.5215 33 33.5215C33.2155 33.5215 33.4222 33.6071 33.5745 33.7595C33.7269 33.9118 33.8125 34.1185 33.8125 34.334V37.8548H36.25C36.4655 37.8548 36.6722 37.9404 36.8245 38.0928C36.9769 38.2451 37.0625 38.4518 37.0625 38.6673C37.0625 38.8828 36.9769 39.0895 36.8245 39.2418C36.6722 39.3942 36.4655 39.4798 36.25 39.4798Z" fill="white"/>
<path d="M33 39.4785H29.75C29.5345 39.4785 29.3278 39.3929 29.1755 39.2405C29.0231 39.0882 28.9375 38.8815 28.9375 38.666C28.9375 38.4505 29.0231 38.2438 29.1755 38.0915C29.3278 37.9391 29.5345 37.8535 29.75 37.8535H33C33.2155 37.8535 33.4222 37.9391 33.5745 38.0915C33.7269 38.2438 33.8125 38.4505 33.8125 38.666C33.8125 38.8815 33.7269 39.0882 33.5745 39.2405C33.4222 39.3929 33.2155 39.4785 33 39.4785Z" fill="white"/>
</svg>
