<svg width="119" height="74" viewBox="0 0 119 74" fill="none" xmlns="http://www.w3.org/2000/svg">
<path d="M88.5039 41.1055C97.5856 41.1055 104.949 48.4677 104.949 57.5522C104.949 66.6339 97.5856 73.9962 88.5039 73.9962C79.4208 73.9962 72.0571 66.6339 72.0571 57.5522C72.0569 48.4677 79.4208 41.1055 88.5039 41.1055ZM88.5039 64.4895C92.3356 64.4895 95.4423 61.3828 95.4423 57.5525C95.4423 53.7207 92.3356 50.614 88.5039 50.614C84.6705 50.614 81.5652 53.7207 81.5652 57.5525C81.5652 61.3828 84.6705 64.4895 88.5039 64.4895Z" fill="#FDFDFD"/>
<path d="M28.5371 41.1055C37.6201 41.1055 44.9824 48.4677 44.9824 57.5522C44.9824 66.6339 37.6201 73.9962 28.5371 73.9962C19.454 73.9962 12.0917 66.6339 12.0917 57.5522C12.0917 48.4677 19.454 41.1055 28.5371 41.1055ZM28.5371 64.4895C32.3688 64.4895 35.4755 61.3828 35.4755 57.5525C35.4755 53.7207 32.3688 50.614 28.5371 50.614C24.7051 50.614 21.597 53.7207 21.597 57.5525C21.5968 61.3828 24.7051 64.4895 28.5371 64.4895Z" fill="#FDFDFD"/>
<path d="M2.77901 27.067L11.2916 16.6304C13.6351 13.7577 17.1455 12.0918 20.8535 12.0918H42.079V29.9887H46.9187V28.5386V9.18841V7.73832H26.1185V0H55.6255V7.73855V9.18864H118.262V29.9889L79.1165 37.4184C71.5385 40.9704 66.2643 48.6508 66.2643 57.5595C66.2643 57.7232 66.2858 57.8791 66.2874 58.0415H50.7643C50.7659 57.8794 50.7888 57.7232 50.7888 57.5595C50.7888 45.2902 40.8063 35.3077 28.5384 35.3077C17.4239 35.3077 8.21375 43.508 6.57564 54.1712H4.11292C1.84146 54.1712 -0.000152588 52.3296 -0.000152588 50.0581V34.8656C-0.00038147 32.0232 0.981514 29.2683 2.77901 27.067ZM101.212 27.9496L105.203 27.2414V14.9934H101.212V27.9496ZM84.1611 30.9831L88.152 30.2716V14.9934H84.1611V30.9831ZM67.1115 34.0315L71.1024 33.322V14.9936H67.1115V34.0315ZM33.083 28.7298V19.0548H20.5627C19.466 19.0548 18.4411 19.5412 17.7479 20.39L10.9456 28.7298H33.083Z" fill="#FDFDFD"/>
</svg>
