<svg width="66" height="60" viewBox="0 0 66 60" fill="none" xmlns="http://www.w3.org/2000/svg">
<circle cx="33" cy="30" r="27" fill="#2463EB"/>
<path d="M39.9985 33.9949C39.9918 34.8589 39.7736 35.706 39.3655 36.4525C38.9574 37.1989 38.3736 37.8187 37.6718 38.2506C36.8896 38.7785 36.0235 39.1495 35.1161 39.345V41.2467C35.1228 41.4744 35.0865 41.7011 35.0094 41.9135C34.9323 42.1259 34.8159 42.3196 34.6673 42.4831C34.5187 42.6466 34.3407 42.7767 34.1441 42.8655C33.9474 42.9542 33.736 43 33.5224 43C33.3089 43 33.0975 42.9542 32.9008 42.8655C32.7042 42.7767 32.5262 42.6466 32.3776 42.4831C32.2289 42.3196 32.1126 42.1259 32.0355 41.9135C31.9584 41.7011 31.9221 41.4744 31.9288 41.2467V39.3632L31.8313 39.345C31.2658 39.2295 30.7137 39.0497 30.1842 38.8085C29.3977 38.4612 28.7015 37.9164 28.1548 37.2205C28.0179 37.0518 27.9135 36.8561 27.8475 36.6444C27.7815 36.4327 27.7553 36.2092 27.7703 35.9867C27.7854 35.7642 27.8413 35.547 27.935 35.3476C28.0288 35.1482 28.1584 34.9704 28.3166 34.8244C28.4747 34.6784 28.6583 34.567 28.8568 34.4967C29.0553 34.4263 29.2649 34.3984 29.4735 34.4144C29.6822 34.4304 29.8858 34.4901 30.0728 34.59C30.2598 34.69 30.4266 34.8282 30.5635 34.9969C30.7791 35.2805 31.055 35.5052 31.3684 35.6523L31.3715 35.6539C31.6941 35.8042 32.0302 35.9192 32.3746 35.9973H32.3777C32.7328 36.0704 33.0923 36.1168 33.4536 36.1359C34.3287 36.1347 35.1873 35.8808 35.9381 35.4013C36.7121 34.8648 36.8111 34.3696 36.8111 33.9965C36.8083 33.6022 36.6739 33.2218 36.4319 32.9235C36.1893 32.6311 35.9013 32.3854 35.5805 32.1972C35.2556 32.0178 34.91 31.8846 34.5526 31.801C34.2218 31.7271 33.8845 31.6906 33.5464 31.692C33.0238 31.6946 32.5018 31.6504 31.9861 31.56C31.2938 31.4381 30.6224 31.2072 29.9938 30.8749C29.2662 30.4857 28.6246 29.936 28.1115 29.2621C27.4051 28.3546 27.0126 27.2158 27 26.0365C27.0021 25.2717 27.1723 24.518 27.4969 23.836C27.9428 22.9264 28.6135 22.1643 29.4365 21.6322C30.2029 21.1291 31.0475 20.7764 31.9303 20.5906V18.7533C31.9237 18.5256 31.96 18.2989 32.0371 18.0865C32.1142 17.8741 32.2305 17.6804 32.3791 17.5169C32.5278 17.3534 32.7057 17.2233 32.9024 17.1345C33.099 17.0458 33.3104 17 33.524 17C33.7376 17 33.9489 17.0458 34.1456 17.1345C34.3423 17.2233 34.5202 17.3534 34.6689 17.5169C34.8175 17.6804 34.9338 17.8741 35.0109 18.0865C35.088 18.2989 35.1243 18.5256 35.1176 18.7533V20.6418L35.2152 20.6649H35.2183C35.7913 20.8051 36.349 21.0087 36.8824 21.2724C37.5478 21.5927 38.1544 22.0371 38.6734 22.5847C38.9535 22.9069 39.1057 23.3321 39.0983 23.7714C39.0909 24.2106 38.9243 24.6298 38.6335 24.9409C38.3427 25.2521 37.9502 25.4312 37.5384 25.4406C37.1265 25.45 36.7272 25.2891 36.4241 24.9915C36.1773 24.733 35.8896 24.5229 35.5743 24.3709C35.2422 24.2052 34.8952 24.0758 34.5387 23.9846L34.4365 23.9615C34.1535 23.8831 33.8644 23.8317 33.5728 23.8079C32.7175 23.8018 31.8767 24.0425 31.1393 24.5046C30.8674 24.6468 30.6359 24.8637 30.4686 25.1329C30.3013 25.4021 30.2042 25.714 30.1873 26.0365C30.2036 26.4332 30.343 26.813 30.5836 27.1161L30.5867 27.121C30.8149 27.4163 31.0979 27.658 31.418 27.8309L31.4211 27.8342C31.7651 28.0132 32.1317 28.1383 32.5093 28.2056H32.5124C32.8542 28.2655 33.2001 28.2947 33.5464 28.2931C34.1119 28.2911 34.6759 28.3531 35.2291 28.478L35.2337 28.4796C35.87 28.6287 36.4852 28.8662 37.0635 29.1862L37.0697 29.1895C37.7355 29.5725 38.332 30.0789 38.8313 30.6851L38.8344 30.6884C39.5846 31.6043 39.9971 32.7788 39.9985 33.9949Z" fill="white"/>
</svg>
