<svg width="166" height="88" viewBox="0 0 166 88" fill="none" xmlns="http://www.w3.org/2000/svg">
<g clip-path="url(#clip0_982_1038)">
<path d="M59.2832 77.593H55.8633V36.8812C57.4456 36.8812 59.0387 36.7906 60.6254 36.9138C61.5045 36.9826 62.0576 36.5297 62.5808 35.3087C65.1538 29.3012 67.8103 23.377 70.4069 17.3876C70.5964 16.8849 70.8629 16.4781 71.178 16.2102C71.4932 15.9423 71.8453 15.8234 72.1972 15.8658C74.9116 15.9347 77.6283 15.8912 80.3449 15.8912C81.8629 15.8912 81.9765 16.0579 82.1759 18.6667H87.0367C87.3454 15.9274 87.3711 15.8948 89.0757 15.8912C89.7919 15.8912 90.5058 15.8912 91.2198 15.8912C91.9939 15.8912 92.4291 16.4021 92.4205 17.8152C92.4055 20.4711 92.7486 23.2901 92.3326 25.7467C91.8009 28.8845 92.6221 31.3194 93.0702 33.9717C93.7242 37.8378 94.5089 41.6423 95.2529 45.5663C95.403 45.3562 95.5188 45.2728 95.5552 45.1315C96.8117 40.1494 99.3461 38.5805 102.223 38.3921C106.754 38.0914 111.293 38.1457 115.828 37.9211C116.591 37.8457 117.329 37.4402 117.972 36.7435C120.378 34.1528 122.659 31.2252 125.108 28.7722C127.466 26.4061 130.005 25.9133 132.741 27.0982C137.816 29.2975 142.934 31.2252 148.045 33.1745C149.435 33.7035 150.603 34.7688 151.489 36.5732C152.561 38.7472 153.584 41.0082 154.525 43.3525C156.468 48.1896 158.89 52.092 161.959 54.8385C162.84 55.6283 163.674 56.5885 164.517 57.4799C165.848 58.8857 166.215 60.9438 165.878 63.4294C165.334 67.4151 164.806 71.4261 164.206 75.3864C163.363 80.8794 159.902 83.7636 156.686 81.5932C157.576 77.1473 157.355 72.8537 155.751 68.9115C154.687 66.2214 153.069 64.294 151.212 63.5019C148.781 62.4149 146.532 63.1576 144.486 65.5454C142.441 67.9332 141.431 71.4696 141.028 75.6437L116.077 65.8063C117.181 56.0233 114.861 48.8889 110.185 47.3273C105.425 45.7294 101.394 50.7006 100.399 59.6973C98.9687 59.0705 97.5236 58.5488 96.132 57.7589C95.7568 57.5451 95.4116 56.5921 95.2744 55.8602C93.5848 47.0314 91.9238 38.1868 90.2914 29.3265C90.077 28.2395 89.8412 27.6308 89.05 27.6743C87.3754 27.7685 87.3733 27.6743 87.0088 24.8952H82.2424C81.8865 27.7105 81.8565 28.0402 80.2291 27.6381C77.4932 26.9641 75.8572 28.678 74.56 32.7687C73.0849 37.4138 71.1852 41.6676 69.4892 46.0627C69.5556 46.2946 69.5685 46.4504 69.6178 46.4975C73.7974 50.4107 77.9806 54.3155 82.1674 58.2118C83.3252 59.2988 84.5259 60.2082 85.6837 61.2844C85.9753 61.5597 86.3527 62.1685 86.357 62.6323C86.4041 67.5709 86.387 72.5131 86.387 77.5677H79.4165C80.1069 71.2449 79.3328 65.6324 76.6291 61.0561C74.47 57.4328 71.8155 55.7298 68.7645 55.9834C63.5885 56.4327 57.9195 64.3533 59.2832 77.593ZM119.466 38.4066L134.707 44.3815C135.294 40.1857 135.865 36.2326 136.366 32.2469C136.407 31.9245 135.996 31.1599 135.723 31.0476C134.417 30.4425 133.082 30.044 131.774 29.4606C130.352 28.8176 128.845 28.9611 127.475 29.87C124.561 31.7216 122.215 35.084 119.466 38.4066ZM148.865 49.9542C148.819 49.0411 148.804 48.3962 148.753 47.7548C148.511 44.7148 148.238 41.6785 148.015 38.6313C147.801 35.7543 147.829 35.7326 146.152 35.0768C143.566 34.0586 140.976 33.0658 138.296 32.0259C137.687 36.4573 137.106 40.7002 136.504 45.0917L148.865 49.9542ZM150.037 37.9972L149.737 38.2726C150.042 42.0263 150.355 45.7765 150.646 49.5339C150.766 51.0847 151.356 51.2151 152.036 50.8274C154.043 49.6788 154.332 48.1896 153.176 45.2076C152.823 44.2982 152.477 43.396 152.104 42.5119C151.422 41.0009 150.732 39.5117 150.037 38.0081V37.9972Z" fill="white"/>
<path d="M6.15394 77.6817C4.40005 77.6817 2.76194 77.7107 1.12383 77.6817C0.407699 77.6636 0.0088921 76.957 0.0088921 75.7178C0.0088921 71.5546 -0.0297021 67.3842 0.0539186 63.2246C0.0667834 62.6014 0.624255 61.5578 0.975891 61.4962C1.83354 61.3477 1.91716 60.652 1.91502 59.478C1.89572 52.293 1.94075 45.1079 1.87857 37.9264C1.86356 36.2452 2.20447 35.4807 3.09428 34.872C6.90439 32.2487 10.8067 30.5711 14.9513 30.6942C17.2712 30.7667 19.5954 30.6471 21.9175 30.7377C22.7452 30.7703 23.174 30.408 23.4935 29.0094C24.7799 23.3316 26.1972 17.7263 27.518 12.0667C27.8546 10.6173 28.3242 10.0195 29.2719 10.0557C31.7719 10.1608 34.2741 10.0267 36.7763 10.1282C37.6339 10.1644 37.9663 9.68251 38.1228 8.31651C38.3801 6.07004 38.7146 3.84531 39.0791 1.64232C39.5272 -1.05706 40.8587 0.471984 41.7892 0.192987C42.4732 0.00095008 43.3116 -0.209204 43.526 1.68218C43.7983 4.04097 44.24 6.34904 44.5187 8.70783C44.6559 9.8673 44.9711 10.1572 45.6122 10.1137C46.9673 10.0436 48.3252 10.0436 49.686 10.1137C52.1025 10.2188 54.0021 13.3203 54.0086 17.3604C54.0329 37.1679 54.0329 56.9755 54.0086 76.7831C53.9963 77.0553 53.9755 77.3262 53.9464 77.5947H26.2872C27.0698 69.3444 25.644 62.6485 21.3257 58.3621C17.7601 54.8148 14.0357 55.025 10.5901 58.8838C6.64709 63.2644 5.36062 69.7104 6.15394 77.6817ZM41.1803 13.2116C37.308 13.2116 33.5301 13.1827 29.7521 13.2696C29.4691 13.2696 29.0703 13.9943 28.9331 14.5523C28.0111 18.2082 27.1427 21.904 26.2615 25.589C25.8799 27.1941 25.5154 28.8029 25.0865 30.5783H41.1674L41.1803 13.2116ZM29.2568 64.3224C29.2568 67.4458 29.2568 70.3952 29.2568 73.3446C29.2568 74.3917 29.6342 74.4714 30.1145 74.4714C36.2252 74.4714 42.336 74.4714 48.4467 74.4714C49.1843 74.4714 49.3537 73.9062 49.3408 72.8119C49.313 70.5763 49.2829 68.3371 49.3408 66.1087C49.3859 64.6014 49.0814 64.1558 48.1894 64.1666C42.2223 64.2282 36.2553 64.1956 30.2882 64.2029C30.0009 64.2174 29.72 64.2717 29.2568 64.3224ZM38.7103 37.8721V37.9011C39.1005 37.9011 39.5422 38.0967 39.866 37.8503C40.1897 37.604 40.4663 36.901 40.7579 36.401C40.4663 35.9626 40.1983 35.2198 39.8745 35.1473C39.1012 34.977 38.3176 34.988 37.546 35.1799C37.263 35.2452 36.802 36.035 36.832 36.3901C36.8851 36.702 36.9771 36.991 37.1017 37.2378C37.2263 37.4847 37.3807 37.6836 37.5546 37.8214C37.8805 38.046 38.32 37.8648 38.7103 37.8648V37.8721Z" fill="white"/>
<path d="M69.3017 88.0003C68.1667 88.0005 67.043 87.6199 65.9957 86.8807C64.9484 86.1415 63.9983 85.0583 63.2005 83.694C62.4028 82.3297 61.7732 80.7114 61.3483 78.9328C60.9234 77.1543 60.7116 75.2509 60.7252 73.333C60.73 70.436 61.2437 67.6067 62.2012 65.2036C63.1587 62.8006 64.5168 60.9322 66.1035 59.8352C67.6902 58.7383 69.4339 58.4622 71.1135 59.0421C72.7931 59.6219 74.333 61.0316 75.538 63.0922C76.7429 65.1529 77.5587 67.7718 77.8817 70.6169C78.2048 73.4621 78.0207 76.4052 77.3527 79.0732C76.6847 81.7413 75.5629 84.014 74.1296 85.6033C72.6963 87.1926 71.016 88.0269 69.3017 88.0003ZM65.7789 73.3113C65.776 74.5099 65.9832 75.6832 66.3743 76.6831C66.7654 77.683 67.323 78.4648 67.9768 78.9299C68.6305 79.395 69.3511 79.5226 70.0476 79.2965C70.7442 79.0704 71.3856 78.5009 71.8908 77.6596C72.3961 76.8184 72.7427 75.7431 72.8868 74.5695C73.0309 73.3959 72.9661 72.1764 72.7007 71.0649C72.4352 69.9534 71.9809 68.9996 71.3951 68.3238C70.8093 67.648 70.1182 67.2805 69.4089 67.2676C68.4537 67.2579 67.5352 67.8887 66.8548 69.0216C66.1743 70.1545 65.7874 71.6971 65.7789 73.3113Z" fill="white"/>
<path d="M16.1153 87.9955C14.9797 87.989 13.8562 87.6023 12.8096 86.8578C11.763 86.1132 10.8141 85.0257 10.0176 83.6578C9.22117 82.29 8.59299 80.6691 8.16937 78.8887C7.74574 77.1082 7.53507 75.2036 7.54952 73.2848C7.56453 65.2518 11.5119 58.6284 16.2375 58.7117C17.3753 58.7253 18.5004 59.1174 19.5486 59.8658C20.5967 60.6141 21.5474 61.704 22.3463 63.0733C23.1451 64.4425 23.7766 66.0642 24.2046 67.8458C24.6326 69.6274 24.8488 71.5341 24.8408 73.4569C24.8328 75.3797 24.6007 77.281 24.1579 79.0522C23.715 80.8235 23.0701 82.43 22.2598 83.78C21.4496 85.1301 20.4899 86.1972 19.4357 86.9205C18.3814 87.6438 17.2531 88.0091 16.1153 87.9955ZM19.7882 73.4659C19.789 72.2704 19.5804 71.1012 19.1888 70.1055C18.7972 69.1098 18.2399 68.3322 17.5873 67.8706C16.9347 67.409 16.2158 67.2841 15.5213 67.5115C14.8267 67.7389 14.1875 68.3085 13.6841 69.1486C13.1808 69.9887 12.8357 71.0617 12.6925 72.2325C12.5492 73.4033 12.6142 74.6196 12.8792 75.7281C13.1441 76.8366 13.5973 77.7879 14.1815 78.4621C14.7658 79.1363 15.455 79.5033 16.1625 79.5169C18.1072 79.6039 19.7732 76.8139 19.7882 73.4659Z" fill="white"/>
<path d="M108.492 71.6513C107.2 71.6383 105.939 70.978 104.87 69.7539C103.8 68.5298 102.969 66.797 102.482 64.7745C101.995 62.7521 101.874 60.531 102.134 58.3923C102.394 56.2536 103.024 54.2933 103.943 52.7596C104.863 51.2258 106.031 50.1875 107.3 49.776C108.569 49.3644 109.882 49.5981 111.072 50.4476C112.262 51.297 113.277 52.724 113.987 54.548C114.697 56.3719 115.071 58.5109 115.062 60.6943C115.057 62.1432 114.883 63.5762 114.55 64.9113C114.217 66.2465 113.732 67.4576 113.122 68.4754C112.512 69.4931 111.789 70.2975 110.994 70.8425C110.2 71.3874 109.35 71.6623 108.492 71.6513ZM112.195 60.64C112.188 59.408 111.966 58.207 111.557 57.1876C111.147 56.1683 110.569 55.3762 109.894 54.9108C109.219 54.4455 108.477 54.3276 107.763 54.5721C107.048 54.8166 106.392 55.4124 105.878 56.2848C105.363 57.1573 105.012 58.2673 104.87 59.4755C104.727 60.6837 104.799 61.9362 105.076 63.0756C105.353 64.215 105.824 65.1904 106.428 65.8795C107.033 66.5685 107.744 66.9403 108.473 66.9482C108.964 66.958 109.452 66.8014 109.907 66.4877C110.362 66.174 110.776 65.7095 111.123 65.1216C111.47 64.5337 111.745 63.8344 111.929 63.0647C112.114 62.295 112.206 61.4706 112.199 60.64H112.195Z" fill="white"/>
<path d="M155.664 76.7274C155.624 79.6187 154.913 82.3674 153.685 84.3812C152.456 86.395 150.809 87.5126 149.097 87.4931C147.386 87.4736 145.748 86.3186 144.536 84.277C143.323 82.2355 142.634 79.4708 142.617 76.5788C142.615 75.1301 142.782 73.695 143.109 72.3555C143.435 71.016 143.915 69.7984 144.52 68.7724C145.125 67.7463 145.844 66.932 146.636 66.3758C147.427 65.8197 148.276 65.5327 149.133 65.5313C152.795 65.524 155.679 70.4662 155.664 76.7274ZM149.133 70.3539C148.142 70.3578 147.192 71.0255 146.492 72.2107C145.792 73.3959 145.399 75.0019 145.398 76.6766C145.397 77.9297 145.617 79.1549 146.028 80.1972C146.44 81.2395 147.025 82.052 147.71 82.5317C148.395 83.0113 149.149 83.1367 149.876 82.8918C150.603 82.6469 151.271 82.0428 151.795 81.156C152.319 80.2692 152.675 79.1396 152.819 77.9103C152.962 76.681 152.887 75.4074 152.602 74.2506C152.317 73.0939 151.835 72.1061 151.218 71.4124C150.6 70.7187 149.875 70.3503 149.133 70.3539Z" fill="white"/>
<path d="M119.467 38.407C122.216 35.0844 124.561 31.7219 127.475 29.8559C128.845 28.947 130.352 28.8035 131.774 29.4465C133.082 30.0298 134.418 30.4284 135.724 31.0335C135.994 31.1603 136.405 31.9104 136.367 32.2328C135.867 36.2185 135.295 40.2042 134.709 44.3855L119.467 38.407Z" fill="#EADBDB"/>
<path d="M148.865 49.9592L136.502 45.0931C137.104 40.7016 137.686 36.4587 138.294 32.0273C140.977 33.0672 143.567 34.0637 146.153 35.0818C147.829 35.7413 147.806 35.7594 148.016 38.6363C148.23 41.6835 148.511 44.7199 148.753 47.7599C148.803 48.4012 148.82 49.0462 148.865 49.9592Z" fill="#EADBDB"/>
<path d="M150.037 38.0078C150.724 39.5115 151.423 41.0007 152.094 42.5225C152.477 43.3921 152.823 44.3088 153.166 45.2183C154.321 48.2003 154.023 49.6895 152.025 50.838C151.345 51.2257 150.756 51.0953 150.636 49.5445C150.344 45.7871 150.031 42.037 149.727 38.2832L150.037 38.0078Z" fill="#EADBDB"/>
<path d="M41.1797 13.2097V30.5764H25.0859C25.5019 28.8009 25.8728 27.1922 26.2545 25.587C27.1357 21.9021 28.0041 18.2063 28.9261 14.5504C29.0633 14.0069 29.4621 13.2713 29.7451 13.2677C33.5295 13.1807 37.3074 13.2097 41.1797 13.2097Z" fill="#EADBDB"/>
<path d="M29.2564 64.321C29.7196 64.2703 30.0004 64.2159 30.2813 64.2159C36.2484 64.2159 42.2155 64.2413 48.1826 64.1797C49.0745 64.1797 49.379 64.6145 49.334 66.1218C49.2697 68.3501 49.2997 70.5894 49.334 72.825C49.3468 73.912 49.1775 74.4881 48.4399 74.4845C42.3291 74.4531 36.2184 74.4531 30.1076 74.4845C29.6359 74.4845 29.25 74.4047 29.25 73.3576C29.265 70.3937 29.2564 67.4443 29.2564 64.321Z" fill="#EADBDB"/>
<path d="M38.7097 37.863C38.3195 37.863 37.88 38.055 37.554 37.8086C37.3802 37.6709 37.2258 37.472 37.1011 37.2251C36.9765 36.9783 36.8846 36.6892 36.8315 36.3774C36.8015 36.0151 37.2603 35.2324 37.5455 35.1672C38.3195 34.9779 39.1052 34.9706 39.8804 35.1455C40.2042 35.2179 40.4722 35.9607 40.7638 36.3992C40.4722 36.9028 40.2256 37.5804 39.8718 37.8485C39.5181 38.1166 39.1064 37.8992 38.7162 37.8992L38.7097 37.863Z" fill="#EADBDB"/>
<path d="M65.7796 73.3115C65.787 71.6967 66.1735 70.153 66.8542 69.0196C67.5349 67.8863 68.454 67.2562 69.4096 67.2677C70.128 67.27 70.8298 67.6331 71.4258 68.3108C72.0218 68.9886 72.4852 69.9504 72.757 71.0742C73.0288 72.1979 73.0969 73.4328 72.9525 74.6221C72.8081 75.8113 72.4577 76.9012 71.946 77.7532C71.4342 78.6052 70.7842 79.1809 70.0784 79.4073C69.3726 79.6336 68.6429 79.5003 67.982 79.0242C67.3212 78.5482 66.7589 77.7509 66.3668 76.7338C65.9746 75.7166 65.7703 74.5254 65.7796 73.3115Z" fill="#EADBDB"/>
<path d="M19.7882 73.4668C19.7732 76.822 18.1073 79.6048 16.1625 79.5178C15.4435 79.5177 14.7408 79.1564 14.1436 78.4797C13.5464 77.803 13.0818 76.8416 12.8087 75.7176C12.5357 74.5935 12.4666 73.3577 12.6101 72.1671C12.7537 70.9766 13.1035 69.885 13.6151 69.0313C14.1267 68.1775 14.7769 67.6 15.4832 67.3723C16.1895 67.1445 16.9198 67.2768 17.5815 67.7522C18.2432 68.2276 18.8063 69.0248 19.1992 70.0423C19.5921 71.0599 19.7972 72.2519 19.7882 73.4668Z" fill="#EADBDB"/>
<path d="M112.2 60.6398C112.195 61.8721 111.975 63.0745 111.567 64.096C111.159 65.1175 110.582 65.9124 109.907 66.3808C109.233 66.8492 108.491 66.9703 107.776 66.7287C107.061 66.4871 106.404 65.8938 105.888 65.0231C105.372 64.1525 105.02 63.0435 104.876 61.8355C104.732 60.6275 104.802 59.3745 105.078 58.2339C105.354 57.0932 105.823 56.116 106.427 55.4249C107.031 54.7338 107.742 54.3597 108.471 54.3497C108.961 54.3463 109.446 54.5066 109.899 54.8214C110.352 55.1362 110.763 55.5992 111.11 56.1839C111.456 56.7685 111.731 57.4631 111.918 58.2279C112.105 58.9926 112.201 59.8123 112.2 60.6398Z" fill="#EADBDB"/>
<path d="M149.135 70.3535C149.868 70.3607 150.583 70.7337 151.19 71.4255C151.797 72.1174 152.27 73.0972 152.548 74.2418C152.827 75.3864 152.899 76.6446 152.756 77.8583C152.612 79.072 152.26 80.1868 151.742 81.0627C151.225 81.9386 150.566 82.5364 149.848 82.781C149.13 83.0255 148.385 82.9058 147.707 82.437C147.029 81.9681 146.449 81.1711 146.038 80.1461C145.628 79.1211 145.406 77.9138 145.4 76.6762C145.405 75.0039 145.8 73.4023 146.5 72.2187C147.199 71.0351 148.146 70.3649 149.135 70.3535Z" fill="#EADBDB"/>
</g>
<defs>
<clipPath id="clip0_982_1038">
<rect width="166" height="88" fill="white"/>
</clipPath>
</defs>
</svg>
