<svg width="66" height="60" viewBox="0 0 66 60" fill="none" xmlns="http://www.w3.org/2000/svg">
<circle cx="33" cy="30" r="27" fill="#2463EB"/>
<g clip-path="url(#clip0_1259_1366)">
<path d="M28.5 34.5C29.2956 34.5 30.0587 34.1839 30.6213 33.6213C31.1839 33.0587 31.5 32.2956 31.5 31.5C31.5 30.7044 31.1839 29.9413 30.6213 29.3787C30.0587 28.8161 29.2956 28.5 28.5 28.5C27.7044 28.5 26.9413 28.8161 26.3787 29.3787C25.8161 29.9413 25.5 30.7044 25.5 31.5C25.5 32.2956 25.8161 33.0587 26.3787 33.6213C26.9413 34.1839 27.7044 34.5 28.5 34.5ZM28.5 30C28.8978 30 29.2794 30.158 29.5607 30.4393C29.842 30.7206 30 31.1022 30 31.5C30 31.8978 29.842 32.2794 29.5607 32.5607C29.2794 32.842 28.8978 33 28.5 33C28.1022 33 27.7206 32.842 27.4393 32.5607C27.158 32.2794 27 31.8978 27 31.5C27 31.1022 27.158 30.7206 27.4393 30.4393C27.7206 30.158 28.1022 30 28.5 30ZM32.25 36H24.75C23.7554 36 22.8016 36.3951 22.0983 37.0984C21.3951 37.8016 21 38.7554 21 39.75C21 40.3467 21.2371 40.919 21.659 41.341C22.081 41.7629 22.6533 42 23.25 42H33.75C34.3467 42 34.919 41.7629 35.341 41.341C35.7629 40.919 36 40.3467 36 39.75C36 38.7554 35.6049 37.8016 34.9017 37.0984C34.1984 36.3951 33.2446 36 32.25 36ZM33.75 40.5H23.25C23.0511 40.5 22.8603 40.421 22.7197 40.2803C22.579 40.1397 22.5 39.9489 22.5 39.75C22.5 39.1533 22.7371 38.581 23.159 38.159C23.581 37.7371 24.1533 37.5 24.75 37.5H32.25C32.8467 37.5 33.419 37.7371 33.841 38.159C34.2629 38.581 34.5 39.1533 34.5 39.75C34.5 39.9489 34.421 40.1397 34.2803 40.2803C34.1397 40.421 33.9489 40.5 33.75 40.5ZM45 21.75V29.25C45 30.2446 44.6049 31.1984 43.9016 31.9017C43.1984 32.6049 42.2446 33 41.25 33H37.0605L34.281 35.781C34.2112 35.8506 34.1284 35.9058 34.0373 35.9433C33.9462 35.9809 33.8486 36.0002 33.75 36C33.6517 36.0002 33.5543 35.9809 33.4635 35.943C33.3263 35.8863 33.2091 35.7902 33.1266 35.6668C33.0441 35.5435 33 35.3984 33 35.25V32.25C33 32.0511 33.079 31.8603 33.2197 31.7197C33.3603 31.579 33.5511 31.5 33.75 31.5C33.9489 31.5 34.1397 31.579 34.2803 31.7197C34.421 31.8603 34.5 32.0511 34.5 32.25V33.4395L36.219 31.719C36.2888 31.6494 36.3716 31.5942 36.4627 31.5567C36.5538 31.5191 36.6514 31.4998 36.75 31.5H41.25C41.8467 31.5 42.419 31.2629 42.841 30.841C43.2629 30.419 43.5 29.8467 43.5 29.25V21.75C43.5 21.1533 43.2629 20.581 42.841 20.159C42.419 19.7371 41.8467 19.5 41.25 19.5H30.75C30.1533 19.5 29.581 19.7371 29.159 20.159C28.7371 20.581 28.5 21.1533 28.5 21.75V26.25C28.5 26.4489 28.421 26.6397 28.2803 26.7803C28.1397 26.921 27.9489 27 27.75 27C27.5511 27 27.3603 26.921 27.2197 26.7803C27.079 26.6397 27 26.4489 27 26.25V21.75C27 20.7554 27.3951 19.8016 28.0983 19.0983C28.8016 18.3951 29.7554 18 30.75 18H41.25C42.2446 18 43.1984 18.3951 43.9016 19.0983C44.6049 19.8016 45 20.7554 45 21.75ZM33.219 27.219L36.4395 24H33.75C33.5511 24 33.3603 23.921 33.2197 23.7803C33.079 23.6397 33 23.4489 33 23.25C33 23.0511 33.079 22.8603 33.2197 22.7197C33.3603 22.579 33.5511 22.5 33.75 22.5H38.25C38.3483 22.5 38.4457 22.5194 38.5365 22.557C38.7201 22.634 38.866 22.7799 38.943 22.9635C38.9806 23.0543 39 23.1517 39 23.25V27.75C39 27.9489 38.921 28.1397 38.7803 28.2803C38.6397 28.421 38.4489 28.5 38.25 28.5C38.0511 28.5 37.8603 28.421 37.7197 28.2803C37.579 28.1397 37.5 27.9489 37.5 27.75V25.0605L34.281 28.281C34.2112 28.3506 34.1284 28.4058 34.0373 28.4433C33.9462 28.4809 33.8486 28.5002 33.75 28.5C33.6514 28.5002 33.5538 28.4809 33.4627 28.4433C33.3716 28.4058 33.2888 28.3506 33.219 28.281C33.1492 28.2113 33.0937 28.1286 33.0559 28.0375C33.0181 27.9463 32.9987 27.8487 32.9987 27.75C32.9987 27.6513 33.0181 27.5537 33.0559 27.4625C33.0937 27.3714 33.1492 27.2887 33.219 27.219Z" fill="white"/>
</g>
<defs>
<clipPath id="clip0_1259_1366">
<rect width="24" height="24" fill="white" transform="translate(21 18)"/>
</clipPath>
</defs>
</svg>
