<svg width="74" height="74" viewBox="0 0 74 74" fill="none" xmlns="http://www.w3.org/2000/svg">
<path d="M60.79 60.7828H13.2176V13.2176H34.3553V7.92773H7.92773V66.0727H66.0727V44.9277H60.79V60.7828Z" fill="white"/>
<path d="M29.0729 42.2828H34.3555C34.3555 34.9984 40.2812 29.0654 47.5728 29.0654C54.8645 29.0654 60.7902 34.9912 60.7902 42.2828H66.0729C66.0729 34.8973 61.7225 28.509 55.4498 25.5461C57.1264 23.6744 58.1453 21.2029 58.1453 18.5002C58.1453 12.6611 53.4119 7.92773 47.5728 7.92773C41.7338 7.92773 37.0004 12.6611 37.0004 18.5002C37.0004 21.2102 38.0193 23.6816 39.6959 25.5461C33.4232 28.5162 29.0729 34.8973 29.0729 42.2828ZM47.5728 13.2176C50.4852 13.2176 52.8555 15.5879 52.8555 18.5002C52.8555 21.4125 50.4852 23.7828 47.5728 23.7828C44.6605 23.7828 42.2902 21.4125 42.2902 18.5002C42.2902 15.5879 44.6605 13.2176 47.5728 13.2176ZM15.8555 18.5002H31.7105V23.7828H15.8555V18.5002ZM15.8555 47.5727H58.1381V52.8553H15.8555V47.5727ZM15.8555 29.0727H26.4279V34.3553H15.8555V29.0727Z" fill="white"/>
</svg>
