<svg width="66" height="60" viewBox="0 0 66 60" fill="none" xmlns="http://www.w3.org/2000/svg">
<circle cx="33" cy="30" r="27" fill="#2463EB"/>
<path d="M27.3864 36.5324H40.6715V26.5819H35.5568V21.4672H27.3864V22.7771L26.0579 21.5017V20.1387H35.5568L40.6715 25.2534L42 26.5819V37.8609H26.0579V30.0387L27.3864 31.423V36.5324Z" fill="white"/>
<path d="M22.1324 23.6393L24.1373 21.6344C24.3139 21.4578 24.6003 21.4578 24.7768 21.6344L33.2415 29.7638C33.294 29.8163 33.3328 29.8809 33.3544 29.9519L34.3782 33.3158C34.4836 33.662 34.16 33.9855 33.8139 33.8802L30.3418 32.8235L22.1324 24.2789C21.9558 24.1023 21.9558 23.8159 22.1324 23.6393ZM32.4693 32.6451L33.1285 31.9246L32.6716 30.4227L31.5333 31.0351L30.9207 32.1736L32.4693 32.6451ZM23.4048 23.3191L30.6166 30.5767L31.0747 30.1186L23.8168 22.9065L23.4048 23.3184C23.4048 23.3187 23.4048 23.3189 23.4048 23.3191Z" fill="white"/>
</svg>
