<svg width="60" height="60" viewBox="0 0 60 60" fill="none" xmlns="http://www.w3.org/2000/svg">
<g clip-path="url(#clip0_982_1066)">
<path d="M34.1807 8.70508H3.79902C2.34932 8.70508 1.16992 9.88448 1.16992 11.3342V57.2826C1.16992 58.7323 2.34932 59.9117 3.79902 59.9117H34.1807C35.6304 59.9117 36.8098 58.7323 36.8098 57.2826V11.3344C36.8098 9.88448 35.6304 8.70508 34.1807 8.70508ZM30.665 55.4058H7.31459C6.40974 55.4058 5.676 54.6721 5.676 53.7673C5.676 52.8624 6.40974 52.1287 7.31459 52.1287H30.665C31.5698 52.1287 32.3036 52.8624 32.3036 53.7673C32.3036 54.6721 31.5698 55.4058 30.665 55.4058ZM30.665 47.6224H7.31459C6.40974 47.6224 5.676 46.8886 5.676 45.9838C5.676 45.0789 6.40974 44.3452 7.31459 44.3452H30.665C31.5698 44.3452 32.3036 45.0789 32.3036 45.9838C32.3036 46.8886 31.5698 47.6224 30.665 47.6224ZM30.665 39.8389H7.31459C6.40974 39.8389 5.676 39.1052 5.676 38.2003C5.676 37.2955 6.40974 36.5617 7.31459 36.5617H30.665C31.5698 36.5617 32.3036 37.2955 32.3036 38.2003C32.3036 39.1052 31.5698 39.8389 30.665 39.8389ZM30.665 32.0555H7.31459C6.40974 32.0555 5.676 31.3217 5.676 30.4169C5.676 29.512 6.40974 28.7783 7.31459 28.7783H30.665C31.5698 28.7783 32.3036 29.512 32.3036 30.4169C32.3036 31.3217 31.5698 32.0555 30.665 32.0555ZM30.665 24.272H7.31459C6.40974 24.272 5.676 23.5383 5.676 22.6334C5.676 21.7286 6.40974 20.9948 7.31459 20.9948H30.665C31.5698 20.9948 32.3036 21.7286 32.3036 22.6334C32.3036 23.5383 31.5698 24.272 30.665 24.272ZM30.665 16.4885H7.31459C6.40974 16.4885 5.676 15.7548 5.676 14.8499C5.676 13.9451 6.40974 13.2114 7.31459 13.2114H30.665C31.5698 13.2114 32.3036 13.9451 32.3036 14.8499C32.3036 15.7548 31.5698 16.4885 30.665 16.4885Z" fill="white"/>
<path d="M43.1593 0H11.5822C10.1323 0 8.95312 1.1794 8.95312 2.6291V5.4279H34.1805C37.4373 5.4279 40.087 8.0774 40.087 11.3344V52.1287H43.1593C44.609 52.1287 45.7884 50.9493 45.7884 49.4996V2.6291C45.7884 1.1794 44.609 0 43.1593 0Z" fill="white"/>
<path d="M58.8296 4.71194C58.8294 2.11395 56.9458 0 54.6306 0C52.3153 0 50.4316 2.11395 50.4316 4.71194V7.45619H58.8296V4.71194Z" fill="white"/>
<path d="M50.4316 10.7324V54.0734C50.4316 54.3158 50.5007 54.5528 50.6302 54.7544L53.6446 59.4512C53.8642 59.7934 54.2343 59.9991 54.6306 59.9991C55.0268 59.9991 55.3971 59.7934 55.6167 59.4512L58.6311 54.7544C58.7606 54.5528 58.8296 54.3158 58.8296 54.0734V10.7324H50.4316Z" fill="white"/>
</g>
<defs>
<clipPath id="clip0_982_1066">
<rect width="60" height="60" fill="white"/>
</clipPath>
</defs>
</svg>
