<svg width="66" height="60" viewBox="0 0 66 60" fill="none" xmlns="http://www.w3.org/2000/svg">
<circle cx="33" cy="30" r="27" fill="#2463EB"/>
<path d="M45.1406 24.1705C45.0497 24.1705 44.9564 24.1836 44.8633 24.2092L43.8097 24.4994L42.7155 21.8342C42.4055 21.0791 41.4893 20.4648 40.673 20.4648H30.4332C29.617 20.4648 28.7008 21.0791 28.3907 21.8342L27.2982 24.4958L26.2578 24.2092C26.1646 24.1835 26.0714 24.1705 25.9805 24.1705C25.4825 24.1705 25.1211 24.5509 25.1211 25.0752V25.6963C25.1211 25.7234 25.1233 25.7499 25.1251 25.7766C24.8844 25.956 24.6548 26.1539 24.4386 26.3701C23.2734 27.5354 22.6316 29.0845 22.6316 30.7324C22.6316 32.0683 23.0536 33.3394 23.8341 34.3936L20.2704 37.9574C19.9099 38.3179 19.9099 38.9026 20.2704 39.2632C20.4507 39.4435 20.687 39.5336 20.9233 39.5336C21.1595 39.5336 21.3958 39.4435 21.5761 39.2632L25.1399 35.6993C26.1942 36.4799 27.4652 36.9019 28.8011 36.9019C30.4489 36.9019 31.9982 36.2601 33.1634 35.0949C33.5393 34.7189 33.8599 34.3026 34.1228 33.8564H41.787V35.1787C41.787 35.7905 42.2848 36.2882 42.8966 36.2882H44.3457C44.9575 36.2882 45.4552 35.7905 45.4552 35.1787V29.8835C45.4552 29.1253 45.2209 27.9375 44.9329 27.236L44.7563 26.8058H44.8901C45.5019 26.8058 45.9997 26.3081 45.9997 25.6962V25.0751C46 24.5509 45.6386 24.1705 45.1406 24.1705ZM29.7489 22.1717C29.9343 21.72 30.4854 21.3505 30.9737 21.3505H40.1328C40.621 21.3505 41.1722 21.72 41.3577 22.1717L43.0127 26.2032C43.1981 26.6549 42.9503 27.0244 42.4621 27.0244H33.732C33.5591 26.7955 33.3699 26.5765 33.1636 26.3701C31.9983 25.2048 30.4492 24.5631 28.8013 24.5631C28.7898 24.5631 28.7785 24.5638 28.767 24.5639L29.7489 22.1717ZM28.8011 35.0552C27.6465 35.0552 26.5609 34.6055 25.7444 33.789C24.9279 32.9726 24.4783 31.8871 24.4783 30.7324C24.4783 29.5777 24.928 28.4922 25.7444 27.6757C26.5609 26.8594 27.6464 26.4097 28.8011 26.4097C29.9558 26.4097 31.0413 26.8594 31.8578 27.6757C32.6742 28.4922 33.1238 29.5777 33.1238 30.7323C33.1238 31.887 32.6742 32.9725 31.8578 33.789C31.0413 34.6055 29.9558 35.0552 28.8011 35.0552ZM43.3198 31.3026C43.3198 31.5467 43.1201 31.7465 42.876 31.7465H39.7319C39.4879 31.7465 39.2881 31.5467 39.2881 31.3026V29.7937C39.2881 29.5497 39.4878 29.3498 39.7319 29.3498H42.876C43.1201 29.3498 43.3198 29.5496 43.3198 29.7937V31.3026Z" fill="white"/>
</svg>
