<svg width="128" height="128" viewBox="0 0 128 128" fill="none" xmlns="http://www.w3.org/2000/svg">
<g clip-path="url(#clip0_982_1059)">
<path d="M78.7482 58.9568C79.1349 59.279 79.4212 59.303 79.6547 59.303C79.8884 59.303 80.1744 59.279 80.5612 58.9568C80.5612 58.9568 87.0722 54.2505 92.7452 48.5775C98.3577 42.965 104.712 35.6843 104.712 25.0615C104.712 11.2193 93.4972 0 79.6549 0C65.8129 0 54.5977 11.2193 54.5977 25.0615C54.5977 35.6843 60.9517 42.965 66.5642 48.5775C72.2372 54.2505 78.7482 58.9568 78.7482 58.9568ZM79.6549 12.5368C86.5689 12.5368 92.1774 18.1453 92.1774 25.0613C92.1774 31.9773 86.5689 37.5838 79.6549 37.5838C72.7389 37.5838 67.1344 31.9773 67.1344 25.0613C67.1342 18.1453 72.7389 12.5368 79.6549 12.5368Z" fill="white"/>
<path d="M101.165 66.8295C101.165 66.8295 99.6097 72.7885 92.6172 80.6452C98.8322 82.3697 103.494 79.5212 103.494 79.5212V88.0692H105.74H107.12H109.368V79.5212C109.368 79.5212 114.028 82.37 120.243 80.6452C113.25 72.7885 111.699 66.8295 111.699 66.8295C113.25 67.607 116.099 66.1405 116.099 66.1405C109.884 59.2325 106.431 49.5645 106.431 49.5645C106.431 49.5645 102.978 59.2325 96.7609 66.1405C96.7609 66.1405 99.6097 67.607 101.165 66.8295Z" fill="white"/>
<path d="M79.0735 88.1923C48.8165 84.1108 42.644 83.1498 54.3185 75.6053C62.953 70.0248 81.9867 65.905 91.834 62.6758H71.547C57.3865 65.4198 44.9043 67.8128 35.194 72.2128C37.1765 76.1273 40.013 80.942 43.5788 84.9028L48.9475 90.87L41.961 94.468C42.4525 95.3163 43.053 96.259 43.7077 97.242C59.909 101.346 74.146 102.855 61.8812 109.628C46.5222 118.111 36.2137 123.994 27.1562 128.001H95.96C102.876 122.751 114.949 112.92 116.893 106.906C119.643 98.4003 110.597 92.447 79.0735 88.1923Z" fill="white"/>
<path d="M30.0274 106.832C30.0274 106.832 36.2241 110.62 44.4879 108.327C35.1906 97.8794 33.1256 89.9582 33.1256 89.9582C35.1906 90.9914 38.9779 89.0414 38.9779 89.0414C30.7144 79.8572 26.1229 67.002 26.1229 67.002C26.1229 67.002 21.5316 79.8569 13.2659 89.0414C13.2659 89.0414 17.0531 90.9914 19.1201 89.9582C19.1201 89.9582 17.0531 97.8794 7.75586 108.327C16.0196 110.62 22.2184 106.832 22.2184 106.832V118.196H25.2041H27.0394H30.0271L30.0274 106.832Z" fill="white"/>
</g>
<defs>
<clipPath id="clip0_982_1059">
<rect width="128" height="128" fill="white"/>
</clipPath>
</defs>
</svg>
