<svg width="66" height="60" viewBox="0 0 66 60" fill="none" xmlns="http://www.w3.org/2000/svg">
<circle cx="33" cy="30" r="27" fill="#2463EB"/>
<path fill-rule="evenodd" clip-rule="evenodd" d="M27.4129 37.2027V42H29.0132V37.2027H27.4129ZM39.2431 29.2713C38.8046 28.8315 38.267 28.5229 37.6076 28.5949C36.998 28.5981 36.4283 28.8411 36.001 29.2777L37.1468 30.3954C37.2716 30.2643 37.3932 30.1939 37.6204 30.1939C37.8029 30.1939 37.9773 30.2675 38.1101 30.4018L43.2037 35.4901C43.4662 35.754 43.4662 36.1825 43.2021 36.4464L39.4575 40.1882C39.2031 40.4409 38.755 40.4409 38.5006 40.1882L33.4086 35.1016C33.2742 34.9672 33.2006 34.7897 33.2022 34.6058C33.2022 34.4283 33.2742 34.262 33.4022 34.1357L32.2852 32.9924C31.8483 33.4177 31.6051 33.987 31.6019 34.5962C31.5987 35.2119 31.8371 35.7924 32.2772 36.2321L37.3692 41.3188C37.7981 41.7489 38.3693 41.984 38.979 41.984C39.5887 41.984 40.1616 41.7489 40.5905 41.3188L44.3351 37.5769C45.2216 36.691 45.2216 35.2455 44.3351 34.3596L39.2431 29.2713ZM24.447 37.437L21.2465 40.6352L22.3779 41.7657L25.5784 38.5676L24.447 37.437ZM21.0119 34.0046V35.6037H25.8127V34.0046H21.0119ZM28.6272 18.6634C27.7455 17.7807 26.2988 17.7791 25.3979 18.657L21.6613 22.3909C20.778 23.296 20.7812 24.7432 21.6613 25.6227L26.7533 30.7093C27.1806 31.1395 27.7535 31.3746 28.3632 31.3746C28.9728 31.3746 29.5441 31.1395 29.973 30.7093L28.8416 29.5788C28.5872 29.8314 28.1375 29.8314 27.8847 29.5788L22.7927 24.4921C22.5286 24.2282 22.5318 23.7901 22.7991 23.5135L26.5245 19.794C26.7933 19.5317 27.2318 19.5317 27.4958 19.794L32.5862 24.8807C32.7126 25.007 32.783 25.1765 32.783 25.3572C32.783 25.5411 32.7126 25.7106 32.5862 25.8369L33.7176 26.9675C34.6057 26.0816 34.6057 24.636 33.7176 23.7501L28.6272 18.6634ZM40.3526 24.4101V26.0091H44.8781V24.4101L40.3526 24.4101ZM37.0144 18.1513V22.6735H38.6147V18.1513H37.0144ZM43.65 18.248L40.4495 21.4462L41.5809 22.5767L44.7814 19.3785L43.65 18.248Z" fill="white"/>
</svg>
