<svg width="1203" height="1045" viewBox="0 0 1203 1045" fill="none" xmlns="http://www.w3.org/2000/svg">
<g opacity="0.2" clip-path="url(#clip0_1211_666)">
<path d="M1074.93 707.312C1023.86 709.513 967.01 651.426 953.931 594.72C940.463 536.375 982.334 518.465 992.651 441.433C1004.35 353.958 956.089 333.891 939.168 211.503C935.369 183.884 913.268 24.0808 970.852 2.63269C1024.08 -17.2186 1152.75 78.4562 1163.68 179.784C1171.45 252.026 1113.65 273.949 1122.97 358.101C1131.17 431.939 1178.4 439.491 1187.07 510.87C1197.65 597.698 1141.96 704.42 1074.93 707.312Z" fill="#BDD0FB"/>
<path d="M1068.41 727.983C1094.83 635.631 1088.61 486.703 1078.77 378.039C1068.11 260.398 1051.01 163.256 1050.84 162.307L1046.52 162.824C1046.7 163.774 1063.79 260.786 1074.41 378.298C1084.21 486.66 1090.42 635.07 1064.18 726.861L1068.41 727.983Z" fill="#91B3FA"/>
<path d="M201.414 710.461C277.818 692.897 332.164 578.579 304.106 529.512C285.156 496.369 240.868 514.537 212.248 477.812C175.73 430.946 226.45 373.808 212.766 279.083C201.111 198.426 145.772 110.606 99.2823 113.583C50.6339 116.691 -1.51089 220.176 19.5974 296.129C33.3243 345.499 70.8789 357.539 68.7206 399.572C66.3033 448.38 14.4606 457.443 2.54673 502.281C-18.9069 582.765 100.318 733.679 201.414 710.461Z" fill="#BDD0FB"/>
<path d="M157.081 731.867C157.47 731.953 157.902 731.996 158.333 731.91C159.887 731.608 160.88 730.098 160.535 728.587C119.181 521.659 148.491 301.697 148.793 299.496C149.009 297.943 147.93 296.519 146.376 296.303C144.822 296.087 143.398 297.166 143.182 298.72C142.88 300.92 113.44 521.831 154.966 729.666C155.225 730.745 156.045 731.565 157.081 731.867Z" fill="#7D97F4"/>
<path d="M64.6203 336.48C64.9224 336.566 65.2246 336.523 65.4836 336.393C66.1742 336.091 66.4764 335.314 66.1742 334.624C47.4401 291.167 30.3463 228.765 55.469 178.273C70.4477 148.194 93.5848 136.499 93.8006 136.413C94.4913 136.067 94.7503 135.291 94.405 134.6C94.0596 133.91 93.2826 133.651 92.592 133.996C91.5992 134.471 68.3757 146.209 53.0085 177.108C38.8932 205.504 29.2671 256.039 63.6274 335.703C63.8864 336.134 64.1886 336.393 64.6203 336.48Z" fill="url(#paint0_linear_1211_666)"/>
<path d="M1042.55 352.145C1042.46 348.391 1040.91 344.809 1038.19 342.22C1035.47 339.63 1031.8 338.25 1028.05 338.336L723.855 348.046C716.128 348.305 710.042 354.778 710.258 362.503L725.279 866.165C725.495 873.804 731.797 879.846 739.438 879.802L1037.5 876.911C1041.26 876.868 1044.84 875.358 1047.43 872.682C1050.02 870.006 1051.49 866.381 1051.4 862.627L1042.55 352.145Z" fill="#7D97F4"/>
<g opacity="0.63">
<path d="M1010.82 375.924H739.956C737.323 375.924 735.207 377.736 735.251 380.239L735.51 404.104C735.553 406.607 737.711 409.412 740.344 409.412L1011.99 409.671C1014.67 409.671 1016.78 406.78 1016.69 404.234L1015.87 380.239C1015.74 377.779 1013.5 375.924 1010.82 375.924Z" fill="#BDD0FB"/>
<path d="M1012.59 427.711L740.56 427.279C737.927 427.279 735.812 429.782 735.812 432.328L736.071 456.495C736.114 459.041 738.272 461.415 740.948 461.415L1013.8 462.149C1016.52 462.149 1018.59 459.732 1018.51 457.186L1017.69 432.803C1017.56 430.3 1015.27 427.711 1012.59 427.711Z" fill="#BDD0FB"/>
<path d="M1014.41 482.172L741.122 481.223C738.445 481.223 736.33 482.431 736.33 484.977L736.589 509.36C736.632 511.906 738.791 513.848 741.467 513.848L1015.49 515.056C1018.21 515.056 1020.32 513.157 1020.23 510.568L1019.41 485.97C1019.37 483.467 1017.13 482.215 1014.41 482.172Z" fill="#BDD0FB"/>
<path d="M1016.22 535.295L741.726 533.914C739.049 533.914 736.891 535.64 736.934 538.186L737.193 562.785C737.236 565.374 739.395 566.798 742.071 566.841L1017.3 568.524C1020.02 568.524 1022.18 567.1 1022.09 564.511L1021.23 539.697C1021.18 537.108 1018.94 535.338 1016.22 535.295Z" fill="#BDD0FB"/>
<path d="M1017.99 588.895L742.286 587.039C739.61 587.039 737.452 589.283 737.495 591.829L737.754 616.643C737.797 619.233 739.998 622.038 742.675 622.081L1019.15 624.282C1021.87 624.325 1024.03 621.477 1023.95 618.887L1023.08 593.858C1023.04 591.225 1020.75 588.895 1017.99 588.895Z" fill="#BDD0FB"/>
<path d="M1019.85 642.968L742.934 640.594C740.258 640.551 738.1 643.313 738.1 645.945L738.359 670.975C738.402 673.608 740.603 675.938 743.323 675.938L1021.05 678.614C1023.82 678.657 1025.93 676.327 1025.85 673.694L1024.98 648.448C1024.9 645.816 1022.57 642.968 1019.85 642.968Z" fill="#BDD0FB"/>
<path d="M1021.74 699.371L743.538 696.479C740.819 696.436 738.661 697.86 738.704 700.493L738.963 725.739C739.006 728.371 741.207 730.227 743.927 730.27L1022.91 733.463C1025.67 733.506 1027.83 731.694 1027.74 729.018L1026.88 703.514C1026.75 700.881 1024.46 699.414 1021.74 699.371Z" fill="#BDD0FB"/>
<path d="M1023.6 754.437L744.142 751.071C741.423 751.028 739.265 752.97 739.265 755.645L739.524 781.107C739.567 783.783 741.768 785.12 744.488 785.164L1024.72 788.875C1027.49 788.918 1029.69 787.623 1029.6 784.905L1028.74 759.184C1028.65 756.465 1026.36 754.437 1023.6 754.437Z" fill="#BDD0FB"/>
<path d="M1025.46 809.935L744.748 806.051C742.028 806.008 739.827 808.468 739.87 811.187L740.129 836.907C740.172 839.583 742.417 842.345 745.136 842.388L1026.67 846.617C1029.47 846.66 1031.63 843.941 1031.54 841.223L1030.68 815.286C1030.59 812.568 1028.22 809.978 1025.46 809.935Z" fill="#BDD0FB"/>
</g>
<path d="M576.053 73.0182C575.881 63.9988 568.585 56.5762 559.607 56.5762H220.838C211.773 56.5762 202.838 64.3872 202.838 73.5361V890.677C202.838 895.079 205.342 899.308 208.45 902.416C211.557 905.523 216.133 907.249 220.493 907.249L574.672 906.256C579.075 906.256 583.391 904.444 586.456 901.293C589.521 898.143 591.291 893.741 591.205 889.296L576.053 73.0182Z" fill="#7D97F4"/>
<g opacity="0.81">
<path d="M326.596 152.899L230.076 152.77L229.299 102.969H325.905L326.596 152.899Z" fill="#BDD0FB"/>
<path d="M434.727 152.856L338.337 152.727L337.689 102.969H434.166L434.727 152.856Z" fill="#BDD0FB"/>
<path d="M542.815 152.813L446.468 152.683L445.95 102.969H542.34L542.815 152.813Z" fill="#BDD0FB"/>
<path d="M327.761 242.272L231.457 242.315L230.68 192.86L327.113 192.816L327.761 242.272Z" fill="#BDD0FB"/>
<path d="M435.763 242.186L339.502 242.229L338.854 192.817L435.202 192.773L435.763 242.186Z" fill="#BDD0FB"/>
<path d="M543.635 242.1L447.504 242.186L446.942 192.774L543.16 192.73L543.635 242.1Z" fill="#BDD0FB"/>
<path d="M328.97 331L232.839 331.129L232.062 281.803L328.322 281.76L328.97 331Z" fill="#BDD0FB"/>
<path d="M436.756 330.914L340.711 331L340.063 281.717L436.195 281.631L436.756 330.914Z" fill="#BDD0FB"/>
<path d="M544.455 330.785L448.497 330.871L447.936 281.631L543.98 281.545L544.455 330.785Z" fill="#BDD0FB"/>
<path d="M330.178 419.468L234.176 419.597L233.442 370.487L329.53 370.357L330.178 419.468Z" fill="#BDD0FB"/>
<path d="M437.791 419.294L341.876 419.466L341.229 370.356L437.23 370.227L437.791 419.294Z" fill="#BDD0FB"/>
<path d="M545.276 419.165L449.49 419.294L448.929 370.227L544.801 370.098L545.276 419.165Z" fill="#BDD0FB"/>
<path d="M331.387 507.59L235.558 507.806L234.781 458.825L330.697 458.695L331.387 507.59Z" fill="#BDD0FB"/>
<path d="M438.785 507.416L343.042 507.589L342.395 458.651L438.224 458.479L438.785 507.416Z" fill="#BDD0FB"/>
<path d="M546.096 507.201L450.44 507.374L449.922 458.479L545.621 458.307L546.096 507.201Z" fill="#BDD0FB"/>
<path d="M332.552 595.455L236.896 595.67L236.162 546.905L331.905 546.689L332.552 595.455Z" fill="#BDD0FB"/>
<path d="M439.777 595.195L344.207 595.41L343.56 546.645L439.216 546.473L439.777 595.195Z" fill="#BDD0FB"/>
<path d="M546.916 594.98L451.432 595.196L450.914 546.43L546.441 546.258L546.916 594.98Z" fill="#BDD0FB"/>
<path d="M333.761 682.973L238.234 683.232L237.5 634.64L333.07 634.381L333.761 682.973Z" fill="#BDD0FB"/>
<path d="M440.813 682.716L345.372 682.975L344.725 634.382L440.252 634.123L440.813 682.716Z" fill="#BDD0FB"/>
<path d="M547.735 682.413L452.424 682.672L451.863 634.122L547.261 633.863L547.735 682.413Z" fill="#BDD0FB"/>
<path d="M334.927 770.233L239.616 770.535L238.839 722.071L334.279 721.812L334.927 770.233Z" fill="#BDD0FB"/>
<path d="M441.807 769.889L346.539 770.191L345.892 721.771L441.246 721.512L441.807 769.889Z" fill="#BDD0FB"/>
<path d="M548.557 769.586L453.419 769.845L452.857 721.468L548.082 721.209L548.557 769.586Z" fill="#BDD0FB"/>
<path d="M336.092 857.191L240.954 857.493L240.177 809.202L335.445 808.9L336.092 857.191Z" fill="#BDD0FB"/>
<path d="M442.799 856.802L347.704 857.147L347.057 808.857L442.238 808.555L442.799 856.802Z" fill="#BDD0FB"/>
<path d="M549.333 856.413L454.368 856.758L453.85 808.511L548.902 808.209L549.333 856.413Z" fill="#BDD0FB"/>
</g>
<path d="M246.48 805.661L204.047 794.182C204.047 794.182 194.033 797.073 195.5 812.005C196.968 826.936 239.271 824.218 239.271 824.218L246.48 805.661Z" fill="url(#paint1_linear_1211_666)"/>
<path d="M623.58 641.499C704.517 661.739 752 715.812 775.396 721.293C798.792 726.773 892.592 731.779 907.916 745.977C923.197 760.175 908.607 770.274 928.247 788.528C950.003 849.895 882.664 868.279 882.664 868.279L270.351 863.316C270.351 863.316 229.041 867.027 228.134 837.509C227.228 807.991 237.242 793.103 239.444 766.519C241.602 739.936 241.645 738.598 247.559 724.831C253.473 711.065 310.97 709.554 322.15 694.234C333.33 678.914 346.669 654.489 394.108 646.16C459.635 634.637 576.615 629.761 623.58 641.499Z" fill="url(#paint2_linear_1211_666)"/>
<path d="M224.811 835.74C225.847 869.66 283.387 863.661 283.603 863.618C283.603 863.618 329.316 828.62 266.423 829.957C247.516 829.483 228.35 819.471 228.35 819.471L224.811 835.74Z" fill="url(#paint3_linear_1211_666)"/>
<path d="M932.003 803.676C932.003 803.676 932.607 812.307 916.377 821.154C896.305 832.115 826.548 820.075 826.548 820.075L818.605 864.956L884.348 868.322C882.794 868.71 970.637 863.661 932.003 803.676Z" fill="url(#paint4_linear_1211_666)"/>
<path d="M332.467 738.684C332.467 738.684 330.481 723.278 346.668 704.419C362.856 685.561 372.309 673.089 384.741 669.895C397.173 666.702 488.254 654.1 494.254 663.767C500.254 673.477 507.937 732.945 507.937 732.945L332.467 738.684Z" fill="url(#paint5_linear_1211_666)"/>
<g opacity="0.23">
<path d="M386.424 668.211C396.612 666.701 474.095 657.682 494.081 660.271L499.261 680.165L332.423 738.64C332.423 738.64 331.647 725.953 339.978 713.481C353.963 692.508 375.762 669.549 386.424 668.211Z" fill="#7D97F4"/>
</g>
<path d="M521.491 663.724C523.995 675.203 533.319 731.262 533.319 731.262L730.243 730.356C730.243 730.356 668.17 673.305 620.428 664.285C572.73 655.266 519.894 657.639 521.491 663.724Z" fill="url(#paint6_linear_1211_666)"/>
<path d="M613.695 660.055C574.802 654.661 560.558 655.697 519.809 659.235L523.737 675.548C523.737 675.548 584.385 663.637 640.89 670.542C640.933 670.542 626.386 661.825 613.695 660.055Z" fill="url(#paint7_linear_1211_666)"/>
<path d="M903.384 743.043C903.384 743.043 871.484 732.815 863.714 758.018C856.289 782.055 928.291 788.529 928.291 788.529C928.291 788.529 922.938 752.882 903.384 743.043Z" fill="url(#paint8_linear_1211_666)"/>
<path d="M321.589 711.41C321.762 711.41 321.934 711.367 322.107 711.324C329.618 709.079 335.92 701.182 343.215 692.033C353.877 678.698 365.964 663.551 385.691 659.796C423.505 652.589 480.873 647.583 481.434 647.54C482.47 647.454 483.204 646.548 483.117 645.555C483.031 644.519 482.168 643.786 481.132 643.872C480.57 643.915 423.03 648.921 385 656.214C363.935 660.228 350.813 676.627 340.323 689.746C333.417 698.42 327.417 705.886 321.028 707.785C320.035 708.087 319.474 709.123 319.776 710.072C320.035 710.892 320.812 711.41 321.589 711.41Z" fill="#BDD0FB"/>
<path d="M262.969 732.426C263.66 732.426 264.307 732.037 264.609 731.39C267.717 725.133 281.487 722.284 294.783 719.522C299.531 718.53 304.452 717.537 308.984 716.329C309.977 716.07 310.581 715.077 310.322 714.085C310.063 713.092 309.071 712.531 308.078 712.747C303.632 713.912 298.754 714.905 294.049 715.897C279.2 718.961 265.214 721.853 261.329 729.75C260.854 730.656 261.242 731.779 262.149 732.253C262.408 732.34 262.667 732.426 262.969 732.426Z" fill="#BDD0FB"/>
<path d="M364.281 920.195C396.846 920.195 423.246 893.802 423.246 861.245C423.246 828.688 396.846 802.295 364.281 802.295C331.715 802.295 305.315 828.688 305.315 861.245C305.315 893.802 331.715 920.195 364.281 920.195Z" fill="url(#paint9_linear_1211_666)"/>
<path opacity="0.57" d="M363.633 898.186C384.422 898.186 401.274 881.338 401.274 860.555C401.274 839.772 384.422 822.924 363.633 822.924C342.845 822.924 325.992 839.772 325.992 860.555C325.992 881.338 342.845 898.186 363.633 898.186Z" fill="url(#paint10_linear_1211_666)"/>
<path d="M785.108 916.57C817.673 916.57 844.073 890.177 844.073 857.62C844.073 825.063 817.673 798.67 785.108 798.67C752.542 798.67 726.143 825.063 726.143 857.62C726.143 890.177 752.542 916.57 785.108 916.57Z" fill="url(#paint11_linear_1211_666)"/>
<path opacity="0.57" d="M784.46 894.561C805.249 894.561 822.101 877.713 822.101 856.93C822.101 836.147 805.249 819.299 784.46 819.299C763.672 819.299 746.819 836.147 746.819 856.93C746.819 877.713 763.672 894.561 784.46 894.561Z" fill="url(#paint12_linear_1211_666)"/>
<path d="M533.536 858.612C533.579 858.612 533.665 858.612 533.708 858.612C534.787 858.612 535.651 858.181 535.651 857.102C535.651 856.325 535.176 855.893 534.485 855.591C530.643 849.42 525.679 782.875 523.435 741.792C523.391 740.713 522.442 739.936 521.363 740.022C520.284 740.065 519.463 741.015 519.507 742.094C519.507 742.396 521.147 770.921 523.435 799.49C528.097 857.706 530.989 858.612 533.536 858.612Z" fill="#BDD0FB"/>
<path d="M718.502 758.837C718.502 751.716 712.718 745.977 705.639 745.977H665.58C658.458 745.977 652.717 751.759 652.717 758.837V760.865C652.717 767.986 658.501 773.725 665.58 773.725H705.639C712.761 773.725 718.502 767.942 718.502 760.865V758.837Z" fill="url(#paint13_linear_1211_666)"/>
<path d="M998.135 644.822H1012.68C1015.23 644.822 1017.26 646.807 1017.34 649.354L1025.67 932.062L987.516 931.027L998.135 644.822Z" fill="url(#paint14_linear_1211_666)"/>
<path d="M896.349 927.833L952.422 650.605C953.112 647.239 956.048 644.822 959.501 644.822H998.135L1007.63 928.308L896.349 927.833Z" fill="url(#paint15_linear_1211_666)"/>
<path d="M1007.63 972.369H250.798C247.301 972.369 244.452 969.52 244.452 966.025V933.831C244.452 930.163 247.431 927.229 251.057 927.229H1007.63V972.369Z" fill="url(#paint16_linear_1211_666)"/>
<path d="M1187.98 798.842L1152.37 669.161C1151.46 665.881 1148.91 665.32 1146.02 665.32H1014.67C1007.59 665.32 1001.8 671.276 1001.8 678.655V971.851H1196.4L1187.98 798.842Z" fill="url(#paint17_linear_1211_666)"/>
<path d="M1200.71 910.83C1199.63 908.931 1197.86 907.939 1196.35 907.982L1120.81 911.823C1115.5 912.082 1111.32 916.44 1111.27 921.748L1110.84 975.778L1196.35 981.259C1199.46 981.259 1202.96 977.332 1202.96 971.765V917.994C1203 915.318 1201.84 912.729 1200.71 910.83Z" fill="url(#paint18_linear_1211_666)"/>
<path d="M1160.18 804.668L1138.64 700.664C1137.91 697.039 1135.23 694.277 1132.17 694.277H1047.99C1046.18 694.277 1044.45 695.399 1043.2 696.953C1041.95 698.55 1041.26 700.794 1041.3 702.995L1043.33 786.413C1043.42 790.341 1045.79 793.62 1048.94 794.268L1152.63 814.723C1154.83 815.155 1157.12 814.205 1158.63 812.177C1160.14 810.149 1160.7 807.344 1160.18 804.668Z" fill="url(#paint19_linear_1211_666)"/>
<path d="M1160.14 692.25L1158.89 692.379C1156.77 692.638 1154.83 693.847 1153.53 695.702C1152.28 697.558 1151.81 699.932 1152.24 702.176L1173.04 810.15C1173.73 813.688 1181.25 815.932 1185.95 816.191C1187.2 816.278 1188.28 815.328 1188.37 814.077L1189.15 804.842C1189.23 803.935 1189.15 802.986 1188.93 802.123L1160.14 692.25Z" fill="url(#paint20_linear_1211_666)"/>
<path d="M1047.69 819.989C1047.69 816.623 1050.41 813.904 1053.78 813.904H1080.45C1083.82 813.904 1086.54 816.623 1086.54 819.989V821.068C1086.54 824.434 1083.82 827.153 1080.45 827.153H1053.78C1050.41 827.153 1047.69 824.434 1047.69 821.068V819.989Z" fill="url(#paint21_linear_1211_666)"/>
<path opacity="0.7" d="M1012.38 887.742C1011.56 887.742 1010.91 887.094 1010.91 886.274V730.096C1010.91 729.276 1011.56 728.629 1012.38 728.629C1013.2 728.629 1013.85 729.276 1013.85 730.096V886.274C1013.85 887.094 1013.2 887.742 1012.38 887.742Z" fill="white"/>
<path d="M1163.63 930.423C1163.63 926.712 1166.61 923.734 1170.32 923.734H1188.71C1192.43 923.734 1195.4 926.712 1195.4 930.423V950.577C1195.4 954.288 1192.43 957.266 1188.71 957.266H1170.32C1166.61 957.266 1163.63 954.288 1163.63 950.577V930.423Z" fill="url(#paint22_linear_1211_666)"/>
<path opacity="0.8" d="M1175.98 920.541V959.381H1171.23C1167.52 959.381 1161 955.453 1161 951.742V929.733C1161 926.022 1167.56 920.541 1171.23 920.541H1175.98Z" fill="white"/>
<path d="M1002.19 931.329H218.984L217.991 922.655L265.042 913.938L1002.19 914.887V931.329Z" fill="url(#paint23_linear_1211_666)"/>
<path d="M1087.58 1043.19C1123.05 1043.19 1151.81 1014.44 1151.81 978.973C1151.81 943.508 1123.05 914.758 1087.58 914.758C1052.1 914.758 1023.34 943.508 1023.34 978.973C1023.34 1014.44 1052.1 1043.19 1087.58 1043.19Z" fill="url(#paint24_linear_1211_666)"/>
<path d="M1087.57 1031.15C1116.4 1031.15 1139.76 1007.79 1139.76 978.973C1139.76 950.158 1116.4 926.799 1087.57 926.799C1058.75 926.799 1035.39 950.158 1035.39 978.973C1035.39 1007.79 1058.75 1031.15 1087.57 1031.15Z" fill="url(#paint25_linear_1211_666)"/>
<path opacity="0.7" d="M1131.39 998.393C1131.22 998.393 1131 998.35 1130.83 998.263C1130.09 997.961 1129.75 997.098 1130.05 996.365C1132.38 990.841 1133.55 985.015 1133.55 978.973C1133.55 954.332 1113.48 934.264 1088.83 934.264C1081.19 934.264 1073.63 936.25 1066.99 939.961C1066.29 940.349 1065.39 940.09 1065 939.4C1064.61 938.709 1064.87 937.803 1065.56 937.415C1072.64 933.444 1080.67 931.373 1088.83 931.373C1115.12 931.373 1136.48 952.735 1136.48 979.016C1136.48 985.446 1135.23 991.704 1132.73 997.573C1132.51 998.091 1131.99 998.393 1131.39 998.393Z" fill="white"/>
<path d="M1087.58 1002.88C1100.78 1002.88 1111.49 992.176 1111.49 978.972C1111.49 965.768 1100.78 955.064 1087.58 955.064C1074.37 955.064 1063.66 965.768 1063.66 978.972C1063.66 992.176 1074.37 1002.88 1087.58 1002.88Z" fill="url(#paint26_linear_1211_666)"/>
<path d="M476.385 1044.96C511.859 1044.96 540.616 1016.21 540.616 980.742C540.616 945.277 511.859 916.527 476.385 916.527C440.911 916.527 412.153 945.277 412.153 980.742C412.153 1016.21 440.911 1044.96 476.385 1044.96Z" fill="url(#paint27_linear_1211_666)"/>
<path d="M476.384 1032.92C505.207 1032.92 528.572 1009.56 528.572 980.743C528.572 951.928 505.207 928.568 476.384 928.568C447.562 928.568 424.196 951.928 424.196 980.743C424.196 1009.56 447.562 1032.92 476.384 1032.92Z" fill="url(#paint28_linear_1211_666)"/>
<path opacity="0.7" d="M520.199 1000.21C520.026 1000.21 519.81 1000.16 519.638 1000.08C518.904 999.774 518.558 998.911 518.861 998.177C521.192 992.653 522.357 986.827 522.357 980.786C522.357 956.144 502.285 936.077 477.637 936.077C469.996 936.077 462.442 938.062 455.795 941.773C455.104 942.162 454.198 941.903 453.809 941.212C453.421 940.522 453.68 939.616 454.37 939.227C461.449 935.257 469.478 933.186 477.637 933.186C503.925 933.186 525.292 954.547 525.292 980.829C525.292 987.259 524.041 993.516 521.537 999.385C521.321 999.86 520.76 1000.21 520.199 1000.21Z" fill="white"/>
<path d="M476.385 1004.65C489.592 1004.65 500.299 993.946 500.299 980.742C500.299 967.538 489.592 956.834 476.385 956.834C463.177 956.834 452.471 967.538 452.471 980.742C452.471 993.946 463.177 1004.65 476.385 1004.65Z" fill="url(#paint29_linear_1211_666)"/>
<path d="M838.42 1044.96C873.894 1044.96 902.651 1016.21 902.651 980.742C902.651 945.277 873.894 916.527 838.42 916.527C802.946 916.527 774.188 945.277 774.188 980.742C774.188 1016.21 802.946 1044.96 838.42 1044.96Z" fill="url(#paint30_linear_1211_666)"/>
<path d="M838.42 1032.92C867.243 1032.92 890.608 1009.56 890.608 980.743C890.608 951.928 867.243 928.568 838.42 928.568C809.598 928.568 786.232 951.928 786.232 980.743C786.232 1009.56 809.598 1032.92 838.42 1032.92Z" fill="url(#paint31_linear_1211_666)"/>
<path opacity="0.7" d="M882.277 1000.21C882.104 1000.21 881.888 1000.16 881.716 1000.08C880.982 999.774 880.637 998.911 880.939 998.177C883.27 992.653 884.435 986.827 884.435 980.786C884.435 956.144 864.363 936.077 839.715 936.077C832.075 936.077 824.52 938.062 817.873 941.773C817.182 942.162 816.276 941.903 815.887 941.212C815.499 940.522 815.758 939.616 816.448 939.227C823.528 935.257 831.557 933.186 839.715 933.186C866.003 933.186 887.37 954.547 887.37 980.829C887.37 987.259 886.119 993.516 883.615 999.385C883.356 999.86 882.838 1000.21 882.277 1000.21Z" fill="white"/>
<path d="M838.42 1004.65C851.627 1004.65 862.334 993.946 862.334 980.742C862.334 967.538 851.627 956.834 838.42 956.834C825.213 956.834 814.506 967.538 814.506 980.742C814.506 993.946 825.213 1004.65 838.42 1004.65Z" fill="url(#paint32_linear_1211_666)"/>
<path d="M329.403 1044.96C364.877 1044.96 393.635 1016.21 393.635 980.742C393.635 945.277 364.877 916.527 329.403 916.527C293.929 916.527 265.172 945.277 265.172 980.742C265.172 1016.21 293.929 1044.96 329.403 1044.96Z" fill="url(#paint33_linear_1211_666)"/>
<path d="M329.403 1032.92C358.225 1032.92 381.591 1009.56 381.591 980.743C381.591 951.928 358.225 928.568 329.403 928.568C300.58 928.568 277.215 951.928 277.215 980.743C277.215 1009.56 300.58 1032.92 329.403 1032.92Z" fill="url(#paint34_linear_1211_666)"/>
<path opacity="0.7" d="M373.217 1000.21C373.045 1000.21 372.829 1000.16 372.656 1000.08C371.922 999.774 371.577 998.911 371.879 998.177C374.21 992.653 375.376 986.827 375.376 980.786C375.376 956.144 355.303 936.077 330.655 936.077C323.015 936.077 315.461 938.062 308.813 941.773C308.123 942.162 307.216 941.903 306.828 941.212C306.439 940.522 306.698 939.616 307.389 939.227C314.468 935.257 322.497 933.186 330.655 933.186C356.944 933.186 378.311 954.547 378.311 980.829C378.311 987.259 377.059 993.516 374.555 999.385C374.34 999.86 373.778 1000.21 373.217 1000.21Z" fill="white"/>
<path d="M329.403 1004.65C342.611 1004.65 353.317 993.946 353.317 980.742C353.317 967.538 342.611 956.834 329.403 956.834C316.196 956.834 305.489 967.538 305.489 980.742C305.489 993.946 316.196 1004.65 329.403 1004.65Z" fill="url(#paint35_linear_1211_666)"/>
</g>
<defs>
<linearGradient id="paint0_linear_1211_666" x1="40.1902" y1="235.206" x2="94.5911" y2="235.206" gradientUnits="userSpaceOnUse">
<stop stop-color="#DAE3FE"/>
<stop offset="1" stop-color="#E9EFFD"/>
</linearGradient>
<linearGradient id="paint1_linear_1211_666" x1="195.524" y1="805.618" x2="243.892" y2="816.794" gradientUnits="userSpaceOnUse">
<stop stop-color="#2B3582"/>
<stop offset="1" stop-color="#150E42"/>
</linearGradient>
<linearGradient id="paint2_linear_1211_666" x1="613.712" y1="643.148" x2="641.007" y2="502.732" gradientUnits="userSpaceOnUse">
<stop stop-color="#4F52FF"/>
<stop offset="1" stop-color="#4042E2"/>
</linearGradient>
<linearGradient id="paint3_linear_1211_666" x1="393.047" y1="627.665" x2="348.198" y2="698.858" gradientUnits="userSpaceOnUse">
<stop stop-color="#4F52FF"/>
<stop offset="1" stop-color="#4042E2"/>
</linearGradient>
<linearGradient id="paint4_linear_1211_666" x1="880.198" y1="579.823" x2="880.198" y2="707.561" gradientUnits="userSpaceOnUse">
<stop stop-color="#4F52FF"/>
<stop offset="1" stop-color="#4042E2"/>
</linearGradient>
<linearGradient id="paint5_linear_1211_666" x1="501.537" y1="523.198" x2="382.973" y2="826.86" gradientUnits="userSpaceOnUse">
<stop stop-color="#09005D"/>
<stop offset="1" stop-color="#1A0F91"/>
</linearGradient>
<linearGradient id="paint6_linear_1211_666" x1="668.269" y1="588.188" x2="549.708" y2="891.962" gradientUnits="userSpaceOnUse">
<stop stop-color="#09005D"/>
<stop offset="1" stop-color="#1A0F91"/>
</linearGradient>
<linearGradient id="paint7_linear_1211_666" x1="1103.51" y1="-882.032" x2="1185.9" y2="-1125.79" gradientUnits="userSpaceOnUse">
<stop stop-color="#4F52FF"/>
<stop offset="1" stop-color="#4042E2"/>
</linearGradient>
<linearGradient id="paint8_linear_1211_666" x1="989.952" y1="622.067" x2="1105.87" y2="436.547" gradientUnits="userSpaceOnUse">
<stop stop-color="#DAE3FE"/>
<stop offset="1" stop-color="#E9EFFD"/>
</linearGradient>
<linearGradient id="paint9_linear_1211_666" x1="341.516" y1="878.79" x2="498.3" y2="757.785" gradientUnits="userSpaceOnUse">
<stop stop-color="#09005D"/>
<stop offset="1" stop-color="#1A0F91"/>
</linearGradient>
<linearGradient id="paint10_linear_1211_666" x1="326.01" y1="859.605" x2="401.243" y2="861.547" gradientUnits="userSpaceOnUse">
<stop stop-color="#4F52FF"/>
<stop offset="1" stop-color="#4042E2"/>
</linearGradient>
<linearGradient id="paint11_linear_1211_666" x1="762.351" y1="875.155" x2="919.134" y2="754.149" gradientUnits="userSpaceOnUse">
<stop stop-color="#09005D"/>
<stop offset="1" stop-color="#1A0F91"/>
</linearGradient>
<linearGradient id="paint12_linear_1211_666" x1="746.844" y1="855.969" x2="822.078" y2="857.911" gradientUnits="userSpaceOnUse">
<stop stop-color="#4F52FF"/>
<stop offset="1" stop-color="#4042E2"/>
</linearGradient>
<linearGradient id="paint13_linear_1211_666" x1="822.411" y1="639.167" x2="772.679" y2="683.06" gradientUnits="userSpaceOnUse">
<stop stop-color="#4F52FF"/>
<stop offset="1" stop-color="#4042E2"/>
</linearGradient>
<linearGradient id="paint14_linear_1211_666" x1="1175.41" y1="703.527" x2="946.479" y2="822.47" gradientUnits="userSpaceOnUse">
<stop stop-color="#FF928E"/>
<stop offset="1" stop-color="#FE7062"/>
</linearGradient>
<linearGradient id="paint15_linear_1211_666" x1="907.393" y1="89.1871" x2="916.166" y2="242.757" gradientUnits="userSpaceOnUse">
<stop stop-color="#FF928E"/>
<stop offset="1" stop-color="#FE7062"/>
</linearGradient>
<linearGradient id="paint16_linear_1211_666" x1="624.398" y1="1036.4" x2="630.193" y2="743.666" gradientUnits="userSpaceOnUse">
<stop stop-color="#FF928E"/>
<stop offset="1" stop-color="#FE7062"/>
</linearGradient>
<linearGradient id="paint17_linear_1211_666" x1="1141.71" y1="758.414" x2="924.373" y2="1088.86" gradientUnits="userSpaceOnUse">
<stop stop-color="#FF928E"/>
<stop offset="1" stop-color="#FE7062"/>
</linearGradient>
<linearGradient id="paint18_linear_1211_666" x1="1158.86" y1="885.199" x2="1150.17" y2="1200.38" gradientUnits="userSpaceOnUse">
<stop stop-color="#FF928E"/>
<stop offset="1" stop-color="#FE7062"/>
</linearGradient>
<linearGradient id="paint19_linear_1211_666" x1="1076.18" y1="752.892" x2="1240.25" y2="757.025" gradientUnits="userSpaceOnUse">
<stop stop-color="#09005D"/>
<stop offset="1" stop-color="#1A0F91"/>
</linearGradient>
<linearGradient id="paint20_linear_1211_666" x1="1161.28" y1="753.243" x2="1222.67" y2="758.365" gradientUnits="userSpaceOnUse">
<stop stop-color="#09005D"/>
<stop offset="1" stop-color="#1A0F91"/>
</linearGradient>
<linearGradient id="paint21_linear_1211_666" x1="1133.85" y1="786.085" x2="1029.01" y2="840.208" gradientUnits="userSpaceOnUse">
<stop stop-color="#E1473D"/>
<stop offset="1" stop-color="#E9605A"/>
</linearGradient>
<linearGradient id="paint22_linear_1211_666" x1="1157.8" y1="992.418" x2="1178.08" y2="943.93" gradientUnits="userSpaceOnUse">
<stop stop-color="#E1473D"/>
<stop offset="1" stop-color="#E9605A"/>
</linearGradient>
<linearGradient id="paint23_linear_1211_666" x1="563.808" y1="108.81" x2="572.581" y2="262.381" gradientUnits="userSpaceOnUse">
<stop stop-color="#E1473D"/>
<stop offset="1" stop-color="#E9605A"/>
</linearGradient>
<linearGradient id="paint24_linear_1211_666" x1="1023.33" y1="978.965" x2="1151.83" y2="978.965" gradientUnits="userSpaceOnUse">
<stop stop-color="#09005D"/>
<stop offset="1" stop-color="#1A0F91"/>
</linearGradient>
<linearGradient id="paint25_linear_1211_666" x1="1074.78" y1="830.568" x2="1096.51" y2="1082.71" gradientUnits="userSpaceOnUse">
<stop stop-color="#E1473D"/>
<stop offset="1" stop-color="#E9605A"/>
</linearGradient>
<linearGradient id="paint26_linear_1211_666" x1="1111.16" y1="940.338" x2="1045.87" y2="1047.34" gradientUnits="userSpaceOnUse">
<stop stop-color="#09005D"/>
<stop offset="1" stop-color="#1A0F91"/>
</linearGradient>
<linearGradient id="paint27_linear_1211_666" x1="412.122" y1="980.757" x2="540.62" y2="980.757" gradientUnits="userSpaceOnUse">
<stop stop-color="#09005D"/>
<stop offset="1" stop-color="#1A0F91"/>
</linearGradient>
<linearGradient id="paint28_linear_1211_666" x1="467.93" y1="882.869" x2="489.661" y2="1135.01" gradientUnits="userSpaceOnUse">
<stop stop-color="#E1473D"/>
<stop offset="1" stop-color="#E9605A"/>
</linearGradient>
<linearGradient id="paint29_linear_1211_666" x1="499.953" y1="942.13" x2="434.666" y2="1049.13" gradientUnits="userSpaceOnUse">
<stop stop-color="#09005D"/>
<stop offset="1" stop-color="#1A0F91"/>
</linearGradient>
<linearGradient id="paint30_linear_1211_666" x1="774.187" y1="980.757" x2="902.684" y2="980.757" gradientUnits="userSpaceOnUse">
<stop stop-color="#09005D"/>
<stop offset="1" stop-color="#1A0F91"/>
</linearGradient>
<linearGradient id="paint31_linear_1211_666" x1="827.324" y1="851.895" x2="849.055" y2="1104.04" gradientUnits="userSpaceOnUse">
<stop stop-color="#E1473D"/>
<stop offset="1" stop-color="#E9605A"/>
</linearGradient>
<linearGradient id="paint32_linear_1211_666" x1="862.016" y1="942.13" x2="796.73" y2="1049.13" gradientUnits="userSpaceOnUse">
<stop stop-color="#09005D"/>
<stop offset="1" stop-color="#1A0F91"/>
</linearGradient>
<linearGradient id="paint33_linear_1211_666" x1="265.146" y1="980.757" x2="393.643" y2="980.757" gradientUnits="userSpaceOnUse">
<stop stop-color="#09005D"/>
<stop offset="1" stop-color="#1A0F91"/>
</linearGradient>
<linearGradient id="paint34_linear_1211_666" x1="322.037" y1="895.443" x2="343.768" y2="1147.59" gradientUnits="userSpaceOnUse">
<stop stop-color="#E1473D"/>
<stop offset="1" stop-color="#E9605A"/>
</linearGradient>
<linearGradient id="paint35_linear_1211_666" x1="352.976" y1="942.13" x2="287.689" y2="1049.13" gradientUnits="userSpaceOnUse">
<stop stop-color="#09005D"/>
<stop offset="1" stop-color="#1A0F91"/>
</linearGradient>
<clipPath id="clip0_1211_666">
<rect width="1203" height="1045" fill="white"/>
</clipPath>
</defs>
</svg>
