<svg width="540" height="409" viewBox="0 0 540 409" fill="none" xmlns="http://www.w3.org/2000/svg">
<g opacity="0.7">
<path d="M44.7948 298.492H40.3749C40.2332 300.231 40.3188 301.981 40.6295 303.697C41.1528 306.299 43.7552 308.379 44.7948 308.117C45.8344 307.855 44.7948 298.492 44.7948 298.492Z" fill="white" stroke="#3E3032" stroke-miterlimit="10"/>
<path d="M79.5642 231.357H69.7344V240.035H79.5642V231.357Z" stroke="#BDD0FB" stroke-miterlimit="10"/>
<path d="M463.014 286.143H425.752V217.292H428.242V210.164H340.926V217.292H343.952V319.692H321.047V100.006H242.521V266.137H213.817V247.75H221.334V239.971H158.543V128.519H162.61V122.685H86.3965V128.519H91.863V240.162H31.6323V320.01H0" stroke="#BDD0FB" stroke-miterlimit="10"/>
<path d="M324.179 97.6016H239.027V99.9848H324.179V97.6016Z" stroke="#BDD0FB" stroke-miterlimit="10"/>
<path d="M108.269 134.998H98.6797V143.993H108.269V134.998Z" stroke="#BDD0FB" stroke-miterlimit="10"/>
<path d="M122.335 134.998H112.746V143.993H122.335V134.998Z" stroke="#BDD0FB" stroke-miterlimit="10"/>
<path d="M136.402 134.998H126.812V143.993H136.402V134.998Z" stroke="#BDD0FB" stroke-miterlimit="10"/>
<path d="M150.474 134.998H140.885V143.993H150.474V134.998Z" stroke="#BDD0FB" stroke-miterlimit="10"/>
<path d="M108.269 149.252H98.6797V158.247H108.269V149.252Z" stroke="#BDD0FB" stroke-miterlimit="10"/>
<path d="M122.335 149.252H112.746V158.247H122.335V149.252Z" stroke="#BDD0FB" stroke-miterlimit="10"/>
<path d="M136.402 149.252H126.812V158.247H136.402V149.252Z" stroke="#BDD0FB" stroke-miterlimit="10"/>
<path d="M150.474 149.252H140.885V158.247H150.474V149.252Z" stroke="#BDD0FB" stroke-miterlimit="10"/>
<path d="M108.269 163.51H98.6797V172.505H108.269V163.51Z" stroke="#BDD0FB" stroke-miterlimit="10"/>
<path d="M122.335 163.51H112.746V172.505H122.335V163.51Z" stroke="#BDD0FB" stroke-miterlimit="10"/>
<path d="M136.402 163.51H126.812V172.505H136.402V163.51Z" stroke="#BDD0FB" stroke-miterlimit="10"/>
<path d="M150.474 163.51H140.885V172.505H150.474V163.51Z" stroke="#BDD0FB" stroke-miterlimit="10"/>
<path d="M108.269 177.76H98.6797V186.755H108.269V177.76Z" stroke="#BDD0FB" stroke-miterlimit="10"/>
<path d="M122.335 177.76H112.746V186.755H122.335V177.76Z" stroke="#BDD0FB" stroke-miterlimit="10"/>
<path d="M136.402 177.76H126.812V186.755H136.402V177.76Z" stroke="#BDD0FB" stroke-miterlimit="10"/>
<path d="M150.474 177.76H140.885V186.755H150.474V177.76Z" stroke="#BDD0FB" stroke-miterlimit="10"/>
<path d="M108.269 192.018H98.6797V201.013H108.269V192.018Z" stroke="#BDD0FB" stroke-miterlimit="10"/>
<path d="M122.335 192.018H112.746V201.013H122.335V192.018Z" stroke="#BDD0FB" stroke-miterlimit="10"/>
<path d="M136.402 192.018H126.812V201.013H136.402V192.018Z" stroke="#BDD0FB" stroke-miterlimit="10"/>
<path d="M150.474 192.018H140.885V201.013H150.474V192.018Z" stroke="#BDD0FB" stroke-miterlimit="10"/>
<path d="M108.269 206.273H98.6797V215.269H108.269V206.273Z" stroke="#BDD0FB" stroke-miterlimit="10"/>
<path d="M122.335 206.273H112.746V215.269H122.335V206.273Z" stroke="#BDD0FB" stroke-miterlimit="10"/>
<path d="M136.402 206.273H126.812V215.269H136.402V206.273Z" stroke="#BDD0FB" stroke-miterlimit="10"/>
<path d="M150.474 206.273H140.885V215.269H150.474V206.273Z" stroke="#BDD0FB" stroke-miterlimit="10"/>
<path d="M108.269 220.531H98.6797V229.527H108.269V220.531Z" stroke="#BDD0FB" stroke-miterlimit="10"/>
<path d="M122.335 220.531H112.746V229.527H122.335V220.531Z" stroke="#BDD0FB" stroke-miterlimit="10"/>
<path d="M136.402 220.531H126.812V229.527H136.402V220.531Z" stroke="#BDD0FB" stroke-miterlimit="10"/>
<path d="M150.474 220.531H140.885V229.527H150.474V220.531Z" stroke="#BDD0FB" stroke-miterlimit="10"/>
<path d="M108.269 234.787H98.6797V243.782H108.269V234.787Z" stroke="#BDD0FB" stroke-miterlimit="10"/>
<path d="M122.335 234.787H112.746V243.782H122.335V234.787Z" stroke="#BDD0FB" stroke-miterlimit="10"/>
<path d="M136.402 234.787H126.812V243.782H136.402V234.787Z" stroke="#BDD0FB" stroke-miterlimit="10"/>
<path d="M150.474 234.787H140.885V243.782H150.474V234.787Z" stroke="#BDD0FB" stroke-miterlimit="10"/>
<path d="M108.269 247.828H98.6797V256.823H108.269V247.828Z" stroke="#BDD0FB" stroke-miterlimit="10"/>
<path d="M122.335 247.828H112.746V256.823H122.335V247.828Z" stroke="#BDD0FB" stroke-miterlimit="10"/>
<path d="M136.402 247.828H126.812V256.823H136.402V247.828Z" stroke="#BDD0FB" stroke-miterlimit="10"/>
<path d="M150.474 247.828H140.885V256.823H150.474V247.828Z" stroke="#BDD0FB" stroke-miterlimit="10"/>
<path d="M108.269 262.084H98.6797V271.079H108.269V262.084Z" stroke="#BDD0FB" stroke-miterlimit="10"/>
<path d="M122.335 262.084H112.746V271.079H122.335V262.084Z" stroke="#BDD0FB" stroke-miterlimit="10"/>
<path d="M136.402 262.084H126.812V271.079H136.402V262.084Z" stroke="#BDD0FB" stroke-miterlimit="10"/>
<path d="M150.474 262.084H140.885V271.079H150.474V262.084Z" stroke="#BDD0FB" stroke-miterlimit="10"/>
<path d="M108.269 276.342H98.6797V285.337H108.269V276.342Z" stroke="#BDD0FB" stroke-miterlimit="10"/>
<path d="M122.335 276.342H112.746V285.337H122.335V276.342Z" stroke="#BDD0FB" stroke-miterlimit="10"/>
<path d="M136.402 276.342H126.812V285.337H136.402V276.342Z" stroke="#BDD0FB" stroke-miterlimit="10"/>
<path d="M150.474 276.342H140.885V285.337H150.474V276.342Z" stroke="#BDD0FB" stroke-miterlimit="10"/>
<path d="M108.269 290.598H98.6797V299.593H108.269V290.598Z" stroke="#BDD0FB" stroke-miterlimit="10"/>
<path d="M122.335 290.598H112.746V299.593H122.335V290.598Z" stroke="#BDD0FB" stroke-miterlimit="10"/>
<path d="M136.402 290.598H126.812V299.593H136.402V290.598Z" stroke="#BDD0FB" stroke-miterlimit="10"/>
<path d="M150.474 290.598H140.885V299.593H150.474V290.598Z" stroke="#BDD0FB" stroke-miterlimit="10"/>
<path d="M108.269 304.848H98.6797V313.843H108.269V304.848Z" stroke="#BDD0FB" stroke-miterlimit="10"/>
<path d="M122.335 304.848H112.746V313.843H122.335V304.848Z" stroke="#BDD0FB" stroke-miterlimit="10"/>
<path d="M136.402 304.848H126.812V313.843H136.402V304.848Z" stroke="#BDD0FB" stroke-miterlimit="10"/>
<path d="M150.474 304.848H140.885V313.843H150.474V304.848Z" stroke="#BDD0FB" stroke-miterlimit="10"/>
<path d="M108.269 319.105H98.6797V328.101H108.269V319.105Z" stroke="#BDD0FB" stroke-miterlimit="10"/>
<path d="M122.335 319.105H112.746V328.101H122.335V319.105Z" stroke="#BDD0FB" stroke-miterlimit="10"/>
<path d="M136.402 319.105H126.812V328.101H136.402V319.105Z" stroke="#BDD0FB" stroke-miterlimit="10"/>
<path d="M150.474 319.105H140.885V328.101H150.474V319.105Z" stroke="#BDD0FB" stroke-miterlimit="10"/>
<path d="M108.269 333.361H98.6797V342.357H108.269V333.361Z" stroke="#BDD0FB" stroke-miterlimit="10"/>
<path d="M122.335 333.361H112.746V342.357H122.335V333.361Z" stroke="#BDD0FB" stroke-miterlimit="10"/>
<path d="M136.402 333.361H126.812V342.357H136.402V333.361Z" stroke="#BDD0FB" stroke-miterlimit="10"/>
<path d="M150.474 333.361H140.885V342.357H150.474V333.361Z" stroke="#BDD0FB" stroke-miterlimit="10"/>
<path d="M108.269 347.617H98.6797V356.613H108.269V347.617Z" stroke="#BDD0FB" stroke-miterlimit="10"/>
<path d="M122.335 347.617H112.746V356.613H122.335V347.617Z" stroke="#BDD0FB" stroke-miterlimit="10"/>
<path d="M136.402 347.617H126.812V356.613H136.402V347.617Z" stroke="#BDD0FB" stroke-miterlimit="10"/>
<path d="M150.474 347.617H140.885V356.613H150.474V347.617Z" stroke="#BDD0FB" stroke-miterlimit="10"/>
<path d="M163.21 247.828H153.621V256.823H163.21V247.828Z" stroke="#BDD0FB" stroke-miterlimit="10"/>
<path d="M177.285 247.828H167.695V256.823H177.285V247.828Z" stroke="#BDD0FB" stroke-miterlimit="10"/>
<path d="M191.349 247.828H181.76V256.823H191.349V247.828Z" stroke="#BDD0FB" stroke-miterlimit="10"/>
<path d="M205.416 247.828H195.826V256.823H205.416V247.828Z" stroke="#BDD0FB" stroke-miterlimit="10"/>
<path d="M163.21 262.084H153.621V271.079H163.21V262.084Z" stroke="#BDD0FB" stroke-miterlimit="10"/>
<path d="M177.285 262.084H167.695V271.079H177.285V262.084Z" stroke="#BDD0FB" stroke-miterlimit="10"/>
<path d="M191.349 262.084H181.76V271.079H191.349V262.084Z" stroke="#BDD0FB" stroke-miterlimit="10"/>
<path d="M205.416 262.084H195.826V271.079H205.416V262.084Z" stroke="#BDD0FB" stroke-miterlimit="10"/>
<path d="M163.21 276.342H153.621V285.337H163.21V276.342Z" stroke="#BDD0FB" stroke-miterlimit="10"/>
<path d="M177.285 276.342H167.695V285.337H177.285V276.342Z" stroke="#BDD0FB" stroke-miterlimit="10"/>
<path d="M191.349 276.342H181.76V285.337H191.349V276.342Z" stroke="#BDD0FB" stroke-miterlimit="10"/>
<path d="M205.416 276.342H195.826V285.337H205.416V276.342Z" stroke="#BDD0FB" stroke-miterlimit="10"/>
<path d="M163.21 290.598H153.621V299.593H163.21V290.598Z" stroke="#BDD0FB" stroke-miterlimit="10"/>
<path d="M177.285 290.598H167.695V299.593H177.285V290.598Z" stroke="#BDD0FB" stroke-miterlimit="10"/>
<path d="M191.349 290.598H181.76V299.593H191.349V290.598Z" stroke="#BDD0FB" stroke-miterlimit="10"/>
<path d="M205.416 290.598H195.826V299.593H205.416V290.598Z" stroke="#BDD0FB" stroke-miterlimit="10"/>
<path d="M163.21 304.848H153.621V313.843H163.21V304.848Z" stroke="#BDD0FB" stroke-miterlimit="10"/>
<path d="M177.285 304.848H167.695V313.843H177.285V304.848Z" stroke="#BDD0FB" stroke-miterlimit="10"/>
<path d="M191.349 304.848H181.76V313.843H191.349V304.848Z" stroke="#BDD0FB" stroke-miterlimit="10"/>
<path d="M205.416 304.848H195.826V313.843H205.416V304.848Z" stroke="#BDD0FB" stroke-miterlimit="10"/>
<path d="M163.21 319.105H153.621V328.101H163.21V319.105Z" stroke="#BDD0FB" stroke-miterlimit="10"/>
<path d="M177.285 319.105H167.695V328.101H177.285V319.105Z" stroke="#BDD0FB" stroke-miterlimit="10"/>
<path d="M191.349 319.105H181.76V328.101H191.349V319.105Z" stroke="#BDD0FB" stroke-miterlimit="10"/>
<path d="M205.416 319.105H195.826V328.101H205.416V319.105Z" stroke="#BDD0FB" stroke-miterlimit="10"/>
<path d="M163.21 333.361H153.621V342.357H163.21V333.361Z" stroke="#BDD0FB" stroke-miterlimit="10"/>
<path d="M177.285 333.361H167.695V342.357H177.285V333.361Z" stroke="#BDD0FB" stroke-miterlimit="10"/>
<path d="M191.349 333.361H181.76V342.357H191.349V333.361Z" stroke="#BDD0FB" stroke-miterlimit="10"/>
<path d="M205.416 333.361H195.826V342.357H205.416V333.361Z" stroke="#BDD0FB" stroke-miterlimit="10"/>
<path d="M163.21 347.617H153.621V356.613H163.21V347.617Z" stroke="#BDD0FB" stroke-miterlimit="10"/>
<path d="M177.285 347.617H167.695V356.613H177.285V347.617Z" stroke="#BDD0FB" stroke-miterlimit="10"/>
<path d="M191.349 347.617H181.76V356.613H191.349V347.617Z" stroke="#BDD0FB" stroke-miterlimit="10"/>
<path d="M205.416 347.617H195.826V356.613H205.416V347.617Z" stroke="#BDD0FB" stroke-miterlimit="10"/>
<path d="M80.6812 247.828H71.0918V256.823H80.6812V247.828Z" stroke="#BDD0FB" stroke-miterlimit="10"/>
<path d="M94.7554 247.828H85.166V256.823H94.7554V247.828Z" stroke="#BDD0FB" stroke-miterlimit="10"/>
<path d="M80.6812 262.084H71.0918V271.079H80.6812V262.084Z" stroke="#BDD0FB" stroke-miterlimit="10"/>
<path d="M94.7554 262.084H85.166V271.079H94.7554V262.084Z" stroke="#BDD0FB" stroke-miterlimit="10"/>
<path d="M80.6812 276.342H71.0918V285.337H80.6812V276.342Z" stroke="#BDD0FB" stroke-miterlimit="10"/>
<path d="M94.7554 276.342H85.166V285.337H94.7554V276.342Z" stroke="#BDD0FB" stroke-miterlimit="10"/>
<path d="M80.6812 290.598H71.0918V299.593H80.6812V290.598Z" stroke="#BDD0FB" stroke-miterlimit="10"/>
<path d="M94.7554 290.598H85.166V299.593H94.7554V290.598Z" stroke="#BDD0FB" stroke-miterlimit="10"/>
<path d="M80.6812 304.848H71.0918V313.843H80.6812V304.848Z" stroke="#BDD0FB" stroke-miterlimit="10"/>
<path d="M94.7554 304.848H85.166V313.843H94.7554V304.848Z" stroke="#BDD0FB" stroke-miterlimit="10"/>
<path d="M80.6812 319.105H71.0918V328.101H80.6812V319.105Z" stroke="#BDD0FB" stroke-miterlimit="10"/>
<path d="M94.7554 319.105H85.166V328.101H94.7554V319.105Z" stroke="#BDD0FB" stroke-miterlimit="10"/>
<path d="M80.6812 333.361H71.0918V342.357H80.6812V333.361Z" stroke="#BDD0FB" stroke-miterlimit="10"/>
<path d="M94.7554 333.361H85.166V342.357H94.7554V333.361Z" stroke="#BDD0FB" stroke-miterlimit="10"/>
<path d="M80.6812 347.617H71.0918V356.613H80.6812V347.617Z" stroke="#BDD0FB" stroke-miterlimit="10"/>
<path d="M94.7554 347.617H85.166V356.613H94.7554V347.617Z" stroke="#BDD0FB" stroke-miterlimit="10"/>
<path d="M366.794 219.881H357.205V228.876H366.794V219.881Z" stroke="#BDD0FB" stroke-miterlimit="10"/>
<path d="M380.867 219.881H371.277V228.876H380.867V219.881Z" stroke="#BDD0FB" stroke-miterlimit="10"/>
<path d="M394.933 219.881H385.344V228.876H394.933V219.881Z" stroke="#BDD0FB" stroke-miterlimit="10"/>
<path d="M408.998 219.881H399.408V228.876H408.998V219.881Z" stroke="#BDD0FB" stroke-miterlimit="10"/>
<path d="M366.794 234.137H357.205V243.132H366.794V234.137Z" stroke="#BDD0FB" stroke-miterlimit="10"/>
<path d="M380.867 234.137H371.277V243.132H380.867V234.137Z" stroke="#BDD0FB" stroke-miterlimit="10"/>
<path d="M394.933 234.137H385.344V243.132H394.933V234.137Z" stroke="#BDD0FB" stroke-miterlimit="10"/>
<path d="M408.998 234.137H399.408V243.132H408.998V234.137Z" stroke="#BDD0FB" stroke-miterlimit="10"/>
<path d="M366.794 248.395H357.205V257.39H366.794V248.395Z" stroke="#BDD0FB" stroke-miterlimit="10"/>
<path d="M380.867 248.395H371.277V257.39H380.867V248.395Z" stroke="#BDD0FB" stroke-miterlimit="10"/>
<path d="M394.933 248.395H385.344V257.39H394.933V248.395Z" stroke="#BDD0FB" stroke-miterlimit="10"/>
<path d="M408.998 248.395H399.408V257.39H408.998V248.395Z" stroke="#BDD0FB" stroke-miterlimit="10"/>
<path d="M366.794 262.65H357.205V271.646H366.794V262.65Z" stroke="#BDD0FB" stroke-miterlimit="10"/>
<path d="M380.867 262.65H371.277V271.646H380.867V262.65Z" stroke="#BDD0FB" stroke-miterlimit="10"/>
<path d="M394.933 262.65H385.344V271.646H394.933V262.65Z" stroke="#BDD0FB" stroke-miterlimit="10"/>
<path d="M408.998 262.65H399.408V271.646H408.998V262.65Z" stroke="#BDD0FB" stroke-miterlimit="10"/>
<path d="M366.794 276.908H357.205V285.904H366.794V276.908Z" stroke="#BDD0FB" stroke-miterlimit="10"/>
<path d="M380.867 276.908H371.277V285.904H380.867V276.908Z" stroke="#BDD0FB" stroke-miterlimit="10"/>
<path d="M394.933 276.908H385.344V285.904H394.933V276.908Z" stroke="#BDD0FB" stroke-miterlimit="10"/>
<path d="M408.998 276.908H399.408V285.904H408.998V276.908Z" stroke="#BDD0FB" stroke-miterlimit="10"/>
<path d="M366.794 291.164H357.205V300.159H366.794V291.164Z" stroke="#BDD0FB" stroke-miterlimit="10"/>
<path d="M380.867 291.164H371.277V300.159H380.867V291.164Z" stroke="#BDD0FB" stroke-miterlimit="10"/>
<path d="M394.933 291.164H385.344V300.159H394.933V291.164Z" stroke="#BDD0FB" stroke-miterlimit="10"/>
<path d="M408.998 291.164H399.408V300.159H408.998V291.164Z" stroke="#BDD0FB" stroke-miterlimit="10"/>
<path d="M366.794 305.42H357.205V314.415H366.794V305.42Z" stroke="#BDD0FB" stroke-miterlimit="10"/>
<path d="M380.867 305.42H371.277V314.415H380.867V305.42Z" stroke="#BDD0FB" stroke-miterlimit="10"/>
<path d="M394.933 305.42H385.344V314.415H394.933V305.42Z" stroke="#BDD0FB" stroke-miterlimit="10"/>
<path d="M408.998 305.42H399.408V314.415H408.998V305.42Z" stroke="#BDD0FB" stroke-miterlimit="10"/>
<path d="M366.794 319.678H357.205V328.673H366.794V319.678Z" stroke="#BDD0FB" stroke-miterlimit="10"/>
<path d="M380.867 319.678H371.277V328.673H380.867V319.678Z" stroke="#BDD0FB" stroke-miterlimit="10"/>
<path d="M394.933 319.678H385.344V328.673H394.933V319.678Z" stroke="#BDD0FB" stroke-miterlimit="10"/>
<path d="M408.998 319.678H399.408V328.673H408.998V319.678Z" stroke="#BDD0FB" stroke-miterlimit="10"/>
<path d="M249.918 105.189V365.68" stroke="#BDD0FB" stroke-miterlimit="10"/>
<path d="M259.43 105.189V365.68" stroke="#BDD0FB" stroke-miterlimit="10"/>
<path d="M268.941 105.189V365.68" stroke="#BDD0FB" stroke-miterlimit="10"/>
<path d="M278.461 105.189V365.68" stroke="#BDD0FB" stroke-miterlimit="10"/>
<path d="M287.973 105.189V365.68" stroke="#BDD0FB" stroke-miterlimit="10"/>
<path d="M297.484 105.189V365.68" stroke="#BDD0FB" stroke-miterlimit="10"/>
<path d="M306.994 105.189V365.68" stroke="#BDD0FB" stroke-miterlimit="10"/>
<path d="M316.514 105.189V365.68" stroke="#BDD0FB" stroke-miterlimit="10"/>
<path d="M219.962 361.146H49.3965V369.569H219.962V361.146Z" stroke="#BDD0FB" stroke-miterlimit="10"/>
<path d="M477.816 361.146H324.654V369.569H477.816V361.146Z" stroke="#BDD0FB" stroke-miterlimit="10"/>
<path d="M301.974 296.432L275.002 332.392" stroke="#3E3032" stroke-width="3" stroke-miterlimit="10" stroke-linecap="round"/>
<path d="M311.167 236.533H295.793V247.735H311.167V236.533Z" fill="white" stroke="#3E3032" stroke-miterlimit="10"/>
<path d="M307.029 248.293H298.6V330.892H307.029V248.293Z" fill="#3E3032" stroke="#3E3032" stroke-miterlimit="10"/>
<path d="M104.184 333.143L103.653 336.891H89.2056V354.118L51.7462 345.879V336.141H31.5137L30.7641 338.39V348.128H22.5254V358.615H42.0012V354.867L104.184 367.604V348.877H116.178V360.864H169.365V372.101H184.35L188.848 362.363H217.312H319.203V333.143H104.184Z" fill="#3E3032" stroke="#3E3032" stroke-miterlimit="10"/>
<path d="M384.799 254.475L408.73 302.797H393.561L374.453 252.792L384.007 252.227L384.799 254.475Z" fill="#3E3032" stroke="#3E3032" stroke-miterlimit="10"/>
<path d="M450.934 315.377L399.175 298.306L380.081 254.46H384.805C385.173 254.46 385.533 254.362 385.85 254.176C386.166 253.99 386.427 253.722 386.605 253.401C386.783 253.08 386.873 252.717 386.863 252.35C386.854 251.983 386.746 251.625 386.552 251.313L383.165 245.882C382.981 245.584 382.724 245.338 382.418 245.168C382.112 244.997 381.768 244.907 381.418 244.906H315.459V382.588H382.882L385.003 364.378C385.571 359.431 387.344 354.699 390.168 350.598C392.992 346.497 396.779 343.152 401.198 340.857C405.75 338.491 410.827 337.315 415.956 337.438C421.085 337.562 426.099 338.981 430.532 341.564L433.686 343.403C439.726 346.923 444.369 352.418 446.832 358.961L449.767 366.853H459.321V326.954C459.322 325.352 459.007 323.767 458.394 322.287C457.782 320.808 456.883 319.464 455.75 318.333C454.4 316.982 452.75 315.969 450.934 315.377Z" fill="white" stroke="#3E3032" stroke-miterlimit="10"/>
<path d="M352.785 338.734C365.959 338.734 376.638 331.579 376.638 322.752C376.638 313.925 365.959 306.77 352.785 306.77C339.611 306.77 328.932 313.925 328.932 322.752C328.932 331.579 339.611 338.734 352.785 338.734Z" fill="#FF8C8D"/>
<path d="M360.183 254.475H325.241C323.874 254.475 322.766 255.583 322.766 256.95V296.064C322.766 297.431 323.874 298.539 325.241 298.539H360.183C361.55 298.539 362.658 297.431 362.658 296.064V256.95C362.658 255.583 361.55 254.475 360.183 254.475Z" fill="#3E3032" stroke="#3E3032" stroke-miterlimit="10"/>
<path d="M367.734 254.949V301.482C367.759 301.828 367.853 302.166 368.008 302.476C368.164 302.786 368.38 303.062 368.642 303.289C368.905 303.515 369.21 303.688 369.54 303.797C369.869 303.905 370.217 303.948 370.563 303.922H387.535C389.431 303.922 390.774 302.316 390.202 300.739L373.307 254.949H367.734Z" fill="#3E3032" stroke="#3E3032" stroke-miterlimit="10"/>
<path d="M459.3 353.934H444.689L450.312 370.227H460.99L459.3 353.934Z" fill="white" stroke="#3E3032" stroke-miterlimit="10"/>
<path d="M422.467 401.412C438.207 397.625 447.896 381.795 444.108 366.055C440.321 350.315 424.491 340.626 408.751 344.414C393.011 348.201 383.322 364.031 387.11 379.771C390.897 395.51 406.727 405.2 422.467 401.412Z" fill="#3E3032" stroke="#3E3032" stroke-miterlimit="10"/>
<path d="M418.895 386.792C426.543 384.97 431.266 377.292 429.444 369.644C427.622 361.996 419.945 357.273 412.297 359.095C404.649 360.917 399.926 368.595 401.748 376.243C403.57 383.891 411.247 388.614 418.895 386.792Z" fill="white" stroke="#3E3032" stroke-miterlimit="10"/>
<path d="M152.183 401.39C167.899 397.504 177.489 381.613 173.602 365.898C169.716 350.182 153.825 340.593 138.11 344.479C122.394 348.365 112.805 364.256 116.691 379.971C120.577 395.687 136.468 405.276 152.183 401.39Z" fill="#3E3032" stroke="#3E3032" stroke-miterlimit="10"/>
<path d="M148.44 386.792C156.088 384.97 160.811 377.292 158.989 369.644C157.167 361.996 149.49 357.273 141.842 359.095C134.194 360.917 129.471 368.595 131.293 376.243C133.115 383.891 140.792 388.614 148.44 386.792Z" fill="white" stroke="#3E3032" stroke-miterlimit="10"/>
<path d="M373.328 351.119H317.701V377.525H373.328V351.119Z" fill="#3E3032" stroke="#3E3032" stroke-miterlimit="10"/>
<path d="M334.123 352.369V375.133" stroke="#787878" stroke-miterlimit="10"/>
<path d="M356.299 352.369V375.133" stroke="#787878" stroke-miterlimit="10"/>
<path d="M380.91 270.209H371.377C370.596 270.209 369.963 270.842 369.963 271.623V306.438C369.963 307.219 370.596 307.852 371.377 307.852H380.91C381.691 307.852 382.324 307.219 382.324 306.438V271.623C382.324 270.842 381.691 270.209 380.91 270.209Z" fill="white" stroke="#3E3032" stroke-miterlimit="10"/>
<path d="M14.2852 338.388H316.21V328.643H3.04102L14.2852 338.388Z" fill="white" stroke="#3E3032" stroke-miterlimit="10"/>
<path d="M395.046 331.699C393.321 332.996 391.69 334.414 390.166 335.942" stroke="#3E3032" stroke-miterlimit="10"/>
<path d="M458.961 341.422C452.42 332.384 442.777 326.073 431.876 323.696C420.974 321.319 409.58 323.042 399.869 328.537" stroke="#3E3032" stroke-miterlimit="10"/>
<path d="M304.782 346.629H255.336V372.476H304.782V346.629Z" fill="white" stroke="#3E3032" stroke-miterlimit="10"/>
<path d="M314.321 237.057C314.091 236.544 313.729 236.101 313.272 235.773C312.815 235.446 312.279 235.245 311.719 235.192C311.159 235.139 310.595 235.235 310.085 235.471C309.574 235.706 309.135 236.073 308.812 236.533L308.536 236.929C308.303 237.261 308.177 237.656 308.176 238.061V325.094H314.498V237.863C314.496 237.585 314.436 237.31 314.321 237.057Z" fill="white" stroke="#3E3032" stroke-miterlimit="10"/>
<path d="M315.828 252.975H306.84V351.867H315.828V252.975Z" fill="white" stroke="#3E3032" stroke-miterlimit="10"/>
<path d="M313.508 240.65C313.508 242.927 312.462 244.773 311.16 244.773C309.859 244.773 308.812 242.927 308.812 240.65C308.812 238.373 309.866 236.562 311.16 236.562C312.454 236.562 313.508 238.38 313.508 240.65Z" fill="#3E3032" stroke="#3E3032" stroke-miterlimit="10"/>
<path d="M398.617 303.17V326.394" stroke="#3E3032" stroke-miterlimit="10"/>
<path d="M329.384 318.906H325.502C323.678 318.906 322.199 320.385 322.199 322.209V336.579C322.199 338.403 323.678 339.881 325.502 339.881H329.384C331.208 339.881 332.687 338.403 332.687 336.579V322.209C332.687 320.385 331.208 318.906 329.384 318.906Z" fill="#3E3032" stroke="#3E3032" stroke-miterlimit="10"/>
<path d="M141.09 132.352H131.26V141.029H141.09V132.352Z" stroke="#BDD0FB" stroke-miterlimit="10"/>
<path d="M124.619 137.6H120.631V141.022H124.619V137.6Z" stroke="#BDD0FB" stroke-miterlimit="10"/>
<path d="M524.539 187.138H487.278V118.286H489.767V111.158H402.451V118.286H405.478V220.686H382.572V1H304.047V167.131H275.342V148.745H282.859V140.966H220.069V29.5136H224.135V23.6793H147.922V29.5136H153.388V141.157H93.1577V221.005H61.5254" stroke="#BDD0FB" stroke-miterlimit="10"/>
<path d="M169.794 35.9922H160.205V44.9875H169.794V35.9922Z" stroke="#BDD0FB" stroke-miterlimit="10"/>
<path d="M183.861 35.9922H174.271V44.9875H183.861V35.9922Z" stroke="#BDD0FB" stroke-miterlimit="10"/>
<path d="M197.927 35.9922H188.338V44.9875H197.927V35.9922Z" stroke="#BDD0FB" stroke-miterlimit="10"/>
<path d="M212 35.9922H202.41V44.9875H212V35.9922Z" stroke="#BDD0FB" stroke-miterlimit="10"/>
<path d="M169.794 50.248H160.205V59.2434H169.794V50.248Z" stroke="#BDD0FB" stroke-miterlimit="10"/>
<path d="M183.861 50.248H174.271V59.2434H183.861V50.248Z" stroke="#BDD0FB" stroke-miterlimit="10"/>
<path d="M197.927 50.248H188.338V59.2434H197.927V50.248Z" stroke="#BDD0FB" stroke-miterlimit="10"/>
<path d="M212 50.248H202.41V59.2434H212V50.248Z" stroke="#BDD0FB" stroke-miterlimit="10"/>
<path d="M169.794 64.5039H160.205V73.4993H169.794V64.5039Z" stroke="#BDD0FB" stroke-miterlimit="10"/>
<path d="M183.861 64.5039H174.271V73.4993H183.861V64.5039Z" stroke="#BDD0FB" stroke-miterlimit="10"/>
<path d="M197.927 64.5039H188.338V73.4993H197.927V64.5039Z" stroke="#BDD0FB" stroke-miterlimit="10"/>
<path d="M212 64.5039H202.41V73.4993H212V64.5039Z" stroke="#BDD0FB" stroke-miterlimit="10"/>
<path d="M169.794 78.7539H160.205V87.7493H169.794V78.7539Z" stroke="#BDD0FB" stroke-miterlimit="10"/>
<path d="M183.861 78.7539H174.271V87.7493H183.861V78.7539Z" stroke="#BDD0FB" stroke-miterlimit="10"/>
<path d="M197.927 78.7539H188.338V87.7493H197.927V78.7539Z" stroke="#BDD0FB" stroke-miterlimit="10"/>
<path d="M212 78.7539H202.41V87.7493H212V78.7539Z" stroke="#BDD0FB" stroke-miterlimit="10"/>
<path d="M169.794 93.0117H160.205V102.007H169.794V93.0117Z" stroke="#BDD0FB" stroke-miterlimit="10"/>
<path d="M183.861 93.0117H174.271V102.007H183.861V93.0117Z" stroke="#BDD0FB" stroke-miterlimit="10"/>
<path d="M197.927 93.0117H188.338V102.007H197.927V93.0117Z" stroke="#BDD0FB" stroke-miterlimit="10"/>
<path d="M212 93.0117H202.41V102.007H212V93.0117Z" stroke="#BDD0FB" stroke-miterlimit="10"/>
<path d="M169.794 107.268H160.205V116.263H169.794V107.268Z" stroke="#BDD0FB" stroke-miterlimit="10"/>
<path d="M183.861 107.268H174.271V116.263H183.861V107.268Z" stroke="#BDD0FB" stroke-miterlimit="10"/>
<path d="M197.927 107.268H188.338V116.263H197.927V107.268Z" stroke="#BDD0FB" stroke-miterlimit="10"/>
<path d="M212 107.268H202.41V116.263H212V107.268Z" stroke="#BDD0FB" stroke-miterlimit="10"/>
<path d="M169.794 121.525H160.205V130.521H169.794V121.525Z" stroke="#BDD0FB" stroke-miterlimit="10"/>
<path d="M183.861 121.525H174.271V130.521H183.861V121.525Z" stroke="#BDD0FB" stroke-miterlimit="10"/>
<path d="M197.927 121.525H188.338V130.521H197.927V121.525Z" stroke="#BDD0FB" stroke-miterlimit="10"/>
<path d="M212 121.525H202.41V130.521H212V121.525Z" stroke="#BDD0FB" stroke-miterlimit="10"/>
<path d="M169.794 135.781H160.205V144.777H169.794V135.781Z" stroke="#BDD0FB" stroke-miterlimit="10"/>
<path d="M183.861 135.781H174.271V144.777H183.861V135.781Z" stroke="#BDD0FB" stroke-miterlimit="10"/>
<path d="M197.927 135.781H188.338V144.777H197.927V135.781Z" stroke="#BDD0FB" stroke-miterlimit="10"/>
<path d="M212 135.781H202.41V144.777H212V135.781Z" stroke="#BDD0FB" stroke-miterlimit="10"/>
<path d="M169.794 148.822H160.205V157.818H169.794V148.822Z" stroke="#BDD0FB" stroke-miterlimit="10"/>
<path d="M183.861 148.822H174.271V157.818H183.861V148.822Z" stroke="#BDD0FB" stroke-miterlimit="10"/>
<path d="M197.927 148.822H188.338V157.818H197.927V148.822Z" stroke="#BDD0FB" stroke-miterlimit="10"/>
<path d="M212 148.822H202.41V157.818H212V148.822Z" stroke="#BDD0FB" stroke-miterlimit="10"/>
<path d="M169.794 163.078H160.205V172.073H169.794V163.078Z" stroke="#BDD0FB" stroke-miterlimit="10"/>
<path d="M183.861 163.078H174.271V172.073H183.861V163.078Z" stroke="#BDD0FB" stroke-miterlimit="10"/>
<path d="M197.927 163.078H188.338V172.073H197.927V163.078Z" stroke="#BDD0FB" stroke-miterlimit="10"/>
<path d="M212 163.078H202.41V172.073H212V163.078Z" stroke="#BDD0FB" stroke-miterlimit="10"/>
<path d="M169.794 177.336H160.205V186.331H169.794V177.336Z" stroke="#BDD0FB" stroke-miterlimit="10"/>
<path d="M183.861 177.336H174.271V186.331H183.861V177.336Z" stroke="#BDD0FB" stroke-miterlimit="10"/>
<path d="M197.927 177.336H188.338V186.331H197.927V177.336Z" stroke="#BDD0FB" stroke-miterlimit="10"/>
<path d="M212 177.336H202.41V186.331H212V177.336Z" stroke="#BDD0FB" stroke-miterlimit="10"/>
<path d="M169.794 191.592H160.205V200.587H169.794V191.592Z" stroke="#BDD0FB" stroke-miterlimit="10"/>
<path d="M183.861 191.592H174.271V200.587H183.861V191.592Z" stroke="#BDD0FB" stroke-miterlimit="10"/>
<path d="M197.927 191.592H188.338V200.587H197.927V191.592Z" stroke="#BDD0FB" stroke-miterlimit="10"/>
<path d="M212 191.592H202.41V200.587H212V191.592Z" stroke="#BDD0FB" stroke-miterlimit="10"/>
<path d="M169.794 205.842H160.205V214.837H169.794V205.842Z" stroke="#BDD0FB" stroke-miterlimit="10"/>
<path d="M183.861 205.842H174.271V214.837H183.861V205.842Z" stroke="#BDD0FB" stroke-miterlimit="10"/>
<path d="M197.927 205.842H188.338V214.837H197.927V205.842Z" stroke="#BDD0FB" stroke-miterlimit="10"/>
<path d="M212 205.842H202.41V214.837H212V205.842Z" stroke="#BDD0FB" stroke-miterlimit="10"/>
<path d="M169.794 220.1H160.205V229.095H169.794V220.1Z" stroke="#BDD0FB" stroke-miterlimit="10"/>
<path d="M183.861 220.1H174.271V229.095H183.861V220.1Z" stroke="#BDD0FB" stroke-miterlimit="10"/>
<path d="M197.927 220.1H188.338V229.095H197.927V220.1Z" stroke="#BDD0FB" stroke-miterlimit="10"/>
<path d="M212 220.1H202.41V229.095H212V220.1Z" stroke="#BDD0FB" stroke-miterlimit="10"/>
<path d="M169.794 234.357H160.205V243.353H169.794V234.357Z" stroke="#BDD0FB" stroke-miterlimit="10"/>
<path d="M183.861 234.357H174.271V243.353H183.861V234.357Z" stroke="#BDD0FB" stroke-miterlimit="10"/>
<path d="M197.927 234.357H188.338V243.353H197.927V234.357Z" stroke="#BDD0FB" stroke-miterlimit="10"/>
<path d="M212 234.357H202.41V243.353H212V234.357Z" stroke="#BDD0FB" stroke-miterlimit="10"/>
<path d="M169.794 248.611H160.205V257.607H169.794V248.611Z" stroke="#BDD0FB" stroke-miterlimit="10"/>
<path d="M183.861 248.611H174.271V257.607H183.861V248.611Z" stroke="#BDD0FB" stroke-miterlimit="10"/>
<path d="M197.927 248.611H188.338V257.607H197.927V248.611Z" stroke="#BDD0FB" stroke-miterlimit="10"/>
<path d="M212 248.611H202.41V257.607H212V248.611Z" stroke="#BDD0FB" stroke-miterlimit="10"/>
<path d="M224.736 148.822H215.146V157.818H224.736V148.822Z" stroke="#BDD0FB" stroke-miterlimit="10"/>
<path d="M238.808 148.822H229.219V157.818H238.808V148.822Z" stroke="#BDD0FB" stroke-miterlimit="10"/>
<path d="M252.875 148.822H243.285V157.818H252.875V148.822Z" stroke="#BDD0FB" stroke-miterlimit="10"/>
<path d="M266.941 148.822H257.352V157.818H266.941V148.822Z" stroke="#BDD0FB" stroke-miterlimit="10"/>
<path d="M224.736 163.078H215.146V172.073H224.736V163.078Z" stroke="#BDD0FB" stroke-miterlimit="10"/>
<path d="M238.808 163.078H229.219V172.073H238.808V163.078Z" stroke="#BDD0FB" stroke-miterlimit="10"/>
<path d="M252.875 163.078H243.285V172.073H252.875V163.078Z" stroke="#BDD0FB" stroke-miterlimit="10"/>
<path d="M266.941 163.078H257.352V172.073H266.941V163.078Z" stroke="#BDD0FB" stroke-miterlimit="10"/>
<path d="M224.736 177.336H215.146V186.331H224.736V177.336Z" stroke="#BDD0FB" stroke-miterlimit="10"/>
<path d="M238.808 177.336H229.219V186.331H238.808V177.336Z" stroke="#BDD0FB" stroke-miterlimit="10"/>
<path d="M252.875 177.336H243.285V186.331H252.875V177.336Z" stroke="#BDD0FB" stroke-miterlimit="10"/>
<path d="M266.941 177.336H257.352V186.331H266.941V177.336Z" stroke="#BDD0FB" stroke-miterlimit="10"/>
<path d="M224.736 191.592H215.146V200.587H224.736V191.592Z" stroke="#BDD0FB" stroke-miterlimit="10"/>
<path d="M238.808 191.592H229.219V200.587H238.808V191.592Z" stroke="#BDD0FB" stroke-miterlimit="10"/>
<path d="M252.875 191.592H243.285V200.587H252.875V191.592Z" stroke="#BDD0FB" stroke-miterlimit="10"/>
<path d="M266.941 191.592H257.352V200.587H266.941V191.592Z" stroke="#BDD0FB" stroke-miterlimit="10"/>
<path d="M224.736 205.842H215.146V214.837H224.736V205.842Z" stroke="#BDD0FB" stroke-miterlimit="10"/>
<path d="M238.808 205.842H229.219V214.837H238.808V205.842Z" stroke="#BDD0FB" stroke-miterlimit="10"/>
<path d="M252.875 205.842H243.285V214.837H252.875V205.842Z" stroke="#BDD0FB" stroke-miterlimit="10"/>
<path d="M266.941 205.842H257.352V214.837H266.941V205.842Z" stroke="#BDD0FB" stroke-miterlimit="10"/>
<path d="M224.736 220.1H215.146V229.095H224.736V220.1Z" stroke="#BDD0FB" stroke-miterlimit="10"/>
<path d="M238.808 220.1H229.219V229.095H238.808V220.1Z" stroke="#BDD0FB" stroke-miterlimit="10"/>
<path d="M252.875 220.1H243.285V229.095H252.875V220.1Z" stroke="#BDD0FB" stroke-miterlimit="10"/>
<path d="M266.941 220.1H257.352V229.095H266.941V220.1Z" stroke="#BDD0FB" stroke-miterlimit="10"/>
<path d="M224.736 234.357H215.146V243.353H224.736V234.357Z" stroke="#BDD0FB" stroke-miterlimit="10"/>
<path d="M238.808 234.357H229.219V243.353H238.808V234.357Z" stroke="#BDD0FB" stroke-miterlimit="10"/>
<path d="M252.875 234.357H243.285V243.353H252.875V234.357Z" stroke="#BDD0FB" stroke-miterlimit="10"/>
<path d="M266.941 234.357H257.352V243.353H266.941V234.357Z" stroke="#BDD0FB" stroke-miterlimit="10"/>
<path d="M224.736 248.611H215.146V257.607H224.736V248.611Z" stroke="#BDD0FB" stroke-miterlimit="10"/>
<path d="M238.808 248.611H229.219V257.607H238.808V248.611Z" stroke="#BDD0FB" stroke-miterlimit="10"/>
<path d="M252.875 248.611H243.285V257.607H252.875V248.611Z" stroke="#BDD0FB" stroke-miterlimit="10"/>
<path d="M266.941 248.611H257.352V257.607H266.941V248.611Z" stroke="#BDD0FB" stroke-miterlimit="10"/>
<path d="M114.076 148.822H104.486V157.818H114.076V148.822Z" stroke="#BDD0FB" stroke-miterlimit="10"/>
<path d="M128.142 148.822H118.553V157.818H128.142V148.822Z" stroke="#BDD0FB" stroke-miterlimit="10"/>
<path d="M142.207 148.822H132.617V157.818H142.207V148.822Z" stroke="#BDD0FB" stroke-miterlimit="10"/>
<path d="M156.281 148.822H146.691V157.818H156.281V148.822Z" stroke="#BDD0FB" stroke-miterlimit="10"/>
<path d="M114.076 163.078H104.486V172.073H114.076V163.078Z" stroke="#BDD0FB" stroke-miterlimit="10"/>
<path d="M128.142 163.078H118.553V172.073H128.142V163.078Z" stroke="#BDD0FB" stroke-miterlimit="10"/>
<path d="M142.207 163.078H132.617V172.073H142.207V163.078Z" stroke="#BDD0FB" stroke-miterlimit="10"/>
<path d="M156.281 163.078H146.691V172.073H156.281V163.078Z" stroke="#BDD0FB" stroke-miterlimit="10"/>
<path d="M114.076 177.336H104.486V186.331H114.076V177.336Z" stroke="#BDD0FB" stroke-miterlimit="10"/>
<path d="M128.142 177.336H118.553V186.331H128.142V177.336Z" stroke="#BDD0FB" stroke-miterlimit="10"/>
<path d="M142.207 177.336H132.617V186.331H142.207V177.336Z" stroke="#BDD0FB" stroke-miterlimit="10"/>
<path d="M156.281 177.336H146.691V186.331H156.281V177.336Z" stroke="#BDD0FB" stroke-miterlimit="10"/>
<path d="M114.076 191.592H104.486V200.587H114.076V191.592Z" stroke="#BDD0FB" stroke-miterlimit="10"/>
<path d="M128.142 191.592H118.553V200.587H128.142V191.592Z" stroke="#BDD0FB" stroke-miterlimit="10"/>
<path d="M142.207 191.592H132.617V200.587H142.207V191.592Z" stroke="#BDD0FB" stroke-miterlimit="10"/>
<path d="M156.281 191.592H146.691V200.587H156.281V191.592Z" stroke="#BDD0FB" stroke-miterlimit="10"/>
<path d="M114.076 205.842H104.486V214.837H114.076V205.842Z" stroke="#BDD0FB" stroke-miterlimit="10"/>
<path d="M128.142 205.842H118.553V214.837H128.142V205.842Z" stroke="#BDD0FB" stroke-miterlimit="10"/>
<path d="M142.207 205.842H132.617V214.837H142.207V205.842Z" stroke="#BDD0FB" stroke-miterlimit="10"/>
<path d="M156.281 205.842H146.691V214.837H156.281V205.842Z" stroke="#BDD0FB" stroke-miterlimit="10"/>
<path d="M114.076 220.1H104.486V229.095H114.076V220.1Z" stroke="#BDD0FB" stroke-miterlimit="10"/>
<path d="M128.142 220.1H118.553V229.095H128.142V220.1Z" stroke="#BDD0FB" stroke-miterlimit="10"/>
<path d="M142.207 220.1H132.617V229.095H142.207V220.1Z" stroke="#BDD0FB" stroke-miterlimit="10"/>
<path d="M156.281 220.1H146.691V229.095H156.281V220.1Z" stroke="#BDD0FB" stroke-miterlimit="10"/>
<path d="M114.076 234.357H104.486V243.353H114.076V234.357Z" stroke="#BDD0FB" stroke-miterlimit="10"/>
<path d="M128.142 234.357H118.553V243.353H128.142V234.357Z" stroke="#BDD0FB" stroke-miterlimit="10"/>
<path d="M142.207 234.357H132.617V243.353H142.207V234.357Z" stroke="#BDD0FB" stroke-miterlimit="10"/>
<path d="M156.281 234.357H146.691V243.353H156.281V234.357Z" stroke="#BDD0FB" stroke-miterlimit="10"/>
<path d="M114.076 248.611H104.486V257.607H114.076V248.611Z" stroke="#BDD0FB" stroke-miterlimit="10"/>
<path d="M128.142 248.611H118.553V257.607H128.142V248.611Z" stroke="#BDD0FB" stroke-miterlimit="10"/>
<path d="M142.207 248.611H132.617V257.607H142.207V248.611Z" stroke="#BDD0FB" stroke-miterlimit="10"/>
<path d="M156.281 248.611H146.691V257.607H156.281V248.611Z" stroke="#BDD0FB" stroke-miterlimit="10"/>
<path d="M428.32 120.875H418.73V129.87H428.32V120.875Z" stroke="#BDD0FB" stroke-miterlimit="10"/>
<path d="M442.392 120.875H432.803V129.87H442.392V120.875Z" stroke="#BDD0FB" stroke-miterlimit="10"/>
<path d="M456.459 120.875H446.869V129.87H456.459V120.875Z" stroke="#BDD0FB" stroke-miterlimit="10"/>
<path d="M470.523 120.875H460.934V129.87H470.523V120.875Z" stroke="#BDD0FB" stroke-miterlimit="10"/>
<path d="M428.32 135.131H418.73V144.126H428.32V135.131Z" stroke="#BDD0FB" stroke-miterlimit="10"/>
<path d="M442.392 135.131H432.803V144.126H442.392V135.131Z" stroke="#BDD0FB" stroke-miterlimit="10"/>
<path d="M456.459 135.131H446.869V144.126H456.459V135.131Z" stroke="#BDD0FB" stroke-miterlimit="10"/>
<path d="M470.523 135.131H460.934V144.126H470.523V135.131Z" stroke="#BDD0FB" stroke-miterlimit="10"/>
<path d="M428.32 149.389H418.73V158.384H428.32V149.389Z" stroke="#BDD0FB" stroke-miterlimit="10"/>
<path d="M442.392 149.389H432.803V158.384H442.392V149.389Z" stroke="#BDD0FB" stroke-miterlimit="10"/>
<path d="M456.459 149.389H446.869V158.384H456.459V149.389Z" stroke="#BDD0FB" stroke-miterlimit="10"/>
<path d="M470.523 149.389H460.934V158.384H470.523V149.389Z" stroke="#BDD0FB" stroke-miterlimit="10"/>
<path d="M428.32 163.645H418.73V172.64H428.32V163.645Z" stroke="#BDD0FB" stroke-miterlimit="10"/>
<path d="M442.392 163.645H432.803V172.64H442.392V163.645Z" stroke="#BDD0FB" stroke-miterlimit="10"/>
<path d="M456.459 163.645H446.869V172.64H456.459V163.645Z" stroke="#BDD0FB" stroke-miterlimit="10"/>
<path d="M470.523 163.645H460.934V172.64H470.523V163.645Z" stroke="#BDD0FB" stroke-miterlimit="10"/>
<path d="M428.32 177.902H418.73V186.898H428.32V177.902Z" stroke="#BDD0FB" stroke-miterlimit="10"/>
<path d="M442.392 177.902H432.803V186.898H442.392V177.902Z" stroke="#BDD0FB" stroke-miterlimit="10"/>
<path d="M456.459 177.902H446.869V186.898H456.459V177.902Z" stroke="#BDD0FB" stroke-miterlimit="10"/>
<path d="M470.523 177.902H460.934V186.898H470.523V177.902Z" stroke="#BDD0FB" stroke-miterlimit="10"/>
<path d="M428.32 192.158H418.73V201.154H428.32V192.158Z" stroke="#BDD0FB" stroke-miterlimit="10"/>
<path d="M442.392 192.158H432.803V201.154H442.392V192.158Z" stroke="#BDD0FB" stroke-miterlimit="10"/>
<path d="M456.459 192.158H446.869V201.154H456.459V192.158Z" stroke="#BDD0FB" stroke-miterlimit="10"/>
<path d="M470.523 192.158H460.934V201.154H470.523V192.158Z" stroke="#BDD0FB" stroke-miterlimit="10"/>
<path d="M428.32 206.414H418.73V215.409H428.32V206.414Z" stroke="#BDD0FB" stroke-miterlimit="10"/>
<path d="M442.392 206.414H432.803V215.409H442.392V206.414Z" stroke="#BDD0FB" stroke-miterlimit="10"/>
<path d="M456.459 206.414H446.869V215.409H456.459V206.414Z" stroke="#BDD0FB" stroke-miterlimit="10"/>
<path d="M470.523 206.414H460.934V215.409H470.523V206.414Z" stroke="#BDD0FB" stroke-miterlimit="10"/>
<path d="M428.32 220.672H418.73V229.667H428.32V220.672Z" stroke="#BDD0FB" stroke-miterlimit="10"/>
<path d="M442.392 220.672H432.803V229.667H442.392V220.672Z" stroke="#BDD0FB" stroke-miterlimit="10"/>
<path d="M456.459 220.672H446.869V229.667H456.459V220.672Z" stroke="#BDD0FB" stroke-miterlimit="10"/>
<path d="M470.523 220.672H460.934V229.667H470.523V220.672Z" stroke="#BDD0FB" stroke-miterlimit="10"/>
<path d="M311.443 6.18359V266.674" stroke="#BDD0FB" stroke-miterlimit="10"/>
<path d="M320.955 6.18359V266.674" stroke="#BDD0FB" stroke-miterlimit="10"/>
<path d="M330.467 6.18359V266.674" stroke="#BDD0FB" stroke-miterlimit="10"/>
<path d="M339.984 6.18359V266.674" stroke="#BDD0FB" stroke-miterlimit="10"/>
<path d="M349.498 6.18359V266.674" stroke="#BDD0FB" stroke-miterlimit="10"/>
<path d="M359.008 6.18359V266.674" stroke="#BDD0FB" stroke-miterlimit="10"/>
<path d="M368.52 6.18359V266.674" stroke="#BDD0FB" stroke-miterlimit="10"/>
<path d="M378.039 6.18359V266.674" stroke="#BDD0FB" stroke-miterlimit="10"/>
<path d="M281.487 262.141H110.922V270.563H281.487V262.141Z" stroke="#BDD0FB" stroke-miterlimit="10"/>
<path d="M539.339 262.141H386.178V270.563H539.339V262.141Z" stroke="#BDD0FB" stroke-miterlimit="10"/>
<path d="M91.0658 283.041C91.0658 283.041 47.5316 284.625 45.3111 287.49C43.0905 290.354 41.4993 299.879 42.4823 302.107C43.4653 304.335 54.5539 316.717 54.5539 316.717H75.2107L80.6773 307.715C82.302 305.035 84.5894 302.818 87.3193 301.279C90.0492 299.739 93.1295 298.928 96.2636 298.925C99.5815 298.929 102.835 299.838 105.676 301.552C108.517 303.266 110.837 305.722 112.387 308.656L119 321.166H224.518L231.031 308.047C233.024 304.778 236.025 302.245 239.581 300.827L241.095 300.268C245.557 298.543 251.787 298.904 256.151 300.869C259.955 302.581 263.046 306.414 264.877 310.169L268.413 317.382H278.858L284.579 297.68C284.579 297.68 284.579 293.232 283.306 290.693C282.033 288.154 269.007 287.518 269.007 287.518L250.288 285.898L201.04 284.944L181.946 267.787C181.946 267.787 184.485 265.878 183.53 263.021C182.575 260.164 171.458 261.112 171.458 261.112C171.458 261.112 120.619 261.748 117.125 262.385C113.632 263.021 94.8775 278.593 91.0658 283.041Z" fill="#FF8C8D" stroke="#3E3032" stroke-miterlimit="10"/>
<path d="M204.187 309.686H127.471C126.949 309.685 126.438 309.529 126.005 309.237C125.572 308.944 125.235 308.53 125.039 308.046L121.255 298.711C121.15 298.449 121.111 298.166 121.14 297.885C121.17 297.605 121.268 297.336 121.426 297.102C121.584 296.869 121.796 296.677 122.045 296.544C122.294 296.412 122.572 296.342 122.854 296.342H279.848" stroke="#3E3032" stroke-miterlimit="10"/>
<path d="M195.927 286.535L178.969 272.285L184.258 286.535H195.927Z" fill="#3E3032" stroke="#3E3032" stroke-miterlimit="10"/>
<path d="M134.939 286.534H182.038L175.744 269.561L174.52 268.536C173.214 267.438 171.567 266.825 169.86 266.803L140.25 266.4C140.25 266.4 135.371 266.457 132.217 266.754L134.939 286.534Z" fill="#3E3032" stroke="#3E3032" stroke-miterlimit="10"/>
<path d="M130.153 267.031C130.033 267.067 129.92 267.095 129.835 267.13L117.105 284.605H125.365L128.541 286.514H132.784L130.153 267.031Z" fill="#3E3032" stroke="#3E3032" stroke-miterlimit="10"/>
<path d="M181.946 267.785L179.654 269.617L198.041 285.521L201.004 284.941L181.946 267.785Z" fill="#3E3032" stroke="#3E3032" stroke-miterlimit="10"/>
<path d="M96.328 333.617C105.381 333.617 112.721 326.278 112.721 317.225C112.721 308.171 105.381 300.832 96.328 300.832C87.2747 300.832 79.9355 308.171 79.9355 317.225C79.9355 326.278 87.2747 333.617 96.328 333.617Z" fill="#3E3032" stroke="#3E3032" stroke-miterlimit="10"/>
<path d="M99.1293 329.139C105.705 327.587 109.778 320.997 108.226 314.421C106.674 307.845 100.085 303.772 93.5087 305.324C86.9326 306.877 82.8598 313.466 84.4119 320.042C85.964 326.618 92.5532 330.691 99.1293 329.139Z" fill="white" stroke="#3E3032" stroke-miterlimit="10"/>
<path d="M96.3278 322.954C99.4914 322.954 102.056 320.39 102.056 317.226C102.056 314.063 99.4914 311.498 96.3278 311.498C93.1642 311.498 90.5996 314.063 90.5996 317.226C90.5996 320.39 93.1642 322.954 96.3278 322.954Z" fill="white" stroke="#3E3032" stroke-miterlimit="10"/>
<path d="M247.277 333.617C256.331 333.617 263.67 326.278 263.67 317.225C263.67 308.171 256.331 300.832 247.277 300.832C238.224 300.832 230.885 308.171 230.885 317.225C230.885 326.278 238.224 333.617 247.277 333.617Z" fill="#3E3032" stroke="#3E3032" stroke-miterlimit="10"/>
<path d="M250.059 329.152C256.638 327.611 260.723 321.029 259.182 314.45C257.641 307.871 251.059 303.787 244.48 305.328C237.902 306.868 233.817 313.45 235.358 320.029C236.899 326.608 243.481 330.692 250.059 329.152Z" fill="white" stroke="#3E3032" stroke-miterlimit="10"/>
<path d="M247.277 322.954C250.441 322.954 253.005 320.39 253.005 317.226C253.005 314.063 250.441 311.498 247.277 311.498C244.113 311.498 241.549 314.063 241.549 317.226C241.549 320.39 244.113 322.954 247.277 322.954Z" fill="white" stroke="#3E3032" stroke-miterlimit="10"/>
<path d="M285.011 306.037H271.737C271.737 306.037 269.658 306.299 270.959 307.338C272.261 308.378 278.243 317.239 280.323 317.486C282.402 317.734 289.184 309.679 289.184 308.116C289.184 306.553 285.011 306.037 285.011 306.037Z" fill="white" stroke="#3E3032" stroke-miterlimit="10"/>
<path d="M119.029 321.171H224.519L226.521 317.988H117.346L119.029 321.171Z" fill="white" stroke="#3E3032" stroke-miterlimit="10"/>
<path d="M202.045 291.398V315.018" stroke="#3E3032" stroke-miterlimit="10"/>
<path d="M134.771 289.971L139.785 312.869" stroke="#3E3032" stroke-miterlimit="10"/>
</g>
</svg>
