<svg width="104" height="150" viewBox="0 0 104 150" fill="none" xmlns="http://www.w3.org/2000/svg">
<path d="M99.5594 56.7974C93.5307 32.7602 70.1846 23.7195 68.1432 21.5175L73.8837 0.620645C73.8837 0.620645 66.715 -1.69557 56.658 2.62104C43.8725 8.10951 36.7499 1.11049 36.7499 1.11049L43.0625 21.8471C41.0802 24.0995 16.2511 34.1931 11.7514 57.9464C9.46716 69.9857 12.754 85.0551 23.2505 95.3046C27.0453 93.8445 31.7694 92.8967 37.8898 92.8967H62.9662C68.7799 92.8967 73.5084 97.6255 73.5084 103.439C73.5084 103.704 73.4717 103.965 73.4533 104.226C96.3139 96.2887 103.725 73.3686 99.5594 56.7974ZM68.665 77.0902C68.0882 78.3353 67.2049 79.4293 66.0421 80.3542C64.8517 81.2834 63.3321 82.034 61.5192 82.5743C60.6312 82.8306 59.6562 83.0322 58.6077 83.1649V86.6301H53.4623V83.3524C51.5808 83.2563 49.7635 83.009 48.0514 82.5833C46.0786 82.0982 44.5174 81.4985 43.2769 80.7523C42.9793 80.5692 42.952 80.505 42.952 79.8687V75.4375C42.952 75.0942 43.03 75.0942 43.1351 75.0942C43.2268 75.0942 43.332 75.1217 43.4099 75.1627C43.8356 75.3872 44.2842 75.6113 44.7421 75.8357C45.8407 76.3575 46.976 76.8107 48.1203 77.1907C49.2602 77.5753 50.4046 77.8865 51.517 78.1153C52.6522 78.3488 53.7233 78.4724 54.6848 78.4724C57.1065 78.4724 58.855 78.001 60.0362 77.0304C61.2447 76.037 61.8535 74.8012 61.8535 73.3545C61.8535 72.6312 61.7299 71.9629 61.4873 71.3723C61.2309 70.7451 60.7639 70.1685 60.091 69.6511C59.4822 69.175 58.6308 68.7081 57.5688 68.2642C56.5434 67.8338 55.2251 67.3715 53.6504 66.8864C51.5676 66.2181 49.8051 65.5039 48.4135 64.767C47.0539 64.0484 45.9599 63.2518 45.1543 62.4048C44.3715 61.5807 43.8084 60.679 43.4697 59.7224C43.1263 58.7474 42.9523 57.6625 42.9523 56.5044C42.9523 55.0396 43.3185 53.6893 44.0372 52.4899C44.7696 51.2585 45.795 50.1875 47.072 49.2948C48.3629 48.393 49.9147 47.6788 51.6681 47.1798C52.2494 47.0196 52.8585 46.8915 53.4626 46.7817V43.3759H58.608V46.4796C60.0409 46.5347 61.4691 46.6581 62.8469 46.91C64.3393 47.1754 65.8086 47.6149 67.2139 48.2008C67.4794 48.3107 67.5435 48.3749 67.5435 48.6265V53.2132C67.5388 53.2818 67.4794 53.3049 67.3604 53.3049C67.2552 53.3049 67.1682 53.2865 67.1178 53.2683C65.8727 52.8426 64.5725 52.4626 63.2542 52.1559C61.3452 51.7118 59.4365 51.483 57.5917 51.483C55.3212 51.483 53.5634 51.9271 52.3595 52.8013C51.0778 53.7397 50.4277 54.9529 50.4277 56.413C50.4277 57.0447 50.5695 57.6491 50.8396 58.2028C51.1144 58.7612 51.572 59.2967 52.2131 59.7866C52.8081 60.2445 53.5909 60.6974 54.6163 61.16C55.5869 61.6085 56.8411 62.0708 58.3241 62.5241C60.3154 63.1375 62.0504 63.7967 63.4877 64.4834C64.893 65.1517 66.0649 65.9026 66.9667 66.7173C67.8456 67.5001 68.491 68.4066 68.8985 69.4091C69.3198 70.4345 69.5302 71.6383 69.5302 72.998C69.5302 74.4672 69.2372 75.8404 68.665 77.0902Z" fill="white"/>
<path d="M45.7234 109.706C49.9073 109.706 62.9673 109.706 62.9673 109.706C66.4325 109.706 69.2386 106.9 69.2386 103.439C69.2386 99.9735 66.4325 97.1675 62.9673 97.1675C59.8316 97.1675 53.5647 97.1675 37.8909 97.1675C22.2124 97.1675 17.2504 103.7 11.7616 109.184L1.80537 117.882C1.15996 118.445 0.789062 119.255 0.789062 120.115V149.014C0.789062 149.399 1.01348 149.751 1.36592 149.912C1.71836 150.072 2.13027 150.017 2.42324 149.76L21.6631 133.267C22.3407 132.69 23.2469 132.448 24.1214 132.603L54.105 138.055C56.1971 138.435 58.3483 137.954 60.088 136.728C60.088 136.728 98.357 110.118 101.182 107.765C103.873 105.293 103.846 101.709 101.369 99.0126C98.8973 96.3164 94.2877 96.8886 91.2068 99.1682C88.387 101.517 69.129 114.174 69.129 114.174H45.7234L45.6502 114.21C44.4188 114.169 43.4529 113.135 43.4896 111.903C43.5353 110.672 44.57 109.706 45.7967 109.747L45.7234 109.706Z" fill="white"/>
</svg>
