<svg width="100" height="100" viewBox="0 0 100 100" fill="none" xmlns="http://www.w3.org/2000/svg">
<path d="M95.6742 56.5996L76.5877 37.5131C75.7248 36.6449 74.5506 36.1581 73.3269 36.1611H53.075V39.2358H54.6123V62.3002H57.6869L57.6877 39.2377H73.3271C73.7345 39.2392 74.1251 39.401 74.4143 39.6878L77.0389 42.3125H69.9877C69.1721 42.3125 68.3901 42.6367 67.8133 43.2135C67.2365 43.7903 66.9123 44.5723 66.9123 45.3879V59.2254C66.9123 60.041 67.2365 60.823 67.8133 61.3998C68.3901 61.9766 69.1721 62.3009 69.9877 62.3009H93.0502V74.601V74.6003C93.0502 75.0084 92.8885 75.3991 92.6001 75.6875C92.3117 75.9759 91.9211 76.1384 91.5129 76.1384H88.3147C87.8203 72.696 85.6916 69.7059 82.601 68.1122C79.5104 66.5192 75.8399 66.5192 72.7498 68.1122C69.6592 69.706 67.5297 72.696 67.0354 76.1384H45.2658C44.7715 72.696 42.6428 69.7059 39.5522 68.1122C36.4615 66.5192 32.791 66.5192 29.7004 68.1122C26.6098 69.706 24.4811 72.696 23.9867 76.1384H20.7885C19.9393 76.1384 19.2512 75.4494 19.2512 74.6003V59.2255H16.1758V74.6003C16.1758 75.824 16.6618 76.9973 17.527 77.8618C18.3921 78.727 19.5656 79.213 20.7885 79.213H23.9867C24.3216 81.5515 25.4195 83.7128 27.1094 85.363H3.875V88.4376L77.6758 88.4383C80.2613 88.4353 82.76 87.5007 84.7139 85.8069C86.667 84.1132 87.9457 81.7725 88.315 79.2128H91.5133C92.7363 79.2128 93.9098 78.7268 94.7748 77.8616C95.64 76.9972 96.126 75.8237 96.126 74.6001V57.688C96.126 57.2798 95.9635 56.8892 95.6751 56.6008L95.6742 56.5996ZM26.9379 77.6738C26.9379 75.6352 27.7481 73.6799 29.1892 72.2379C30.6312 70.7959 32.5867 69.9865 34.6252 69.9865C36.6644 69.9865 38.6199 70.796 40.0611 72.2379C41.503 73.6798 42.3125 75.6353 42.3125 77.6738C42.3125 79.7123 41.503 81.6678 40.0611 83.1098C38.6199 84.5509 36.6644 85.3611 34.6252 85.3611C32.5873 85.3588 30.6334 84.5478 29.1923 83.1066C27.7512 81.6654 26.9402 79.7115 26.9379 77.6738ZM42.1425 85.3611C43.8317 83.7109 44.9296 81.5494 45.2652 79.2111H67.0347C67.3704 81.5496 68.4683 83.7109 70.1574 85.3611H42.1425ZM77.6757 85.3611C75.6371 85.3611 73.6818 84.5509 72.2398 83.1098C70.7979 81.6678 69.9884 79.7123 69.9884 77.6738C69.9884 75.6353 70.7979 73.6799 72.2398 72.2379C73.6818 70.7959 75.6373 69.9865 77.6757 69.9865C79.7142 69.9865 81.6697 70.796 83.1117 72.2379C84.5529 73.6798 85.3631 75.6353 85.3631 77.6738C85.3608 79.7117 84.5497 81.6656 83.1086 83.1066C81.6674 84.5478 79.7134 85.3588 77.6757 85.3611ZM69.9884 59.2244V45.3869H80.1142L93.0505 58.3232V59.2243L69.9884 59.2244Z" fill="#2463EB"/>
<path d="M33.0898 76.1367H36.1645V79.2113H33.0898V76.1367Z" fill="#2463EB"/>
<path d="M76.1367 76.1367H79.2113V79.2113H76.1367V76.1367Z" fill="#2463EB"/>
<path d="M3.875 71.5254H11.5623V74.6H3.875V71.5254Z" fill="#2463EB"/>
<path d="M6.94922 65.375H11.5619V68.4496H6.94922V65.375Z" fill="#2463EB"/>
<path d="M8.48828 59.2246H11.5629V62.2992H8.48828V59.2246Z" fill="#2463EB"/>
<path d="M62.3008 65.375H68.4508V68.4496H62.3008V65.375Z" fill="#2463EB"/>
<path d="M26.9379 57.6875C33.0543 57.6875 38.9207 55.2576 43.2457 50.9324C47.5709 46.6072 50.0008 40.741 50.0008 34.6246C50.0008 28.5082 47.5709 22.6418 43.2457 18.3168C38.9205 13.9916 33.0543 11.5625 26.9379 11.5625C20.8215 11.5625 14.9551 13.9918 10.6301 18.3168C6.30508 22.6418 3.875 28.5082 3.875 34.6246C3.88263 40.7397 6.31406 46.6012 10.6377 50.9248C14.9613 55.2484 20.8236 57.6807 26.9379 57.6875ZM26.9379 14.6367C32.2389 14.6367 37.323 16.7424 41.0713 20.4908C44.8195 24.2391 46.9254 29.3234 46.9254 34.6242C46.9254 39.925 44.8197 45.0094 41.0713 48.7576C37.3228 52.5059 32.2387 54.6117 26.9379 54.6117C21.6371 54.6117 16.5527 52.5061 12.8045 48.7576C9.05625 45.0094 6.95039 39.925 6.95039 34.6242C6.95649 29.3256 9.06445 24.2451 12.8113 20.4977C16.5582 16.7508 21.6385 14.6428 26.9379 14.6367Z" fill="#2463EB"/>
<path d="M26.9393 39.2362C28.4004 39.2392 29.7753 38.548 30.6458 37.3738C31.5155 36.2004 31.7757 34.6838 31.3484 33.2867C30.9204 31.8898 29.8546 30.7789 28.4768 30.2937V22.3232H25.4022V30.2937C24.0998 30.7591 23.0752 31.7838 22.6098 33.0861H17.7148V36.1607H22.6105H22.6098C22.9264 37.0572 23.5131 37.8339 24.2875 38.384C25.0626 38.9348 25.9887 39.2324 26.9393 39.2362ZM26.9393 33.0862C27.5611 33.0862 28.1219 33.4608 28.3599 34.0353C28.5979 34.6098 28.4659 35.2712 28.0265 35.7107C27.587 36.1509 26.9256 36.2821 26.3511 36.0441C25.7766 35.806 25.402 35.2453 25.402 34.6235C25.402 33.7743 26.0902 33.0862 26.9393 33.0862Z" fill="#2463EB"/>
<path d="M8.48828 33.0879H11.5629V36.1625H8.48828V33.0879Z" fill="#2463EB"/>
<path d="M25.4023 50H28.477V53.0746H25.4023V50Z" fill="#2463EB"/>
<path d="M42.3125 33.0879H45.3871V36.1625H42.3125V33.0879Z" fill="#2463EB"/>
<path d="M25.4023 16.1738H28.477V19.2484H25.4023V16.1738Z" fill="#2463EB"/>
</svg>
