<svg width="88" height="100" viewBox="0 0 88 100" fill="none" xmlns="http://www.w3.org/2000/svg">
<path d="M2.43163 85.406H85.1218C86.465 85.406 87.5539 84.3171 87.5539 82.9739V63.5179C87.5539 57.7966 81.1147 51.3574 75.3934 51.3574H12.1605C6.43915 51.3574 0 57.7966 0 63.5179V82.9739C0 84.3171 1.08888 85.406 2.43209 85.406H2.43163ZM4.86372 63.5179C4.86372 60.4829 9.1252 56.2216 12.16 56.2216H75.3929C78.428 56.2216 82.6892 60.4831 82.6892 63.5179V80.5418H4.86279L4.86372 63.5179Z" fill="#2463EB"/>
<path d="M9.72656 82.9751V97.5678C9.72656 98.9111 10.8154 99.9999 12.1586 99.9999H26.7514C28.0947 99.9999 29.1835 98.911 29.1835 97.5678V82.9751C29.1835 81.6318 28.0946 80.543 26.7514 80.543H12.1586C10.8154 80.543 9.72656 81.6319 9.72656 82.9751ZM24.3193 85.4072V95.1355H14.591V85.4072H24.3193Z" fill="#2463EB"/>
<path d="M58.3711 82.9751V97.5678C58.3711 98.9111 59.46 99.9999 60.8032 99.9999H75.395C76.7383 99.9999 77.8271 98.911 77.8271 97.5678V82.9751C77.8271 81.6318 76.7382 80.543 75.395 80.543H60.8032C59.46 80.543 58.3711 81.6319 58.3711 82.9751ZM72.9629 85.4072V95.1355H63.2346V85.4072H72.9629Z" fill="#2463EB"/>
<path d="M12.1605 56.2213C10.5313 56.2213 9.36277 54.6509 9.83061 53.0904L17.1269 28.7695C17.4355 27.7403 18.3823 27.0361 19.4568 27.0361H68.0986C69.173 27.0361 70.1198 27.7403 70.4285 28.7695L77.7248 53.0904C78.1927 54.6509 77.0242 56.2213 75.3949 56.2213H12.1605ZM72.1263 51.3571L66.2891 31.9002H21.2667L15.4296 51.3571H72.1263Z" fill="#2463EB"/>
<path fill-rule="evenodd" clip-rule="evenodd" d="M23.6913 68.3818C23.6913 72.0077 20.7513 74.9477 17.1254 74.9477C13.4986 74.9477 10.5586 72.0077 10.5586 68.3818C10.5586 64.755 13.4986 61.8149 17.1254 61.8149C20.7513 61.8149 23.6913 64.755 23.6913 68.3818Z" fill="#2463EB"/>
<path fill-rule="evenodd" clip-rule="evenodd" d="M77.1405 68.3818C77.1405 72.0077 74.2005 74.9477 70.5737 74.9477C66.9478 74.9477 64.0078 72.0077 64.0078 68.3818C64.0078 64.755 66.9478 61.8149 70.5737 61.8149C74.2005 61.8149 77.1405 64.755 77.1405 68.3818Z" fill="#2463EB"/>
<path d="M41.9124 22.1056C43.366 21.758 44.2476 21.758 45.6226 22.1002C46.926 22.4251 48.2456 21.6322 48.5707 20.3288C48.8957 19.0254 48.1019 17.7058 46.7985 17.3807C44.6596 16.8467 42.9851 16.8467 40.7801 17.3753C39.474 17.6876 38.6684 19 38.9816 20.3069C39.2939 21.6131 40.6064 22.4188 41.9124 22.1056Z" fill="#2463EB"/>
<path d="M37.2836 14.7392C41.6165 13.2222 46.3731 13.2222 50.2905 14.7157C51.5451 15.1945 52.9506 14.5654 53.4296 13.31C53.9075 12.0555 53.2784 10.6499 52.0239 10.171C47.0103 8.2593 41.0716 8.2593 35.6761 10.1483C34.408 10.5919 33.74 11.9794 34.1844 13.2475C34.628 14.5147 36.0155 15.1828 37.2836 14.7392Z" fill="#2463EB"/>
<path d="M33.5934 6.84487C39.3265 4.2054 48.2893 4.2054 53.8315 6.83311C55.0453 7.40878 56.4962 6.89104 57.0718 5.67724C57.6465 4.46435 57.1297 3.01343 55.9159 2.43785C49.0622 -0.810805 38.5914 -0.810805 31.5602 2.42699C30.3401 2.98818 29.8061 4.43277 30.3682 5.65294C30.9294 6.87306 32.374 7.4071 33.5941 6.845L33.5934 6.84487Z" fill="#2463EB"/>
</svg>
