<svg width="100" height="100" viewBox="0 0 100 100" fill="none" xmlns="http://www.w3.org/2000/svg">
<path d="M22.9183 99.9992C21.3191 99.9992 19.8568 99.3953 18.7497 98.4041C17.6427 99.3944 16.1821 99.9992 14.5828 99.9992C11.1366 99.9992 8.33294 97.1955 8.33294 93.7493V72.9165H3.12532C1.40179 72.9165 0.000839929 71.5147 0.000839929 69.792L0 45.8343C0 42.3881 2.80367 39.5845 6.24982 39.5845H31.2504C34.6966 39.5845 37.5002 42.3881 37.5002 45.8343V69.792C37.5002 71.5156 36.0984 72.9165 34.3758 72.9165H29.1673V93.7493C29.1664 97.1964 26.3636 100 22.919 100L22.9183 99.9992ZM20.8328 93.7493C20.8328 94.8992 21.7668 95.8324 22.9158 95.8324C24.0657 95.8324 24.9988 94.8983 24.9988 93.7493L24.9996 71.8752C24.9996 70.1516 26.4015 68.7507 28.1241 68.7507H33.3326V45.8337C33.3326 44.6838 32.3986 43.7506 31.2496 43.7506H6.24899C5.09912 43.7506 4.16596 44.6846 4.16596 45.8337V68.7485H9.37444C11.098 68.7485 12.4989 70.1504 12.4989 71.873V93.7472C12.4989 94.8971 13.4329 95.8302 14.5819 95.8302C15.7318 95.8302 16.665 94.8962 16.665 93.7472V77.0813C16.665 75.9297 17.5964 74.9982 18.748 74.9982C19.8995 74.9982 20.831 75.9297 20.831 77.0813L20.8328 93.7493Z" fill="#2463EB"/>
<path d="M27.083 74.7382C25.9315 74.7382 25 73.8067 25 72.6552V55.9893C25 54.8377 25.9315 53.9062 27.083 53.9062C28.2346 53.9062 29.166 54.8377 29.166 55.9893V72.6552C29.166 73.8067 28.2346 74.7382 27.083 74.7382Z" fill="#2463EB"/>
<path d="M10.4151 74.7382C9.26351 74.7382 8.33203 73.8067 8.33203 72.6552V55.9893C8.33203 54.8377 9.26351 53.9062 10.4151 53.9062C11.5666 53.9062 12.4981 54.8377 12.4981 55.9893V72.6552C12.4981 73.8067 11.5666 74.7382 10.4151 74.7382Z" fill="#2463EB"/>
<path d="M18.7518 35.4152C13.0084 35.4152 8.33594 30.742 8.33594 24.9994C8.33594 19.2559 13.0092 14.5835 18.7518 14.5835C24.4953 14.5835 29.1677 19.2568 29.1677 24.9994C29.1677 30.742 24.4953 35.4152 18.7518 35.4152ZM18.7518 18.7493C15.3057 18.7493 12.502 21.553 12.502 24.9992C12.502 28.4453 15.3057 31.249 18.7518 31.249C22.198 31.249 25.0016 28.4453 25.0016 24.9992C25.0016 21.553 22.198 18.7493 18.7518 18.7493Z" fill="#2463EB"/>
<path d="M60.4189 79.1637C55.8228 79.1637 52.0859 75.426 52.0859 70.8325V66.6655C52.0859 65.514 53.0174 64.5825 54.169 64.5825C55.3205 64.5825 56.252 65.514 56.252 66.6655V70.8325C56.252 73.1297 58.1217 74.9968 60.4189 74.9968C62.7162 74.9968 64.5832 73.1288 64.5832 70.8325C64.5832 69.6809 65.5147 68.7494 66.6662 68.7494C67.8178 68.7494 68.7493 69.6809 68.7493 70.8325C68.7501 75.4268 65.0124 79.1637 60.4189 79.1637Z" fill="#2463EB"/>
<path d="M87.0463 35.4172C86.6356 35.4172 86.2241 35.2954 85.8704 35.0527L85.5487 34.8326C85.0607 34.5009 84.739 33.9759 84.6601 33.3905C83.1465 22.075 78.0993 12.1184 71.8041 8.02221C70.9617 7.47709 70.6299 6.40871 71.0146 5.48151C71.3951 4.55591 72.3795 4.03095 73.3665 4.23843C87.7906 7.26142 98.2381 18.5853 99.9841 33.0858C100.082 33.8955 99.6951 34.6909 98.9972 35.1142C98.2992 35.5434 97.4181 35.5148 96.7412 35.0554C94.9916 33.8635 89.9706 33.8635 88.2209 35.0554C87.8673 35.2973 87.4566 35.4174 87.0475 35.4174L87.0463 35.4172ZM80.8694 11.367C84.4239 16.4368 87.1276 23.173 88.427 30.5031C90.4957 29.9454 93.0248 29.8496 95.2505 30.2268C93.322 22.0441 88.1079 15.3021 80.8694 11.367Z" fill="#2463EB"/>
<path d="M35.4165 35.4174C35.0419 35.4174 34.6681 35.3174 34.3338 35.1141C33.6359 34.6891 33.2495 33.8954 33.3469 33.0857C35.0948 18.5859 45.541 7.26373 59.9666 4.23837C60.9552 4.03259 61.938 4.55588 62.3186 5.48146C62.7032 6.40958 62.3715 7.47545 61.529 8.02216C55.2347 12.1194 50.1866 22.0758 48.6731 33.3904C48.5941 33.9767 48.2724 34.5008 47.7844 34.8326L47.4627 35.0526C46.7572 35.5364 45.8232 35.539 45.1125 35.0543C43.363 33.8625 38.3437 33.8625 36.5906 35.0543C36.237 35.2971 35.8279 35.4172 35.4172 35.4172L35.4165 35.4174ZM40.8525 30.0014C42.2585 30.0014 43.6637 30.1702 44.9052 30.5037C46.2054 23.1736 48.9091 16.4399 52.4628 11.3702C45.2243 15.3044 40.01 22.0473 38.0789 30.2274C38.9709 30.0762 39.9125 30.0014 40.8523 30.0014L40.8525 30.0014Z" fill="#2463EB"/>
<path d="M66.6681 35.4175C66.2003 35.4175 65.7324 35.2605 65.3478 34.9455C62.1132 32.2988 51.9635 31.9898 48.3787 34.4331L47.7807 34.8397C47.0953 35.2974 46.2125 35.3159 45.5145 34.8867C44.8166 34.4533 44.4361 33.652 44.5461 32.8381C46.2142 20.3727 51.9904 9.26097 59.2609 4.53049C59.4768 4.3877 59.717 4.29026 59.969 4.23735C62.2452 3.76112 64.4894 3.50324 66.6381 3.47217C68.8496 3.5024 71.094 3.76112 73.3702 4.23735C73.6222 4.29026 73.8624 4.38769 74.0783 4.53049C81.3495 9.26097 87.125 20.3724 88.7931 32.8381C88.9006 33.652 88.5226 34.4533 87.8247 34.8867C87.125 35.3159 86.2422 35.2999 85.5585 34.8397L84.9647 34.4365C81.3781 31.9915 71.2285 32.2938 67.9872 34.9472C67.6042 35.2605 67.1364 35.4175 66.6685 35.4175H66.6681ZM56.1942 28.5796C60.0696 28.5796 64.0122 29.3465 66.6673 30.8339C70.9804 28.4192 78.6892 27.9042 83.9907 29.4892C81.9909 20.0149 77.5418 11.9565 72.1258 8.23556C70.2444 7.86514 68.3991 7.66356 66.637 7.63922C64.9319 7.66358 63.0934 7.86516 61.2111 8.23556C55.7951 11.9565 51.3461 20.0147 49.3462 29.4875C51.383 28.8785 53.7752 28.5796 56.1942 28.5796Z" fill="#2463EB"/>
<path d="M66.6659 72.915C65.5143 72.915 64.5829 71.9835 64.5829 70.832L64.582 2.08302C64.582 0.931475 65.5135 0 66.6651 0C67.8166 0 68.7481 0.931475 68.7481 2.08302V70.832C68.7489 71.9827 67.8166 72.915 66.6659 72.915Z" fill="#2463EB"/>
</svg>
