<svg width="63" height="52" viewBox="0 0 63 52" fill="none" xmlns="http://www.w3.org/2000/svg">
<path d="M56.8708 40.3012H36.2595C34.8377 40.3012 33.6799 39.1427 33.6799 37.7216C33.6799 36.2998 34.8384 35.142 36.2595 35.142H41.7877V32.5098H36.2595C33.3903 32.5098 31.0472 34.8523 31.0472 37.7221C31.0472 40.5914 33.3897 42.9344 36.2595 42.9344H56.857C58.4365 42.9344 59.7134 44.2242 59.7134 45.7907C59.7134 47.3567 58.4236 48.6471 56.857 48.6471L17.6621 48.6451V51.2772H56.857C59.8846 51.2772 62.3456 48.8163 62.3456 45.7887C62.3456 42.7618 59.8974 40.3009 56.8705 40.3009L56.8708 40.3012Z" fill="#2463EB"/>
<path d="M17.6627 0.0131836C8.18622 0.0131836 0.5 7.6994 0.5 17.1759C0.5 26.6524 17.6627 44.1306 17.6627 44.1306C17.6627 44.1306 34.8254 26.6522 34.8254 17.1759C34.8389 7.70009 27.1526 0.0131836 17.6627 0.0131836ZM17.6627 25.2713C13.2006 25.2713 9.56835 21.6518 9.56835 17.1769C9.56835 12.7148 13.1878 9.08257 17.6627 9.08257C22.1248 9.08257 25.757 12.7021 25.757 17.1769C25.757 21.6518 22.1376 25.2713 17.6627 25.2713Z" fill="#2463EB"/>
<path d="M41.7878 6.01528C44.7358 6.01528 47.1315 8.41108 47.1315 11.359C47.1315 14.3069 44.7357 16.7027 41.7878 16.7027C39.8265 16.7027 38.1285 15.6365 37.1943 14.057C37.3525 15.0707 37.4576 16.1106 37.4576 17.1634C37.4576 18.8876 36.9969 20.7963 36.2338 22.7705C39.0243 26.3638 41.7749 29.167 41.7749 29.167C41.7749 29.167 53.1205 17.6108 53.1205 11.3455C53.1205 5.08041 48.0401 0 41.7749 0C38.1156 0 34.8653 1.73767 32.7988 4.4359C34.418 6.35754 35.6681 8.58212 36.4709 11.0169C36.6548 8.22573 38.9576 6.01528 41.7878 6.01528Z" fill="#2463EB"/>
</svg>
