<svg width="62" height="47" viewBox="0 0 62 47" fill="none" xmlns="http://www.w3.org/2000/svg">
<path d="M51.0842 39.1209C50.4926 37.5651 49.1904 36.3883 47.5834 35.9563C45.9765 35.5242 44.2593 35.8894 42.9674 36.9382C41.6754 37.9865 40.9647 39.5915 41.0568 41.253C41.1474 42.5499 41.7158 43.767 42.6519 44.6686C43.5885 45.5697 44.8258 46.0919 46.1251 46.1328C47.8427 46.1662 49.4654 45.3468 50.4586 43.9446C51.4513 42.5424 51.6856 40.7401 51.0842 39.1307L51.0842 39.1209ZM45.6192 43.0882C45.2451 42.9844 44.9051 42.7826 44.6349 42.5035C44.3647 42.2245 44.1737 41.8785 44.0822 41.501C43.966 41.059 43.9867 40.592 44.1417 40.1623C44.345 39.6229 44.7505 39.1844 45.2727 38.9398C45.7944 38.6952 46.3914 38.6642 46.9357 38.8531C47.48 39.0416 47.9294 39.4359 48.1878 39.9507C48.4462 40.466 48.4934 41.0615 48.3192 41.6108C48.1455 42.1605 47.7635 42.6202 47.2556 42.8924C46.7477 43.1646 46.1532 43.2276 45.5994 43.0681L45.6192 43.0882Z" fill="#2463EB"/>
<path d="M18.4631 39.1209C17.8715 37.5651 16.5693 36.3883 14.9624 35.9563C13.3549 35.5242 11.6382 35.8894 10.3463 36.9382C9.05384 37.9865 8.3436 39.5915 8.43571 41.253C8.52873 42.5533 9.1026 43.7719 10.045 44.6721C10.987 45.5723 12.2308 46.0895 13.5336 46.1231C15.2518 46.1565 16.8744 45.3371 17.8672 43.9349C18.8604 42.5327 19.0946 40.7299 18.4932 39.121L18.4631 39.1209ZM13.0178 43.0882H13.0182C12.6432 42.9868 12.3021 42.787 12.03 42.5099C11.7583 42.2324 11.5649 41.8878 11.4709 41.5108C11.3567 41.0679 11.3808 40.6008 11.5403 40.1721C11.744 39.6376 12.1481 39.2031 12.6663 38.9614C13.1846 38.7193 13.7772 38.6887 14.3175 38.8758C14.8584 39.0628 15.3048 39.4531 15.5627 39.9639C15.8206 40.4743 15.8698 41.0654 15.6995 41.6117C15.5292 42.158 15.1532 42.6162 14.6507 42.8903C14.1487 43.164 13.5591 43.2314 13.0078 43.0778L13.0178 43.0882Z" fill="#2463EB"/>
<path d="M57.1336 34.1013H57.5106V32.4545H26.5953V22.0501C26.5899 21.1849 26.2414 20.357 25.6257 19.7487C25.01 19.1404 24.1778 18.8018 23.3126 18.8072H14.3861C13.7837 18.8057 13.2015 19.0213 12.7462 19.415C12.2904 19.8087 11.9922 20.3536 11.906 20.9491L10.4187 28.3681L5.7672 29.3598L5.76671 29.3603C4.70806 29.5754 3.75621 30.1502 3.07256 30.9874C2.38943 31.8241 2.01637 32.8719 2.01785 33.9522V34.1308H1.65069C1.3544 34.12 1.06599 34.2283 0.849927 34.4315C0.633871 34.6343 0.507875 34.9153 0.5 35.2121V36.3426C0.5 36.9563 0.997579 37.4534 1.61082 37.4534H1.97798V39.0604H6.93701C7.48232 37.1281 8.84608 35.531 10.6696 34.6909C12.4926 33.8503 14.5927 33.8503 16.4161 34.6909C18.2391 35.531 19.6029 37.1281 20.1482 39.0604H39.5488C40.0858 37.1168 41.4506 35.508 43.2799 34.6604C45.1097 33.8129 47.2193 33.8129 49.0486 34.6604C50.8784 35.5079 52.2428 37.1168 52.7797 39.0604H57.4415V37.4534H57.1437C56.4886 37.448 55.9591 36.9184 55.9537 36.2634V35.2121C55.9532 34.905 56.0796 34.6112 56.3031 34.401C56.527 34.1904 56.8277 34.0821 57.1339 34.1013L57.1336 34.1013ZM22.6375 30.3023H12.8882C12.5569 30.3042 12.2415 30.1591 12.0274 29.9066C11.8128 29.6541 11.7213 29.3199 11.7769 28.9931L13.1953 21.1179C13.2785 20.551 13.7633 20.1297 14.3362 20.1262H20.4655L23.6095 28.4079C23.7015 28.6485 23.7488 28.904 23.7483 29.1619C23.7537 29.4606 23.6395 29.7495 23.4308 29.9636C23.2222 30.1777 22.9368 30.2998 22.6375 30.3023Z" fill="#2463EB"/>
<path d="M54.0582 24.3518C54.1473 24.3518 56.0416 23.5284 57.4699 22.7946V31.1162H27.9531V13.9179C27.9531 13.0684 28.2908 12.2534 28.8917 11.6529C29.4921 11.052 30.3071 10.7144 31.1567 10.7144H41.0153V12.6978L41.0158 12.6983C41.0153 16.7164 43.1439 20.4341 46.6097 22.4678C47.1156 22.7655 48.4444 23.3901 50.577 24.3326L52.303 25.0964L54.0582 24.3518Z" fill="#2463EB"/>
<path d="M57.6795 4.00853L54.4165 3.01682C53.0576 2.58814 51.5993 2.58814 50.2404 3.01682L46.9774 4.00853C46.5172 4.15471 46.1156 4.44459 45.8321 4.83537C45.5481 5.22616 45.397 5.69765 45.4004 6.18099V12.6973C45.4123 15.1454 46.7121 17.4064 48.8225 18.648C49.3678 18.9655 52.3434 20.2845 52.3434 20.2845C52.3434 20.2845 54.7634 19.2927 55.8447 18.648C57.9473 17.3994 59.245 15.1429 59.2662 12.6973V6.18099C59.2691 5.6967 59.1165 5.22422 58.8311 4.83298C58.5451 4.44219 58.1416 4.15324 57.6795 4.00853ZM57.0347 9.44407L51.421 15.1074C51.2138 15.3166 50.9318 15.4347 50.6375 15.4347C50.3427 15.4347 50.0607 15.3166 49.8535 15.1074L47.6318 12.8857C47.2021 12.4556 47.2021 11.7582 47.6318 11.3286C48.062 10.8984 48.7594 10.8984 49.189 11.3286L50.6172 12.7568L55.4474 7.92672V7.92622C55.8756 7.54086 56.5287 7.5507 56.9451 7.94886C57.3615 8.34703 57.4004 8.99917 57.0347 9.44407Z" fill="#2463EB"/>
<path d="M52.3038 23.2204L51.2525 22.7543C50.092 22.2386 48.049 21.3261 47.4639 20.9791C44.5192 19.2511 42.7115 16.0914 42.713 12.6772V6.18101C42.7066 5.13123 43.0339 4.10651 43.6466 3.25453C44.2599 2.4026 45.1276 1.76717 46.1247 1.43996L49.3877 0.448243V0.44775C51.2756 -0.14925 53.3019 -0.14925 55.1899 0.44775L58.4529 1.43947L58.4534 1.43996C59.4746 1.74461 60.3704 2.37015 61.0082 3.22455C61.646 4.07845 61.9915 5.11497 61.994 6.18101V12.6973C61.9817 16.1075 60.1774 19.2604 57.2431 20.9987C55.996 21.6671 54.7149 22.2695 53.4047 22.804L52.3038 23.2204ZM52.3038 1.40067C51.4696 1.39969 50.6398 1.52667 49.844 1.77768L46.581 2.76939C45.859 2.99579 45.23 3.45105 44.7895 4.06676C44.3495 4.68246 44.1216 5.4246 44.1413 6.18158V12.6979C44.1408 15.5904 45.6734 18.2662 48.1682 19.7299C48.5452 19.9479 49.904 20.5927 51.8083 21.4358L52.2842 21.6439L52.77 21.4456C54.0152 20.9367 55.2338 20.3638 56.42 19.7299C58.9044 18.2559 60.4331 15.5863 60.4469 12.6979V6.18159C60.4528 5.43892 60.221 4.71438 59.7854 4.11301C59.3503 3.51159 58.7341 3.06519 58.0269 2.83883L54.7639 1.84711C53.9799 1.58577 53.1603 1.44501 52.3341 1.43074L52.3038 1.40067Z" fill="#2463EB"/>
</svg>
