<svg width="100" height="100" viewBox="0 0 100 100" fill="none" xmlns="http://www.w3.org/2000/svg">
<path d="M45.0819 19.5486L43.9917 22.8986C43.7171 23.7432 44.0161 24.6702 44.7379 25.1904C45.455 25.7108 46.4308 25.7108 47.1449 25.1904L49.9982 23.1236L52.8515 25.1896C53.2086 25.4483 53.6305 25.5833 54.0532 25.5833C54.4758 25.5833 54.9016 25.4521 55.2586 25.1896C55.9758 24.6693 56.2794 23.7423 56.0048 22.8979L54.9145 19.5479L57.7641 17.4734C58.4813 16.9531 58.785 16.0261 58.5103 15.1816C58.2356 14.3371 57.4483 13.7633 56.5587 13.7633H53.037L51.9468 10.4133C51.3975 8.7242 48.5968 8.7242 48.0474 10.4133L46.9571 13.7633H43.4354C42.5459 13.7633 41.7585 14.3371 41.4838 15.1816C41.2077 16.027 41.5113 16.9532 42.2285 17.4742L45.0819 19.5486ZM49.9984 17.1584C50.2036 17.3964 50.4615 17.5849 50.7483 17.7077C50.5843 17.974 50.4897 18.2814 50.4614 18.5935C50.3096 18.5569 50.154 18.5401 49.9983 18.5401C49.8427 18.5401 49.687 18.5561 49.5352 18.5935C49.5108 18.2822 49.4124 17.9786 49.2484 17.7077C49.5344 17.5849 49.7931 17.3964 49.9984 17.1584Z" fill="#2463EB"/>
<path d="M22.9423 27.7478L21.8559 31.1017C21.5812 31.9462 21.8803 32.8686 22.5975 33.3897C23.3146 33.9101 24.2904 33.9101 25.0045 33.3897L27.8578 31.3237L30.7111 33.3897C31.0682 33.6522 31.4901 33.7834 31.9128 33.7834C32.3354 33.7834 32.7611 33.6522 33.1182 33.3897C33.8437 32.8687 34.1428 31.9463 33.8682 31.1017L32.7779 27.7478L35.6275 25.6733C36.3493 25.1522 36.6484 24.2299 36.3737 23.3853C36.099 22.5406 35.3117 21.967 34.4259 21.967H30.8995L29.8093 18.617C29.26 16.9278 26.4593 16.9278 25.9099 18.617L24.8196 21.967H21.298C20.4084 21.967 19.621 22.5407 19.3464 23.3853C19.0717 24.2298 19.3746 25.1522 20.0925 25.6733L22.9423 27.7478ZM27.8624 25.3575C28.0677 25.5994 28.3255 25.784 28.617 25.9068C28.4529 26.1731 28.3583 26.4806 28.3301 26.7926C28.1737 26.756 28.018 26.7392 27.8624 26.7392C27.706 26.7392 27.5504 26.756 27.3947 26.7926C27.3703 26.4813 27.2719 26.1777 27.1079 25.9068C27.3985 25.784 27.6526 25.5955 27.8624 25.3575Z" fill="#2463EB"/>
<path d="M68.0406 27.748L66.9504 31.098C66.6757 31.9426 66.9748 32.8696 67.6965 33.3898C68.4137 33.9102 69.3895 33.9102 70.1035 33.3898L72.9569 31.3238L75.8102 33.3898C76.1672 33.6523 76.5892 33.7835 77.0118 33.7835C77.4345 33.7835 77.8602 33.6523 78.2173 33.3898C78.9344 32.8695 79.2381 31.9425 78.9634 31.098L77.877 27.748L80.7266 25.6736C81.4438 25.1533 81.7474 24.2263 81.4727 23.3818C81.1981 22.5373 80.4107 21.9635 79.5211 21.9635H75.9948L74.9045 18.6135C74.3552 16.9244 71.5545 16.9244 71.0051 18.6135L69.9149 21.9635L66.3961 21.9628C65.5065 21.9628 64.7192 22.5365 64.4445 23.3811C64.1699 24.2256 64.469 25.1526 65.1907 25.6729L68.0406 27.748ZM72.9607 25.3578C73.1659 25.5997 73.4238 25.7843 73.7153 25.9071C73.5512 26.1734 73.4566 26.4809 73.4284 26.7929C73.2727 26.7563 73.1171 26.7395 72.9607 26.7395C72.8051 26.7395 72.6494 26.7555 72.4976 26.7929C72.4732 26.4816 72.3748 26.178 72.2107 25.9071C72.4976 25.7843 72.7517 25.5958 72.9607 25.3578Z" fill="#2463EB"/>
<path d="M58.2242 63.7713C61.9184 61.1719 64.3498 56.8957 64.3498 52.0494C64.3498 44.1361 57.9129 37.6992 49.9996 37.6992C42.0863 37.6992 35.6494 44.1361 35.6494 52.0494C35.6494 56.8994 38.0809 61.1758 41.775 63.7713C32.8738 67.1701 27.4492 76.2965 27.4492 88.949C27.4492 90.0812 28.3678 90.999 29.4992 90.999H70.4992C71.6307 90.999 72.5492 90.0804 72.5492 88.949C72.5485 76.2965 67.1248 67.1697 58.2234 63.7713H58.2242ZM39.7496 52.0494C39.7496 46.3953 44.3502 41.7994 49.9996 41.7994C55.649 41.7994 60.2496 46.3953 60.2496 52.0494C60.2496 57.7027 55.649 62.2994 49.9996 62.2994C44.3492 62.2994 39.7496 57.7027 39.7496 52.0494ZM31.6068 86.899C32.189 76.6367 37.2488 66.399 49.9998 66.399C62.7508 66.399 67.8106 76.6369 68.3928 86.899H31.6068Z" fill="#2463EB"/>
<path d="M28.1751 47.8027C27.9004 46.9582 27.1131 46.3844 26.2235 46.3844H22.6971L21.6069 43.0344C21.0576 41.3453 18.2569 41.3453 17.7075 43.0344L16.6172 46.3844H13.0993C12.2097 46.3844 11.4223 46.9582 11.1477 47.8027C10.873 48.6473 11.1721 49.5743 11.8938 50.0945L14.7434 52.1689L13.6532 55.5189C13.3785 56.3635 13.6776 57.2905 14.3993 57.8107C15.1165 58.3311 16.0923 58.3311 16.8064 57.8107L19.6636 55.74L22.5169 57.8061C22.8732 58.0731 23.2959 58.2005 23.7178 58.2005C24.1405 58.2005 24.5662 58.0693 24.9232 57.8068C25.6404 57.2865 25.944 56.3595 25.6694 55.515L24.5791 52.165L27.4288 50.0906C28.1505 49.5741 28.4496 48.6471 28.1749 47.8025L28.1751 47.8027ZM20.1268 51.21C19.9712 51.1733 19.8155 51.1566 19.6592 51.1566C19.5035 51.1566 19.3479 51.1726 19.1961 51.21C19.1716 50.8987 19.0732 50.595 18.9092 50.3242C19.1961 50.2013 19.4547 50.0129 19.6591 49.7749C19.8644 50.0167 20.1222 50.2013 20.4137 50.3242C20.2535 50.595 20.1558 50.8987 20.1268 51.21Z" fill="#2463EB"/>
<path d="M88.8507 46.6465C88.576 45.8019 87.7887 45.2282 86.8991 45.2282H83.3727L82.2825 41.8782C81.7332 40.189 78.9325 40.189 78.3831 41.8782L77.2928 45.2282H73.7712C72.8816 45.2282 72.0942 45.8019 71.8195 46.6465C71.5449 47.4911 71.844 48.418 72.5657 48.9383L75.4153 51.0127L74.3251 54.3627C74.0504 55.2073 74.3495 56.1342 75.0712 56.6545C75.7884 57.1748 76.7642 57.1748 77.4782 56.6545L80.3316 54.5885L83.1849 56.6545C83.5419 56.917 83.9639 57.0482 84.3865 57.0482C84.8092 57.0482 85.2349 56.9169 85.592 56.6545C86.3091 56.1342 86.6128 55.2072 86.3381 54.3627L85.2479 51.0127L88.0975 48.9383C88.8223 48.4134 89.1215 47.491 88.8507 46.6465ZM80.8024 50.0529C80.6468 50.0163 80.4911 50.0003 80.3355 50.0003C80.1799 50.0003 80.0242 50.0163 79.8724 50.0537C79.848 49.7424 79.7496 49.4388 79.5855 49.1679C79.8724 49.0451 80.1311 48.8566 80.3355 48.6186C80.5407 48.8605 80.7986 49.0451 81.0901 49.1679C80.9253 49.4342 80.8268 49.7417 80.8024 50.0529Z" fill="#2463EB"/>
</svg>
