<svg width="59" height="58" viewBox="0 0 59 58" fill="none" xmlns="http://www.w3.org/2000/svg">
<path d="M58.5 14.8834L43.6164 0L37.6864 5.92743L33.4534 1.69447L23.9333 11.2145L33.8191 21.0957L21.5959 33.3188L11.7146 23.4331L2.19449 32.9531L6.42747 37.1861L0.5 43.1161L15.384 58L21.3141 52.0726L25.5471 56.3055L35.0665 46.7849L25.1808 36.9037L37.404 24.6806L47.2852 34.5663L56.8053 25.0462L52.5724 20.8133L58.5 14.8834ZM43.616 7.1852L51.3142 14.8834L48.9792 17.2184L41.281 9.52019L43.616 7.1852ZM15.3826 50.8154L7.6843 43.1172L10.0193 40.7822L17.7176 48.4805L15.3826 50.8154ZM27.8806 46.786L25.5456 49.121L9.37863 32.9541L11.7136 30.6191L18.0018 36.9046L21.5944 40.4972L27.8806 46.786ZM47.2849 27.3819L40.9968 21.0963L37.4041 17.5037L31.1179 11.215L33.4529 8.88L49.6199 25.0469L47.2849 27.3819Z" fill="#2463EB"/>
</svg>
