<svg width="58" height="49" viewBox="0 0 58 49" fill="none" xmlns="http://www.w3.org/2000/svg">
<path fill-rule="evenodd" clip-rule="evenodd" d="M6.83499 15.1383C3.10138 16.7128 0.5 20.3125 0.5 24.4991C0.5 30.127 5.22447 34.7072 11.0542 34.7072L46.9462 34.7087C52.788 34.7087 57.5 30.1369 57.5 24.5001C57.5 20.3125 54.8816 16.7048 51.1423 15.1328C51.1583 14.855 51.1671 14.5753 51.1671 14.2921C51.1671 6.39882 44.55 0 36.3881 0C31.5371 0 27.2322 2.25993 24.5368 5.75174C22.7655 4.69322 20.6771 4.08378 18.443 4.08378C12.0915 4.08378 6.92855 9.01617 6.834 15.139H6.83555L6.83499 15.1383ZM42.7231 38.7913C43.8889 38.7913 44.8353 39.698 44.8353 40.833C44.8353 41.9589 43.8972 42.8741 42.7231 42.8741C41.5577 42.8741 40.6119 41.9674 40.6119 40.833C40.6119 39.705 41.55 38.7913 42.7231 38.7913ZM36.39 44.9157C37.5564 44.9157 38.5012 45.8234 38.5012 46.9584C38.5012 48.0858 37.5637 49 36.39 49C35.2247 49 34.2789 48.0933 34.2789 46.9584C34.2789 45.8309 35.2169 44.9157 36.39 44.9157ZM27.9444 38.7913C29.1108 38.7913 30.0566 39.698 30.0566 40.833C30.0566 41.9589 29.1191 42.8741 27.9444 42.8741C26.7791 42.8741 25.8332 41.9674 25.8332 40.833C25.8332 39.705 26.7708 38.7913 27.9444 38.7913ZM21.6125 44.9157C22.7778 44.9157 23.7231 45.8234 23.7231 46.9584C23.7231 48.0858 22.7856 49 21.6125 49C20.4466 49 19.5013 48.0933 19.5013 46.9584C19.5013 45.8309 20.4378 44.9157 21.6125 44.9157ZM15.278 38.7913C16.4433 38.7913 17.3892 39.698 17.3892 40.833C17.3892 41.9589 16.4511 42.8741 15.278 42.8741C14.1121 42.8741 13.1658 41.9674 13.1658 40.833C13.1658 39.705 14.1038 38.7913 15.278 38.7913Z" fill="#2463EB"/>
</svg>
