<svg width="60" height="60" viewBox="0 0 60 60" fill="none" xmlns="http://www.w3.org/2000/svg">
<g clip-path="url(#clip0_1395_1407)">
<g clip-path="url(#clip1_1395_1407)">
<path d="M29.19 21.1042C31.6932 21.1042 32.6213 22.2847 32.7057 24.0208H35.8135C35.715 21.6319 34.2385 19.4375 31.2994 18.7292V15.6875H27.0807V18.6875C26.3354 18.8542 25.6322 19.1042 24.9994 19.4375L27.0666 21.4792C27.6432 21.2431 28.3463 21.1042 29.19 21.1042ZM19.1072 17.1597L17.3213 18.9236L22.1588 23.7014C22.1588 26.5903 24.3525 28.1597 27.6572 29.1319L32.5932 34.0069C32.115 34.6736 31.1166 35.2708 29.19 35.2708C26.2932 35.2708 25.1541 33.9931 24.9994 32.3542H21.9057C22.0744 35.3958 24.3807 37.1042 27.0807 37.6736V40.6875H31.2994V37.7014C32.6494 37.4514 33.8588 36.9375 34.7447 36.1458L37.8666 39.2292L39.6525 37.4653L19.1072 17.1597Z" fill="#2463EB"/>
</g>
</g>
<defs>
<clipPath id="clip0_1395_1407">
<rect width="60" height="60" fill="white"/>
</clipPath>
<clipPath id="clip1_1395_1407">
<rect width="42" height="40" fill="white" transform="translate(9 16)"/>
</clipPath>
</defs>
</svg>
