<svg width="60" height="60" viewBox="0 0 60 60" fill="none" xmlns="http://www.w3.org/2000/svg">
<path d="M33.6995 26.9732L28.1628 32.5593L26.1495 30.5372C25.7846 30.1707 25.1806 30.1707 24.8156 30.5372C24.4507 30.9037 24.4507 31.5103 24.8156 31.8768L27.4833 34.5561C27.8482 34.9226 28.4522 34.9226 28.8172 34.5561L35.0334 28.3129C35.3983 27.9464 35.3983 27.3398 35.0334 26.9732C34.6684 26.6067 34.0644 26.6067 33.6995 26.9732ZM41.5515 20.5278L37.6759 17.2924C37.1474 16.8501 36.3546 16.9133 35.9016 17.4567C35.4612 17.9875 35.5367 18.7837 36.0652 19.2387L39.9283 22.4741C40.4568 22.9164 41.2495 22.8532 41.7025 22.3098C42.1556 21.779 42.0801 20.9828 41.5515 20.5278ZM20.0591 22.4741L23.9222 19.2387C24.4633 18.7837 24.5388 17.9875 24.0858 17.4567C23.6454 16.9133 22.8526 16.8501 22.3241 17.2924L18.4485 20.5278C17.9199 20.9828 17.8444 21.779 18.2974 22.3098C18.7379 22.8532 19.5306 22.9164 20.0591 22.4741ZM30 19.2513C23.7461 19.2513 18.675 24.3445 18.675 30.6257C18.675 36.9068 23.7461 42 30 42C36.2539 42 41.325 36.9068 41.325 30.6257C41.325 24.3445 36.2539 19.2513 30 19.2513ZM30 39.4724C25.1428 39.4724 21.1916 35.504 21.1916 30.6257C21.1916 25.7473 25.1428 21.779 30 21.779C34.8572 21.779 38.8084 25.7473 38.8084 30.6257C38.8084 35.504 34.8572 39.4724 30 39.4724Z" fill="#2463EB"/>
</svg>
