<svg width="60" height="60" viewBox="0 0 60 60" fill="none" xmlns="http://www.w3.org/2000/svg">
<g clip-path="url(#clip0_1395_1394)">
<path d="M29.359 31.2754C31.5811 31.2754 33.5442 31.9873 35.1392 32.9184C36.6115 33.7946 37.5386 35.7662 37.5386 37.902V40.8594H21.1795V37.9203C21.1795 35.7662 22.1065 33.7946 23.5788 32.9366C25.1738 31.9873 27.1369 31.2754 29.359 31.2754ZM18.453 31.7318C19.9526 31.7318 21.1795 30.0888 21.1795 28.0807C21.1795 26.0727 19.9526 24.4297 18.453 24.4297C16.9534 24.4297 15.7265 26.0727 15.7265 28.0807C15.7265 30.0888 16.9534 31.7318 18.453 31.7318ZM19.9935 33.7398C19.4891 33.6303 18.9847 33.5573 18.453 33.5573C17.1034 33.5573 15.8219 33.9407 14.6632 34.6161C13.6544 35.2003 13 36.5146 13 37.9933V40.8594H19.1346V37.9203C19.1346 36.4051 19.4482 34.9812 19.9935 33.7398ZM40.2651 31.7318C41.7646 31.7318 42.9916 30.0888 42.9916 28.0807C42.9916 26.0727 41.7646 24.4297 40.2651 24.4297C38.7655 24.4297 37.5386 26.0727 37.5386 28.0807C37.5386 30.0888 38.7655 31.7318 40.2651 31.7318ZM45.7181 37.9933C45.7181 36.5146 45.0637 35.2003 44.0549 34.6161C42.8961 33.9407 41.6147 33.5573 40.2651 33.5573C39.7334 33.5573 39.229 33.6303 38.7246 33.7398C39.2699 34.9812 39.5834 36.4051 39.5834 37.9203V40.8594H45.7181V37.9933ZM29.359 18.9531C31.622 18.9531 33.4488 21.3993 33.4488 24.4297C33.4488 27.4601 31.622 29.9062 29.359 29.9062C27.096 29.9062 25.2693 27.4601 25.2693 24.4297C25.2693 21.3993 27.096 18.9531 29.359 18.9531Z" fill="#2463EB"/>
</g>
<defs>
<clipPath id="clip0_1395_1394">
<rect width="60" height="60" fill="white"/>
</clipPath>
</defs>
</svg>
