<svg width="60" height="60" viewBox="0 0 60 60" fill="none" xmlns="http://www.w3.org/2000/svg">
<g clip-path="url(#clip0_1395_1365)">
<path d="M40.253 16.8011L40.1263 16.7207L40.0459 16.8473L39.2074 18.1676L39.1269 18.2942L39.2536 18.3747L39.9403 18.8109L40.067 18.8913L40.1474 18.7646L40.9859 17.4443L41.0664 17.3177L40.9397 17.2373L40.253 16.8011Z" fill="#2463EB" stroke="#0B59FF" stroke-width="0.3"/>
<path d="M23.405 43.4821L23.5554 43.4825V43.475C23.8529 43.4541 24.143 43.3693 24.4056 43.2255C24.7123 43.0576 24.9715 42.8147 25.1591 42.5196L25.1595 42.519L35.2989 26.3998L35.3788 26.2728L35.2517 26.1929L34.5622 25.7597L34.4352 25.6799L34.3554 25.8069L24.2161 41.9261L24.2152 41.9275C24.1491 42.0351 24.0623 42.1285 23.9598 42.2023C23.8573 42.276 23.7412 42.3287 23.6181 42.3571C23.4951 42.3856 23.3676 42.3892 23.2431 42.368L23.2178 42.5158L23.2431 42.368C23.1186 42.3467 22.9996 42.3009 22.893 42.2332C22.7864 42.1655 22.6943 42.0773 22.6221 41.9737C22.5499 41.87 22.4991 41.7531 22.4725 41.6297C22.4459 41.5062 22.4441 41.3787 22.4673 41.2545C22.4904 41.1304 22.5381 41.0121 22.6074 40.9065L22.6074 40.9065L22.6088 40.9043L23.337 39.751L23.4169 39.6243L23.2904 39.5442L22.6029 39.1089L22.4764 39.0289L22.3961 39.1552L21.6638 40.3064L21.6637 40.3066C21.4657 40.6189 21.355 40.9787 21.3432 41.3483C21.3315 41.718 21.4191 42.0841 21.5969 42.4084C21.7747 42.7327 22.0363 43.0034 22.3543 43.1922C22.6723 43.381 23.0351 43.4811 23.405 43.4821Z" fill="#2463EB" stroke="#0B59FF" stroke-width="0.3"/>
<path d="M37.3002 28.7428C37.1606 28.1068 36.8963 27.5048 36.5226 26.9715C36.1488 26.4383 35.673 25.9844 35.1226 25.6362L35.0859 25.6129H35.0839C34.5447 25.2748 33.9448 25.0444 33.3176 24.9346C32.676 24.8223 32.0185 24.8384 31.3832 24.9819C31.2263 25.017 31.0712 25.0596 30.9186 25.1095C31.7888 23.9071 32.9531 22.4966 34.3138 21.3357C35.8042 20.064 37.5144 19.105 39.3201 19.0272C40.0157 20.6908 39.8739 22.647 39.356 24.538C38.8831 26.2646 38.1011 27.9201 37.3827 29.218C37.3628 29.0585 37.3353 28.8999 37.3002 28.7428ZM37.3002 28.7428C37.3002 28.7429 37.3002 28.743 37.3002 28.7431L37.1537 28.7752L37.3001 28.7425C37.3001 28.7426 37.3001 28.7427 37.3002 28.7428ZM39.9761 17.9948L39.9759 17.9947C36.8961 16.0384 33.1653 15.3857 29.6042 16.1801C26.0432 16.9746 22.9435 19.1511 20.9872 22.2308L20.9201 22.3365C20.8969 22.3683 20.8736 22.4006 20.8533 22.4306L20.7675 22.5574L20.8961 22.6406L21.5876 23.0881L21.7147 23.1703L21.7957 23.0425C22.3225 22.2124 23.1473 21.6157 24.1006 21.3753C25.0539 21.1348 26.063 21.2689 26.9204 21.7499C27.7779 22.2309 28.4183 23.0222 28.71 23.9611C29.0012 24.8984 28.9228 25.9115 28.4908 26.7926C28.4272 26.9027 28.3767 26.9937 28.339 27.0623C28.327 27.0841 28.3166 27.1031 28.3076 27.1195C28.2869 27.1573 28.274 27.181 28.2668 27.1929L28.1855 27.3284L28.3251 27.4026L28.6799 27.591L29.0166 27.8054L29.1433 27.8861L29.2238 27.7593C29.4943 27.3332 29.8462 26.9646 30.2592 26.6745C30.6723 26.3844 31.1384 26.1784 31.631 26.0685C32.1236 25.9585 32.6331 25.9466 33.1303 26.0335C33.6275 26.1204 34.1027 26.3044 34.5288 26.575C34.9549 26.8456 35.3235 27.1974 35.6137 27.6104C35.9038 28.0235 36.1097 28.4896 36.2197 28.9822C36.3297 29.4748 36.3415 29.9843 36.2546 30.4815C36.1677 30.9787 35.9837 31.4539 35.7131 31.88L35.6326 32.0068L35.7595 32.0872L36.0983 32.3016L36.4189 32.5421L36.54 32.6329L36.6297 32.5111C36.6327 32.507 36.6365 32.5019 36.6411 32.4957C36.6793 32.4441 36.7712 32.32 36.9018 32.1315C37.516 31.3663 38.3997 30.8649 39.3717 30.7303C40.3455 30.5955 41.3339 30.839 42.1336 31.4108C42.9333 31.9825 43.4834 32.839 43.6709 33.804C43.8583 34.7691 43.6688 35.7692 43.1412 36.5987L43.0606 36.7256L43.1876 36.806L43.8751 37.2412L44.0028 37.3221L44.0826 37.1938C44.1276 37.1215 44.1713 37.0492 44.2136 36.9769C46.162 33.8964 46.8103 30.1693 46.0165 26.6117C45.2225 23.0534 43.0504 19.9548 39.9761 17.9948ZM25.8896 20.2158C25.3017 20.1129 24.7005 20.1177 24.1152 20.2297C25.93 18.5884 28.1856 17.5058 30.6102 17.1197C33.0805 16.7264 35.6086 17.0749 37.876 18.1159C36.1556 18.5409 34.585 19.5683 33.2388 20.7772C31.9113 21.9692 30.7934 23.3454 29.9556 24.517C29.8777 23.8593 29.6685 23.2223 29.3389 22.6445C28.9391 21.9434 28.3741 21.3506 27.693 20.9176C27.1442 20.5667 26.5312 20.3281 25.8896 20.2158ZM42.5509 30.3551L42.5141 30.3317H42.5117C41.8395 29.9136 41.0767 29.6625 40.2871 29.5997C39.6243 29.547 38.9591 29.6283 38.3309 29.8371C39.0348 28.5806 39.805 26.9833 40.3196 25.2743C40.8414 23.5412 41.1038 21.6819 40.758 19.9424C42.6616 21.5539 44.0497 23.6941 44.7431 26.0966C45.424 28.4558 45.4033 30.958 44.69 33.2991C44.5595 32.7918 44.3489 32.3072 44.0651 31.8639C43.6764 31.2567 43.1596 30.7417 42.5509 30.3551Z" fill="#2463EB" stroke="#0B59FF" stroke-width="0.3"/>
<path d="M35.4044 44.4705L35.4048 44.4705C36.7342 44.4667 38.008 43.9368 38.948 42.9968C39.888 42.0568 40.4178 40.783 40.4217 39.4537V39.4532C40.4217 38.4609 40.1274 37.4909 39.5761 36.6658C39.0248 35.8407 38.2412 35.1976 37.3244 34.8179C36.4076 34.4381 35.3988 34.3388 34.4256 34.5323C33.4523 34.7259 32.5583 35.2038 31.8566 35.9055C31.155 36.6071 30.6771 37.5011 30.4835 38.4744C30.2899 39.4477 30.3893 40.4565 30.769 41.3733C31.1488 42.2901 31.7919 43.0736 32.6169 43.625C33.442 44.1763 34.4121 44.4705 35.4044 44.4705ZM33.2356 36.2074C33.8775 35.7785 34.6321 35.5496 35.4041 35.5495C36.4384 35.5532 37.4292 35.9657 38.1606 36.697C38.8919 37.4284 39.3044 38.4192 39.3081 39.4535C39.3081 40.2255 39.0791 40.9801 38.6502 41.622C38.2213 42.264 37.6116 42.7643 36.8983 43.0598C36.185 43.3552 35.4001 43.4326 34.6428 43.2819C33.8856 43.1313 33.19 42.7595 32.6441 42.2136C32.0981 41.6676 31.7263 40.972 31.5757 40.2148C31.4251 39.4576 31.5024 38.6727 31.7979 37.9593C32.0933 37.246 32.5937 36.6364 33.2356 36.2074Z" fill="#2463EB" stroke="#0B59FF" stroke-width="0.3"/>
<path d="M35.644 42.4791H35.794V42.3291V41.7026C36.1431 41.6525 36.4344 41.5208 36.6464 41.3173C36.8604 41.1119 36.9845 40.8418 37.0096 40.5334L37.0225 40.5302V40.4131C37.0225 39.9637 36.8552 39.6655 36.5733 39.4532C36.3061 39.252 35.9401 39.1323 35.56 39.0113C35.2967 38.9245 35.0898 38.8452 34.949 38.7492C34.8151 38.6579 34.7587 38.5647 34.7587 38.4442C34.7587 38.3061 34.8134 38.2077 34.9062 38.1393C35.0038 38.0674 35.1545 38.0211 35.3518 38.0206C35.7032 38.0374 36.0421 38.1567 36.3265 38.364L36.4419 38.4481L36.5316 38.337L36.8469 37.9465L36.9456 37.8242L36.8188 37.7313C36.5167 37.51 36.1726 37.3538 35.8082 37.2718V36.5811V36.4311H35.6582H35.2372H35.0872V36.5811V37.2383C34.7399 37.2795 34.4545 37.4086 34.2482 37.6089C34.0136 37.8367 33.8933 38.1455 33.8933 38.4869C33.8933 38.9141 34.0771 39.1981 34.3548 39.398C34.6201 39.5891 34.9729 39.7043 35.3112 39.8134L35.3112 39.8135L35.3143 39.8144C35.6063 39.9015 35.818 39.9785 35.9576 40.0793C36.0843 40.1708 36.1489 40.2795 36.1489 40.4537C36.1489 40.6022 36.0859 40.7148 35.9771 40.7949C35.8643 40.8779 35.6954 40.9299 35.487 40.9302C35.0676 40.9202 34.668 40.7495 34.3709 40.4533L34.2548 40.3375L34.1498 40.4634L33.8223 40.856L33.7335 40.9624L33.8327 41.0593C34.173 41.392 34.6059 41.6123 35.073 41.6924V42.3291V42.4791H35.223H35.644Z" fill="#2463EB" stroke="#0B59FF" stroke-width="0.3"/>
<path d="M23.4379 34.4252H23.4381C24.5423 34.4241 25.601 33.985 26.3819 33.2041C27.1627 32.4233 27.6019 31.3646 27.603 30.2603V30.2602C27.603 29.4364 27.3587 28.6311 26.901 27.9462C26.4434 27.2613 25.7929 26.7274 25.0318 26.4122C24.2707 26.0969 23.4333 26.0144 22.6253 26.1751C21.8174 26.3359 21.0753 26.7325 20.4928 27.315C19.9103 27.8975 19.5136 28.6397 19.3529 29.4476C19.1922 30.2556 19.2747 31.093 19.5899 31.8541C19.9051 32.6151 20.439 33.2656 21.1239 33.7233C21.8089 34.181 22.6141 34.4252 23.4379 34.4252ZM21.7426 27.723C22.2444 27.3877 22.8344 27.2087 23.4379 27.2087C24.2468 27.2098 25.0224 27.5316 25.5944 28.1037C26.1665 28.6757 26.4884 29.4513 26.4894 30.2604C26.4893 30.8638 26.3104 31.4537 25.9751 31.9555C25.6398 32.4573 25.1632 32.8484 24.6057 33.0794C24.0481 33.3103 23.4345 33.3708 22.8426 33.253C22.2507 33.1353 21.707 32.8446 21.2802 32.4179C20.8534 31.9911 20.5628 31.4474 20.4451 30.8555C20.3273 30.2636 20.3878 29.65 20.6187 29.0924C20.8497 28.5348 21.2408 28.0583 21.7426 27.723Z" fill="#2463EB" stroke="#0B59FF" stroke-width="0.3"/>
<path d="M24.7703 31.0391V30.727L24.7279 30.7609C24.6739 30.5407 24.5541 30.3767 24.3847 30.25C24.164 30.0849 23.8624 29.987 23.5562 29.8876L23.5562 29.8876C23.5561 29.8876 23.5561 29.8876 23.5561 29.8875C23.3429 29.8182 23.179 29.7545 23.069 29.6792C22.9656 29.6083 22.9275 29.5405 22.9275 29.4566C22.9275 29.3572 22.9678 29.2859 23.0382 29.2347C23.113 29.1803 23.2303 29.1434 23.3843 29.1429C23.6624 29.1565 23.9306 29.2511 24.1557 29.4151L24.2707 29.4989L24.3604 29.3885L24.6167 29.0733L24.7162 28.9509L24.589 28.8577C24.3478 28.681 24.074 28.5548 23.7838 28.4863V27.9434V27.7934H23.6338H23.2942H23.1442V27.9434V28.4493C22.8694 28.4867 22.6411 28.5919 22.474 28.7541C22.278 28.9443 22.178 29.2016 22.178 29.4851C22.178 29.841 22.3317 30.0792 22.5629 30.2459C22.7817 30.4037 23.0715 30.4981 23.3437 30.5859L23.3437 30.5859L23.3451 30.5863C23.5835 30.6606 23.7508 30.7217 23.8601 30.7998C23.9117 30.8367 23.9455 30.8743 23.9672 30.9147C23.9886 30.9547 24.0025 31.0055 24.0025 31.0757C24.0025 31.1862 23.9566 31.2689 23.8768 31.3283C23.7933 31.3905 23.6653 31.4316 23.5026 31.4321C23.1729 31.4181 22.861 31.2786 22.6307 31.0422L22.515 30.9234L22.4084 31.0504L22.142 31.3677L22.0529 31.4737L22.1515 31.571C22.4246 31.8403 22.7712 32.021 23.1462 32.0913V32.5828V32.7328H23.2962H23.6379H23.7879V32.5828V32.1055C24.0627 32.0611 24.2943 31.9539 24.4651 31.7893C24.6652 31.5964 24.7703 31.3355 24.7703 31.0391Z" fill="#2463EB" stroke="#0B59FF" stroke-width="0.3"/>
<path d="M16.0388 39.1113L16.0394 39.1113C16.8839 39.1079 17.6928 38.7709 18.29 38.1738C18.8872 37.5766 19.2241 36.7677 19.2275 35.9231V35.9225C19.2275 35.2919 19.0405 34.6754 18.6901 34.151C18.3397 33.6266 17.8417 33.2179 17.259 32.9765C16.6764 32.7352 16.0352 32.672 15.4167 32.7951C14.7981 32.9181 14.2299 33.2218 13.784 33.6678C13.338 34.1137 13.0343 34.6819 12.9113 35.3004C12.7882 35.919 12.8514 36.5602 13.0927 37.1428C13.3341 37.7255 13.7428 38.2235 14.2672 38.5739C14.7916 38.9243 15.4081 39.1113 16.0388 39.1113ZM14.8859 34.1951C15.227 33.9671 15.6281 33.8454 16.0383 33.8453C16.5879 33.8484 17.114 34.0681 17.5026 34.4567C17.8911 34.8453 18.1108 35.3714 18.1139 35.9209C18.1138 36.3312 17.9921 36.7323 17.7642 37.0734C17.5362 37.4147 17.2121 37.6806 16.8329 37.8377C16.4537 37.9948 16.0365 38.0359 15.6339 37.9558C15.2314 37.8757 14.8616 37.6781 14.5714 37.3879C14.2812 37.0977 14.0835 36.7279 14.0035 36.3254C13.9234 35.9228 13.9645 35.5056 14.1216 35.1264C14.2786 34.7472 14.5446 34.4231 14.8859 34.1951Z" fill="#2463EB" stroke="#0B59FF" stroke-width="0.3"/>
<path d="M17.0506 36.4883V36.1262L16.9914 36.1854C16.9426 36.0594 16.8616 35.9595 16.7549 35.8791C16.5873 35.7528 16.3607 35.6795 16.1391 35.6093C15.9828 35.5582 15.8685 35.5134 15.7936 35.4622C15.7255 35.4157 15.7082 35.3774 15.7082 35.333C15.7082 35.2712 15.7314 35.231 15.7705 35.2019C15.8141 35.1695 15.8881 35.1439 15.9941 35.1434C16.1886 35.1532 16.3761 35.2195 16.5336 35.3343L16.6485 35.418L16.7383 35.3077L16.9254 35.0779L17.025 34.9556L16.8978 34.8622C16.726 34.7363 16.532 34.6446 16.3265 34.5918V34.2266V34.0766H16.1765H15.9345H15.7845V34.2266V34.5491C15.5925 34.5808 15.4303 34.6585 15.3087 34.7768C15.1573 34.924 15.0807 35.1228 15.0807 35.3391C15.0807 35.6133 15.1995 35.7992 15.3778 35.928C15.5436 36.0478 15.7618 36.1183 15.9599 36.1817L15.9605 36.1819C16.1353 36.237 16.2507 36.2797 16.3242 36.3323C16.358 36.3563 16.3778 36.3792 16.39 36.402C16.402 36.4243 16.4109 36.4547 16.4109 36.5005C16.4109 36.5685 16.3837 36.6171 16.3355 36.6531C16.2834 36.6919 16.1993 36.7203 16.0872 36.7207C15.861 36.7133 15.6458 36.6212 15.4842 36.4626L15.371 36.3515L15.2664 36.4708L15.063 36.7027L14.9697 36.809L15.0704 36.9083C15.2675 37.1028 15.5155 37.2358 15.7845 37.2929V37.6192V37.7692H15.9345H16.1826H16.3326V37.6192V37.3008C16.5253 37.2643 16.6904 37.1851 16.815 37.0652C16.9698 36.9161 17.0506 36.7148 17.0506 36.4883Z" fill="#2463EB" stroke="#0B59FF" stroke-width="0.3"/>
</g>
<defs>
<clipPath id="clip0_1395_1365">
<rect width="60" height="60" fill="white"/>
</clipPath>
</defs>
</svg>
