<svg width="51" height="50" viewBox="0 0 51 50" fill="none" xmlns="http://www.w3.org/2000/svg">
<path d="M34.418 16.1636C34.4736 16.1904 34.5231 16.2254 34.5705 16.2708C34.5829 16.2831 34.5932 16.2955 34.6035 16.3079C35.1992 16.7799 35.7948 17.3137 36.2277 17.9568C36.7059 18.6679 36.9718 19.4903 36.811 20.4652C36.743 20.8733 36.5884 21.2299 36.3534 21.5453C36.1844 21.77 35.9783 21.9678 35.7351 22.141C35.7227 22.4563 35.7186 22.7655 35.7186 23.0726C35.7206 23.4663 35.733 23.8724 35.7557 24.2887C35.8072 25.2657 35.9536 26.2509 36.0999 27.2279C36.2565 28.2791 36.4132 29.3221 36.4544 30.4083C36.5101 31.7996 36.3452 32.9436 35.8855 33.7516C35.3744 34.6544 34.5437 35.1367 33.3194 35.0934C31.858 35.0666 30.9593 34.2462 30.5533 32.7313C30.1988 31.4059 30.2524 29.5138 30.6543 27.1331C30.6419 25.2472 30.3966 23.8188 29.9102 22.8562C29.5928 22.2275 29.162 21.8112 28.6178 21.6133V33.9618C28.7951 34.0463 28.9559 34.1617 29.0919 34.2998C29.4052 34.6131 29.601 35.048 29.601 35.5262V36.7588C29.601 37.07 29.3475 37.3236 29.0363 37.3236H14.5648C14.2535 37.3236 14 37.07 14 36.7588V35.5262C14 35.048 14.1958 34.6152 14.5091 34.2998C14.606 34.203 14.7152 34.1164 14.8327 34.0442V14.9928C14.8327 14.1684 15.1687 13.4201 15.7108 12.8781C16.2529 12.336 17.0011 12 17.8255 12H25.6126C26.4392 12 27.1915 12.338 27.7357 12.8822C28.2798 13.4263 28.6178 14.1787 28.6178 15.0073V20.4405C29.6196 20.659 30.3843 21.3 30.916 22.3512C31.487 23.4787 31.7714 25.0946 31.7797 27.1867C31.7797 27.2197 31.7776 27.2527 31.7714 27.2836H31.7735C31.3922 29.5241 31.3303 31.272 31.6436 32.4407C31.9054 33.4238 32.4578 33.9556 33.342 33.968H33.3524C34.1067 33.9927 34.6076 33.7165 34.9024 33.195C35.2507 32.5808 35.3723 31.6389 35.3249 30.4516C35.2857 29.4458 35.1311 28.4214 34.9786 27.3908C34.8302 26.3973 34.6818 25.3956 34.6262 24.3444C34.6035 23.9301 34.5911 23.5075 34.5891 23.0706C34.587 22.7243 34.5932 22.3821 34.6076 22.0462C33.5544 21.1228 32.9133 20.1993 32.7155 19.2801C32.5279 18.4082 32.7258 17.5714 33.3338 16.7716C32.87 16.4542 32.398 16.1945 31.9198 15.9863C31.2664 15.7019 30.5945 15.5102 29.9102 15.3989C29.6031 15.3494 29.3949 15.0588 29.4444 14.7517C29.4938 14.4446 29.7845 14.2364 30.0916 14.2858C30.8666 14.4116 31.6272 14.628 32.3712 14.9516C33.0741 15.2608 33.7563 15.6586 34.418 16.1636ZM27.4883 21.1166C27.4636 21.0465 27.4512 20.9723 27.4574 20.894C27.4615 20.8383 27.4718 20.7868 27.4883 20.7373V15.0073C27.4883 14.492 27.276 14.022 26.9359 13.6819C26.5958 13.3418 26.1259 13.1295 25.6106 13.1295H17.8255C17.3144 13.1295 16.8485 13.3398 16.5105 13.6778C16.1725 14.0158 15.9622 14.4817 15.9622 14.9928V33.7948H27.4883V21.1166ZM28.1025 34.9738C28.0861 34.9759 28.0716 34.9759 28.0551 34.9759H15.4964C15.4263 35.0068 15.3624 35.0501 15.3088 35.1037C15.1996 35.2129 15.1316 35.3634 15.1316 35.5304V36.1982H28.4736V35.5304C28.4736 35.3655 28.4055 35.215 28.2963 35.1037C28.2406 35.048 28.1747 35.0048 28.1025 34.9738ZM18.7489 14.8321H24.817C25.1324 14.8321 25.4189 14.9598 25.625 15.168C25.6394 15.1825 25.6539 15.1969 25.6662 15.2134C25.8497 15.4174 25.961 15.6854 25.961 15.976V19.8469C25.961 20.1622 25.8332 20.4487 25.625 20.6549C25.4189 20.861 25.1324 20.9908 24.817 20.9908H18.7489C18.4356 20.9908 18.1512 20.861 17.943 20.6549L17.941 20.6569C17.7348 20.4508 17.605 20.1643 17.605 19.8489V15.976C17.605 15.6606 17.7328 15.3741 17.941 15.168C17.9554 15.1536 17.9698 15.1392 17.9863 15.1268C18.1904 14.9434 18.4583 14.8321 18.7489 14.8321ZM24.817 15.9616H18.7489C18.7469 15.9616 18.7448 15.9616 18.7448 15.9616L18.7407 15.9657C18.7386 15.9678 18.7366 15.9719 18.7366 15.9739V19.8448C18.7366 19.8469 18.7386 19.851 18.7407 19.8531V19.8572C18.7428 19.8593 18.7448 19.8593 18.7489 19.8593H24.817C24.8191 19.8593 24.8232 19.8572 24.8253 19.8551C24.8273 19.8531 24.8294 19.8489 24.8294 19.8469V15.976C24.8294 15.9739 24.8294 15.9719 24.8294 15.9719L24.8253 15.9678C24.8232 15.9636 24.8212 15.9616 24.817 15.9616ZM34.2304 17.4621C33.8367 17.9898 33.7048 18.5174 33.8202 19.0492C33.9583 19.6923 34.4386 20.3766 35.2383 21.1001C35.3187 21.0279 35.3909 20.9517 35.4506 20.8713C35.5764 20.7043 35.6609 20.5085 35.6959 20.2859C35.8031 19.6346 35.6196 19.076 35.2899 18.5854C35.0178 18.1773 34.6385 17.8043 34.2304 17.4621Z" fill="black"/>
</svg>
