<svg width="51" height="50" viewBox="0 0 51 50" fill="none" xmlns="http://www.w3.org/2000/svg">
<path d="M34.9993 17.7273C34.9993 16.221 33.7783 15 32.272 15H28.6357C28.1336 15 27.7266 15.407 27.7266 15.9091C27.7266 16.4112 28.1336 16.8182 28.6357 16.8182H32.272C32.7741 16.8182 33.1811 17.2252 33.1811 17.7273V21.3636C33.1811 21.8657 33.5881 22.2727 34.0902 22.2727C34.5923 22.2727 34.9993 21.8657 34.9993 21.3636V17.7273Z" fill="#131212"/>
<path d="M34.9993 28.6376C34.9993 28.1355 34.5923 27.7285 34.0902 27.7285C33.5881 27.7285 33.1811 28.1355 33.1811 28.6376V32.274C33.1811 32.7761 32.7741 33.1831 32.272 33.1831H28.6357C28.1336 33.1831 27.7266 33.5901 27.7266 34.0922C27.7266 34.5942 28.1336 35.0012 28.6357 35.0012H32.272C33.7783 35.0012 34.9993 33.7802 34.9993 32.274V28.6376Z" fill="#131212"/>
<path d="M21.3636 33.1831H17.7273C17.2252 33.1831 16.8182 32.7761 16.8182 32.274V28.6376C16.8182 28.1355 16.4112 27.7285 15.9091 27.7285C15.407 27.7285 15 28.1355 15 28.6376V32.274C15 33.7802 16.221 35.0012 17.7273 35.0012H21.3636C21.8657 35.0012 22.2727 34.5942 22.2727 34.0922C22.2727 33.5901 21.8657 33.1831 21.3636 33.1831Z" fill="#131212"/>
<path d="M15 21.3636C15 21.8657 15.407 22.2727 15.9091 22.2727C16.4112 22.2727 16.8182 21.8657 16.8182 21.3636V17.7273C16.8182 17.2252 17.2252 16.8182 17.7273 16.8182H21.3636C21.8657 16.8182 22.2727 16.4112 22.2727 15.9091C22.2727 15.407 21.8657 15 21.3636 15H17.7273C16.221 15 15 16.221 15 17.7273V21.3636Z" fill="#131212"/>
<path d="M24.0906 22.2724C24.0906 21.7703 24.4976 21.3633 24.9996 21.3633C25.5017 21.3633 25.9087 21.7703 25.9087 22.2724V24.0906H27.7269C28.229 24.0906 28.636 24.4976 28.636 24.9996C28.636 25.5017 28.229 25.9087 27.7269 25.9087H25.9087V27.7269C25.9087 28.229 25.5017 28.636 24.9996 28.636C24.4976 28.636 24.0906 28.229 24.0906 27.7269V25.9087H22.2724C21.7703 25.9087 21.3633 25.5017 21.3633 24.9996C21.3633 24.4976 21.7703 24.0906 22.2724 24.0906H24.0906V22.2724Z" fill="#131212"/>
</svg>
