<svg width="51" height="50" viewBox="0 0 51 50" fill="none" xmlns="http://www.w3.org/2000/svg">
<path d="M19.5 35C17.0147 35 15 32.9853 15 30.5C15 28.0147 17.0147 26 19.5 26C21.9853 26 24 28.0147 24 30.5C24 32.9853 21.9853 35 19.5 35ZM30.5 35C28.0147 35 26 32.9853 26 30.5C26 28.0147 28.0147 26 30.5 26C32.9853 26 35 28.0147 35 30.5C35 32.9853 32.9853 35 30.5 35ZM19.5 24C17.0147 24 15 21.9853 15 19.5C15 17.0147 17.0147 15 19.5 15C21.9853 15 24 17.0147 24 19.5C24 21.9853 21.9853 24 19.5 24ZM30.5 24C28.0147 24 26 21.9853 26 19.5C26 17.0147 28.0147 15 30.5 15C32.9853 15 35 17.0147 35 19.5C35 21.9853 32.9853 24 30.5 24ZM30.5 22C31.8807 22 33 20.8807 33 19.5C33 18.1193 31.8807 17 30.5 17C29.1193 17 28 18.1193 28 19.5C28 20.8807 29.1193 22 30.5 22ZM19.5 22C20.8807 22 22 20.8807 22 19.5C22 18.1193 20.8807 17 19.5 17C18.1193 17 17 18.1193 17 19.5C17 20.8807 18.1193 22 19.5 22ZM30.5 33C31.8807 33 33 31.8807 33 30.5C33 29.1193 31.8807 28 30.5 28C29.1193 28 28 29.1193 28 30.5C28 31.8807 29.1193 33 30.5 33ZM19.5 33C20.8807 33 22 31.8807 22 30.5C22 29.1193 20.8807 28 19.5 28C18.1193 28 17 29.1193 17 30.5C17 31.8807 18.1193 33 19.5 33Z" fill="#131313"/>
</svg>
