<svg width="51" height="50" viewBox="0 0 51 50" fill="none" xmlns="http://www.w3.org/2000/svg">
<g clip-path="url(#clip0_1182_354)">
<path d="M28.443 21.4355L22.5625 15.5552C22.397 15.3898 22.1727 15.2969 21.9388 15.2969H14.8821C14.3949 15.2969 14 15.6918 14 16.1789V33.8206C14 34.3078 14.3949 34.7027 14.8821 34.7027H27.8194C28.3065 34.7027 28.7015 34.3078 28.7015 33.8206V22.0592C28.7014 21.8253 28.6085 21.6009 28.443 21.4355ZM22.8209 18.3084L25.6898 21.1772H22.8209V18.3084ZM26.9373 32.9386H15.7642V17.061H21.0567V22.0593C21.0567 22.5464 21.4516 22.9414 21.9388 22.9414H26.9372V32.9386H26.9373Z" fill="black"/>
<path d="M24.29 28.8223H18.4094C17.9223 28.8223 17.5273 29.2172 17.5273 29.7044C17.5273 30.1915 17.9223 30.5865 18.4094 30.5865H24.29C24.7771 30.5865 25.1721 30.1915 25.1721 29.7044C25.1721 29.2171 24.7771 28.8223 24.29 28.8223Z" fill="black"/>
<path d="M24.29 25.2949H18.4094C17.9223 25.2949 17.5273 25.6898 17.5273 26.177C17.5273 26.6642 17.9223 27.0591 18.4094 27.0591H24.29C24.7771 27.0591 25.1721 26.6642 25.1721 26.177C25.1721 25.6898 24.7771 25.2949 24.29 25.2949Z" fill="black"/>
<path d="M35.7408 15.5552C35.5754 15.3898 35.3511 15.2969 35.1171 15.2969H31.3469C31.1129 15.2969 30.8886 15.3899 30.7232 15.5552C30.5578 15.7206 30.4648 15.9451 30.4648 16.179L30.465 31.9357C30.465 32.1697 30.5579 32.394 30.7234 32.5594L32.6084 34.4444C32.7807 34.6167 33.0064 34.7029 33.2321 34.7029C33.4578 34.7029 33.6836 34.6167 33.8558 34.4444L35.7408 32.5594C35.9063 32.394 35.9992 32.1696 35.9992 31.9357L35.9993 16.179C35.9992 15.9451 35.9063 15.7206 35.7408 15.5552ZM34.2349 31.5703L33.2319 32.5732L32.229 31.5703L32.229 17.0611H34.235L34.2349 31.5703Z" fill="black"/>
</g>
<defs>
<clipPath id="clip0_1182_354">
<rect width="22" height="22" fill="white" transform="translate(14 14)"/>
</clipPath>
</defs>
</svg>
