<svg width="51" height="50" viewBox="0 0 51 50" fill="none" xmlns="http://www.w3.org/2000/svg">
<path fill-rule="evenodd" clip-rule="evenodd" d="M21.8286 25C22.4858 25.364 23.0941 25.8104 23.6418 26.3582C24.1896 26.9059 24.636 27.5142 25 28.1714C25.364 27.5142 25.8104 26.9059 26.3582 26.3582C26.9059 25.8104 27.5142 25.364 28.1714 25C27.5142 24.636 26.9059 24.1896 26.3582 23.6418C25.8104 23.0941 25.364 22.4858 25 21.8286C24.636 22.4858 24.1896 23.0941 23.6418 23.6418C23.0941 24.1896 22.4858 24.636 21.8286 25ZM25 12C25.8975 12 26.6214 12.7302 26.6429 13.6274C26.8303 21.4188 28.5812 23.1697 36.3726 23.3571C37.2697 23.3786 38 24.1025 38 25C38 25.8975 37.2697 26.6214 36.3726 26.6429C28.5812 26.8303 26.8303 28.5812 26.6429 36.3726C26.6214 37.2697 25.8975 38 25 38C24.1025 38 23.3786 37.2697 23.3571 36.3726C23.1697 28.5812 21.4188 26.8303 13.6274 26.6429C12.7302 26.6214 12 25.8975 12 25C12 24.1025 12.7302 23.3786 13.6274 23.3571C21.4188 23.1697 23.1697 21.4188 23.3571 13.6274C23.3786 12.7302 24.1025 12 25 12Z" fill="black"/>
</svg>
