<svg width="88" height="82" viewBox="0 0 88 82" fill="none" xmlns="http://www.w3.org/2000/svg">
<g clip-path="url(#clip0_1545_334)">
<path d="M62.75 29.75H25.25C24.9185 29.75 24.6005 29.8817 24.3661 30.1161C24.1317 30.3505 24 30.6685 24 31V51C24 51.3315 24.1317 51.6495 24.3661 51.8839C24.6005 52.1183 24.9185 52.25 25.25 52.25H62.75C63.0815 52.25 63.3995 52.1183 63.6339 51.8839C63.8683 51.6495 64 51.3315 64 51V31C64 30.6685 63.8683 30.3505 63.6339 30.1161C63.3995 29.8817 63.0815 29.75 62.75 29.75ZM55.3625 49.75H32.6375C32.377 48.2169 31.6464 46.8028 30.5468 45.7032C29.4472 44.6036 28.0331 43.873 26.5 43.6125V38.3875C28.0331 38.127 29.4472 37.3964 30.5468 36.2968C31.6464 35.1972 32.377 33.7831 32.6375 32.25H55.3625C55.623 33.7831 56.3536 35.1972 57.4532 36.2968C58.5528 37.3964 59.9669 38.127 61.5 38.3875V43.6125C59.9669 43.873 58.5528 44.6036 57.4532 45.7032C56.3536 46.8028 55.623 48.2169 55.3625 49.75ZM61.5 35.825C60.6402 35.6006 59.8557 35.151 59.2274 34.5227C58.599 33.8943 58.1494 33.1098 57.925 32.25H61.5V35.825ZM30.075 32.25C29.8506 33.1098 29.401 33.8943 28.7726 34.5227C28.1443 35.151 27.3598 35.6006 26.5 35.825V32.25H30.075ZM26.5 46.175C27.3598 46.3994 28.1443 46.849 28.7726 47.4774C29.401 48.1057 29.8506 48.8902 30.075 49.75H26.5V46.175ZM57.925 49.75C58.1494 48.8902 58.599 48.1057 59.2274 47.4774C59.8557 46.849 60.6402 46.3994 61.5 46.175V49.75H57.925Z" fill="#2463EB"/>
<path d="M33.3871 21.8876C33.2448 21.8053 33.0876 21.7519 32.9246 21.7304C32.7616 21.709 32.5959 21.7199 32.4371 21.7626C32.1169 21.8457 31.8427 22.0525 31.6746 22.3376L29.1746 26.6251C29.0089 26.9135 28.9645 27.2559 29.0512 27.5771C29.1379 27.8982 29.3487 28.1718 29.6371 28.3376C29.9255 28.5033 30.268 28.5477 30.5892 28.461C30.9103 28.3742 31.1839 28.1635 31.3496 27.8751L33.2246 24.6751L39.5621 28.3376C39.8505 28.5033 40.193 28.5477 40.5142 28.461C40.8353 28.3742 41.1089 28.1635 41.2746 27.8751C41.4404 27.5866 41.4848 27.2442 41.398 26.923C41.3113 26.6019 41.1005 26.3283 40.8121 26.1626L33.3871 21.8876Z" fill="#2463EB"/>
<path d="M54.6133 60.1127C54.8026 60.2251 55.0182 60.2854 55.2383 60.2877C55.3459 60.3059 55.4557 60.3059 55.5633 60.2877C55.8835 60.2045 56.1577 59.9977 56.3258 59.7127L58.8258 55.4252C58.9916 55.1368 59.0359 54.7943 58.9492 54.4732C58.8625 54.152 58.6517 53.8785 58.3633 53.7127C58.0749 53.5469 57.7324 53.5026 57.4113 53.5893C57.0901 53.676 56.8166 53.8868 56.6508 54.1752L54.8008 57.3752L48.4633 53.7127C48.1749 53.5469 47.8324 53.5026 47.5113 53.5893C47.1901 53.676 46.9166 53.8868 46.7508 54.1752C46.585 54.4636 46.5406 54.8061 46.6274 55.1272C46.7141 55.4484 46.9249 55.7219 47.2133 55.8877L54.6133 60.1127Z" fill="#2463EB"/>
<path d="M44 33.5C42.5166 33.5 41.0666 33.9399 39.8332 34.764C38.5999 35.5881 37.6386 36.7594 37.0709 38.1299C36.5032 39.5003 36.3547 41.0083 36.6441 42.4632C36.9335 43.918 37.6478 45.2544 38.6967 46.3033C39.7456 47.3522 41.082 48.0665 42.5368 48.3559C43.9917 48.6453 45.4997 48.4968 46.8701 47.9291C48.2406 47.3614 49.4119 46.4001 50.236 45.1668C51.0601 43.9334 51.5 42.4834 51.5 41C51.5 39.0109 50.7098 37.1032 49.3033 35.6967C47.8968 34.2902 45.9891 33.5 44 33.5ZM44 46C43.0111 46 42.0444 45.7068 41.2222 45.1573C40.3999 44.6079 39.759 43.827 39.3806 42.9134C39.0022 41.9998 38.9031 40.9945 39.0961 40.0245C39.289 39.0546 39.7652 38.1637 40.4645 37.4645C41.1637 36.7652 42.0546 36.289 43.0246 36.0961C43.9945 35.9031 44.9998 36.0022 45.9134 36.3806C46.827 36.759 47.6079 37.3999 48.1573 38.2221C48.7068 39.0444 49 40.0111 49 41C49 42.3261 48.4732 43.5979 47.5355 44.5355C46.5979 45.4732 45.3261 46 44 46Z" fill="#2463EB"/>
</g>
<defs>
<clipPath id="clip0_1545_334">
<rect width="40" height="40" fill="white" transform="translate(24 21)"/>
</clipPath>
</defs>
</svg>
