<svg width="88" height="82" viewBox="0 0 88 82" fill="none" xmlns="http://www.w3.org/2000/svg">
<path d="M46.9512 68.4755V63.6557C51.4727 63.4004 54.9102 62.0598 57.5664 59.6339C60.2227 57.208 61.5508 53.9842 61.5508 50.2496C61.5508 46.2278 60.4766 43.2593 58.1035 41.3761C55.7012 39.2375 52.2637 37.6096 47.2051 36.5563H46.9512V24.1929C50.3984 24.7355 53.3281 25.7888 56.2383 27.9594L60.4961 22.0543C56.2383 19.0858 51.7168 17.4898 46.9414 17.2345V14H42.957V17.2238C38.9727 17.4792 35.5059 18.8198 32.8496 21.2457C30.1934 23.6715 28.8652 26.8954 28.8652 30.6299C28.8652 34.3645 29.9395 37.333 32.3125 39.2162C34.4316 41.0994 38.1523 42.6954 42.9277 43.7807V56.3888C39.1973 55.8461 35.4766 53.9629 31.7754 50.7391L27 56.3888C31.7754 60.6979 37.1074 63.0918 42.9473 63.6344V68.4755H46.9512ZM47.2051 45.1106C49.8613 45.9086 51.4629 46.7066 52.5176 47.5365C53.3086 48.6217 53.8457 49.6751 53.8457 51.303C53.8457 52.9308 53.3086 53.9842 51.9805 55.0694C50.6523 56.1547 49.041 56.6654 47.2051 56.9527V45.1106ZM37.918 33.5771C37.127 32.7792 36.5898 31.4386 36.5898 30.0979C36.5898 28.502 37.127 27.4167 38.1719 26.3315C39.5 25.2462 40.8281 24.7355 42.9473 24.4482V36.003C40.291 35.1731 38.709 34.3751 37.918 33.5771Z" fill="#2463EB"/>
</svg>
