<svg width="88" height="82" viewBox="0 0 88 82" fill="none" xmlns="http://www.w3.org/2000/svg">
<path d="M54.5 26L62 36H67C69.775 36 72 38.225 72 41V48.5H67C67 52.65 63.65 56 59.5 56C55.35 56 52 52.65 52 48.5H37C37 52.65 33.65 56 29.5 56C25.35 56 22 52.65 22 48.5H17V41C17 38.225 19.225 36 22 36L29.5 26H54.5ZM40.75 29.75H31.375L26.65 36H40.75V29.75ZM44.5 29.75V36H57.35L52.625 29.75H44.5ZM29.5 44.75C27.425 44.75 25.75 46.425 25.75 48.5C25.75 50.575 27.425 52.25 29.5 52.25C31.575 52.25 33.25 50.575 33.25 48.5C33.25 46.425 31.575 44.75 29.5 44.75ZM59.5 44.75C57.425 44.75 55.75 46.425 55.75 48.5C55.75 50.575 57.425 52.25 59.5 52.25C61.575 52.25 63.25 50.575 63.25 48.5C63.25 46.425 61.575 44.75 59.5 44.75Z" fill="#2463EB"/>
</svg>
