<svg width="30" height="30" viewBox="0 0 30 30" fill="none" xmlns="http://www.w3.org/2000/svg">
<g clip-path="url(#clip0_763_246)">
<rect width="30" height="30" fill="white"/>
<path d="M30 15C30 23.2843 23.2843 30 15 30C6.71573 30 0 23.2843 0 15C0 6.71573 6.71573 0 15 0C23.2843 0 30 6.71573 30 15Z" fill="white"/>
<path d="M7.01987 8.63417C7.97618 7.70872 9.45413 7.83213 10.2946 8.85013C11.135 9.89902 11.0481 11.4722 10.0918 12.3976C10.9901 13.7857 12.0043 14.958 12.9027 15.8524C13.6561 16.5928 14.5255 17.364 15.5108 18.0735C16.3223 16.9939 17.7711 16.8396 18.7855 17.7341C19.7709 18.5979 19.9157 20.202 19.1043 21.2816C18.4668 22.1145 17.4525 22.3921 16.5543 22.0527C16.5252 22.0218 16.1485 21.8985 16.1485 21.8985C13.6854 20.8496 11.7437 19.1222 10.4108 17.6722L10.6715 17.9498C9.28049 16.531 7.59971 14.4949 6.55635 11.8421C6.55635 11.8421 6.41151 11.472 6.3825 11.4102C6.06369 10.4539 6.26656 9.34334 7.02 8.63382L7.01987 8.63417Z" fill="#2463EB"/>
<path d="M18.6401 13.3538C18.6401 10.9168 16.7854 8.97345 14.4962 8.97345C14.1485 8.97345 13.8876 8.69585 13.8876 8.32559C13.8877 7.95545 14.1485 7.67773 14.4962 7.67773C17.4521 7.67773 19.8574 10.2382 19.8574 13.354C19.8574 13.7241 19.5966 14.0018 19.2488 14.0018C18.901 14.0018 18.6402 13.7241 18.6402 13.354L18.6401 13.3538Z" fill="#2463EB"/>
<path d="M14.4964 10.6084C15.9453 10.6084 17.1045 11.8423 17.1045 13.3848C17.1045 13.7549 16.8437 14.0326 16.4959 14.0326C16.1482 14.0326 15.8873 13.755 15.8873 13.3848C15.8873 12.5827 15.2498 11.904 14.4963 11.904C14.1485 11.904 13.8877 11.6264 13.8877 11.2561C13.8879 10.886 14.1487 10.6084 14.4964 10.6084Z" fill="#2463EB"/>
</g>
<defs>
<clipPath id="clip0_763_246">
<rect width="30" height="30" fill="white"/>
</clipPath>
</defs>
</svg>
