<svg width="34" height="32" viewBox="0 0 34 32" fill="none" xmlns="http://www.w3.org/2000/svg">
<circle cx="17" cy="16" r="14" fill="#2463EB"/>
<path d="M23.8739 13.7167C23.8079 13.6041 23.6995 13.5366 23.5865 13.5366H21.3956V12.4221C21.3956 12.1914 21.2354 12 21.0423 12H13.1034C12.9102 12 12.75 12.1914 12.75 12.4221V19.2439C12.75 19.4747 12.9102 19.666 13.1034 19.666H14.1022C14.286 20.4315 14.8796 21 15.5769 21C16.2742 21 16.8679 20.4371 17.0516 19.666H20.9669C21.1506 20.4315 21.7443 21 22.4416 21C23.1389 21 23.7325 20.4371 23.9163 19.666H24.6466C24.8397 19.666 24.9999 19.4747 24.9999 19.2439V15.7711C24.9999 15.6811 24.9764 15.5966 24.934 15.5291L23.8739 13.7167ZM24.2979 15.8949H22.7148V14.3865H23.4074L24.2979 15.8949ZM13.4567 12.8499H20.6889V18.8274H17.0846C16.948 17.9775 16.326 17.3358 15.5769 17.3358C14.8278 17.3358 14.2011 17.9775 14.0692 18.8274H13.4567V12.8499ZM15.5769 20.1557C15.1199 20.1557 14.7477 19.7111 14.7477 19.1651C14.7477 18.6191 15.1199 18.1745 15.5769 18.1745C16.0339 18.1745 16.4061 18.6191 16.4061 19.1651C16.4061 19.7111 16.0339 20.1557 15.5769 20.1557ZM22.4463 20.1557C21.9893 20.1557 21.6171 19.7111 21.6171 19.1651C21.6171 18.6191 21.9893 18.1745 22.4463 18.1745C22.9033 18.1745 23.2755 18.6191 23.2755 19.1651C23.2755 19.7111 22.9033 20.1557 22.4463 20.1557ZM23.954 18.8274C23.8173 17.9775 23.1954 17.3358 22.4463 17.3358C22.0411 17.3358 21.6689 17.5272 21.3956 17.8368V14.3865H22.0034V16.3171C22.0034 16.5478 22.1636 16.7392 22.3568 16.7392H24.3026V18.8274H23.954Z" fill="white"/>
<path d="M9.35336 12.8501H11.874C12.0672 12.8501 12.2274 12.6588 12.2274 12.428C12.2274 12.1972 12.0672 12.0059 11.874 12.0059H9.35336C9.16019 12.0059 9 12.1972 9 12.428C9 12.6588 9.16019 12.8501 9.35336 12.8501Z" fill="white"/>
<path d="M11.8736 13.543H9.93246C9.73929 13.543 9.5791 13.7343 9.5791 13.9651C9.5791 14.1959 9.73929 14.3872 9.93246 14.3872H11.8736C12.0668 14.3872 12.227 14.1959 12.227 13.9651C12.227 13.7343 12.0715 13.543 11.8736 13.543Z" fill="white"/>
<path d="M11.8747 15.0781H10.6497C10.4566 15.0781 10.2964 15.2695 10.2964 15.5003C10.2964 15.731 10.4566 15.9224 10.6497 15.9224H11.8747C12.0679 15.9224 12.2281 15.731 12.2281 15.5003C12.2281 15.2695 12.0726 15.0781 11.8747 15.0781Z" fill="white"/>
<path d="M11.8736 16.6133H11.4496C11.2564 16.6133 11.0962 16.8047 11.0962 17.0354C11.0962 17.2662 11.2564 17.4576 11.4496 17.4576H11.8736C12.0668 17.4576 12.227 17.2662 12.227 17.0354C12.227 16.8047 12.0715 16.6133 11.8736 16.6133Z" fill="white"/>
</svg>
