<svg width="32" height="30" viewBox="0 0 32 30" fill="none" xmlns="http://www.w3.org/2000/svg">
<ellipse cx="16" cy="15" rx="16" ry="15" fill="#2463EB"/>
<path fill-rule="evenodd" clip-rule="evenodd" d="M20.1989 22.5227C18.6145 22.1506 15.3709 21.1014 12.4304 18.3447C9.48997 15.588 8.37087 12.5472 7.97391 11.0618C7.74578 10.2082 8.15658 9.38452 8.85314 8.91807L10.6792 7.69525C11.7477 6.97977 13.234 7.22256 13.9814 8.23465L15.131 9.79145C15.619 10.4523 15.4507 11.358 14.7531 11.8252L13.8364 12.439C13.9751 12.9366 14.4066 13.9582 15.758 15.2252C17.1094 16.4921 18.1992 16.8966 18.7299 17.0266L19.3846 16.1672C19.8829 15.5132 20.8491 15.3554 21.5539 15.8129L23.2146 16.8907C24.2941 17.5914 24.5531 18.9848 23.7899 19.9865L22.4855 21.6985C21.988 22.3515 21.1094 22.7366 20.1989 22.5227ZM13.5396 17.3049C16.2137 19.8118 19.1646 20.7638 20.58 21.0963C20.7869 21.1448 21.0371 21.0694 21.2091 20.8437L22.5135 19.1317C22.7678 18.7979 22.6815 18.3334 22.3216 18.0998L20.6611 17.022L19.9584 17.9443C19.6713 18.3212 19.1402 18.6168 18.5219 18.4917C17.7501 18.3356 16.3234 17.8349 14.6488 16.265C12.9742 14.6951 12.4402 13.3576 12.2737 12.6341C12.1403 12.0543 12.4556 11.5565 12.8576 11.2873L13.8413 10.6285L12.6917 9.07172C12.4426 8.73435 11.9471 8.65343 11.591 8.89192L9.76489 10.1147C9.52407 10.276 9.44367 10.5105 9.49551 10.7044C9.85016 12.0315 10.8656 14.7979 13.5396 17.3049Z" fill="white"/>
</svg>
