<svg width="30" height="30" viewBox="0 0 30 30" fill="none" xmlns="http://www.w3.org/2000/svg">
<circle cx="15" cy="15" r="15" fill="#2463EB"/>
<g clip-path="url(#clip0_1111_2597)">
<path d="M12.46 9.48047C12.2714 9.48047 12.0416 9.50703 11.8225 9.66109C11.6034 9.81516 11.44 10.1193 11.44 10.4686V12.2005H7.36C7.02133 12.2005 6.68 12.2762 6.41438 12.5086C6.14875 12.741 6 13.1155 6 13.5605V16.3867C6 16.667 6.13414 16.9233 6.32938 17.0773C6.52461 17.2314 6.77164 17.3005 7.02 17.3005H7.73188C7.89391 18.2647 8.73195 19.0005 9.74 19.0005C10.748 19.0005 11.5861 18.2647 11.7481 17.3005H17.2519C17.4139 18.2647 18.252 19.0005 19.26 19.0005C20.268 19.0005 21.1061 18.2647 21.2681 17.3005H21.98C22.5418 17.3005 23 16.8423 23 16.2805V14.2405C23 13.9005 22.7769 13.6667 22.5219 13.4755C22.2669 13.2842 21.9322 13.1222 21.555 12.9655C20.8285 12.6627 19.9227 12.4063 19.0794 12.2323C19.0462 12.2164 19.0103 12.2058 18.9731 12.2005C18.9625 12.1912 18.7819 12.0969 18.5906 11.9242C18.3888 11.7423 18.1563 11.4966 17.9425 11.2548C17.5135 10.7701 17.1456 10.2986 17.1456 10.2986L17.1244 10.2561C16.7844 9.91609 16.3129 9.48047 15.52 9.48047H12.46ZM12.46 10.1605H13.82V12.2005H12.12V10.4686C12.12 10.2853 12.1559 10.2588 12.205 10.2242C12.2541 10.1897 12.3577 10.1605 12.46 10.1605ZM14.5 10.1605H15.52C16.0871 10.1605 16.2956 10.4048 16.6356 10.7448L16.6463 10.7342C16.6715 10.7661 16.9995 11.2123 17.4325 11.7011C17.5852 11.8738 17.7486 12.0398 17.9106 12.2005H14.5V10.1605ZM7.36 12.8805H18.92C19.7341 13.0478 20.6266 13.3108 21.3 13.5923C21.6453 13.7371 21.9269 13.8819 22.1075 14.0173C22.2881 14.1528 22.32 14.2564 22.32 14.2405V16.2805C22.32 16.4385 22.138 16.6205 21.98 16.6205H21.2681C21.1061 15.6562 20.268 14.9205 19.26 14.9205C18.252 14.9205 17.4139 15.6562 17.2519 16.6205H11.7481C11.5861 15.6562 10.748 14.9205 9.74 14.9205C8.73195 14.9205 7.89391 15.6562 7.73188 16.6205H7.02C6.90711 16.6205 6.80883 16.5886 6.75438 16.5461C6.69992 16.5036 6.68 16.4664 6.68 16.3867V13.5605C6.68 13.251 6.75969 13.1076 6.86063 13.0186C6.96156 12.9296 7.12625 12.8805 7.36 12.8805ZM9.74 15.6005C10.4957 15.6005 11.1 16.2048 11.1 16.9605C11.1 17.7162 10.4957 18.3205 9.74 18.3205C8.9843 18.3205 8.38 17.7162 8.38 16.9605C8.38 16.2048 8.9843 15.6005 9.74 15.6005ZM19.26 15.6005C20.0157 15.6005 20.62 16.2048 20.62 16.9605C20.62 17.7162 20.0157 18.3205 19.26 18.3205C18.5043 18.3205 17.9 17.7162 17.9 16.9605C17.9 16.2048 18.5043 15.6005 19.26 15.6005Z" fill="white"/>
</g>
<defs>
<clipPath id="clip0_1111_2597">
<rect width="17" height="17" fill="white" transform="translate(6 2)"/>
</clipPath>
</defs>
</svg>
