<svg width="188" height="183" viewBox="0 0 188 183" fill="none" xmlns="http://www.w3.org/2000/svg">
<g clip-path="url(#clip0_278_464)">
<rect width="188" height="183" fill="white"/>
<path d="M186.217 91C186.217 141.81 145.027 183 94.2168 183C43.4066 183 2.2168 141.81 2.2168 91C2.2168 40.1898 43.4066 -1 94.2168 -1C145.027 -1 186.217 40.1898 186.217 91Z" fill="#2463EB"/>
<path d="M84.0004 104.333C63.3804 83.7098 64.3671 68.1131 73.8004 61.0398L75.8904 59.4831C76.4237 59.0908 77.0303 58.8095 77.6743 58.6561C78.3183 58.5026 78.9866 58.4801 79.6395 58.5899C80.2923 58.6996 80.9165 58.9394 81.475 59.295C82.0334 59.6505 82.5147 60.1146 82.8904 60.6598L88.1537 68.2331C88.8581 69.2467 89.1626 70.4849 89.0087 71.7095C88.8549 72.9341 88.2535 74.0586 87.3204 74.8664L82.2537 79.2464C80.9871 80.3431 80.3671 82.0064 80.9371 83.5831C81.9904 86.5164 84.5471 91.6931 90.5937 97.7364C96.6404 103.783 101.814 106.34 104.747 107.396C106.327 107.963 107.99 107.346 109.087 106.076L113.467 101.016C114.275 100.083 115.399 99.482 116.624 99.3281C117.849 99.1743 119.087 99.4788 120.1 100.183L127.687 105.45C128.232 105.824 128.695 106.304 129.051 106.861C129.406 107.419 129.646 108.042 129.756 108.693C129.866 109.345 129.844 110.012 129.692 110.655C129.539 111.298 129.258 111.904 128.867 112.436L127.3 114.546C120.23 123.973 104.627 124.956 84.0004 104.333Z" fill="#FFFBFB"/>
</g>
<defs>
<clipPath id="clip0_278_464">
<rect width="188" height="183" fill="white"/>
</clipPath>
</defs>
</svg>
