<svg width="188" height="183" viewBox="0 0 188 183" fill="none" xmlns="http://www.w3.org/2000/svg">
<g clip-path="url(#clip0_278_460)">
<rect width="188" height="183" fill="white"/>
<path d="M186.217 91C186.217 141.81 145.027 183 94.2168 183C43.4066 183 2.2168 141.81 2.2168 91C2.2168 40.1898 43.4066 -1 94.2168 -1C145.027 -1 186.217 40.1898 186.217 91Z" fill="#2463EB"/>
<path d="M68.2853 112.075C65.4947 112.075 63.2366 114.333 63.2366 117.123C63.2366 119.914 65.4947 122.172 68.2853 122.172C71.0759 122.172 73.3341 119.914 73.3341 117.123C73.3341 114.332 71.0759 112.075 68.2853 112.075ZM68.2853 119.057C67.2253 119.057 66.3516 118.183 66.3516 117.123C66.3516 116.063 67.2253 115.189 68.2853 115.189C69.3453 115.189 70.2191 116.063 70.2191 117.123C70.2191 118.183 69.3453 119.057 68.2853 119.057ZM100.068 111.86C97.2775 111.86 95.0194 114.118 95.0194 116.908C95.0194 119.699 97.2775 121.957 100.068 121.957C102.859 121.957 105.117 119.699 105.117 116.908C105.117 114.118 102.859 111.86 100.068 111.86ZM100.068 118.842C99.0081 118.842 98.1344 117.968 98.1344 116.908C98.1344 115.848 99.0081 114.974 100.068 114.974C101.128 114.974 102.002 115.848 102.002 116.908C102.002 117.968 101.128 118.842 100.068 118.842ZM54.625 114.255C54.625 115.233 55.3938 116.124 56.3725 116.124H61.1781C61.38 116.124 61.5784 115.871 61.615 115.688C62.1656 112.53 64.9625 110.349 68.2856 110.349C71.6088 110.349 74.3622 112.539 74.9131 115.697C74.95 115.898 75.1744 116.124 75.3762 116.124H82.5844V88.165L54.625 88.2338V114.255ZM109.233 112.411H108.141V107.605C108.141 105.99 106.935 104.766 105.301 104.766H100.058C99.9484 104.766 99.8184 104.707 99.745 104.634L91.5753 96.6816C91.2081 96.3144 90.7616 96.0466 90.2291 96.0284H84.3316V116.124H93.0687C93.2706 116.124 93.4687 115.871 93.5056 115.687C94.0562 112.529 96.745 110.133 100.068 110.133C103.391 110.133 106.145 112.538 106.695 115.696C106.732 115.898 107.065 116.124 107.267 116.124H107.703C108.75 116.124 109.669 115.182 109.669 114.154V112.796C109.67 112.594 109.453 112.411 109.233 112.411ZM95.9084 104.766H86.9528C86.7325 104.766 86.5159 104.549 86.5159 104.329L86.5075 98.6831C86.5075 98.4628 86.7325 98.2131 86.9528 98.2131H89.7925C89.9025 98.2131 90.1253 98.3344 90.2172 98.4078L96.1272 104.111C96.3472 104.386 96.2575 104.766 95.9084 104.766ZM120.303 59.8281C113.083 59.8281 107.231 65.68 107.231 72.9C107.231 74.7116 107.607 76.8909 108.266 78.4625C111.307 85.7153 120.303 107.295 120.303 107.295C120.303 107.295 129.3 85.7384 132.34 78.4856C132.999 76.9141 133.375 74.7116 133.375 72.9C133.375 65.68 127.523 59.8281 120.303 59.8281ZM120.303 78.9353C117.021 78.9353 114.361 76.2747 114.361 72.9928C114.361 69.7109 117.021 67.0503 120.303 67.0503C123.585 67.0503 126.246 69.7109 126.246 72.9928C126.246 76.2747 123.585 78.9353 120.303 78.9353Z" fill="white"/>
</g>
<defs>
<clipPath id="clip0_278_460">
<rect width="188" height="183" fill="white"/>
</clipPath>
</defs>
</svg>
