<svg width="256" height="240" viewBox="0 0 256 240" fill="none" xmlns="http://www.w3.org/2000/svg">
<path d="M220 120C220 170.81 178.81 212 128 212C77.1898 212 36 170.81 36 120C36 69.1898 77.1898 28 128 28C178.81 28 220 69.1898 220 120Z" fill="#2463EB"/>
<path d="M118 133.333C97.3804 112.71 98.3671 97.1131 107.8 90.0398L109.89 88.4831C110.424 88.0908 111.03 87.8095 111.674 87.6561C112.318 87.5026 112.987 87.4801 113.639 87.5899C114.292 87.6996 114.917 87.9394 115.475 88.295C116.033 88.6505 116.515 89.1146 116.89 89.6598L122.154 97.2331C122.858 98.2467 123.163 99.4849 123.009 100.71C122.855 101.934 122.254 103.059 121.32 103.866L116.254 108.246C114.987 109.343 114.367 111.006 114.937 112.583C115.99 115.516 118.547 120.693 124.594 126.736C130.64 132.783 135.814 135.34 138.747 136.396C140.327 136.963 141.99 136.346 143.087 135.076L147.467 130.016C148.275 129.083 149.399 128.482 150.624 128.328C151.849 128.174 153.087 128.479 154.1 129.183L161.687 134.45C162.232 134.824 162.695 135.304 163.051 135.861C163.406 136.419 163.646 137.042 163.756 137.693C163.866 138.345 163.844 139.012 163.692 139.655C163.539 140.298 163.258 140.904 162.867 141.436L161.3 143.546C154.23 152.973 138.627 153.956 118 133.333Z" fill="#FFFBFB"/>
</svg>
