<svg width="256" height="240" viewBox="0 0 256 240" fill="none" xmlns="http://www.w3.org/2000/svg">
<path d="M220 120C220 170.81 178.81 212 128 212C77.1898 212 36 170.81 36 120C36 69.1898 77.1898 28 128 28C178.81 28 220 69.1898 220 120Z" fill="#2463EB"/>
<path d="M102.285 141.075C99.4947 141.075 97.2366 143.333 97.2366 146.123C97.2366 148.914 99.4947 151.172 102.285 151.172C105.076 151.172 107.334 148.914 107.334 146.123C107.334 143.332 105.076 141.075 102.285 141.075ZM102.285 148.057C101.225 148.057 100.352 147.183 100.352 146.123C100.352 145.063 101.225 144.189 102.285 144.189C103.345 144.189 104.219 145.063 104.219 146.123C104.219 147.183 103.345 148.057 102.285 148.057ZM134.068 140.86C131.278 140.86 129.019 143.118 129.019 145.908C129.019 148.699 131.278 150.957 134.068 150.957C136.859 150.957 139.117 148.699 139.117 145.908C139.117 143.118 136.859 140.86 134.068 140.86ZM134.068 147.842C133.008 147.842 132.134 146.968 132.134 145.908C132.134 144.848 133.008 143.974 134.068 143.974C135.128 143.974 136.002 144.848 136.002 145.908C136.002 146.968 135.128 147.842 134.068 147.842ZM88.625 143.255C88.625 144.233 89.3938 145.124 90.3725 145.124H95.1781C95.38 145.124 95.5784 144.871 95.615 144.688C96.1656 141.53 98.9625 139.349 102.286 139.349C105.609 139.349 108.362 141.539 108.913 144.697C108.95 144.898 109.174 145.124 109.376 145.124H116.584V117.165L88.625 117.234V143.255ZM143.233 141.411H142.141V136.605C142.141 134.99 140.935 133.766 139.301 133.766H134.058C133.948 133.766 133.818 133.707 133.745 133.634L125.575 125.682C125.208 125.314 124.762 125.047 124.229 125.028H118.332V145.124H127.069C127.271 145.124 127.469 144.871 127.506 144.687C128.056 141.529 130.745 139.133 134.068 139.133C137.391 139.133 140.145 141.538 140.695 144.696C140.732 144.898 141.065 145.124 141.267 145.124H141.703C142.75 145.124 143.669 144.182 143.669 143.154V141.796C143.67 141.594 143.453 141.411 143.233 141.411ZM129.908 133.766H120.953C120.732 133.766 120.516 133.549 120.516 133.329L120.507 127.683C120.507 127.463 120.732 127.213 120.953 127.213H123.792C123.903 127.213 124.125 127.334 124.217 127.408L130.127 133.111C130.347 133.386 130.257 133.766 129.908 133.766ZM154.303 88.8281C147.083 88.8281 141.231 94.68 141.231 101.9C141.231 103.712 141.607 105.891 142.266 107.462C145.307 114.715 154.303 136.295 154.303 136.295C154.303 136.295 163.3 114.738 166.34 107.486C166.999 105.914 167.375 103.712 167.375 101.9C167.375 94.68 161.523 88.8281 154.303 88.8281ZM154.303 107.935C151.021 107.935 148.361 105.275 148.361 101.993C148.361 98.7109 151.021 96.0503 154.303 96.0503C157.585 96.0503 160.246 98.7109 160.246 101.993C160.246 105.275 157.585 107.935 154.303 107.935Z" fill="white"/>
</svg>
