<svg width="188" height="183" viewBox="0 0 188 183" fill="none" xmlns="http://www.w3.org/2000/svg">
<g clip-path="url(#clip0_278_459)">
<rect width="188" height="183" fill="white"/>
<path d="M186.217 91C186.217 141.81 145.027 183 94.2168 183C43.4066 183 2.2168 141.81 2.2168 91C2.2168 40.1898 43.4066 -1 94.2168 -1C145.027 -1 186.217 40.1898 186.217 91Z" fill="#2463EB"/>
<path d="M91.6297 70H87.4891C85.1703 70 83.3484 71.8219 83.3484 74.1406V89.2953H82.2719H50.1406V100.392C47.8219 100.392 46 102.214 46 104.533V107.348C46 109.667 47.8219 111.489 50.1406 111.489H58.8359C58.8359 111.489 58.8359 111.489 58.8359 111.406C58.8359 105.278 63.8047 100.392 69.85 100.392C75.8953 100.392 80.8641 105.361 80.8641 111.406C80.8641 111.406 80.8641 111.406 80.8641 111.489H82.1891H112.995C112.995 111.489 112.995 111.489 112.995 111.406C112.995 105.278 117.964 100.392 124.009 100.392C130.055 100.392 135.023 105.361 135.023 111.406C135.023 111.406 135.023 111.406 135.023 111.489H138.336C140.655 111.489 142.477 109.667 142.477 107.348V104.533C142.559 102.214 140.737 100.392 138.419 100.392V93.5187C138.419 91.2 136.597 89.3781 134.278 89.3781H116.473L110.345 75.4656C109.103 72.4844 105.542 70.0828 102.478 70.0828H99.8281L91.6297 70ZM88.8969 89.2953V75.4656H102.561C103.223 75.4656 104.88 76.4594 105.377 77.5359L110.511 89.2125H88.9797V89.2953H88.8969Z" fill="white"/>
</g>
<defs>
<clipPath id="clip0_278_459">
<rect width="188" height="183" fill="white"/>
</clipPath>
</defs>
</svg>
