<svg width="256" height="240" viewBox="0 0 256 240" fill="none" xmlns="http://www.w3.org/2000/svg">
<path d="M220 120C220 170.81 178.81 212 128 212C77.1898 212 36 170.81 36 120C36 69.1898 77.1898 28 128 28C178.81 28 220 69.1898 220 120Z" fill="#2463EB"/>
<path d="M102.717 143.688C107.29 143.688 110.998 139.98 110.998 135.406C110.998 130.833 107.29 127.125 102.717 127.125C98.1432 127.125 94.4355 130.833 94.4355 135.406C94.4355 139.98 98.1432 143.688 102.717 143.688Z" fill="white"/>
<path d="M157.041 143.688C161.615 143.688 165.322 139.98 165.322 135.406C165.322 130.833 161.615 127.125 157.041 127.125C152.467 127.125 148.76 130.833 148.76 135.406C148.76 139.98 152.467 143.688 157.041 143.688Z" fill="white"/>
<path d="M124.413 94H120.272C117.954 94 116.132 95.8219 116.132 98.1406V113.295H115.055H82.9238V124.392C80.6051 124.392 78.7832 126.214 78.7832 128.533V131.348C78.7832 133.667 80.6051 135.489 82.9238 135.489H91.6191C91.6191 135.489 91.6191 135.489 91.6191 135.406C91.6191 129.278 96.5879 124.392 102.633 124.392C108.679 124.392 113.647 129.361 113.647 135.406C113.647 135.406 113.647 135.406 113.647 135.489H114.972H145.779C145.779 135.489 145.779 135.489 145.779 135.406C145.779 129.278 150.747 124.392 156.793 124.392C162.838 124.392 167.807 129.361 167.807 135.406C167.807 135.406 167.807 135.406 167.807 135.489H171.119C173.438 135.489 175.26 133.667 175.26 131.348V128.533C175.343 126.214 173.521 124.392 171.202 124.392V117.519C171.202 115.2 169.38 113.378 167.061 113.378H149.257L143.129 99.4656C141.886 96.4844 138.325 94.0828 135.261 94.0828H132.611L124.413 94ZM121.68 113.295V99.4656H135.344C136.007 99.4656 137.663 100.459 138.16 101.536L143.294 113.213H121.763V113.295H121.68Z" fill="white"/>
</svg>
