<svg width="30" height="30" viewBox="0 0 30 30" fill="none" xmlns="http://www.w3.org/2000/svg">
<path d="M8.6125 3.4375H3.4375V8.6125" stroke="white" stroke-width="1.25" stroke-linecap="round" stroke-linejoin="round"/>
<path d="M26.5627 8.6125V3.4375H21.3877" stroke="white" stroke-width="1.25" stroke-linecap="round" stroke-linejoin="round"/>
<path d="M21.3877 26.5627H26.5627V21.3877" stroke="white" stroke-width="1.25" stroke-linecap="round" stroke-linejoin="round"/>
<path d="M6.59375 16.5059V23.3809H13.4687V16.5059H6.59375ZM8.60625 18.5184H11.4813V21.3934H8.60625V18.5184Z" stroke="white" stroke-width="1.25" stroke-linecap="round" stroke-linejoin="round"/>
<path d="M6.59375 6.59375V13.4687H13.4687V6.59375H6.59375ZM8.60625 8.60625H11.4813V11.4813H8.60625V8.60625Z" stroke="white" stroke-width="1.25" stroke-linecap="round" stroke-linejoin="round"/>
<path d="M16.5063 6.59375V13.4687H23.3813V6.59375H16.5063ZM18.5188 8.60625H21.3938V11.4813H18.5188V8.60625Z" stroke="white" stroke-width="1.25" stroke-linecap="round" stroke-linejoin="round"/>
<path d="M19.9561 23.4059C20.8136 23.2442 21.5839 22.778 22.1249 22.0934C22.9847 21.1043 23.4419 19.8284 23.4061 18.5184V16.5059H16.5311V18.5184C16.4965 19.8283 16.9536 21.1036 17.8124 22.0934C18.3472 22.773 19.1077 23.2386 19.9561 23.4059Z" stroke="white" stroke-width="1.25" stroke-linecap="round" stroke-linejoin="round"/>
<path d="M19.9563 21.3936C19.7107 21.2418 19.4841 21.0614 19.2813 20.8561C18.7422 20.2005 18.47 19.3659 18.5188 18.5186H21.3938C21.4408 19.3667 21.1663 20.2014 20.625 20.8561C20.4221 21.0614 20.1955 21.2418 19.95 21.3936H19.9563Z" stroke="white" stroke-width="1.25" stroke-linecap="round" stroke-linejoin="round"/>
<path d="M3.4375 21.3877V26.5627H8.6125" stroke="white" stroke-width="1.25" stroke-linecap="round" stroke-linejoin="round"/>
</svg>
