<svg width="30" height="30" viewBox="0 0 30 30" fill="none" xmlns="http://www.w3.org/2000/svg">
<g clip-path="url(#clip0_24_511)">
<path d="M7.01785 25.522C4.93602 25.522 3.24219 23.8283 3.24219 21.7464C3.24219 19.6645 4.93596 17.9707 7.01785 17.9707C7.47107 17.9707 7.83863 18.3381 7.83863 18.7915C7.83863 19.2448 7.47107 19.6123 7.01785 19.6123C5.84105 19.6123 4.88381 20.5696 4.88381 21.7463C4.88381 22.923 5.84111 23.8804 7.01785 23.8804C7.78297 23.8804 8.49412 23.4667 8.87357 22.8011C9.09805 22.4073 9.59937 22.2701 9.99312 22.4945C10.3869 22.719 10.5243 23.2202 10.2997 23.614C9.62908 24.791 8.37143 25.522 7.01785 25.522Z" fill="white"/>
<path d="M22.9827 25.522C20.9009 25.522 19.207 23.8283 19.207 21.7464C19.207 19.6645 20.9008 17.9707 22.9827 17.9707C23.4359 17.9707 23.8035 18.3381 23.8035 18.7915C23.8035 19.2448 23.4359 19.6123 22.9827 19.6123C21.8059 19.6123 20.8487 20.5696 20.8487 21.7463C20.8487 22.923 21.806 23.8804 22.9827 23.8804C23.7834 23.8804 24.51 23.4382 24.8791 22.7265C25.0878 22.3239 25.5834 22.1671 25.9855 22.3756C26.3879 22.5843 26.545 23.0797 26.3364 23.482C25.684 24.7404 24.399 25.522 22.9827 25.522Z" fill="white"/>
<path d="M0.820781 20.6523C0.367559 20.6523 0 20.2849 0 19.8315V16.1652C0 16.0118 0.0429492 15.8615 0.124102 15.7313L5.04938 7.82434C5.19926 7.58375 5.46264 7.4375 5.74605 7.4375H13.0506C13.5039 7.4375 13.8714 7.80494 13.8714 8.25828V12.3622C13.8714 12.8155 13.5039 13.183 13.0506 13.183C12.5974 13.183 12.2299 12.8155 12.2299 12.3622V9.07906H6.20186L1.64156 16.3999V19.8315C1.64156 20.2849 1.27406 20.6523 0.820781 20.6523Z" fill="white"/>
<path d="M19.5352 19.0112V8.25879H29.1795V17.0524" fill="#CEE8FA"/>
<path d="M19.5356 19.8315C19.0824 19.8315 18.7148 19.464 18.7148 19.0107V8.25828C18.7148 7.80494 19.0824 7.4375 19.5356 7.4375H29.1799C29.6331 7.4375 30.0007 7.80494 30.0007 8.25828V17.0519C30.0007 17.5052 29.6331 17.8726 29.1799 17.8726C28.7267 17.8726 28.3591 17.5052 28.3591 17.0519V9.07906H20.3564V19.0107C20.3565 19.464 19.9889 19.8315 19.5356 19.8315Z" fill="white"/>
<path d="M29.1788 16.165H0.820312V19.8314H29.1788V16.165Z" fill="#CEE8FA"/>
<path d="M29.1792 20.6526H0.820781C0.367559 20.6526 0 20.2852 0 19.8318V16.1655C0 15.7122 0.367559 15.3447 0.820781 15.3447H29.1792C29.6324 15.3447 30 15.7122 30 16.1655V19.8318C30 20.2852 29.6324 20.6526 29.1792 20.6526ZM1.64156 19.0111H28.3584V16.9863H1.64156V19.0111Z" fill="white"/>
<path d="M13.0512 9.07943C12.8411 9.07943 12.6312 8.99933 12.4708 8.83902C12.1503 8.51851 12.1503 7.99878 12.4708 7.67828L14.27 5.8791C14.5907 5.55859 15.1102 5.55847 15.4309 5.8791C15.7514 6.1996 15.7514 6.71933 15.4309 7.03984L13.6317 8.83902C13.4713 8.99927 13.2613 9.07943 13.0512 9.07943Z" fill="white"/>
<path d="M16.0114 8.44073C15.8013 8.44073 15.5914 8.36063 15.4311 8.20032L13.1095 5.87878C12.789 5.55827 12.789 5.03854 13.1095 4.71792C13.4301 4.39741 13.9497 4.39741 14.2704 4.71792L16.5919 7.03946C16.9124 7.35997 16.9124 7.8797 16.5919 8.20032C16.4316 8.36052 16.2215 8.44073 16.0114 8.44073Z" fill="white"/>
</g>
<defs>
<clipPath id="clip0_24_511">
<rect width="30" height="30" fill="white"/>
</clipPath>
</defs>
</svg>
