<svg width="30" height="30" viewBox="0 0 30 30" fill="none" xmlns="http://www.w3.org/2000/svg">
<path d="M19.9409 9.52512L16.5209 6.10812C16.4484 6.04013 16.3532 6.00162 16.2539 6.00012C16.2044 5.99886 16.1552 6.00773 16.1093 6.02617C16.0634 6.04461 16.0218 6.07224 15.987 6.10735C15.9521 6.14247 15.9248 6.18434 15.9068 6.23038C15.8887 6.27643 15.8802 6.32568 15.8819 6.37512V9.09912C15.8819 9.36805 15.9887 9.62596 16.1789 9.81612C16.369 10.0063 16.6269 10.1131 16.8959 10.1131H19.6199C19.6695 10.1144 19.7188 10.1055 19.7648 10.0871C19.8109 10.0687 19.8527 10.0411 19.8878 10.006C19.9229 9.97096 19.9504 9.92913 19.9688 9.88307C19.9873 9.83702 19.9961 9.7877 19.9949 9.73812C20.0459 9.68412 20.0459 9.63312 19.9409 9.52512ZM20.0459 12.2491C20.0459 12.178 20.0317 12.1075 20.0041 12.042C19.9765 11.9764 19.9361 11.917 19.8852 11.8672C19.8344 11.8175 19.7741 11.7784 19.7079 11.7523C19.6417 11.7261 19.571 11.7135 19.4999 11.7151H15.8819C15.471 11.7151 15.077 11.5521 14.7862 11.2619C14.4954 10.9717 14.3317 10.5779 14.3309 10.1671V6.53412C14.3309 6.39301 14.275 6.25764 14.1755 6.15758C14.076 6.05752 13.941 6.00091 13.7999 6.00012H8.61587C8.20556 6.00091 7.81228 6.16426 7.52215 6.45439C7.23201 6.74453 7.06866 7.13781 7.06787 7.54812V19.9951C7.06866 20.4054 7.23201 20.7987 7.52215 21.0888C7.81228 21.379 8.20556 21.5423 8.61587 21.5431H13.9049C14.3309 21.5431 14.4389 21.2761 14.3849 20.7961C14.3309 20.3161 14.2259 18.4441 15.5069 16.9501C16.7879 15.4561 18.9269 15.3481 19.2449 15.3481C19.5629 15.3481 20.0999 15.3481 20.0459 14.8651V12.2491ZM8.88287 9.24912L10.1669 9.09012C10.1812 9.09012 10.1949 9.08443 10.2051 9.0743C10.2152 9.06417 10.2209 9.05044 10.2209 9.03612L10.8209 7.86012C10.8509 7.83415 10.8892 7.81986 10.9289 7.81986C10.9685 7.81986 11.0069 7.83415 11.0369 7.86012L11.6219 9.03612L11.6759 9.09012L12.9599 9.24912C12.9755 9.25398 12.9897 9.26254 13.0014 9.27407C13.013 9.2856 13.0217 9.29976 13.0267 9.31536C13.0317 9.33096 13.0329 9.34753 13.0301 9.36367C13.0274 9.37982 13.0208 9.39506 13.0109 9.40812L12.0509 10.3711V10.5001L12.2639 11.7811C12.2639 11.8351 12.2099 11.9401 12.1049 11.8861L10.9829 11.3011H10.8599L9.73787 11.8861C9.68387 11.9401 9.57887 11.8861 9.57887 11.7811L9.73787 10.5001V10.3801L8.77787 9.48012C8.78979 9.39725 8.82638 9.3199 8.88287 9.25812V9.24912ZM13.5839 17.9491C13.5839 18.0907 13.5276 18.2266 13.4275 18.3267C13.3273 18.4269 13.1915 18.4831 13.0499 18.4831H9.68387C9.61374 18.4831 9.54431 18.4693 9.47952 18.4425C9.41473 18.4156 9.35586 18.3763 9.30628 18.3267C9.25669 18.2771 9.21736 18.2183 9.19052 18.1535C9.16368 18.0887 9.14987 18.0192 9.14987 17.9491V17.4301C9.15066 17.2887 9.20717 17.1534 9.30715 17.0534C9.40712 16.9534 9.54249 16.8969 9.68387 16.8961H13.0499C13.1915 16.8961 13.3273 16.9524 13.4275 17.0525C13.5276 17.1527 13.5839 17.2885 13.5839 17.4301V17.9491ZM16.4159 14.7991C16.4159 14.9407 16.3596 15.0766 16.2595 15.1767C16.1593 15.2769 16.0235 15.3331 15.8819 15.3331H9.68387C9.61374 15.3331 9.54431 15.3193 9.47952 15.2925C9.41473 15.2656 9.35586 15.2263 9.30628 15.1767C9.25669 15.1271 9.21736 15.0683 9.19052 15.0035C9.16368 14.9387 9.14987 14.8692 9.14987 14.7991V14.2801C9.15066 14.1387 9.20717 14.0034 9.30715 13.9034C9.40712 13.8034 9.54249 13.7469 9.68387 13.7461H15.9359C16.006 13.7461 16.0754 13.7599 16.1402 13.7868C16.205 13.8136 16.2639 13.8529 16.3135 13.9025C16.3631 13.9521 16.4024 14.011 16.4292 14.0758C16.4561 14.1406 16.4699 14.21 16.4699 14.2801V14.8141L16.4159 14.7991Z" fill="white"/>
<path d="M19.245 19.1396C19.0974 19.1402 18.9532 19.1846 18.8308 19.267C18.7083 19.3494 18.6131 19.4663 18.557 19.6029C18.5009 19.7394 18.4865 19.8895 18.5157 20.0342C18.5449 20.1789 18.6162 20.3117 18.7208 20.4159C18.8254 20.5201 18.9585 20.5909 19.1033 20.6195C19.2482 20.6481 19.3982 20.6331 19.5345 20.5765C19.6709 20.5199 19.7873 20.4241 19.8693 20.3013C19.9512 20.1786 19.995 20.0343 19.995 19.8866C19.9816 19.6924 19.8982 19.5097 19.7603 19.3723C19.6223 19.2349 19.4392 19.1523 19.245 19.1396Z" fill="white"/>
<path d="M19.2451 16.6289C18.5159 16.6289 17.803 16.8451 17.1967 17.2503C16.5904 17.6554 16.1178 18.2312 15.8388 18.905C15.5597 19.5787 15.4867 20.32 15.629 21.0352C15.7712 21.7504 16.1224 22.4074 16.638 22.923C17.1536 23.4386 17.8106 23.7898 18.5258 23.9321C19.241 24.0743 19.9823 24.0013 20.6561 23.7222C21.3298 23.4432 21.9056 22.9706 22.3107 22.3643C22.7159 21.758 22.9321 21.0451 22.9321 20.3159C22.9305 19.3385 22.5416 18.4017 21.8505 17.7106C21.1594 17.0195 20.2225 16.6305 19.2451 16.6289ZM19.3531 22.4999C19.3239 22.5263 19.2859 22.5408 19.2466 22.5408C19.2073 22.5408 19.1693 22.5263 19.1401 22.4999C18.7651 22.1819 17.4841 21.1139 17.4841 19.8839C17.5029 19.429 17.6968 18.9991 18.0253 18.6838C18.3537 18.3686 18.7914 18.1926 19.2466 18.1926C19.7019 18.1926 20.1395 18.3686 20.468 18.6838C20.7964 18.9991 20.9903 19.429 21.0091 19.8839C20.9551 21.1169 19.7281 22.1999 19.3531 22.4999Z" fill="white"/>
</svg>
