<svg width="29" height="30" viewBox="0 0 29 30" fill="none" xmlns="http://www.w3.org/2000/svg">
<path d="M14.5328 1.6582C9.88828 1.6582 6.12451 5.49609 6.12451 10.2305C6.12451 11.7012 6.48701 13.084 7.12705 14.291C8.19473 16.3125 11.8452 22.0869 13.5926 24.8262C14.4365 25.6436 15.2635 25.0137 15.4759 24.8262C17.2119 22.0928 20.8369 16.3418 21.9131 14.3496C22.5729 13.1279 22.9468 11.7217 22.9468 10.2305C22.9411 5.49609 19.1773 1.6582 14.5328 1.6582ZM20.599 13.7754C19.5767 15.5625 15.9687 21.5186 14.8585 23.3496C14.6263 23.4346 14.4082 23.4229 14.2071 23.3496C13.1055 21.5244 9.52012 15.5889 8.49209 13.8223C7.87754 12.7646 7.52354 11.5313 7.52354 10.2158C7.52354 6.29004 10.6614 3.10547 14.53 3.10547C18.3985 3.10547 21.5364 6.28711 21.5364 10.2158C21.5393 11.5137 21.1966 12.7295 20.599 13.7754Z" fill="white"/>
<path d="M14.5338 13.9951C12.5287 13.9951 10.8975 12.3076 10.8975 10.2334C10.8975 8.15918 12.5287 6.47168 14.5338 6.47168C16.5389 6.47168 18.1701 8.15918 18.1701 10.2334C18.1701 12.3076 16.5389 13.9951 14.5338 13.9951ZM14.5338 7.88086C13.2792 7.88086 12.2597 8.93555 12.2597 10.2334C12.2597 11.5312 13.2792 12.5859 14.5338 12.5859C15.7884 12.5859 16.8079 11.5312 16.8079 10.2334C16.8079 8.93555 15.7884 7.88086 14.5338 7.88086ZM14.497 28.4062C9.86943 28.4062 6.38037 26.6602 6.38037 24.3428C6.38037 22.9922 7.58115 21.7881 9.67686 21.041C10.0025 20.9238 10.3594 21.1025 10.4698 21.4395C10.5831 21.7764 10.4104 22.1455 10.0847 22.2598C8.56953 22.8018 7.6293 23.5986 7.6293 24.3428C7.6293 25.6523 10.45 27.1143 14.497 27.1143C18.5439 27.1143 21.3646 25.6523 21.3646 24.3428C21.3646 23.5986 20.4216 22.8018 18.9064 22.2598C18.5808 22.1426 18.408 21.7764 18.5213 21.4395C18.6346 21.1025 18.9886 20.9238 19.3143 21.041C21.41 21.7881 22.6136 22.9951 22.6136 24.3457C22.6136 26.6572 19.1245 28.4062 14.497 28.4062Z" fill="white"/>
</svg>
